<svg width="305" height="83" viewBox="0 0 305 83" fill="none" xmlns="http://www.w3.org/2000/svg">
<g filter="url(#filter0_d_2_274)">
<path d="M31.3077 28.8599C30.4077 28.5599 29.5077 28.1599 28.7077 27.5599C27.9077 26.9599 27.4077 26.1599 27.1077 25.1599C26.6077 22.8599 27.6077 20.3599 30.1077 17.6599C32.6077 14.9599 35.7077 12.4599 39.6077 10.0599C43.5077 7.65991 47.3077 5.65991 51.0077 4.15991C54.7077 2.55991 57.7077 1.75991 59.8077 1.65991C63.1077 1.65991 65.3077 2.45991 66.5077 4.15991C67.7077 5.85991 68.3077 7.95991 68.1077 10.4599C68.0077 12.9599 67.5077 15.5599 66.7077 18.1599C65.9077 20.7599 65.0077 22.9599 64.2077 24.7599C63.9077 25.2599 64.0077 25.5599 64.5077 25.5599C65.0077 25.6599 65.6077 25.5599 66.4077 25.4599C66.6077 25.4599 66.8077 25.3599 67.0077 25.3599C67.4077 25.3599 67.7077 25.4599 67.9077 25.7599C68.1077 25.9599 68.2077 26.2599 68.1077 26.5599C68.0077 26.8599 67.7077 26.9599 67.2077 27.0599C66.7077 27.1599 66.2077 27.1599 65.7077 27.2599C65.1077 27.3599 64.4077 27.4599 63.8077 27.4599C63.3077 27.5599 62.9077 27.5599 62.7077 27.7599C62.5077 27.8599 62.3077 28.1599 62.2077 28.5599C62.1077 28.7599 62.0077 28.8599 61.9077 29.0599C58.9077 34.3599 55.2077 39.6599 50.7077 44.7599C46.2077 49.8599 41.1077 54.2599 35.5077 57.9599C29.9077 61.5599 23.9077 63.8599 17.7077 64.7599C16.4077 64.9599 14.8077 65.0599 13.0077 65.0599C11.2077 65.0599 9.60767 64.7599 8.00767 64.2599C6.40767 63.7599 5.20767 62.7599 4.50767 61.3599C3.50767 59.0599 4.00767 56.5599 5.80767 53.8599C7.60767 51.2599 10.1077 48.6599 13.3077 46.2599C16.5077 43.8599 19.6077 41.6599 22.8077 39.8599C26.0077 38.0599 28.3077 36.7599 30.0077 35.9599C39.5077 31.4599 49.5077 28.2599 59.9077 26.3599C60.1077 26.3599 60.3077 26.2599 60.5077 26.2599C60.8077 26.1599 61.0077 26.1599 61.2077 26.0599C61.4077 25.9599 61.5077 25.8599 61.6077 25.7599C61.7077 25.5599 61.9077 25.2599 62.0077 24.8599C63.3077 22.1599 64.3077 19.3599 65.2077 16.4599C65.7077 14.6599 66.1077 12.7599 66.2077 10.7599C66.4077 8.75991 66.0077 7.15991 65.1077 5.75991C64.2077 4.35991 62.5077 3.65991 59.9077 3.65991C58.3077 3.75991 56.2077 4.35991 53.3077 5.45991C50.5077 6.55991 47.5077 7.95991 44.3077 9.75991C41.1077 11.4599 38.2077 13.3599 35.6077 15.3599C33.0077 17.3599 31.1077 19.2599 29.9077 21.0599C28.7077 22.8599 28.7077 24.4599 29.9077 25.7599C30.1077 25.8599 30.2077 25.9599 30.3077 25.9599C30.4077 25.9599 30.5077 25.9599 30.6077 25.9599C30.7077 25.9599 30.7077 25.8599 30.8077 25.8599C30.9077 25.7599 31.0077 25.7599 31.1077 25.6599C31.2077 25.6599 31.3077 25.6599 31.5077 25.7599C31.7077 25.8599 31.9077 26.0599 32.1077 26.2599C32.8077 26.9599 33.1077 27.6599 33.0077 28.2599C32.8077 28.8599 32.2077 29.0599 31.3077 28.8599ZM59.7077 28.9599C59.8077 28.7599 59.9077 28.6599 59.9077 28.5599C60.1077 28.2599 60.2077 28.0599 60.1077 28.0599C60.0077 28.0599 59.7077 28.0599 59.2077 28.1599C49.2077 30.0599 39.6077 33.2599 30.4077 37.6599C29.1077 38.2599 27.0077 39.4599 24.1077 41.2599C21.2077 42.9599 18.3077 44.9599 15.2077 47.2599C12.1077 49.5599 9.70767 51.8599 7.80767 54.2599C5.90767 56.5599 5.40767 58.6599 6.10767 60.5599C6.60767 61.5599 7.60767 62.2599 9.00767 62.5599C10.4077 62.8599 11.8077 63.0599 13.4077 62.9599C14.9077 62.8599 16.1077 62.8599 17.0077 62.6599C22.9077 61.8599 28.6077 59.6599 34.0077 56.1599C39.4077 52.6599 44.3077 48.5599 48.6077 43.6599C53.1077 38.9599 56.7077 34.0599 59.7077 28.9599Z" fill="#205859"/>
<path d="M74.4077 33.1599C75.8077 33.4599 76.4077 34.0599 76.1077 34.9599C75.8077 35.8599 75.1077 36.8599 73.9077 37.8599C72.7077 38.8599 71.5077 39.5599 70.2077 40.0599C68.9077 40.5599 68.0077 40.5599 67.4077 39.9599C67.0077 40.4599 66.5077 41.1599 66.0077 41.9599C65.5077 42.7599 65.2077 43.5599 65.1077 44.1599C65.1077 45.1599 65.8077 45.5599 67.1077 45.4599C68.4077 45.3599 70.0077 44.9599 71.8077 44.1599C73.6077 43.4599 75.3077 42.7599 76.8077 41.9599C78.3077 41.1599 79.3077 40.6599 79.7077 40.4599C80.0077 40.2599 80.3077 40.1599 80.6077 40.1599C80.9077 40.1599 81.0077 40.3599 80.9077 40.5599C80.9077 40.8599 80.5077 41.1599 79.9077 41.6599C79.1077 42.1599 77.8077 42.9599 76.0077 43.9599C74.2077 44.9599 72.3077 45.7599 70.2077 46.4599C68.2077 47.1599 66.4077 47.4599 65.0077 47.1599C63.6077 46.8599 62.9077 45.9599 63.0077 44.0599C63.1077 42.8599 63.8077 41.3599 65.1077 39.5599C66.4077 37.8599 67.9077 36.2599 69.6077 34.9599C71.3077 33.6599 72.9077 33.0599 74.4077 33.1599ZM73.6077 35.2599C73.4077 35.3599 73.0077 35.5599 72.4077 35.8599C71.8077 36.1599 71.2077 36.5599 70.6077 37.0599C70.0077 37.4599 69.4077 37.8599 69.0077 38.2599C68.5077 38.6599 68.3077 38.9599 68.2077 39.0599C68.1077 39.2599 68.4077 39.2599 68.9077 39.0599C69.6077 38.7599 70.5077 38.2599 71.6077 37.5599C72.7077 36.8599 73.5077 36.2599 74.0077 35.6599C74.3077 35.3599 74.4077 35.1599 74.3077 35.1599C74.4077 35.0599 74.1077 35.0599 73.6077 35.2599Z" fill="#205859"/>
<path d="M76.9076 45.6597C77.4076 44.4597 78.2076 42.8597 79.2076 41.1597C80.2076 39.4597 81.2076 37.6597 82.2076 36.0597C82.7076 35.1597 83.2076 34.4597 83.6076 33.7597C83.4076 33.5597 83.4076 33.3597 83.4076 33.1597C83.4076 32.9597 83.5076 32.7597 83.6076 32.5597C84.3076 31.8597 84.7076 31.4597 85.1076 31.3597H85.2076C85.4076 31.2597 85.6076 31.2597 85.8076 31.3597C86.2076 31.4597 86.4076 31.7597 86.5076 32.0597V32.1597V32.2597C86.5076 32.4597 86.4076 32.7597 86.3076 32.9597C85.4076 34.4597 84.3076 36.2597 83.1076 38.1597C81.9076 40.0597 80.9076 41.8597 80.0076 43.4597C80.6076 42.8597 81.6076 42.0597 83.0076 40.9597C84.4076 39.8597 85.7076 38.8597 87.1076 37.8597C88.5076 36.8597 89.4076 36.3597 90.0076 36.3597C90.9076 36.3597 91.4076 36.7597 91.6076 37.4597C91.7076 38.1597 91.7076 38.9597 91.6076 39.7597C91.5076 40.4597 91.5076 40.9597 91.6076 41.4597C91.7076 41.9597 91.9076 42.1597 92.4076 42.1597C92.9076 42.1597 93.7076 41.7597 94.8076 41.0597C95.1076 40.8597 95.4076 40.7597 95.5076 40.8597C95.6076 40.9597 95.7076 41.1597 95.6076 41.3597C95.5076 41.5597 95.4076 41.7597 95.2076 41.9597C92.9076 43.4597 91.4076 43.6597 90.7076 42.7597C90.0076 41.8597 89.8076 40.2597 90.1076 38.1597C89.6076 38.2597 88.8076 38.6597 87.7076 39.5597C86.6076 40.4597 85.5076 41.3597 84.2076 42.5597C83.1076 43.5597 82.1076 44.4597 81.1076 45.2597C80.1076 46.0597 79.3076 46.6597 78.6076 47.0597C78.1076 47.2597 77.7076 47.2597 77.3076 47.0597C76.9076 46.8597 76.7076 46.2597 76.9076 45.6597Z" fill="#205859"/>
<path d="M92.0077 45.6599C92.5077 44.4599 93.3078 42.8599 94.3078 41.1599C95.3078 39.4599 96.3078 37.6599 97.3078 36.0599C97.8078 35.1599 98.3077 34.4599 98.7077 33.7599C98.5077 33.5599 98.5077 33.3599 98.5077 33.1599C98.5077 32.9599 98.6077 32.7599 98.7077 32.5599C99.4077 31.8599 99.8077 31.4599 100.208 31.3599H100.308C100.508 31.2599 100.708 31.2599 100.908 31.3599C101.308 31.4599 101.508 31.7599 101.608 32.0599V32.1599V32.2599C101.608 32.4599 101.508 32.7599 101.408 32.9599C100.508 34.4599 99.4077 36.2599 98.2077 38.1599C97.0077 40.0599 96.0077 41.8599 95.1077 43.4599C95.7077 42.8599 96.7077 42.0599 98.1077 40.9599C99.5077 39.8599 100.808 38.8599 102.208 37.8599C103.608 36.8599 104.508 36.3599 105.108 36.3599C106.008 36.3599 106.508 36.7599 106.708 37.4599C106.808 38.1599 106.808 38.9599 106.708 39.7599C106.608 40.4599 106.608 40.9599 106.708 41.4599C106.808 41.9599 107.008 42.1599 107.508 42.1599C108.008 42.1599 108.808 41.7599 109.908 41.0599C110.208 40.8599 110.508 40.7599 110.608 40.8599C110.708 40.9599 110.808 41.1599 110.708 41.3599C110.608 41.5599 110.508 41.7599 110.308 41.9599C108.008 43.4599 106.508 43.6599 105.808 42.7599C105.108 41.8599 104.908 40.2599 105.208 38.1599C104.708 38.2599 103.908 38.6599 102.808 39.5599C101.708 40.4599 100.608 41.3599 99.3078 42.5599C98.2078 43.5599 97.2077 44.4599 96.2077 45.2599C95.2077 46.0599 94.4077 46.6599 93.7077 47.0599C93.2077 47.2599 92.8077 47.2599 92.4077 47.0599C92.0077 46.8599 91.9077 46.2599 92.0077 45.6599Z" fill="#205859"/>
<path d="M116.808 29.6599C117.408 29.2599 118.008 29.3599 118.408 29.7599C118.808 30.1599 119.108 30.6599 119.008 31.2599C119.008 31.8599 118.508 32.2599 117.808 32.5599C116.908 32.8599 116.008 33.7599 115.008 35.2599C114.008 36.7599 113.108 38.3599 112.408 40.0599C111.708 41.7599 111.208 43.1599 111.108 44.0599C111.008 45.9599 111.308 46.9599 112.208 46.8599C113.008 46.7599 114.508 45.9599 116.508 44.4599C118.508 42.8599 120.708 41.0599 123.208 38.9599C125.608 36.8599 127.908 34.9599 130.008 33.2599C132.108 31.5599 133.708 30.6599 134.808 30.3599C136.208 30.5599 136.908 30.9599 136.908 31.6599C136.808 32.3599 136.608 33.1599 136.008 34.1599C135.908 34.2599 135.808 34.4599 135.808 34.5599C134.808 36.5599 133.608 38.4599 132.308 40.2599C131.808 41.0599 131.208 41.8599 130.708 42.6599C130.108 43.6599 129.408 44.6599 128.808 45.7599C128.408 46.4599 127.908 47.2599 127.508 47.9599C127.408 48.0599 127.308 48.2599 127.308 48.3599C127.108 48.6599 126.908 48.9599 126.708 49.2599C126.508 49.5599 126.508 49.8599 126.608 50.1599C126.708 50.5599 126.608 50.8599 126.308 51.1599C125.608 51.6599 125.208 52.0599 124.808 52.4599C124.508 52.8599 124.208 53.3599 124.008 53.8599C123.808 54.2599 123.508 54.7599 123.208 55.3599C122.908 55.8599 122.508 56.5599 121.908 57.4599C120.808 59.4599 119.308 61.8599 117.608 64.5599C115.908 67.2599 114.208 69.7599 112.408 71.7599C110.708 73.7599 109.308 74.7599 108.208 74.5599C107.708 74.3599 107.408 74.0599 107.308 73.5599C107.308 73.0599 107.308 72.4599 107.508 71.8599C107.708 71.2599 107.908 70.7599 108.008 70.3599C108.008 70.2599 108.108 70.1599 108.108 70.1599C109.508 66.7599 111.508 63.5599 114.108 60.3599C116.708 57.1599 119.308 54.4599 122.108 52.1599C122.708 51.6599 123.108 51.2599 123.408 50.8599C123.708 50.4599 124.008 49.9599 124.308 49.4599C124.408 49.3599 124.508 49.2599 124.508 49.1599L132.108 36.9599C133.408 34.7599 134.008 33.6599 133.708 33.3599C133.408 33.1599 132.608 33.5599 131.208 34.6599C129.808 35.7599 128.208 37.1599 126.208 38.8599C123.708 41.0599 121.108 43.1599 118.608 45.0599C116.108 47.0599 114.108 48.1599 112.608 48.4599C111.408 48.6599 110.408 48.3599 109.708 47.6599C109.008 46.9599 108.708 45.5599 108.908 43.5599C109.208 41.0599 110.208 38.5599 111.708 36.0599C113.308 33.5599 115.008 31.4599 116.808 29.6599ZM113.008 67.2599C113.008 67.1599 113.108 67.1599 113.208 66.9599C113.508 66.4599 114.108 65.6599 114.808 64.6599C115.508 63.6599 116.208 62.4599 117.008 61.3599C117.808 60.1599 118.408 59.2599 118.808 58.4599C119.308 57.6599 119.408 57.2599 119.208 57.2599C119.008 57.3599 118.408 57.9599 117.608 59.0599C116.808 60.1599 115.808 61.4599 114.808 62.9599C113.708 64.4599 112.808 65.8599 111.908 67.1599C111.008 68.4599 110.508 69.4599 110.208 69.9599C109.708 71.1599 109.508 71.8599 109.508 72.1599C109.508 72.4599 109.708 72.3599 110.008 71.9599C110.308 71.5599 110.708 71.0599 111.108 70.4599C111.508 69.8599 112.008 69.1599 112.308 68.5599C112.608 67.9599 112.908 67.4599 113.008 67.2599Z" fill="#205859"/>
<path d="M209.008 24.6598C208.308 25.2598 207.208 26.2598 205.808 27.4598C203.208 29.7598 199.808 32.6598 195.708 36.1598C191.608 39.6598 187.108 43.2598 182.408 47.0598C177.708 50.7598 173.008 54.1598 168.608 57.0598C164.108 59.9598 160.308 62.0598 157.008 63.1598C153.708 64.2598 151.508 64.0598 150.308 62.4598C149.308 60.8598 149.208 58.5598 149.908 55.5598C150.608 52.5598 151.908 49.2598 153.808 45.6598C155.708 42.0598 158.008 38.6598 160.808 35.3598C163.608 32.0598 166.508 29.3598 169.608 27.1598C172.808 24.9598 175.908 23.8598 179.108 23.6598C182.308 23.4598 185.208 24.6598 188.008 27.3598C188.308 27.6598 188.408 27.9598 188.208 28.3598C188.008 28.6598 187.808 28.9598 187.508 29.2598C187.208 29.4598 186.708 29.4598 186.108 29.1598C185.508 28.9598 185.008 28.6598 184.608 28.2598C184.208 27.8598 184.108 27.5598 184.308 27.2598C181.308 25.5598 178.208 25.3598 174.908 26.6598C171.608 27.9598 168.408 30.2598 165.308 33.4598C162.208 36.6598 159.508 40.1598 157.208 43.8598C154.908 47.6598 153.208 51.1598 152.208 54.3598C151.208 57.5598 151.108 59.9598 151.908 61.4598C152.708 62.5598 154.608 62.4598 157.508 61.1598C160.408 59.8598 163.808 57.7598 167.908 54.9598C172.008 52.1598 176.208 48.9598 180.508 45.5598C184.908 42.0598 189.008 38.7598 192.808 35.5598C196.608 32.3598 199.708 29.7598 202.108 27.6598C202.608 27.2598 203.008 26.8598 203.408 26.5598C204.308 25.7598 204.708 25.3598 204.308 25.2598C204.008 25.1598 203.208 25.3598 202.108 25.6598C201.808 25.7598 201.408 25.8598 201.008 25.8598C200.008 26.1598 199.108 26.3598 198.308 26.4598C197.508 26.6598 196.808 26.8598 196.008 27.0598C195.208 27.2598 194.308 27.4598 193.308 27.6598C193.208 27.9598 193.008 28.1598 192.708 28.1598C192.408 28.1598 192.008 28.0598 191.608 27.9598C191.208 27.7598 191.008 27.5598 190.908 27.2598C190.808 26.9598 190.908 26.6598 191.308 26.3598C191.708 26.0598 192.408 25.7598 193.608 25.4598C198.008 24.3598 202.308 23.3598 206.708 22.4598C206.908 22.3598 207.108 22.3598 207.208 22.3598C207.908 22.2598 208.408 22.0598 208.708 21.8598C209.008 21.6598 209.408 21.3598 209.908 20.9598L210.008 20.8598C211.208 19.8598 212.408 18.8598 213.608 17.7598C216.808 15.0598 220.008 12.4598 223.208 9.85981C226.508 7.25981 229.808 4.75981 233.108 2.55981C233.608 2.25981 234.308 1.85981 235.308 1.35981C236.308 0.959808 237.208 0.559808 238.208 0.259808C239.208 -0.0401924 240.008 -0.0401924 240.508 0.0598076C241.008 0.259808 241.108 0.759808 240.808 1.65981C240.208 2.95981 239.008 4.95981 237.408 7.65981C235.708 10.3598 234.208 12.6598 232.908 14.6598C232.308 15.6598 231.808 16.3598 231.508 16.7598C231.408 16.8598 231.308 16.9598 231.308 17.0598C231.208 17.2598 231.108 17.3598 231.108 17.3598C231.108 17.3598 231.208 17.4598 231.408 17.4598C232.108 17.3598 233.108 17.1598 234.508 17.0598C235.908 16.8598 237.208 16.7598 238.508 16.7598C239.808 16.7598 240.808 16.8598 241.508 17.0598C241.908 17.2598 242.108 17.5598 242.108 17.7598C242.108 17.9598 242.008 18.1598 241.808 18.2598C241.608 18.3598 241.308 18.3598 241.008 18.1598C240.608 17.9598 239.708 17.9598 238.308 18.1598C236.908 18.3598 235.608 18.4598 234.108 18.7598C232.708 18.9598 231.608 19.1598 230.908 19.2598C230.808 19.2598 230.708 19.2598 230.708 19.2598C230.308 19.3598 229.908 19.4598 229.708 19.6598C229.508 19.8598 229.308 20.1598 229.108 20.4598C229.008 20.5598 229.008 20.6598 228.908 20.7598C226.908 23.9598 224.908 27.0598 222.808 30.2598C217.508 39.1598 212.008 48.0598 206.708 57.0598C206.508 57.3598 206.508 57.7598 206.408 58.0598C206.408 58.3598 206.408 58.5598 206.308 58.7598C206.208 58.9598 206.008 59.1598 205.708 59.2598C205.408 59.3598 205.208 59.3598 204.908 59.0598C204.708 58.8598 204.508 58.4598 204.508 57.9598C204.508 57.4598 204.708 56.6598 205.108 55.7598C211.408 44.9598 218.008 34.2598 224.808 23.7598C225.408 22.8598 226.008 21.9598 226.608 20.9598C226.908 20.5598 227.008 20.2598 226.908 20.1598C226.808 20.0598 226.608 20.0598 226.108 20.1598C221.408 21.0598 216.708 22.1598 212.008 23.2598C211.508 23.3598 211.008 23.4598 210.508 23.5598C210.108 23.6598 209.908 23.7598 209.608 23.8598C209.508 24.1598 209.308 24.3598 209.008 24.6598C209.108 24.5598 209.008 24.5598 209.008 24.6598ZM214.108 20.2598C213.608 20.7598 213.508 20.9598 214.008 20.8598C214.408 20.7598 214.908 20.6598 215.308 20.5598C219.208 19.6598 223.208 18.9598 227.208 18.2598C227.808 18.1598 228.308 18.0598 228.508 17.8598C228.708 17.6598 229.008 17.3598 229.208 16.9598C229.308 16.7598 229.408 16.5598 229.608 16.3598C230.008 15.7598 230.608 14.8598 231.408 13.6598C232.508 11.9598 233.708 10.1598 235.008 8.15981C236.308 6.15981 237.308 4.55981 238.008 3.35981C238.208 2.95981 238.208 2.75981 238.008 2.75981C237.808 2.75981 237.508 2.75981 237.008 2.95981C236.508 3.15981 236.108 3.35981 235.608 3.55981C235.108 3.85981 234.708 4.05981 234.408 4.25981C231.208 6.35981 228.108 8.65981 225.008 11.1598C221.908 13.6598 218.908 16.1598 216.008 18.6598C215.308 19.2598 214.708 19.7598 214.108 20.2598Z" fill="#205859"/>
<path d="M236.608 39.8598C234.708 41.5598 232.708 43.2598 230.608 44.8598C228.508 46.4598 226.708 47.5598 225.208 48.1598C223.608 48.7598 222.608 48.5598 222.208 47.5598C221.908 46.6598 222.408 45.1598 223.708 43.0598C225.008 40.9598 226.608 38.8598 228.808 36.6598C230.908 34.4598 233.108 32.6598 235.508 31.3598C237.808 29.9598 240.008 29.4598 241.908 29.8598C242.408 30.0598 242.808 30.1598 242.908 30.3598C243.008 30.4598 243.108 30.4598 243.308 30.5598C243.408 30.5598 243.508 30.5598 243.708 30.4598C243.908 30.3598 244.108 30.1598 244.308 29.9598C245.308 29.0598 246.108 28.1598 246.708 27.4598C247.308 26.6598 248.008 25.7598 248.708 24.5598C250.908 20.9598 252.608 18.1598 253.908 16.1598C255.608 13.4598 257.608 10.9598 259.808 8.45978C262.008 5.95978 264.008 4.05978 265.608 2.75978C266.108 2.35978 266.608 2.05978 267.208 1.85978C267.808 1.65978 268.408 1.65978 268.908 1.75978C269.408 1.85978 269.708 2.25978 269.808 2.95978C269.708 3.75978 268.908 5.35978 267.308 7.65978C264.808 11.2598 262.208 14.5598 259.408 17.6598C256.608 20.7598 253.908 23.4598 251.408 25.7598C250.408 26.7598 249.608 27.6598 249.008 28.3598C248.408 29.0598 247.808 30.0598 247.008 31.3598C244.408 35.6598 241.808 39.8598 239.208 44.0598C236.608 48.2598 234.508 51.7598 232.708 54.4598C230.908 57.1598 230.008 58.6598 229.908 58.8598C229.708 59.1598 229.508 59.2598 229.308 59.3598C229.108 59.4598 228.908 59.3598 228.808 59.1598C228.708 58.9598 228.808 58.6598 229.008 58.2598C230.508 55.7598 232.308 52.5598 234.408 48.7598C237.608 43.1598 240.208 38.5598 242.308 35.0598C242.808 34.2598 243.008 33.8598 242.908 33.9598C242.808 34.0598 242.408 34.3598 241.808 35.0598C241.708 35.1598 241.608 35.3598 241.508 35.4598C240.108 36.6598 238.508 38.1598 236.608 39.8598ZM235.208 33.5598C232.808 35.2598 230.608 37.1598 228.508 39.3598C226.408 41.5598 225.008 43.4598 224.108 44.9598C223.708 45.6598 223.508 46.1598 223.408 46.4598C223.308 46.7598 223.608 46.7598 224.208 46.4598C226.008 45.4598 228.508 43.6598 231.708 40.9598C234.908 38.3598 238.108 35.3598 241.508 32.1598C241.808 31.9598 241.908 31.7598 241.808 31.5598C241.808 31.4598 241.608 31.3598 241.208 31.2598C239.708 31.1598 237.608 31.8598 235.208 33.5598ZM265.608 6.65978C266.208 5.75978 266.508 5.15978 266.608 4.85978C266.708 4.55978 266.608 4.45978 266.408 4.45978C266.208 4.55978 265.908 4.65978 265.508 4.95978C265.108 5.25978 264.708 5.55978 264.308 5.95978C263.908 6.35978 263.608 6.65978 263.308 6.85978C262.008 8.25978 260.508 10.0598 258.908 12.0598C257.308 14.0598 255.908 15.9598 254.808 17.6598C254.008 18.9598 253.408 19.9598 253.208 20.3598C253.008 20.8598 253.008 20.9598 253.308 20.8598C253.608 20.6598 254.008 20.3598 254.508 19.7598C255.008 19.1598 255.608 18.5598 256.308 17.8598C256.708 17.3598 257.108 16.9598 257.508 16.5598C260.408 13.5598 263.108 10.2598 265.608 6.65978Z" fill="#205859"/>
<path d="M268.208 40.2598C268.908 39.8598 269.308 39.8598 269.408 40.1598C269.508 40.4598 269.308 40.8598 268.708 41.2598C267.708 41.8598 266.508 42.4598 265.008 42.9598C263.508 43.4598 262.108 43.6598 260.908 43.4598C259.708 43.2598 259.108 42.2598 259.008 40.5598V40.3598C259.008 39.9598 259.008 39.8598 258.908 39.7598C258.808 39.6598 258.608 39.8598 258.308 40.0598C254.408 42.6598 251.508 44.2598 249.608 44.8598C247.808 45.4598 246.708 45.5598 246.308 44.9598C245.908 44.1598 246.408 42.8598 247.808 41.1598C249.208 39.4598 251.108 37.7598 253.308 36.2598C255.608 34.6598 257.708 33.7598 259.808 33.4598C261.908 33.1598 263.308 33.9598 264.208 35.9598C264.308 36.2598 264.208 36.4598 264.108 36.6598C263.908 36.8598 263.708 36.9598 263.508 37.0598C263.208 37.1598 263.008 37.0598 262.608 36.8598C262.308 36.6598 262.108 36.4598 261.908 36.2598C261.908 36.1598 261.908 36.1598 261.908 36.0598C261.908 35.9598 262.008 35.9598 262.008 35.8598C262.008 35.7598 262.108 35.7598 262.108 35.6598C262.108 35.5598 262.108 35.5598 262.108 35.4598C261.508 34.5598 260.408 34.4598 258.808 35.0598C257.208 35.6598 255.608 36.6598 253.908 37.9598C252.208 39.2598 250.708 40.4598 249.508 41.6598C248.308 42.8598 247.708 43.5598 247.808 43.7598C247.908 44.0598 248.908 43.5598 250.808 42.4598C252.708 41.3598 255.808 39.3598 260.208 36.3598C260.408 36.2598 260.708 36.1598 260.908 36.2598C261.108 36.3598 261.308 36.4598 261.508 36.6598C261.708 36.9598 261.708 37.2598 261.508 37.5598C260.508 39.6598 260.408 40.9598 261.208 41.4598C262.008 41.9598 263.008 41.9598 264.408 41.5598C266.008 41.3598 267.208 40.8598 268.208 40.2598Z" fill="#205859"/>
<path d="M282.908 43.7597C283.108 43.7597 283.508 43.5597 284.008 43.0597C284.508 42.5597 285.208 41.8597 285.908 41.0597C287.108 39.7597 288.408 38.4597 289.708 37.3597C291.008 36.1597 292.108 35.5597 293.008 35.5597C293.808 35.6597 294.308 36.1597 294.408 36.9597C294.508 37.7597 294.508 38.6597 294.408 39.6597C294.308 40.2597 294.308 40.8597 294.308 41.3597C294.308 41.8597 294.408 42.2597 294.708 42.4597C295.108 42.8597 296.808 42.2597 299.708 40.5597C300.108 40.3597 300.308 40.2597 300.608 40.3597C300.808 40.4597 300.908 40.5597 300.908 40.8597C300.908 41.1597 300.608 41.3597 300.208 41.5597C298.308 42.7597 296.908 43.4597 295.808 43.7597C294.808 44.0597 294.008 43.9597 293.408 43.4597C292.508 42.5597 292.108 40.9597 292.408 38.5597C292.408 38.0597 292.408 37.7597 292.208 37.7597C292.108 37.7597 291.808 37.9597 291.308 38.3597C291.208 38.4597 291.208 38.4597 291.108 38.4597C290.308 39.0597 289.508 39.8597 288.508 40.8597C287.308 42.0597 286.208 43.0597 285.008 43.9597C283.908 44.8597 283.008 45.1597 282.308 44.9597C281.408 44.5597 280.908 43.8597 280.908 42.7597C280.908 41.6597 281.108 40.5597 281.508 39.2597C281.908 37.9597 282.308 36.8597 282.808 35.8597C283.008 35.3597 283.208 34.9597 283.308 34.5597C283.508 33.9597 283.208 33.8597 282.408 34.3597C281.608 34.8597 280.608 35.6597 279.308 36.6597C278.008 37.7597 276.808 38.8597 275.508 39.9597C274.208 41.0597 273.208 41.9597 272.508 42.6597C272.108 43.0597 271.808 43.2597 271.708 43.4597C271.608 43.5597 271.408 43.7597 271.108 43.9597C270.608 44.4597 270.008 44.9597 269.308 45.5597C268.608 46.1597 267.808 46.7597 267.208 47.1597C266.608 47.5597 266.008 47.7597 265.608 47.6597C264.808 47.2597 264.708 46.4597 265.308 45.2597C266.808 42.1597 268.608 39.2597 270.608 36.5597C271.608 35.0597 272.608 33.6597 273.508 32.1597C273.508 32.0597 273.508 32.0597 273.508 32.0597C273.508 32.0597 273.508 31.9597 273.408 31.9597C273.208 31.7597 273.208 31.5597 273.208 31.3597C273.308 31.1597 273.408 30.9597 273.608 30.7597C273.708 30.6597 274.008 30.4597 274.308 30.2597C274.608 30.0597 275.008 29.8597 275.408 29.7597C275.808 29.6597 276.008 29.7597 276.208 29.9597C276.408 30.2597 276.308 30.7597 276.008 31.5597C274.408 34.3597 272.608 37.2597 270.608 40.1597C270.108 40.8597 269.708 41.5597 269.308 42.1597C268.708 43.0597 268.508 43.4597 268.608 43.4597C268.808 43.3597 269.208 43.0597 269.808 42.4597C270.008 42.2597 270.208 42.1597 270.308 41.9597C272.008 40.4597 273.808 38.9597 275.708 37.3597C277.608 35.8597 279.308 34.5597 280.808 33.5597C282.408 32.5597 283.508 32.1597 284.308 32.3597C285.308 32.8597 285.508 34.0597 284.908 36.0597C284.808 36.1597 284.808 36.4597 284.608 36.7597C284.408 37.4597 284.108 38.3597 283.708 39.3597C283.308 40.3597 283.008 41.3597 282.808 42.1597C282.808 43.1597 282.808 43.6597 282.908 43.7597Z" fill="#205859"/>
</g>
<defs>
<filter id="filter0_d_2_274" x="0" y="0" width="304.908" height="82.585" filterUnits="userSpaceOnUse" color-interpolation-filters="sRGB">
<feFlood flood-opacity="0" result="BackgroundImageFix"/>
<feColorMatrix in="SourceAlpha" type="matrix" values="0 0 0 0 0 0 0 0 0 0 0 0 0 0 0 0 0 0 127 0" result="hardAlpha"/>
<feOffset dy="4"/>
<feGaussianBlur stdDeviation="2"/>
<feComposite in2="hardAlpha" operator="out"/>
<feColorMatrix type="matrix" values="0 0 0 0 0 0 0 0 0 0 0 0 0 0 0 0 0 0 0.25 0"/>
<feBlend mode="normal" in2="BackgroundImageFix" result="effect1_dropShadow_2_274"/>
<feBlend mode="normal" in="SourceGraphic" in2="effect1_dropShadow_2_274" result="shape"/>
</filter>
</defs>
</svg>
