<svg width="545" height="192" viewBox="0 0 545 192" fill="none" xmlns="http://www.w3.org/2000/svg">
<path d="M130.229 144.403C130.229 144.403 225.592 109.263 341.065 122.62C456.537 135.977 391.856 180.57 296.182 185.091C200.508 189.612 84.4136 167.213 145.778 146.458C207.142 125.703 319.193 106.386 396.624 132.176C474.054 157.966 315.565 192.694 177.082 181.7C38.5979 170.706 229.22 119.024 306.236 117.072C383.252 115.119 450.628 153.547 382.216 170.398C313.803 187.249 160.393 200.709 145.985 161.459C131.577 122.209 363.35 114.811 401.081 127.552" stroke="#205859" stroke-width="1.5" stroke-miterlimit="10" stroke-linecap="round" stroke-linejoin="round"/>
<path d="M26.6851 45.248C30.6878 45.552 33.9051 46.8947 36.3371 49.276C38.8198 51.6067 40.0611 54.52 40.0611 58.016C40.0611 60.7013 39.4025 63.1333 38.0851 65.312C36.7678 67.4907 34.9438 69.2133 32.6131 70.48C30.3331 71.696 27.7745 72.304 24.9371 72.304C23.2651 72.304 21.4411 72.228 19.4651 72.076C18.7558 72.0253 17.9198 71.9747 16.9571 71.924C15.9945 71.8733 14.9305 71.848 13.7651 71.848L8.59713 71.924C7.68513 71.9747 6.39313 72 4.72113 72C4.61979 72 4.56913 71.848 4.56913 71.544C4.56913 71.24 4.61979 71.088 4.72113 71.088C6.64646 71.088 8.06513 70.9613 8.97713 70.708C9.88913 70.404 10.5225 69.8973 10.8771 69.188C11.2318 68.4787 11.4091 67.364 11.4091 65.844V30.656C11.4091 29.136 11.2318 28.0213 10.8771 27.312C10.5731 26.6027 9.96513 26.1213 9.05313 25.868C8.14113 25.564 6.74779 25.412 4.87313 25.412C4.72113 25.412 4.64513 25.26 4.64513 24.956C4.64513 24.652 4.72113 24.5 4.87313 24.5L8.59713 24.576C10.7251 24.6773 12.4478 24.728 13.7651 24.728C14.6771 24.728 15.5131 24.7027 16.2731 24.652C17.0838 24.6013 17.7678 24.5507 18.3251 24.5C19.8958 24.348 21.3651 24.272 22.7331 24.272C26.9891 24.272 30.1811 25.2093 32.3091 27.084C34.4371 28.908 35.5011 31.3147 35.5011 34.304C35.5011 36.736 34.7158 38.9147 33.1451 40.84C31.5745 42.7147 29.4211 44.184 26.6851 45.248ZM21.0611 25.412C19.7438 25.412 18.7558 25.5133 18.0971 25.716C17.4891 25.9187 17.0331 26.4 16.7291 27.16C16.4251 27.92 16.2731 29.136 16.2731 30.808V45.248L19.6931 45.324C23.3918 45.324 26.1278 44.3867 27.9011 42.512C29.6745 40.5867 30.5611 38.0533 30.5611 34.912C30.5611 32.0747 29.7758 29.7947 28.2051 28.072C26.6851 26.2987 24.3038 25.412 21.0611 25.412ZM23.7971 70.936C27.4958 70.936 30.2318 69.9987 32.0051 68.124C33.8291 66.1987 34.7411 63.4627 34.7411 59.916C34.7411 56.0653 33.6011 52.9493 31.3211 50.568C29.0918 48.1867 26.0011 46.9707 22.0491 46.92C20.4278 46.8693 18.5025 46.92 16.2731 47.072V65.844C16.2731 67.1613 16.4505 68.1747 16.8051 68.884C17.2105 69.5933 17.9451 70.1253 19.0091 70.48C20.1238 70.784 21.7198 70.936 23.7971 70.936ZM71.496 67.744C71.648 67.744 71.7747 67.8453 71.876 68.048C72.028 68.2 72.0534 68.352 71.952 68.504C68.5067 71.4427 64.808 72.912 60.856 72.912C57.8667 72.912 55.2827 72.228 53.104 70.86C50.9254 69.492 49.2787 67.7187 48.164 65.54C47.1 63.3107 46.568 60.904 46.568 58.32C46.568 55.28 47.2774 52.5187 48.696 50.036C50.1654 47.5533 52.1414 45.6027 54.624 44.184C57.1067 42.7147 59.868 41.98 62.908 41.98C65.644 41.98 67.772 42.664 69.292 44.032C70.812 45.3493 71.572 47.1733 71.572 49.504C71.572 50.112 71.496 50.568 71.344 50.872C71.2427 51.1253 71.0147 51.252 70.66 51.252L51.964 51.404C51.7107 52.772 51.584 54.0893 51.584 55.356C51.584 59.764 52.648 63.3613 54.776 66.148C56.904 68.884 59.8427 70.252 63.592 70.252C66.48 70.252 69.0894 69.416 71.42 67.744H71.496ZM60.324 43.5C58.2467 43.5 56.4987 44.108 55.08 45.324C53.712 46.4893 52.7494 48.1613 52.192 50.34L66.328 50.036C66.328 47.9587 65.7707 46.3627 64.656 45.248C63.592 44.0827 62.148 43.5 60.324 43.5ZM106.024 67.896C106.227 67.896 106.354 68.0227 106.404 68.276C106.455 68.4787 106.379 68.6307 106.176 68.732L98.3484 72.456C98.1457 72.5573 97.943 72.608 97.7404 72.608C97.0817 72.608 96.499 72.1773 95.9924 71.316C95.4857 70.4547 95.1564 69.264 95.0044 67.744L90.2924 70.252C88.7217 71.0627 87.4297 71.6453 86.4164 72C85.403 72.3547 84.415 72.532 83.4524 72.532C81.8817 72.532 80.6657 72.1267 79.8044 71.316C78.9937 70.4547 78.5884 69.3907 78.5884 68.124C78.5884 66.756 79.095 65.6667 80.1084 64.856C81.1724 63.9947 83.047 63.108 85.7324 62.196L94.9284 58.928V52.62C94.9284 49.276 94.4977 46.9453 93.6364 45.628C92.775 44.26 91.5844 43.576 90.0644 43.576C88.3417 43.576 86.999 44.184 86.0364 45.4C85.0737 46.616 84.491 48.0853 84.2884 49.808C84.0857 51.7333 83.1484 52.696 81.4764 52.696C80.6657 52.696 80.0324 52.4933 79.5764 52.088C79.1204 51.6827 78.8924 51.1253 78.8924 50.416C78.8924 49.2507 79.6524 48.0093 81.1724 46.692C82.6924 45.3747 84.5164 44.26 86.6444 43.348C88.823 42.436 90.7737 41.98 92.4964 41.98C94.523 41.98 96.1444 42.6893 97.3604 44.108C98.5764 45.476 99.1844 47.5533 99.1844 50.34V63.792C99.1844 65.5653 99.4124 66.8573 99.8684 67.668C100.324 68.4787 101.084 68.884 102.148 68.884C103.111 68.884 104.352 68.5547 105.872 67.896H106.024ZM94.9284 66.68V66.224V59.84L87.1004 62.804C85.935 63.26 85.099 63.7667 84.5924 64.324C84.1364 64.8813 83.9084 65.5907 83.9084 66.452C83.9084 67.516 84.2124 68.352 84.8204 68.96C85.4284 69.5173 86.2137 69.796 87.1764 69.796C88.139 69.796 89.1777 69.5427 90.2924 69.036L94.9284 66.68ZM143.336 67.668C143.539 67.668 143.666 67.7947 143.716 68.048C143.818 68.2507 143.767 68.4027 143.564 68.504L134.672 72.684L134.368 72.76C133.862 72.76 133.38 72.1773 132.924 71.012C132.468 69.8467 132.24 68.3267 132.24 66.452V66.148C130.264 68.3773 128.288 70.024 126.312 71.088C124.336 72.1013 122.284 72.608 120.156 72.608C117.623 72.608 115.647 71.8227 114.228 70.252C112.81 68.6307 112.1 66.3 112.1 63.26V51.632C112.1 49.656 111.923 48.2373 111.568 47.376C111.214 46.464 110.631 46.008 109.82 46.008C109.111 46.008 108.25 46.2613 107.236 46.768H107.16C106.958 46.768 106.806 46.6413 106.704 46.388C106.603 46.084 106.654 45.9067 106.856 45.856L115.292 42.056L115.596 41.98C115.748 41.98 115.9 42.056 116.052 42.208C116.255 42.3093 116.356 42.436 116.356 42.588V60.752C116.356 66.6293 118.484 69.568 122.74 69.568C124.362 69.568 126.008 69.1627 127.68 68.352C129.352 67.4907 130.872 66.3253 132.24 64.856V51.632C132.24 49.6053 132.063 48.1613 131.708 47.3C131.404 46.4387 130.822 46.008 129.96 46.008C129.251 46.008 128.39 46.2613 127.376 46.768H127.3C127.098 46.768 126.946 46.6413 126.844 46.388C126.794 46.084 126.87 45.9067 127.072 45.856L135.508 42.056L135.736 41.98C135.888 41.98 136.04 42.056 136.192 42.208C136.395 42.3093 136.496 42.436 136.496 42.588V63.868C136.496 65.5907 136.699 66.832 137.104 67.592C137.51 68.352 138.194 68.732 139.156 68.732C140.018 68.732 141.36 68.3773 143.184 67.668H143.336ZM167.441 68.048C167.643 68.048 167.795 68.1747 167.897 68.428C167.998 68.6307 167.973 68.7827 167.821 68.884C165.946 70.3533 164.249 71.392 162.729 72C161.259 72.608 159.714 72.912 158.093 72.912C155.965 72.912 154.217 72.4307 152.849 71.468C151.481 70.5053 150.797 68.9093 150.797 66.68V48.82C150.797 47.5027 150.695 46.5653 150.493 46.008C150.341 45.4507 150.011 45.096 149.505 44.944C148.998 44.7413 148.137 44.64 146.921 44.64C146.718 44.64 146.617 44.488 146.617 44.184C146.617 43.8293 146.718 43.652 146.921 43.652C148.947 43.6013 150.594 43.0693 151.861 42.056C153.127 40.992 153.862 39.5987 154.065 37.876C154.065 37.724 154.267 37.648 154.673 37.648C155.027 37.648 155.205 37.724 155.205 37.876V43.5C157.738 43.4493 161.259 43.196 165.769 42.74C165.87 42.74 165.971 42.9427 166.073 43.348C166.225 43.7027 166.301 44.108 166.301 44.564C166.301 44.9693 166.199 45.4 165.997 45.856C165.845 46.2613 165.667 46.4387 165.465 46.388C162.678 45.6787 159.258 45.2733 155.205 45.172V64.096C155.205 66.1733 155.711 67.7187 156.725 68.732C157.789 69.7453 159.283 70.252 161.209 70.252C163.539 70.252 165.566 69.5427 167.289 68.124L167.441 68.048ZM202.24 42.664C202.392 42.664 202.468 42.816 202.468 43.12C202.468 43.424 202.392 43.576 202.24 43.576C200.974 43.576 199.884 44.032 198.972 44.944C198.06 45.856 197.199 47.3507 196.388 49.428L187.116 74.128C185.242 79.0427 183.468 82.868 181.796 85.604C180.175 88.3907 178.478 90.3667 176.704 91.532C174.982 92.748 172.98 93.356 170.7 93.356C169.586 93.356 168.674 93.1027 167.964 92.596C167.204 92.0893 166.824 91.3547 166.824 90.392C166.824 89.6827 167.052 89.1253 167.508 88.72C167.964 88.3147 168.522 88.112 169.18 88.112C169.839 88.112 170.396 88.188 170.852 88.34C171.308 88.492 171.79 88.7453 172.296 89.1C172.398 89.1507 172.676 89.3027 173.132 89.556C173.639 89.8093 174.247 89.936 174.956 89.936C176.172 89.936 177.312 89.404 178.376 88.34C179.491 87.276 180.656 85.4773 181.872 82.944C183.139 80.4613 184.608 77.016 186.28 72.608L174.728 48.972C173.563 46.7427 172.676 45.2987 172.068 44.64C171.46 43.9307 170.675 43.576 169.712 43.576C169.611 43.576 169.56 43.424 169.56 43.12C169.56 42.816 169.611 42.664 169.712 42.664L172.296 42.74C172.904 42.7907 173.74 42.816 174.804 42.816L179.668 42.74C180.378 42.6893 181.366 42.664 182.632 42.664C182.734 42.664 182.784 42.816 182.784 43.12C182.784 43.424 182.734 43.576 182.632 43.576C179.694 43.576 178.224 44.1587 178.224 45.324C178.224 45.628 178.351 46.0333 178.604 46.54L188.636 67.136L194.716 49.656C195.122 48.44 195.324 47.4773 195.324 46.768C195.324 45.6027 194.868 44.792 193.956 44.336C193.044 43.8293 191.55 43.576 189.472 43.576C189.371 43.576 189.32 43.424 189.32 43.12C189.32 42.816 189.371 42.664 189.472 42.664C190.84 42.664 191.879 42.6893 192.588 42.74L197.148 42.816L199.884 42.74C200.391 42.6893 201.176 42.664 202.24 42.664ZM224.352 72C224.251 72 224.2 71.848 224.2 71.544C224.2 71.24 224.251 71.088 224.352 71.088C225.72 71.088 226.734 70.9613 227.392 70.708C228.102 70.404 228.583 69.8973 228.836 69.188C229.09 68.428 229.216 67.3133 229.216 65.844V51.632C229.216 49.808 229.014 48.4907 228.608 47.68C228.254 46.8693 227.62 46.464 226.708 46.464C225.796 46.464 224.656 46.8187 223.288 47.528H223.212C223.01 47.528 222.858 47.4013 222.756 47.148C222.655 46.8947 222.68 46.7173 222.832 46.616L232.712 42.056L233.016 41.98C233.118 41.98 233.244 42.056 233.396 42.208C233.548 42.3093 233.624 42.436 233.624 42.588C233.624 42.9427 233.599 43.956 233.548 45.628C233.498 47.3 233.472 49.276 233.472 51.556V65.844C233.472 67.364 233.599 68.4787 233.852 69.188C234.106 69.8973 234.562 70.404 235.22 70.708C235.879 70.9613 236.892 71.088 238.26 71.088C238.412 71.088 238.488 71.24 238.488 71.544C238.488 71.848 238.412 72 238.26 72C237.095 72 236.158 71.9747 235.448 71.924L231.344 71.848L227.24 71.924C226.531 71.9747 225.568 72 224.352 72ZM230.736 33.088C229.672 33.088 228.836 32.8093 228.228 32.252C227.671 31.6947 227.392 30.9093 227.392 29.896C227.392 28.8827 227.671 28.0973 228.228 27.54C228.836 26.9827 229.672 26.704 230.736 26.704C231.75 26.704 232.535 26.9827 233.092 27.54C233.65 28.0973 233.928 28.8827 233.928 29.896C233.928 30.9093 233.65 31.6947 233.092 32.252C232.535 32.8093 231.75 33.088 230.736 33.088ZM248.705 47.3C248.705 49.0733 249.288 50.492 250.453 51.556C251.619 52.5693 253.341 53.6587 255.621 54.824C257.395 55.736 258.763 56.5213 259.725 57.18C260.739 57.8387 261.6 58.7 262.309 59.764C263.019 60.828 263.373 62.12 263.373 63.64C263.373 66.224 262.411 68.4027 260.485 70.176C258.56 71.9493 255.951 72.836 252.657 72.836C249.972 72.836 247.54 72.076 245.361 70.556C245.057 70.3533 244.905 70.0493 244.905 69.644L244.753 63.716C244.753 63.564 244.88 63.488 245.133 63.488C245.437 63.4373 245.615 63.488 245.665 63.64C246.628 66.1733 247.869 68.0987 249.389 69.416C250.96 70.7333 252.759 71.392 254.785 71.392C256.356 71.392 257.572 71.0373 258.433 70.328C259.345 69.568 259.801 68.4533 259.801 66.984C259.801 65.5653 259.472 64.3747 258.813 63.412C258.205 62.3987 257.445 61.6133 256.533 61.056C255.621 60.448 254.38 59.7387 252.809 58.928C251.137 58.1173 249.795 57.3827 248.781 56.724C247.819 56.0653 246.983 55.204 246.273 54.14C245.615 53.076 245.285 51.7587 245.285 50.188C245.285 47.452 246.299 45.3747 248.325 43.956C250.403 42.4867 252.835 41.752 255.621 41.752C257.648 41.752 259.497 42.132 261.169 42.892C261.473 42.9933 261.651 43.12 261.701 43.272C261.803 43.3733 261.853 43.5253 261.853 43.728C261.853 44.7413 261.828 45.5267 261.777 46.084L261.701 49.276C261.701 49.3773 261.549 49.428 261.245 49.428C260.941 49.428 260.789 49.3773 260.789 49.276C260.789 48.212 260.384 47.224 259.573 46.312C258.763 45.3493 257.749 44.5893 256.533 44.032C255.317 43.4747 254.101 43.196 252.885 43.196C251.568 43.196 250.529 43.5507 249.769 44.26C249.06 44.9187 248.705 45.932 248.705 47.3ZM316.138 67.896C316.34 67.896 316.467 68.0227 316.518 68.276C316.568 68.4787 316.492 68.6307 316.29 68.732L308.462 72.456C308.259 72.5573 308.056 72.608 307.854 72.608C307.195 72.608 306.612 72.1773 306.106 71.316C305.599 70.4547 305.27 69.264 305.118 67.744L300.406 70.252C298.835 71.0627 297.543 71.6453 296.53 72C295.516 72.3547 294.528 72.532 293.566 72.532C291.995 72.532 290.779 72.1267 289.918 71.316C289.107 70.4547 288.702 69.3907 288.702 68.124C288.702 66.756 289.208 65.6667 290.222 64.856C291.286 63.9947 293.16 63.108 295.846 62.196L305.042 58.928V52.62C305.042 49.276 304.611 46.9453 303.75 45.628C302.888 44.26 301.698 43.576 300.178 43.576C298.455 43.576 297.112 44.184 296.15 45.4C295.187 46.616 294.604 48.0853 294.402 49.808C294.199 51.7333 293.262 52.696 291.59 52.696C290.779 52.696 290.146 52.4933 289.69 52.088C289.234 51.6827 289.006 51.1253 289.006 50.416C289.006 49.2507 289.766 48.0093 291.286 46.692C292.806 45.3747 294.63 44.26 296.758 43.348C298.936 42.436 300.887 41.98 302.61 41.98C304.636 41.98 306.258 42.6893 307.474 44.108C308.69 45.476 309.298 47.5533 309.298 50.34V63.792C309.298 65.5653 309.526 66.8573 309.982 67.668C310.438 68.4787 311.198 68.884 312.262 68.884C313.224 68.884 314.466 68.5547 315.986 67.896H316.138ZM305.042 66.68V66.224V59.84L297.214 62.804C296.048 63.26 295.212 63.7667 294.706 64.324C294.25 64.8813 294.022 65.5907 294.022 66.452C294.022 67.516 294.326 68.352 294.934 68.96C295.542 69.5173 296.327 69.796 297.29 69.796C298.252 69.796 299.291 69.5427 300.406 69.036L305.042 66.68ZM319.478 72C319.326 72 319.25 71.848 319.25 71.544C319.25 71.24 319.326 71.088 319.478 71.088C320.846 71.088 321.859 70.9613 322.518 70.708C323.176 70.404 323.632 69.8973 323.886 69.188C324.139 68.428 324.266 67.3133 324.266 65.844V26.552C324.266 24.728 324.088 23.4107 323.734 22.6C323.379 21.7893 322.746 21.384 321.834 21.384C321.074 21.384 319.908 21.7387 318.338 22.448H318.186C318.034 22.448 317.907 22.3213 317.806 22.068C317.755 21.8147 317.806 21.6627 317.958 21.612L327.686 16.976C327.787 16.9253 327.914 16.9 328.066 16.9C328.167 16.9 328.294 16.976 328.446 17.128C328.648 17.2293 328.75 17.356 328.75 17.508V65.844C328.75 67.3133 328.851 68.4027 329.054 69.112C329.307 69.8213 329.763 70.328 330.422 70.632C331.08 70.936 332.094 71.088 333.462 71.088C333.614 71.088 333.69 71.24 333.69 71.544C333.69 71.848 333.614 72 333.462 72C332.347 72 331.435 71.9747 330.726 71.924L326.469 71.848L322.366 71.924C321.656 71.9747 320.694 72 319.478 72ZM339.071 72C338.919 72 338.843 71.848 338.843 71.544C338.843 71.24 338.919 71.088 339.071 71.088C340.439 71.088 341.453 70.9613 342.111 70.708C342.77 70.404 343.226 69.8973 343.479 69.188C343.733 68.428 343.859 67.3133 343.859 65.844V26.552C343.859 24.728 343.682 23.4107 343.327 22.6C342.973 21.7893 342.339 21.384 341.427 21.384C340.667 21.384 339.502 21.7387 337.931 22.448H337.779C337.627 22.448 337.501 22.3213 337.399 22.068C337.349 21.8147 337.399 21.6627 337.551 21.612L347.279 16.976C347.381 16.9253 347.507 16.9 347.659 16.9C347.761 16.9 347.887 16.976 348.039 17.128C348.242 17.2293 348.343 17.356 348.343 17.508V65.844C348.343 67.3133 348.445 68.4027 348.647 69.112C348.901 69.8213 349.357 70.328 350.015 70.632C350.674 70.936 351.687 71.088 353.055 71.088C353.207 71.088 353.283 71.24 353.283 71.544C353.283 71.848 353.207 72 353.055 72C351.941 72 351.029 71.9747 350.319 71.924L346.063 71.848L341.959 71.924C341.25 71.9747 340.287 72 339.071 72ZM404.978 67.896C405.18 67.896 405.307 68.0227 405.358 68.276C405.408 68.4787 405.332 68.6307 405.13 68.732L397.302 72.456C397.099 72.5573 396.896 72.608 396.694 72.608C396.035 72.608 395.452 72.1773 394.946 71.316C394.439 70.4547 394.11 69.264 393.958 67.744L389.246 70.252C387.675 71.0627 386.383 71.6453 385.37 72C384.356 72.3547 383.368 72.532 382.406 72.532C380.835 72.532 379.619 72.1267 378.758 71.316C377.947 70.4547 377.542 69.3907 377.542 68.124C377.542 66.756 378.048 65.6667 379.062 64.856C380.126 63.9947 382 63.108 384.686 62.196L393.882 58.928V52.62C393.882 49.276 393.451 46.9453 392.59 45.628C391.728 44.26 390.538 43.576 389.018 43.576C387.295 43.576 385.952 44.184 384.99 45.4C384.027 46.616 383.444 48.0853 383.242 49.808C383.039 51.7333 382.102 52.696 380.43 52.696C379.619 52.696 378.986 52.4933 378.53 52.088C378.074 51.6827 377.846 51.1253 377.846 50.416C377.846 49.2507 378.606 48.0093 380.126 46.692C381.646 45.3747 383.47 44.26 385.598 43.348C387.776 42.436 389.727 41.98 391.45 41.98C393.476 41.98 395.098 42.6893 396.314 44.108C397.53 45.476 398.138 47.5533 398.138 50.34V63.792C398.138 65.5653 398.366 66.8573 398.822 67.668C399.278 68.4787 400.038 68.884 401.102 68.884C402.064 68.884 403.306 68.5547 404.826 67.896H404.978ZM393.882 66.68V66.224V59.84L386.054 62.804C384.888 63.26 384.052 63.7667 383.546 64.324C383.09 64.8813 382.862 65.5907 382.862 66.452C382.862 67.516 383.166 68.352 383.774 68.96C384.382 69.5173 385.167 69.796 386.13 69.796C387.092 69.796 388.131 69.5427 389.246 69.036L393.882 66.68ZM428.989 41.676C431.168 41.676 433.195 42.208 435.069 43.272C436.944 44.336 438.439 45.932 439.553 48.06C440.668 50.1373 441.225 52.696 441.225 55.736C441.225 59.384 440.415 62.5253 438.793 65.16C437.223 67.744 435.145 69.6947 432.561 71.012C430.028 72.3293 427.343 72.988 424.505 72.988C420.604 72.988 417.159 71.8733 414.169 69.644L408.393 72.38H408.241C408.039 72.38 407.912 72.2787 407.861 72.076C407.811 71.8733 407.861 71.7213 408.013 71.62C409.635 70.5053 410.775 69.4667 411.433 68.504C412.092 67.4907 412.421 66.0467 412.421 64.172V26.628C412.421 24.804 412.219 23.4867 411.813 22.676C411.459 21.8653 410.825 21.46 409.913 21.46C409.204 21.46 408.064 21.7893 406.493 22.448H406.341C406.189 22.448 406.063 22.3213 405.961 22.068C405.911 21.8147 405.961 21.6627 406.113 21.612L415.613 16.976L415.993 16.9C416.095 16.9 416.221 16.976 416.373 17.128C416.576 17.2293 416.677 17.356 416.677 17.508V48.288C418.603 46.2613 420.528 44.6653 422.453 43.5C424.379 42.284 426.557 41.676 428.989 41.676ZM426.861 71.544C429.8 71.544 432.08 70.404 433.701 68.124C435.373 65.844 436.209 62.576 436.209 58.32C436.209 53.76 435.323 50.264 433.549 47.832C431.776 45.4 429.42 44.184 426.481 44.184C424.759 44.184 423.112 44.6653 421.541 45.628C419.971 46.54 418.349 47.832 416.677 49.504V61.968C416.677 64.1973 417.209 66.0213 418.273 67.44C419.388 68.8587 420.731 69.8973 422.301 70.556C423.872 71.2147 425.392 71.544 426.861 71.544ZM461.576 72.988C458.637 72.988 456.028 72.2787 453.748 70.86C451.518 69.3907 449.796 67.44 448.58 65.008C447.364 62.5253 446.756 59.84 446.756 56.952C446.756 53.6587 447.541 50.872 449.112 48.592C450.733 46.2613 452.785 44.5387 455.268 43.424C457.801 42.2587 460.36 41.676 462.944 41.676C465.933 41.676 468.542 42.4107 470.772 43.88C473.001 45.3493 474.698 47.3 475.864 49.732C477.08 52.1133 477.688 54.6467 477.688 57.332C477.688 60.4733 476.953 63.2347 475.484 65.616C474.014 67.9467 472.038 69.7707 469.556 71.088C467.124 72.3547 464.464 72.988 461.576 72.988ZM463.78 71.544C466.566 71.544 468.72 70.556 470.24 68.58C471.76 66.604 472.52 63.564 472.52 59.46C472.52 56.3187 471.988 53.5067 470.924 51.024C469.91 48.5413 468.492 46.616 466.668 45.248C464.844 43.8293 462.766 43.12 460.436 43.12C457.7 43.12 455.572 44.108 454.052 46.084C452.582 48.06 451.848 50.8973 451.848 54.596C451.848 57.6867 452.354 60.524 453.368 63.108C454.381 65.692 455.8 67.744 457.624 69.264C459.448 70.784 461.5 71.544 463.78 71.544ZM517.399 67.668C517.601 67.668 517.728 67.7947 517.779 68.048C517.88 68.2507 517.829 68.4027 517.627 68.504L508.735 72.684L508.431 72.76C507.924 72.76 507.443 72.1773 506.987 71.012C506.531 69.8467 506.303 68.3267 506.303 66.452V66.148C504.327 68.3773 502.351 70.024 500.375 71.088C498.399 72.1013 496.347 72.608 494.219 72.608C491.685 72.608 489.709 71.8227 488.291 70.252C486.872 68.6307 486.163 66.3 486.163 63.26V51.632C486.163 49.656 485.985 48.2373 485.631 47.376C485.276 46.464 484.693 46.008 483.883 46.008C483.173 46.008 482.312 46.2613 481.299 46.768H481.223C481.02 46.768 480.868 46.6413 480.767 46.388C480.665 46.084 480.716 45.9067 480.919 45.856L489.355 42.056L489.659 41.98C489.811 41.98 489.963 42.056 490.115 42.208C490.317 42.3093 490.419 42.436 490.419 42.588V60.752C490.419 66.6293 492.547 69.568 496.803 69.568C498.424 69.568 500.071 69.1627 501.743 68.352C503.415 67.4907 504.935 66.3253 506.303 64.856V51.632C506.303 49.6053 506.125 48.1613 505.771 47.3C505.467 46.4387 504.884 46.008 504.023 46.008C503.313 46.008 502.452 46.2613 501.439 46.768H501.363C501.16 46.768 501.008 46.6413 500.907 46.388C500.856 46.084 500.932 45.9067 501.135 45.856L509.571 42.056L509.799 41.98C509.951 41.98 510.103 42.056 510.255 42.208C510.457 42.3093 510.559 42.436 510.559 42.588V63.868C510.559 65.5907 510.761 66.832 511.167 67.592C511.572 68.352 512.256 68.732 513.219 68.732C514.08 68.732 515.423 68.3773 517.247 67.668H517.399ZM541.503 68.048C541.706 68.048 541.858 68.1747 541.959 68.428C542.061 68.6307 542.035 68.7827 541.883 68.884C540.009 70.3533 538.311 71.392 536.791 72C535.322 72.608 533.777 72.912 532.155 72.912C530.027 72.912 528.279 72.4307 526.911 71.468C525.543 70.5053 524.859 68.9093 524.859 66.68V48.82C524.859 47.5027 524.758 46.5653 524.555 46.008C524.403 45.4507 524.074 45.096 523.567 44.944C523.061 44.7413 522.199 44.64 520.983 44.64C520.781 44.64 520.679 44.488 520.679 44.184C520.679 43.8293 520.781 43.652 520.983 43.652C523.01 43.6013 524.657 43.0693 525.923 42.056C527.19 40.992 527.925 39.5987 528.127 37.876C528.127 37.724 528.33 37.648 528.735 37.648C529.09 37.648 529.267 37.724 529.267 37.876V43.5C531.801 43.4493 535.322 43.196 539.831 42.74C539.933 42.74 540.034 42.9427 540.135 43.348C540.287 43.7027 540.363 44.108 540.363 44.564C540.363 44.9693 540.262 45.4 540.059 45.856C539.907 46.2613 539.73 46.4387 539.527 46.388C536.741 45.6787 533.321 45.2733 529.267 45.172V64.096C529.267 66.1733 529.774 67.7187 530.787 68.732C531.851 69.7453 533.346 70.252 535.271 70.252C537.602 70.252 539.629 69.5427 541.351 68.124L541.503 68.048ZM244.322 138.664C244.474 138.664 244.55 138.816 244.55 139.12C244.55 139.424 244.474 139.576 244.322 139.576C243.056 139.576 241.966 140.032 241.054 140.944C240.142 141.856 239.281 143.351 238.47 145.428L229.198 170.128C227.324 175.043 225.55 178.868 223.878 181.604C222.257 184.391 220.56 186.367 218.786 187.532C217.064 188.748 215.062 189.356 212.782 189.356C211.668 189.356 210.756 189.103 210.046 188.596C209.286 188.089 208.906 187.355 208.906 186.392C208.906 185.683 209.134 185.125 209.59 184.72C210.046 184.315 210.604 184.112 211.262 184.112C211.921 184.112 212.478 184.188 212.934 184.34C213.39 184.492 213.872 184.745 214.378 185.1C214.48 185.151 214.758 185.303 215.214 185.556C215.721 185.809 216.329 185.936 217.038 185.936C218.254 185.936 219.394 185.404 220.458 184.34C221.573 183.276 222.738 181.477 223.954 178.944C225.221 176.461 226.69 173.016 228.362 168.608L216.81 144.972C215.645 142.743 214.758 141.299 214.15 140.64C213.542 139.931 212.757 139.576 211.794 139.576C211.693 139.576 211.642 139.424 211.642 139.12C211.642 138.816 211.693 138.664 211.794 138.664L214.378 138.74C214.986 138.791 215.822 138.816 216.886 138.816L221.75 138.74C222.46 138.689 223.448 138.664 224.714 138.664C224.816 138.664 224.866 138.816 224.866 139.12C224.866 139.424 224.816 139.576 224.714 139.576C221.776 139.576 220.306 140.159 220.306 141.324C220.306 141.628 220.433 142.033 220.686 142.54L230.718 163.136L236.798 145.656C237.204 144.44 237.406 143.477 237.406 142.768C237.406 141.603 236.95 140.792 236.038 140.336C235.126 139.829 233.632 139.576 231.554 139.576C231.453 139.576 231.402 139.424 231.402 139.12C231.402 138.816 231.453 138.664 231.554 138.664C232.922 138.664 233.961 138.689 234.67 138.74L239.23 138.816L241.966 138.74C242.473 138.689 243.258 138.664 244.322 138.664ZM262.15 168.988C259.211 168.988 256.602 168.279 254.322 166.86C252.092 165.391 250.37 163.44 249.154 161.008C247.938 158.525 247.33 155.84 247.33 152.952C247.33 149.659 248.115 146.872 249.686 144.592C251.307 142.261 253.359 140.539 255.842 139.424C258.375 138.259 260.934 137.676 263.518 137.676C266.507 137.676 269.116 138.411 271.346 139.88C273.575 141.349 275.272 143.3 276.438 145.732C277.654 148.113 278.262 150.647 278.262 153.332C278.262 156.473 277.527 159.235 276.058 161.616C274.588 163.947 272.612 165.771 270.13 167.088C267.698 168.355 265.038 168.988 262.15 168.988ZM264.354 167.544C267.14 167.544 269.294 166.556 270.814 164.58C272.334 162.604 273.094 159.564 273.094 155.46C273.094 152.319 272.562 149.507 271.498 147.024C270.484 144.541 269.066 142.616 267.242 141.248C265.418 139.829 263.34 139.12 261.01 139.12C258.274 139.12 256.146 140.108 254.626 142.084C253.156 144.06 252.422 146.897 252.422 150.596C252.422 153.687 252.928 156.524 253.942 159.108C254.955 161.692 256.374 163.744 258.198 165.264C260.022 166.784 262.074 167.544 264.354 167.544ZM317.973 163.668C318.176 163.668 318.302 163.795 318.353 164.048C318.454 164.251 318.404 164.403 318.201 164.504L309.309 168.684L309.005 168.76C308.498 168.76 308.017 168.177 307.561 167.012C307.105 165.847 306.877 164.327 306.877 162.452V162.148C304.901 164.377 302.925 166.024 300.949 167.088C298.973 168.101 296.921 168.608 294.793 168.608C292.26 168.608 290.284 167.823 288.865 166.252C287.446 164.631 286.737 162.3 286.737 159.26V147.632C286.737 145.656 286.56 144.237 286.205 143.376C285.85 142.464 285.268 142.008 284.457 142.008C283.748 142.008 282.886 142.261 281.873 142.768H281.797C281.594 142.768 281.442 142.641 281.341 142.388C281.24 142.084 281.29 141.907 281.493 141.856L289.929 138.056L290.233 137.98C290.385 137.98 290.537 138.056 290.689 138.208C290.892 138.309 290.993 138.436 290.993 138.588V156.752C290.993 162.629 293.121 165.568 297.377 165.568C298.998 165.568 300.645 165.163 302.317 164.352C303.989 163.491 305.509 162.325 306.877 160.856V147.632C306.877 145.605 306.7 144.161 306.345 143.3C306.041 142.439 305.458 142.008 304.597 142.008C303.888 142.008 303.026 142.261 302.013 142.768H301.937C301.734 142.768 301.582 142.641 301.481 142.388C301.43 142.084 301.506 141.907 301.709 141.856L310.145 138.056L310.373 137.98C310.525 137.98 310.677 138.056 310.829 138.208C311.032 138.309 311.133 138.436 311.133 138.588V159.868C311.133 161.591 311.336 162.832 311.741 163.592C312.146 164.352 312.83 164.732 313.793 164.732C314.654 164.732 315.997 164.377 317.821 163.668H317.973ZM325.965 168.836C324.952 168.836 324.141 168.532 323.533 167.924C322.925 167.316 322.621 166.531 322.621 165.568C322.621 164.605 322.925 163.845 323.533 163.288C324.141 162.68 324.952 162.376 325.965 162.376C327.029 162.376 327.84 162.655 328.397 163.212C329.005 163.769 329.309 164.555 329.309 165.568C329.309 166.581 329.005 167.392 328.397 168C327.84 168.557 327.029 168.836 325.965 168.836Z" fill="#469597"/>
</svg>
