<svg width="554" height="96" viewBox="0 0 554 96" fill="none" xmlns="http://www.w3.org/2000/svg">
<path d="M324 79.6769C324.971 78.7416 423.077 83.4185 493.381 83.8862C563.477 84.3539 301.813 88.0954 329.269 84.3539C363.867 79.6769 492.688 81.5477 506 75" stroke="#5BA199" stroke-width="1.5" stroke-miterlimit="10" stroke-linecap="round" stroke-linejoin="round"/>
<path d="M82.359 45.248C86.3616 45.552 89.579 46.8947 92.011 49.276C94.4936 51.6067 95.735 54.52 95.735 58.016C95.735 60.7013 95.0763 63.1333 93.759 65.312C92.4416 67.4907 90.6176 69.2133 88.287 70.48C86.007 71.696 83.4483 72.304 80.611 72.304C78.939 72.304 77.115 72.228 75.139 72.076C74.4296 72.0253 73.5936 71.9747 72.631 71.924C71.6683 71.8733 70.6043 71.848 69.439 71.848L64.271 71.924C63.359 71.9747 62.067 72 60.395 72C60.2936 72 60.243 71.848 60.243 71.544C60.243 71.24 60.2936 71.088 60.395 71.088C62.3203 71.088 63.739 70.9613 64.651 70.708C65.563 70.404 66.1963 69.8973 66.551 69.188C66.9056 68.4787 67.083 67.364 67.083 65.844V30.656C67.083 29.136 66.9056 28.0213 66.551 27.312C66.247 26.6027 65.639 26.1213 64.727 25.868C63.815 25.564 62.4216 25.412 60.547 25.412C60.395 25.412 60.319 25.26 60.319 24.956C60.319 24.652 60.395 24.5 60.547 24.5L64.271 24.576C66.399 24.6773 68.1216 24.728 69.439 24.728C70.351 24.728 71.187 24.7027 71.947 24.652C72.7576 24.6013 73.4416 24.5507 73.999 24.5C75.5696 24.348 77.039 24.272 78.407 24.272C82.663 24.272 85.855 25.2093 87.983 27.084C90.111 28.908 91.175 31.3147 91.175 34.304C91.175 36.736 90.3896 38.9147 88.819 40.84C87.2483 42.7147 85.095 44.184 82.359 45.248ZM76.735 25.412C75.4176 25.412 74.4296 25.5133 73.771 25.716C73.163 25.9187 72.707 26.4 72.403 27.16C72.099 27.92 71.947 29.136 71.947 30.808V45.248L75.367 45.324C79.0656 45.324 81.8016 44.3867 83.575 42.512C85.3483 40.5867 86.235 38.0533 86.235 34.912C86.235 32.0747 85.4496 29.7947 83.879 28.072C82.359 26.2987 79.9776 25.412 76.735 25.412ZM79.471 70.936C83.1696 70.936 85.9056 69.9987 87.679 68.124C89.503 66.1987 90.415 63.4627 90.415 59.916C90.415 56.0653 89.275 52.9493 86.995 50.568C84.7656 48.1867 81.675 46.9707 77.723 46.92C76.1016 46.8693 74.1763 46.92 71.947 47.072V65.844C71.947 67.1613 72.1243 68.1747 72.479 68.884C72.8843 69.5933 73.619 70.1253 74.683 70.48C75.7976 70.784 77.3936 70.936 79.471 70.936ZM102.546 72C102.394 72 102.318 71.848 102.318 71.544C102.318 71.24 102.394 71.088 102.546 71.088C103.914 71.088 104.927 70.9613 105.586 70.708C106.245 70.404 106.701 69.8973 106.954 69.188C107.207 68.428 107.334 67.3133 107.334 65.844V26.552C107.334 24.728 107.157 23.4107 106.802 22.6C106.447 21.7893 105.814 21.384 104.902 21.384C104.142 21.384 102.977 21.7387 101.406 22.448H101.254C101.102 22.448 100.975 22.3213 100.874 22.068C100.823 21.8147 100.874 21.6627 101.026 21.612L110.754 16.976C110.855 16.9253 110.982 16.9 111.134 16.9C111.235 16.9 111.362 16.976 111.514 17.128C111.717 17.2293 111.818 17.356 111.818 17.508V65.844C111.818 67.3133 111.919 68.4027 112.122 69.112C112.375 69.8213 112.831 70.328 113.49 70.632C114.149 70.936 115.162 71.088 116.53 71.088C116.682 71.088 116.758 71.24 116.758 71.544C116.758 71.848 116.682 72 116.53 72C115.415 72 114.503 71.9747 113.794 71.924L109.538 71.848L105.434 71.924C104.725 71.9747 103.762 72 102.546 72ZM136.656 72.988C133.717 72.988 131.108 72.2787 128.828 70.86C126.598 69.3907 124.876 67.44 123.66 65.008C122.444 62.5253 121.836 59.84 121.836 56.952C121.836 53.6587 122.621 50.872 124.192 48.592C125.813 46.2613 127.865 44.5387 130.348 43.424C132.881 42.2587 135.44 41.676 138.024 41.676C141.013 41.676 143.622 42.4107 145.852 43.88C148.081 45.3493 149.778 47.3 150.944 49.732C152.16 52.1133 152.768 54.6467 152.768 57.332C152.768 60.4733 152.033 63.2347 150.564 65.616C149.094 67.9467 147.118 69.7707 144.636 71.088C142.204 72.3547 139.544 72.988 136.656 72.988ZM138.86 71.544C141.646 71.544 143.8 70.556 145.32 68.58C146.84 66.604 147.6 63.564 147.6 59.46C147.6 56.3187 147.068 53.5067 146.004 51.024C144.99 48.5413 143.572 46.616 141.748 45.248C139.924 43.8293 137.846 43.12 135.516 43.12C132.78 43.12 130.652 44.108 129.132 46.084C127.662 48.06 126.928 50.8973 126.928 54.596C126.928 57.6867 127.434 60.524 128.448 63.108C129.461 65.692 130.88 67.744 132.704 69.264C134.528 70.784 136.58 71.544 138.86 71.544ZM173.859 69.796C176.899 70.252 179.305 70.7333 181.079 71.24C182.852 71.696 184.372 72.5067 185.639 73.672C186.905 74.888 187.539 76.56 187.539 78.688C187.539 80.968 186.677 83.248 184.955 85.528C183.232 87.8587 180.901 89.7587 177.963 91.228C175.075 92.6973 171.959 93.432 168.615 93.432C165.017 93.432 162.104 92.5707 159.875 90.848C157.696 89.1253 156.607 86.9213 156.607 84.236C156.607 80.2333 159.495 76.3067 165.271 72.456C161.825 71.4427 160.103 69.72 160.103 67.288C160.103 65.8693 160.584 64.5013 161.547 63.184C162.56 61.816 163.903 60.5747 165.575 59.46C163.599 58.7507 162.079 57.6613 161.015 56.192C159.951 54.672 159.419 52.9747 159.419 51.1C159.419 48.4653 160.533 46.312 162.763 44.64C164.992 42.968 167.804 42.132 171.199 42.132C174.543 42.132 177.127 42.9173 178.951 44.488C181.636 42.8667 184.347 42.056 187.083 42.056C187.235 42.056 187.336 42.2333 187.387 42.588C187.488 42.9427 187.539 43.3227 187.539 43.728C187.539 44.336 187.463 44.944 187.311 45.552C187.159 46.16 186.981 46.4133 186.779 46.312C186.627 46.2613 186.069 46.0587 185.107 45.704C184.195 45.3493 183.08 45.172 181.763 45.172C181.205 45.172 180.572 45.2227 179.863 45.324C181.18 46.844 181.839 48.6427 181.839 50.72C181.839 52.4427 181.357 54.0387 180.395 55.508C179.432 56.9267 178.089 58.0667 176.367 58.928C174.644 59.7893 172.643 60.22 170.363 60.22C168.893 60.22 167.601 60.068 166.487 59.764C165.625 60.372 164.941 61.1067 164.435 61.968C163.928 62.7787 163.675 63.6653 163.675 64.628C163.675 66.1987 164.384 67.3133 165.803 67.972C167.272 68.58 169.451 69.112 172.339 69.568L173.859 69.796ZM169.299 43.272C167.779 43.272 166.537 43.7787 165.575 44.792C164.663 45.8053 164.207 47.376 164.207 49.504C164.207 52.4427 164.967 54.7987 166.487 56.572C168.057 58.2947 169.881 59.156 171.959 59.156C173.479 59.156 174.72 58.5987 175.683 57.484C176.645 56.3187 177.127 54.5707 177.127 52.24C177.127 49.6053 176.341 47.452 174.771 45.78C173.251 44.108 171.427 43.272 169.299 43.272ZM171.655 91.152C174.137 91.152 176.265 90.696 178.039 89.784C179.863 88.872 181.231 87.656 182.143 86.136C183.105 84.6667 183.587 83.0707 183.587 81.348C183.587 79.372 182.953 77.852 181.687 76.788C180.42 75.724 178.925 74.9893 177.203 74.584C175.531 74.1787 173.149 73.7733 170.059 73.368C168.488 73.1653 167.399 72.988 166.791 72.836C164.967 74.0013 163.548 75.268 162.535 76.636C161.572 78.004 161.091 79.7267 161.091 81.804C161.091 84.6413 162.028 86.896 163.903 88.568C165.828 90.2907 168.412 91.152 171.655 91.152ZM237.698 67.896C237.901 67.896 238.028 68.0227 238.078 68.276C238.129 68.4787 238.053 68.6307 237.85 68.732L230.022 72.456C229.82 72.5573 229.617 72.608 229.414 72.608C228.756 72.608 228.173 72.1773 227.666 71.316C227.16 70.4547 226.83 69.264 226.678 67.744L221.966 70.252C220.396 71.0627 219.104 71.6453 218.09 72C217.077 72.3547 216.089 72.532 215.126 72.532C213.556 72.532 212.34 72.1267 211.478 71.316C210.668 70.4547 210.262 69.3907 210.262 68.124C210.262 66.756 210.769 65.6667 211.782 64.856C212.846 63.9947 214.721 63.108 217.406 62.196L226.602 58.928V52.62C226.602 49.276 226.172 46.9453 225.31 45.628C224.449 44.26 223.258 43.576 221.738 43.576C220.016 43.576 218.673 44.184 217.71 45.4C216.748 46.616 216.165 48.0853 215.962 49.808C215.76 51.7333 214.822 52.696 213.15 52.696C212.34 52.696 211.706 52.4933 211.25 52.088C210.794 51.6827 210.566 51.1253 210.566 50.416C210.566 49.2507 211.326 48.0093 212.846 46.692C214.366 45.3747 216.19 44.26 218.318 43.348C220.497 42.436 222.448 41.98 224.17 41.98C226.197 41.98 227.818 42.6893 229.034 44.108C230.25 45.476 230.858 47.5533 230.858 50.34V63.792C230.858 65.5653 231.086 66.8573 231.542 67.668C231.998 68.4787 232.758 68.884 233.822 68.884C234.785 68.884 236.026 68.5547 237.546 67.896H237.698ZM226.602 66.68V66.224V59.84L218.774 62.804C217.609 63.26 216.773 63.7667 216.266 64.324C215.81 64.8813 215.582 65.5907 215.582 66.452C215.582 67.516 215.886 68.352 216.494 68.96C217.102 69.5173 217.888 69.796 218.85 69.796C219.813 69.796 220.852 69.5427 221.966 69.036L226.602 66.68ZM275.618 71.088C275.77 71.088 275.846 71.24 275.846 71.544C275.846 71.848 275.77 72 275.618 72C274.453 72 273.541 71.9747 272.882 71.924L268.778 71.848L264.598 71.924C263.939 71.9747 263.027 72 261.862 72C261.71 72 261.634 71.848 261.634 71.544C261.634 71.24 261.71 71.088 261.862 71.088C263.23 71.088 264.243 70.9613 264.902 70.708C265.561 70.404 265.991 69.8973 266.194 69.188C266.447 68.4787 266.574 67.364 266.574 65.844V53.532C266.574 50.5427 265.991 48.3387 264.826 46.92C263.711 45.5013 261.963 44.792 259.582 44.792C258.011 44.792 256.415 45.2227 254.794 46.084C253.223 46.8947 251.779 48.0347 250.462 49.504V65.844C250.462 67.364 250.563 68.4787 250.766 69.188C251.019 69.8973 251.475 70.404 252.134 70.708C252.793 70.9613 253.806 71.088 255.174 71.088C255.326 71.088 255.402 71.24 255.402 71.544C255.402 71.848 255.326 72 255.174 72C254.009 72 253.097 71.9747 252.438 71.924L248.334 71.848L244.154 71.924C243.495 71.9747 242.583 72 241.418 72C241.266 72 241.19 71.848 241.19 71.544C241.19 71.24 241.266 71.088 241.418 71.088C242.786 71.088 243.799 70.9613 244.458 70.708C245.117 70.404 245.547 69.8973 245.75 69.188C246.003 68.4787 246.13 67.364 246.13 65.844V50.796C246.13 49.0733 245.927 47.832 245.522 47.072C245.117 46.312 244.433 45.932 243.47 45.932C242.659 45.932 241.291 46.312 239.366 47.072H239.214C239.011 47.072 238.859 46.9707 238.758 46.768C238.707 46.5147 238.783 46.3373 238.986 46.236L247.802 42.056C247.903 42.0053 248.055 41.98 248.258 41.98C248.714 41.98 249.195 42.5627 249.702 43.728C250.209 44.8933 250.462 46.388 250.462 48.212C252.387 45.9827 254.287 44.336 256.162 43.272C258.087 42.208 260.063 41.676 262.09 41.676C264.927 41.676 267.106 42.4613 268.626 44.032C270.146 45.6027 270.906 47.908 270.906 50.948V65.844C270.906 67.364 271.007 68.4787 271.21 69.188C271.463 69.8973 271.919 70.404 272.578 70.708C273.237 70.9613 274.25 71.088 275.618 71.088ZM315.716 67.668C315.918 67.668 316.045 67.7947 316.096 68.048C316.197 68.3013 316.172 68.4787 316.02 68.58L307.66 72.532C307.356 72.6333 307.153 72.684 307.052 72.684C306.393 72.684 305.836 72.1267 305.38 71.012C304.924 69.8973 304.67 68.352 304.62 66.376C302.745 68.352 300.769 69.948 298.692 71.164C296.665 72.38 294.385 72.988 291.852 72.988C289.724 72.988 287.748 72.38 285.924 71.164C284.15 69.948 282.706 68.2507 281.592 66.072C280.528 63.8427 279.996 61.3093 279.996 58.472C279.996 54.8747 280.882 51.8093 282.656 49.276C284.429 46.7427 286.658 44.8427 289.344 43.576C292.029 42.3093 294.689 41.676 297.324 41.676C300.009 41.676 302.441 42.3347 304.62 43.652V26.628C304.62 24.804 304.417 23.4867 304.012 22.676C303.657 21.8653 303.024 21.46 302.112 21.46C301.453 21.46 300.288 21.8147 298.616 22.524H298.464C298.261 22.524 298.109 22.4227 298.008 22.22C297.957 21.9667 298.008 21.7893 298.16 21.688L307.812 16.976C307.913 16.9253 308.04 16.9 308.192 16.9C308.293 16.9 308.42 16.976 308.572 17.128C308.774 17.2293 308.876 17.356 308.876 17.508V63.64C308.876 65.464 309.078 66.7813 309.484 67.592C309.94 68.4027 310.649 68.808 311.612 68.808C313.081 68.808 314.398 68.4533 315.564 67.744L315.716 67.668ZM294.816 70.252C296.64 70.252 298.337 69.8213 299.908 68.96C301.478 68.048 303.049 66.7813 304.62 65.16V48.44C303.404 46.768 302.061 45.476 300.592 44.564C299.122 43.652 297.349 43.196 295.272 43.196C292.08 43.196 289.546 44.336 287.672 46.616C285.848 48.8453 284.936 52.0373 284.936 56.192C284.936 58.9787 285.366 61.436 286.228 63.564C287.089 65.692 288.254 67.3387 289.724 68.504C291.244 69.6693 292.941 70.252 294.816 70.252ZM387.467 24.5C387.619 24.5 387.695 24.652 387.695 24.956C387.695 25.26 387.619 25.412 387.467 25.412C385.339 25.412 383.794 25.9947 382.831 27.16C381.868 28.3253 381.387 30.2253 381.387 32.86V72.912C381.387 73.0133 381.26 73.0893 381.007 73.14C380.754 73.1907 380.576 73.1653 380.475 73.064L345.515 30.732L344.831 29.972V63.716C344.831 66.3507 345.287 68.2507 346.199 69.416C347.162 70.5307 348.682 71.088 350.759 71.088C350.911 71.088 350.987 71.24 350.987 71.544C350.987 71.848 350.911 72 350.759 72C349.492 72 348.53 71.9747 347.871 71.924L344.071 71.848L340.195 71.924C339.486 71.9747 338.447 72 337.079 72C336.978 72 336.927 71.848 336.927 71.544C336.927 71.24 336.978 71.088 337.079 71.088C339.258 71.088 340.803 70.5307 341.715 69.416C342.627 68.2507 343.083 66.3507 343.083 63.716V28.148C341.107 26.324 339.106 25.412 337.079 25.412C336.927 25.412 336.851 25.26 336.851 24.956C336.851 24.652 336.927 24.5 337.079 24.5L339.891 24.576C340.499 24.6267 341.335 24.652 342.399 24.652C343.514 24.652 344.426 24.6267 345.135 24.576C345.844 24.5253 346.402 24.5 346.807 24.5C347.212 24.5 347.491 24.6013 347.643 24.804C347.846 24.956 348.15 25.336 348.555 25.944C349.163 26.856 349.771 27.692 350.379 28.452L379.639 64.4V32.86C379.639 30.2253 379.183 28.3253 378.271 27.16C377.41 25.9947 375.94 25.412 373.863 25.412C373.762 25.412 373.711 25.26 373.711 24.956C373.711 24.652 373.762 24.5 373.863 24.5L376.827 24.576C378.347 24.6773 379.588 24.728 380.551 24.728C381.463 24.728 382.73 24.6773 384.351 24.576L387.467 24.5ZM416.846 67.744C416.998 67.744 417.124 67.8453 417.226 68.048C417.378 68.2 417.403 68.352 417.302 68.504C413.856 71.4427 410.158 72.912 406.206 72.912C403.216 72.912 400.632 72.228 398.454 70.86C396.275 69.492 394.628 67.7187 393.514 65.54C392.45 63.3107 391.918 60.904 391.918 58.32C391.918 55.28 392.627 52.5187 394.046 50.036C395.515 47.5533 397.491 45.6027 399.974 44.184C402.456 42.7147 405.218 41.98 408.258 41.98C410.994 41.98 413.122 42.664 414.642 44.032C416.162 45.3493 416.922 47.1733 416.922 49.504C416.922 50.112 416.846 50.568 416.694 50.872C416.592 51.1253 416.364 51.252 416.01 51.252L397.314 51.404C397.06 52.772 396.934 54.0893 396.934 55.356C396.934 59.764 397.998 63.3613 400.126 66.148C402.254 68.884 405.192 70.252 408.942 70.252C411.83 70.252 414.439 69.416 416.77 67.744H416.846ZM405.674 43.5C403.596 43.5 401.848 44.108 400.43 45.324C399.062 46.4893 398.099 48.1613 397.542 50.34L411.678 50.036C411.678 47.9587 411.12 46.3627 410.006 45.248C408.942 44.0827 407.498 43.5 405.674 43.5ZM470.821 42.664C470.973 42.664 471.049 42.816 471.049 43.12C471.049 43.424 470.973 43.576 470.821 43.576C469.605 43.576 468.541 43.9813 467.629 44.792C466.768 45.6027 465.906 47.0467 465.045 49.124L455.545 71.924C455.494 72.1267 455.216 72.228 454.709 72.228C454.202 72.228 453.924 72.1267 453.873 71.924L445.285 53.456L437.609 71.924C437.558 72.1267 437.28 72.228 436.773 72.228C436.266 72.228 435.988 72.1267 435.937 71.924L425.297 48.972C424.284 46.7933 423.422 45.3493 422.713 44.64C422.054 43.9307 421.218 43.576 420.205 43.576C420.053 43.576 419.977 43.424 419.977 43.12C419.977 42.816 420.053 42.664 420.205 42.664C421.218 42.664 422.004 42.6893 422.561 42.74L425.449 42.816L430.009 42.74C430.769 42.6893 431.858 42.664 433.277 42.664C433.429 42.664 433.505 42.816 433.505 43.12C433.505 43.424 433.429 43.576 433.277 43.576C431.858 43.576 430.769 43.728 430.009 44.032C429.249 44.2853 428.869 44.7413 428.869 45.4C428.869 45.7547 428.97 46.1347 429.173 46.54L438.445 66.148L444.449 51.632L443.233 48.972C442.22 46.7933 441.384 45.3493 440.725 44.64C440.066 43.9307 439.256 43.576 438.293 43.576C438.192 43.576 438.141 43.424 438.141 43.12C438.141 42.816 438.192 42.664 438.293 42.664C439.306 42.664 440.066 42.6893 440.573 42.74L443.385 42.816L448.325 42.74C449.034 42.6893 449.997 42.664 451.213 42.664C451.365 42.664 451.441 42.816 451.441 43.12C451.441 43.424 451.365 43.576 451.213 43.576C448.325 43.576 446.881 44.184 446.881 45.4C446.881 45.7547 446.982 46.1347 447.185 46.54L456.381 66.3L463.525 48.744C463.88 47.984 464.057 47.2493 464.057 46.54C464.057 45.5267 463.576 44.792 462.613 44.336C461.65 43.8293 460.13 43.576 458.053 43.576C457.952 43.576 457.901 43.424 457.901 43.12C457.901 42.816 457.952 42.664 458.053 42.664C459.421 42.664 460.46 42.6893 461.169 42.74L465.729 42.816L468.465 42.74C468.972 42.6893 469.757 42.664 470.821 42.664ZM478.793 47.3C478.793 49.0733 479.376 50.492 480.541 51.556C481.707 52.5693 483.429 53.6587 485.709 54.824C487.483 55.736 488.851 56.5213 489.813 57.18C490.827 57.8387 491.688 58.7 492.397 59.764C493.107 60.828 493.461 62.12 493.461 63.64C493.461 66.224 492.499 68.4027 490.573 70.176C488.648 71.9493 486.039 72.836 482.745 72.836C480.06 72.836 477.628 72.076 475.449 70.556C475.145 70.3533 474.993 70.0493 474.993 69.644L474.841 63.716C474.841 63.564 474.968 63.488 475.221 63.488C475.525 63.4373 475.703 63.488 475.753 63.64C476.716 66.1733 477.957 68.0987 479.477 69.416C481.048 70.7333 482.847 71.392 484.873 71.392C486.444 71.392 487.66 71.0373 488.521 70.328C489.433 69.568 489.889 68.4533 489.889 66.984C489.889 65.5653 489.56 64.3747 488.901 63.412C488.293 62.3987 487.533 61.6133 486.621 61.056C485.709 60.448 484.468 59.7387 482.897 58.928C481.225 58.1173 479.883 57.3827 478.869 56.724C477.907 56.0653 477.071 55.204 476.361 54.14C475.703 53.076 475.373 51.7587 475.373 50.188C475.373 47.452 476.387 45.3747 478.413 43.956C480.491 42.4867 482.923 41.752 485.709 41.752C487.736 41.752 489.585 42.132 491.257 42.892C491.561 42.9933 491.739 43.12 491.789 43.272C491.891 43.3733 491.941 43.5253 491.941 43.728C491.941 44.7413 491.916 45.5267 491.865 46.084L491.789 49.276C491.789 49.3773 491.637 49.428 491.333 49.428C491.029 49.428 490.877 49.3773 490.877 49.276C490.877 48.212 490.472 47.224 489.661 46.312C488.851 45.3493 487.837 44.5893 486.621 44.032C485.405 43.4747 484.189 43.196 482.973 43.196C481.656 43.196 480.617 43.5507 479.857 44.26C479.148 44.9187 478.793 45.932 478.793 47.3Z" fill="#469597"/>
</svg>
