<svg width="291" height="219" viewBox="0 0 291 219" fill="none" xmlns="http://www.w3.org/2000/svg">
<path d="M42.524 22.144C41.264 22.144 40.124 21.868 39.104 21.316C38.096 20.752 37.304 19.984 36.728 19.012C36.152 18.028 35.864 16.924 35.864 15.7C35.864 14.476 36.152 13.378 36.728 12.406C37.304 11.422 38.102 10.654 39.122 10.102C40.142 9.538 41.282 9.256 42.542 9.256C43.526 9.256 44.426 9.424 45.242 9.76C46.058 10.084 46.754 10.57 47.33 11.218L46.16 12.352C45.212 11.356 44.03 10.858 42.614 10.858C41.678 10.858 40.832 11.068 40.076 11.488C39.32 11.908 38.726 12.49 38.294 13.234C37.874 13.966 37.664 14.788 37.664 15.7C37.664 16.612 37.874 17.44 38.294 18.184C38.726 18.916 39.32 19.492 40.076 19.912C40.832 20.332 41.678 20.542 42.614 20.542C44.018 20.542 45.2 20.038 46.16 19.03L47.33 20.164C46.754 20.812 46.052 21.304 45.224 21.64C44.408 21.976 43.508 22.144 42.524 22.144ZM54.7398 12.37C55.9518 12.37 56.9118 12.724 57.6198 13.432C58.3398 14.128 58.6998 15.154 58.6998 16.51V22H56.9718V16.708C56.9718 15.784 56.7498 15.088 56.3058 14.62C55.8618 14.152 55.2258 13.918 54.3978 13.918C53.4618 13.918 52.7238 14.194 52.1838 14.746C51.6438 15.286 51.3738 16.066 51.3738 17.086V22H49.6458V12.46H51.3018V13.9C51.6498 13.408 52.1178 13.03 52.7058 12.766C53.3058 12.502 53.9838 12.37 54.7398 12.37ZM64.6338 22.108C63.8538 22.108 63.1038 22.006 62.3838 21.802C61.6638 21.586 61.0998 21.316 60.6918 20.992L61.4118 19.624C61.8318 19.924 62.3418 20.164 62.9418 20.344C63.5418 20.524 64.1478 20.614 64.7598 20.614C66.2718 20.614 67.0278 20.182 67.0278 19.318C67.0278 19.03 66.9258 18.802 66.7218 18.634C66.5178 18.466 66.2598 18.346 65.9478 18.274C65.6478 18.19 65.2158 18.1 64.6518 18.004C63.8838 17.884 63.2538 17.746 62.7618 17.59C62.2818 17.434 61.8678 17.17 61.5198 16.798C61.1718 16.426 60.9978 15.904 60.9978 15.232C60.9978 14.368 61.3578 13.678 62.0778 13.162C62.7978 12.634 63.7638 12.37 64.9758 12.37C65.6118 12.37 66.2478 12.448 66.8838 12.604C67.5198 12.76 68.0418 12.97 68.4498 13.234L67.7118 14.602C66.9318 14.098 66.0138 13.846 64.9578 13.846C64.2258 13.846 63.6678 13.966 63.2838 14.206C62.8998 14.446 62.7078 14.764 62.7078 15.16C62.7078 15.472 62.8158 15.718 63.0318 15.898C63.2478 16.078 63.5118 16.21 63.8238 16.294C64.1478 16.378 64.5978 16.474 65.1738 16.582C65.9418 16.714 66.5598 16.858 67.0278 17.014C67.5078 17.158 67.9158 17.41 68.2518 17.77C68.5878 18.13 68.7558 18.634 68.7558 19.282C68.7558 20.146 68.3838 20.836 67.6398 21.352C66.9078 21.856 65.9058 22.108 64.6338 22.108ZM79.5373 17.284C79.5373 17.416 79.5253 17.59 79.5013 17.806H71.7613C71.8693 18.646 72.2353 19.324 72.8593 19.84C73.4953 20.344 74.2813 20.596 75.2173 20.596C76.3573 20.596 77.2753 20.212 77.9713 19.444L78.9253 20.56C78.4933 21.064 77.9533 21.448 77.3053 21.712C76.6693 21.976 75.9553 22.108 75.1633 22.108C74.1553 22.108 73.2613 21.904 72.4813 21.496C71.7013 21.076 71.0953 20.494 70.6633 19.75C70.2433 19.006 70.0333 18.166 70.0333 17.23C70.0333 16.306 70.2373 15.472 70.6453 14.728C71.0653 13.984 71.6353 13.408 72.3553 13C73.0873 12.58 73.9093 12.37 74.8213 12.37C75.7333 12.37 76.5433 12.58 77.2513 13C77.9713 13.408 78.5293 13.984 78.9253 14.728C79.3333 15.472 79.5373 16.324 79.5373 17.284ZM74.8213 13.828C73.9933 13.828 73.2973 14.08 72.7333 14.584C72.1813 15.088 71.8573 15.748 71.7613 16.564H77.8813C77.7853 15.76 77.4553 15.106 76.8913 14.602C76.3393 14.086 75.6493 13.828 74.8213 13.828ZM86.0948 22.108C85.1228 22.108 84.2528 21.898 83.4848 21.478C82.7288 21.058 82.1348 20.482 81.7028 19.75C81.2708 19.006 81.0548 18.166 81.0548 17.23C81.0548 16.294 81.2708 15.46 81.7028 14.728C82.1348 13.984 82.7288 13.408 83.4848 13C84.2528 12.58 85.1228 12.37 86.0948 12.37C86.9588 12.37 87.7268 12.544 88.3988 12.892C89.0828 13.24 89.6108 13.744 89.9828 14.404L88.6688 15.25C88.3688 14.794 87.9968 14.452 87.5528 14.224C87.1088 13.996 86.6168 13.882 86.0768 13.882C85.4528 13.882 84.8888 14.02 84.3848 14.296C83.8928 14.572 83.5028 14.968 83.2148 15.484C82.9388 15.988 82.8008 16.57 82.8008 17.23C82.8008 17.902 82.9388 18.496 83.2148 19.012C83.5028 19.516 83.8928 19.906 84.3848 20.182C84.8888 20.458 85.4528 20.596 86.0768 20.596C86.6168 20.596 87.1088 20.482 87.5528 20.254C87.9968 20.026 88.3688 19.684 88.6688 19.228L89.9828 20.056C89.6108 20.716 89.0828 21.226 88.3988 21.586C87.7268 21.934 86.9588 22.108 86.0948 22.108ZM97.7071 21.442C97.4551 21.658 97.1431 21.826 96.7711 21.946C96.3991 22.054 96.0151 22.108 95.6191 22.108C94.6591 22.108 93.9151 21.85 93.3871 21.334C92.8591 20.818 92.5951 20.08 92.5951 19.12V13.882H90.9751V12.46H92.5951V10.372H94.3231V12.46H97.0591V13.882H94.3231V19.048C94.3231 19.564 94.4491 19.96 94.7011 20.236C94.9651 20.512 95.3371 20.65 95.8171 20.65C96.3451 20.65 96.7951 20.5 97.1671 20.2L97.7071 21.442ZM108.102 17.284C108.102 17.416 108.09 17.59 108.066 17.806H100.326C100.434 18.646 100.8 19.324 101.424 19.84C102.06 20.344 102.846 20.596 103.782 20.596C104.922 20.596 105.84 20.212 106.536 19.444L107.49 20.56C107.058 21.064 106.518 21.448 105.87 21.712C105.234 21.976 104.52 22.108 103.728 22.108C102.72 22.108 101.826 21.904 101.046 21.496C100.266 21.076 99.6598 20.494 99.2278 19.75C98.8078 19.006 98.5978 18.166 98.5978 17.23C98.5978 16.306 98.8018 15.472 99.2098 14.728C99.6298 13.984 100.2 13.408 100.92 13C101.652 12.58 102.474 12.37 103.386 12.37C104.298 12.37 105.108 12.58 105.816 13C106.536 13.408 107.094 13.984 107.49 14.728C107.898 15.472 108.102 16.324 108.102 17.284ZM103.386 13.828C102.558 13.828 101.862 14.08 101.298 14.584C100.746 15.088 100.422 15.748 100.326 16.564H106.446C106.35 15.76 106.02 15.106 105.456 14.602C104.904 14.086 104.214 13.828 103.386 13.828ZM115.865 21.442C115.613 21.658 115.301 21.826 114.929 21.946C114.557 22.054 114.173 22.108 113.777 22.108C112.817 22.108 112.073 21.85 111.545 21.334C111.017 20.818 110.753 20.08 110.753 19.12V13.882H109.133V12.46H110.753V10.372H112.481V12.46H115.217V13.882H112.481V19.048C112.481 19.564 112.607 19.96 112.859 20.236C113.123 20.512 113.495 20.65 113.975 20.65C114.503 20.65 114.953 20.5 115.325 20.2L115.865 21.442ZM126.846 12.46V22H125.208V20.56C124.86 21.052 124.398 21.436 123.822 21.712C123.258 21.976 122.64 22.108 121.968 22.108C120.696 22.108 119.694 21.76 118.962 21.064C118.23 20.356 117.864 19.318 117.864 17.95V12.46H119.592V17.752C119.592 18.676 119.814 19.378 120.258 19.858C120.702 20.326 121.338 20.56 122.166 20.56C123.078 20.56 123.798 20.284 124.326 19.732C124.854 19.18 125.118 18.4 125.118 17.392V12.46H126.846ZM131.792 14.062C132.092 13.51 132.536 13.09 133.124 12.802C133.712 12.514 134.426 12.37 135.266 12.37V14.044C135.17 14.032 135.038 14.026 134.87 14.026C133.934 14.026 133.196 14.308 132.656 14.872C132.128 15.424 131.864 16.216 131.864 17.248V22H130.136V12.46H131.792V14.062ZM145.827 12.37C147.147 12.37 148.155 12.694 148.851 13.342C149.559 13.99 149.913 14.956 149.913 16.24V22H148.275V20.74C147.987 21.184 147.573 21.526 147.033 21.766C146.505 21.994 145.875 22.108 145.143 22.108C144.075 22.108 143.217 21.85 142.569 21.334C141.933 20.818 141.615 20.14 141.615 19.3C141.615 18.46 141.921 17.788 142.533 17.284C143.145 16.768 144.117 16.51 145.449 16.51H148.185V16.168C148.185 15.424 147.969 14.854 147.537 14.458C147.105 14.062 146.469 13.864 145.629 13.864C145.065 13.864 144.513 13.96 143.973 14.152C143.433 14.332 142.977 14.578 142.605 14.89L141.885 13.594C142.377 13.198 142.965 12.898 143.649 12.694C144.333 12.478 145.059 12.37 145.827 12.37ZM145.431 20.776C146.091 20.776 146.661 20.632 147.141 20.344C147.621 20.044 147.969 19.624 148.185 19.084V17.752H145.521C144.057 17.752 143.325 18.244 143.325 19.228C143.325 19.708 143.511 20.086 143.883 20.362C144.255 20.638 144.771 20.776 145.431 20.776ZM162.163 8.644V22H160.507V20.488C160.123 21.016 159.637 21.418 159.049 21.694C158.461 21.97 157.813 22.108 157.105 22.108C156.181 22.108 155.353 21.904 154.621 21.496C153.889 21.088 153.313 20.518 152.893 19.786C152.485 19.042 152.281 18.19 152.281 17.23C152.281 16.27 152.485 15.424 152.893 14.692C153.313 13.96 153.889 13.39 154.621 12.982C155.353 12.574 156.181 12.37 157.105 12.37C157.789 12.37 158.419 12.502 158.995 12.766C159.571 13.018 160.051 13.396 160.435 13.9V8.644H162.163ZM157.249 20.596C157.849 20.596 158.395 20.458 158.887 20.182C159.379 19.894 159.763 19.498 160.039 18.994C160.315 18.478 160.453 17.89 160.453 17.23C160.453 16.57 160.315 15.988 160.039 15.484C159.763 14.968 159.379 14.572 158.887 14.296C158.395 14.02 157.849 13.882 157.249 13.882C156.637 13.882 156.085 14.02 155.593 14.296C155.113 14.572 154.729 14.968 154.441 15.484C154.165 15.988 154.027 16.57 154.027 17.23C154.027 17.89 154.165 18.478 154.441 18.994C154.729 19.498 155.113 19.894 155.593 20.182C156.085 20.458 156.637 20.596 157.249 20.596ZM165.433 12.46H167.161V22H165.433V12.46ZM166.297 10.624C165.961 10.624 165.679 10.516 165.451 10.3C165.235 10.084 165.127 9.82 165.127 9.508C165.127 9.196 165.235 8.932 165.451 8.716C165.679 8.488 165.961 8.374 166.297 8.374C166.633 8.374 166.909 8.482 167.125 8.698C167.353 8.902 167.467 9.16 167.467 9.472C167.467 9.796 167.353 10.072 167.125 10.3C166.909 10.516 166.633 10.624 166.297 10.624ZM175.518 12.37C176.442 12.37 177.27 12.574 178.002 12.982C178.734 13.39 179.304 13.96 179.712 14.692C180.132 15.424 180.342 16.27 180.342 17.23C180.342 18.19 180.132 19.042 179.712 19.786C179.304 20.518 178.734 21.088 178.002 21.496C177.27 21.904 176.442 22.108 175.518 22.108C174.834 22.108 174.204 21.976 173.628 21.712C173.064 21.448 172.584 21.064 172.188 20.56V25.492H170.46V12.46H172.116V13.972C172.5 13.444 172.986 13.048 173.574 12.784C174.162 12.508 174.81 12.37 175.518 12.37ZM175.374 20.596C175.986 20.596 176.532 20.458 177.012 20.182C177.504 19.894 177.888 19.498 178.164 18.994C178.452 18.478 178.596 17.89 178.596 17.23C178.596 16.57 178.452 15.988 178.164 15.484C177.888 14.968 177.504 14.572 177.012 14.296C176.532 14.02 175.986 13.882 175.374 13.882C174.774 13.882 174.228 14.026 173.736 14.314C173.256 14.59 172.872 14.98 172.584 15.484C172.308 15.988 172.17 16.57 172.17 17.23C172.17 17.89 172.308 18.478 172.584 18.994C172.86 19.498 173.244 19.894 173.736 20.182C174.228 20.458 174.774 20.596 175.374 20.596ZM182.73 12.46H184.458V22H182.73V12.46ZM183.594 10.624C183.258 10.624 182.976 10.516 182.748 10.3C182.532 10.084 182.424 9.82 182.424 9.508C182.424 9.196 182.532 8.932 182.748 8.716C182.976 8.488 183.258 8.374 183.594 8.374C183.93 8.374 184.206 8.482 184.422 8.698C184.65 8.902 184.764 9.16 184.764 9.472C184.764 9.796 184.65 10.072 184.422 10.3C184.206 10.516 183.93 10.624 183.594 10.624ZM190.493 22.108C189.713 22.108 188.963 22.006 188.243 21.802C187.523 21.586 186.959 21.316 186.551 20.992L187.271 19.624C187.691 19.924 188.201 20.164 188.801 20.344C189.401 20.524 190.007 20.614 190.619 20.614C192.131 20.614 192.887 20.182 192.887 19.318C192.887 19.03 192.785 18.802 192.581 18.634C192.377 18.466 192.119 18.346 191.807 18.274C191.507 18.19 191.075 18.1 190.511 18.004C189.743 17.884 189.113 17.746 188.621 17.59C188.141 17.434 187.727 17.17 187.379 16.798C187.031 16.426 186.857 15.904 186.857 15.232C186.857 14.368 187.217 13.678 187.937 13.162C188.657 12.634 189.623 12.37 190.835 12.37C191.471 12.37 192.107 12.448 192.743 12.604C193.379 12.76 193.901 12.97 194.309 13.234L193.571 14.602C192.791 14.098 191.873 13.846 190.817 13.846C190.085 13.846 189.527 13.966 189.143 14.206C188.759 14.446 188.567 14.764 188.567 15.16C188.567 15.472 188.675 15.718 188.891 15.898C189.107 16.078 189.371 16.21 189.683 16.294C190.007 16.378 190.457 16.474 191.033 16.582C191.801 16.714 192.419 16.858 192.887 17.014C193.367 17.158 193.775 17.41 194.111 17.77C194.447 18.13 194.615 18.634 194.615 19.282C194.615 20.146 194.243 20.836 193.499 21.352C192.767 21.856 191.765 22.108 190.493 22.108ZM200.933 22.108C199.961 22.108 199.091 21.898 198.323 21.478C197.567 21.058 196.973 20.482 196.541 19.75C196.109 19.006 195.893 18.166 195.893 17.23C195.893 16.294 196.109 15.46 196.541 14.728C196.973 13.984 197.567 13.408 198.323 13C199.091 12.58 199.961 12.37 200.933 12.37C201.797 12.37 202.565 12.544 203.237 12.892C203.921 13.24 204.449 13.744 204.821 14.404L203.507 15.25C203.207 14.794 202.835 14.452 202.391 14.224C201.947 13.996 201.455 13.882 200.915 13.882C200.291 13.882 199.727 14.02 199.223 14.296C198.731 14.572 198.341 14.968 198.053 15.484C197.777 15.988 197.639 16.57 197.639 17.23C197.639 17.902 197.777 18.496 198.053 19.012C198.341 19.516 198.731 19.906 199.223 20.182C199.727 20.458 200.291 20.596 200.915 20.596C201.455 20.596 201.947 20.482 202.391 20.254C202.835 20.026 203.207 19.684 203.507 19.228L204.821 20.056C204.449 20.716 203.921 21.226 203.237 21.586C202.565 21.934 201.797 22.108 200.933 22.108ZM207.058 12.46H208.786V22H207.058V12.46ZM207.922 10.624C207.586 10.624 207.304 10.516 207.076 10.3C206.86 10.084 206.752 9.82 206.752 9.508C206.752 9.196 206.86 8.932 207.076 8.716C207.304 8.488 207.586 8.374 207.922 8.374C208.258 8.374 208.534 8.482 208.75 8.698C208.978 8.902 209.092 9.16 209.092 9.472C209.092 9.796 208.978 10.072 208.75 10.3C208.534 10.516 208.258 10.624 207.922 10.624ZM217.179 12.37C218.391 12.37 219.351 12.724 220.059 13.432C220.779 14.128 221.139 15.154 221.139 16.51V22H219.411V16.708C219.411 15.784 219.189 15.088 218.745 14.62C218.301 14.152 217.665 13.918 216.837 13.918C215.901 13.918 215.163 14.194 214.623 14.746C214.083 15.286 213.813 16.066 213.813 17.086V22H212.085V12.46H213.741V13.9C214.089 13.408 214.557 13.03 215.145 12.766C215.745 12.502 216.423 12.37 217.179 12.37ZM233.516 12.46V20.704C233.516 22.372 233.102 23.602 232.274 24.394C231.446 25.198 230.21 25.6 228.566 25.6C227.666 25.6 226.808 25.474 225.992 25.222C225.176 24.982 224.516 24.634 224.012 24.178L224.84 22.846C225.284 23.23 225.83 23.53 226.478 23.746C227.138 23.974 227.816 24.088 228.512 24.088C229.628 24.088 230.45 23.824 230.978 23.296C231.518 22.768 231.788 21.964 231.788 20.884V20.128C231.38 20.62 230.876 20.992 230.276 21.244C229.688 21.484 229.046 21.604 228.35 21.604C227.438 21.604 226.61 21.412 225.866 21.028C225.134 20.632 224.558 20.086 224.138 19.39C223.718 18.682 223.508 17.878 223.508 16.978C223.508 16.078 223.718 15.28 224.138 14.584C224.558 13.876 225.134 13.33 225.866 12.946C226.61 12.562 227.438 12.37 228.35 12.37C229.07 12.37 229.736 12.502 230.348 12.766C230.972 13.03 231.482 13.42 231.878 13.936V12.46H233.516ZM228.548 20.092C229.172 20.092 229.73 19.96 230.222 19.696C230.726 19.432 231.116 19.066 231.392 18.598C231.68 18.118 231.824 17.578 231.824 16.978C231.824 16.054 231.518 15.31 230.906 14.746C230.294 14.17 229.508 13.882 228.548 13.882C227.576 13.882 226.784 14.17 226.172 14.746C225.56 15.31 225.254 16.054 225.254 16.978C225.254 17.578 225.392 18.118 225.668 18.598C225.956 19.066 226.346 19.432 226.838 19.696C227.342 19.96 227.912 20.092 228.548 20.092ZM250.274 17.284C250.274 17.416 250.262 17.59 250.238 17.806H242.498C242.606 18.646 242.972 19.324 243.596 19.84C244.232 20.344 245.018 20.596 245.954 20.596C247.094 20.596 248.012 20.212 248.708 19.444L249.662 20.56C249.23 21.064 248.69 21.448 248.042 21.712C247.406 21.976 246.692 22.108 245.9 22.108C244.892 22.108 243.998 21.904 243.218 21.496C242.438 21.076 241.832 20.494 241.4 19.75C240.98 19.006 240.77 18.166 240.77 17.23C240.77 16.306 240.974 15.472 241.382 14.728C241.802 13.984 242.372 13.408 243.092 13C243.824 12.58 244.646 12.37 245.558 12.37C246.47 12.37 247.28 12.58 247.988 13C248.708 13.408 249.266 13.984 249.662 14.728C250.07 15.472 250.274 16.324 250.274 17.284ZM245.558 13.828C244.73 13.828 244.034 14.08 243.47 14.584C242.918 15.088 242.594 15.748 242.498 16.564H248.618C248.522 15.76 248.192 15.106 247.628 14.602C247.076 14.086 246.386 13.828 245.558 13.828ZM252.673 8.644H254.401V22H252.673V8.644ZM257.701 12.46H259.429V22H257.701V12.46ZM258.565 10.624C258.229 10.624 257.947 10.516 257.719 10.3C257.503 10.084 257.395 9.82 257.395 9.508C257.395 9.196 257.503 8.932 257.719 8.716C257.947 8.488 258.229 8.374 258.565 8.374C258.901 8.374 259.177 8.482 259.393 8.698C259.621 8.902 259.735 9.16 259.735 9.472C259.735 9.796 259.621 10.072 259.393 10.3C259.177 10.516 258.901 10.624 258.565 10.624ZM268.092 21.442C267.84 21.658 267.528 21.826 267.156 21.946C266.784 22.054 266.4 22.108 266.004 22.108C265.044 22.108 264.3 21.85 263.772 21.334C263.244 20.818 262.98 20.08 262.98 19.12V13.882H261.36V12.46H262.98V10.372H264.708V12.46H267.444V13.882H264.708V19.048C264.708 19.564 264.834 19.96 265.086 20.236C265.35 20.512 265.722 20.65 266.202 20.65C266.73 20.65 267.18 20.5 267.552 20.2L268.092 21.442ZM270.771 22.108C270.435 22.108 270.147 21.994 269.907 21.766C269.667 21.526 269.547 21.226 269.547 20.866C269.547 20.518 269.667 20.23 269.907 20.002C270.147 19.762 270.435 19.642 270.771 19.642C271.107 19.642 271.389 19.756 271.617 19.984C271.845 20.212 271.959 20.506 271.959 20.866C271.959 21.226 271.839 21.526 271.599 21.766C271.371 21.994 271.095 22.108 270.771 22.108Z" fill="#DDBEAA"/>
<path d="M6.99251 22.9998C6.70063 22.9998 6.4203 22.8874 6.2133 22.6864L0.323127 16.9681C-0.107384 16.5503 -0.107384 15.8727 0.323127 15.4547C0.753402 15.0367 1.45151 15.0365 1.88178 15.4547L6.94724 20.3721L17.0758 9.35736C17.4811 8.91693 18.1778 8.87801 18.6321 9.27175C19.0862 9.66548 19.1258 10.3419 18.7203 10.7828L7.81463 22.6422C7.61281 22.8618 7.32659 22.9909 7.02363 22.9993C7.01326 22.9996 7.00288 22.9998 6.99251 22.9998Z" fill="#5BA199"/>
<path d="M36.89 103.4H42.2C43.532 103.4 44.714 103.664 45.746 104.192C46.778 104.72 47.576 105.464 48.14 106.424C48.716 107.372 49.004 108.464 49.004 109.7C49.004 110.936 48.716 112.034 48.14 112.994C47.576 113.942 46.778 114.68 45.746 115.208C44.714 115.736 43.532 116 42.2 116H36.89V103.4ZM42.092 114.434C43.112 114.434 44.006 114.236 44.774 113.84C45.554 113.444 46.154 112.892 46.574 112.184C46.994 111.464 47.204 110.636 47.204 109.7C47.204 108.764 46.994 107.942 46.574 107.234C46.154 106.514 45.554 105.956 44.774 105.56C44.006 105.164 43.112 104.966 42.092 104.966H38.69V114.434H42.092ZM55.5951 116.108C54.6471 116.108 53.7951 115.898 53.0391 115.478C52.2831 115.058 51.6891 114.482 51.2571 113.75C50.8371 113.006 50.6271 112.166 50.6271 111.23C50.6271 110.294 50.8371 109.46 51.2571 108.728C51.6891 107.984 52.2831 107.408 53.0391 107C53.7951 106.58 54.6471 106.37 55.5951 106.37C56.5431 106.37 57.3891 106.58 58.1331 107C58.8891 107.408 59.4771 107.984 59.8971 108.728C60.3291 109.46 60.5451 110.294 60.5451 111.23C60.5451 112.166 60.3291 113.006 59.8971 113.75C59.4771 114.482 58.8891 115.058 58.1331 115.478C57.3891 115.898 56.5431 116.108 55.5951 116.108ZM55.5951 114.596C56.2071 114.596 56.7531 114.458 57.2331 114.182C57.7251 113.894 58.1091 113.498 58.3851 112.994C58.6611 112.478 58.7991 111.89 58.7991 111.23C58.7991 110.57 58.6611 109.988 58.3851 109.484C58.1091 108.968 57.7251 108.572 57.2331 108.296C56.7531 108.02 56.2071 107.882 55.5951 107.882C54.9831 107.882 54.4311 108.02 53.9391 108.296C53.4591 108.572 53.0751 108.968 52.7871 109.484C52.5111 109.988 52.3731 110.57 52.3731 111.23C52.3731 111.89 52.5111 112.478 52.7871 112.994C53.0751 113.498 53.4591 113.894 53.9391 114.182C54.4311 114.458 54.9831 114.596 55.5951 114.596ZM68.0289 106.37C69.2409 106.37 70.2009 106.724 70.9089 107.432C71.6289 108.128 71.9889 109.154 71.9889 110.51V116H70.2609V110.708C70.2609 109.784 70.0389 109.088 69.5949 108.62C69.1509 108.152 68.5149 107.918 67.6869 107.918C66.7509 107.918 66.0129 108.194 65.4729 108.746C64.9329 109.286 64.6629 110.066 64.6629 111.086V116H62.9349V106.46H64.5909V107.9C64.9389 107.408 65.4069 107.03 65.9949 106.766C66.5949 106.502 67.2729 106.37 68.0289 106.37ZM83.8616 111.284C83.8616 111.416 83.8496 111.59 83.8256 111.806H76.0856C76.1936 112.646 76.5596 113.324 77.1836 113.84C77.8196 114.344 78.6056 114.596 79.5416 114.596C80.6816 114.596 81.5996 114.212 82.2956 113.444L83.2496 114.56C82.8176 115.064 82.2776 115.448 81.6296 115.712C80.9936 115.976 80.2796 116.108 79.4876 116.108C78.4796 116.108 77.5856 115.904 76.8056 115.496C76.0256 115.076 75.4196 114.494 74.9876 113.75C74.5676 113.006 74.3576 112.166 74.3576 111.23C74.3576 110.306 74.5616 109.472 74.9696 108.728C75.3896 107.984 75.9596 107.408 76.6796 107C77.4116 106.58 78.2336 106.37 79.1456 106.37C80.0576 106.37 80.8676 106.58 81.5756 107C82.2956 107.408 82.8536 107.984 83.2496 108.728C83.6576 109.472 83.8616 110.324 83.8616 111.284ZM79.1456 107.828C78.3176 107.828 77.6216 108.08 77.0576 108.584C76.5056 109.088 76.1816 109.748 76.0856 110.564H82.2056C82.1096 109.76 81.7796 109.106 81.2156 108.602C80.6636 108.086 79.9736 107.828 79.1456 107.828ZM90.419 116.108C89.447 116.108 88.577 115.898 87.809 115.478C87.053 115.058 86.459 114.482 86.027 113.75C85.595 113.006 85.379 112.166 85.379 111.23C85.379 110.294 85.595 109.46 86.027 108.728C86.459 107.984 87.053 107.408 87.809 107C88.577 106.58 89.447 106.37 90.419 106.37C91.283 106.37 92.051 106.544 92.723 106.892C93.407 107.24 93.935 107.744 94.307 108.404L92.993 109.25C92.693 108.794 92.321 108.452 91.877 108.224C91.433 107.996 90.941 107.882 90.401 107.882C89.777 107.882 89.213 108.02 88.709 108.296C88.217 108.572 87.827 108.968 87.539 109.484C87.263 109.988 87.125 110.57 87.125 111.23C87.125 111.902 87.263 112.496 87.539 113.012C87.827 113.516 88.217 113.906 88.709 114.182C89.213 114.458 89.777 114.596 90.401 114.596C90.941 114.596 91.433 114.482 91.877 114.254C92.321 114.026 92.693 113.684 92.993 113.228L94.307 114.056C93.935 114.716 93.407 115.226 92.723 115.586C92.051 115.934 91.283 116.108 90.419 116.108ZM106.742 115.442C106.49 115.658 106.178 115.826 105.806 115.946C105.434 116.054 105.05 116.108 104.654 116.108C103.694 116.108 102.95 115.85 102.422 115.334C101.894 114.818 101.63 114.08 101.63 113.12V107.882H100.01V106.46H101.63V104.372H103.358V106.46H106.094V107.882H103.358V113.048C103.358 113.564 103.484 113.96 103.736 114.236C104 114.512 104.372 114.65 104.852 114.65C105.38 114.65 105.83 114.5 106.202 114.2L106.742 115.442ZM108.831 106.46H110.559V116H108.831V106.46ZM109.695 104.624C109.359 104.624 109.077 104.516 108.849 104.3C108.633 104.084 108.525 103.82 108.525 103.508C108.525 103.196 108.633 102.932 108.849 102.716C109.077 102.488 109.359 102.374 109.695 102.374C110.031 102.374 110.307 102.482 110.523 102.698C110.751 102.902 110.865 103.16 110.865 103.472C110.865 103.796 110.751 104.072 110.523 104.3C110.307 104.516 110.031 104.624 109.695 104.624ZM118.953 106.37C120.165 106.37 121.125 106.724 121.833 107.432C122.553 108.128 122.913 109.154 122.913 110.51V116H121.185V110.708C121.185 109.784 120.963 109.088 120.519 108.62C120.075 108.152 119.439 107.918 118.611 107.918C117.675 107.918 116.937 108.194 116.397 108.746C115.857 109.286 115.587 110.066 115.587 111.086V116H113.859V106.46H115.515V107.9C115.863 107.408 116.331 107.03 116.919 106.766C117.519 106.502 118.197 106.37 118.953 106.37ZM130.321 116.108C129.349 116.108 128.479 115.898 127.711 115.478C126.955 115.058 126.361 114.482 125.929 113.75C125.497 113.006 125.281 112.166 125.281 111.23C125.281 110.294 125.497 109.46 125.929 108.728C126.361 107.984 126.955 107.408 127.711 107C128.479 106.58 129.349 106.37 130.321 106.37C131.185 106.37 131.953 106.544 132.625 106.892C133.309 107.24 133.837 107.744 134.209 108.404L132.895 109.25C132.595 108.794 132.223 108.452 131.779 108.224C131.335 107.996 130.843 107.882 130.303 107.882C129.679 107.882 129.115 108.02 128.611 108.296C128.119 108.572 127.729 108.968 127.441 109.484C127.165 109.988 127.027 110.57 127.027 111.23C127.027 111.902 127.165 112.496 127.441 113.012C127.729 113.516 128.119 113.906 128.611 114.182C129.115 114.458 129.679 114.596 130.303 114.596C130.843 114.596 131.335 114.482 131.779 114.254C132.223 114.026 132.595 113.684 132.895 113.228L134.209 114.056C133.837 114.716 133.309 115.226 132.625 115.586C131.953 115.934 131.185 116.108 130.321 116.108ZM136.447 106.46H138.175V116H136.447V106.46ZM137.311 104.624C136.975 104.624 136.693 104.516 136.465 104.3C136.249 104.084 136.141 103.82 136.141 103.508C136.141 103.196 136.249 102.932 136.465 102.716C136.693 102.488 136.975 102.374 137.311 102.374C137.647 102.374 137.923 102.482 138.139 102.698C138.367 102.902 138.481 103.16 138.481 103.472C138.481 103.796 138.367 104.072 138.139 104.3C137.923 104.516 137.647 104.624 137.311 104.624ZM150.474 102.644V116H148.818V114.488C148.434 115.016 147.948 115.418 147.36 115.694C146.772 115.97 146.124 116.108 145.416 116.108C144.492 116.108 143.664 115.904 142.932 115.496C142.2 115.088 141.624 114.518 141.204 113.786C140.796 113.042 140.592 112.19 140.592 111.23C140.592 110.27 140.796 109.424 141.204 108.692C141.624 107.96 142.2 107.39 142.932 106.982C143.664 106.574 144.492 106.37 145.416 106.37C146.1 106.37 146.73 106.502 147.306 106.766C147.882 107.018 148.362 107.396 148.746 107.9V102.644H150.474ZM145.56 114.596C146.16 114.596 146.706 114.458 147.198 114.182C147.69 113.894 148.074 113.498 148.35 112.994C148.626 112.478 148.764 111.89 148.764 111.23C148.764 110.57 148.626 109.988 148.35 109.484C148.074 108.968 147.69 108.572 147.198 108.296C146.706 108.02 146.16 107.882 145.56 107.882C144.948 107.882 144.396 108.02 143.904 108.296C143.424 108.572 143.04 108.968 142.752 109.484C142.476 109.988 142.338 110.57 142.338 111.23C142.338 111.89 142.476 112.478 142.752 112.994C143.04 113.498 143.424 113.894 143.904 114.182C144.396 114.458 144.948 114.596 145.56 114.596ZM162.635 106.46V116H160.997V114.56C160.649 115.052 160.187 115.436 159.611 115.712C159.047 115.976 158.429 116.108 157.757 116.108C156.485 116.108 155.483 115.76 154.751 115.064C154.019 114.356 153.653 113.318 153.653 111.95V106.46H155.381V111.752C155.381 112.676 155.603 113.378 156.047 113.858C156.491 114.326 157.127 114.56 157.955 114.56C158.867 114.56 159.587 114.284 160.115 113.732C160.643 113.18 160.907 112.4 160.907 111.392V106.46H162.635ZM171.019 106.37C172.231 106.37 173.191 106.724 173.899 107.432C174.619 108.128 174.979 109.154 174.979 110.51V116H173.251V110.708C173.251 109.784 173.029 109.088 172.585 108.62C172.141 108.152 171.505 107.918 170.677 107.918C169.741 107.918 169.003 108.194 168.463 108.746C167.923 109.286 167.653 110.066 167.653 111.086V116H165.925V106.46H167.581V107.9C167.929 107.408 168.397 107.03 168.985 106.766C169.585 106.502 170.263 106.37 171.019 106.37ZM183.541 115.442C183.289 115.658 182.977 115.826 182.605 115.946C182.233 116.054 181.849 116.108 181.453 116.108C180.493 116.108 179.749 115.85 179.221 115.334C178.693 114.818 178.429 114.08 178.429 113.12V107.882H176.809V106.46H178.429V104.372H180.157V106.46H182.893V107.882H180.157V113.048C180.157 113.564 180.283 113.96 180.535 114.236C180.799 114.512 181.171 114.65 181.651 114.65C182.179 114.65 182.629 114.5 183.001 114.2L183.541 115.442ZM186.238 113.642C186.574 113.642 186.85 113.762 187.066 114.002C187.294 114.23 187.408 114.518 187.408 114.866C187.408 115.046 187.384 115.22 187.336 115.388C187.3 115.556 187.222 115.814 187.102 116.162L186.256 118.664H185.122L185.788 115.982C185.56 115.898 185.374 115.76 185.23 115.568C185.098 115.364 185.032 115.13 185.032 114.866C185.032 114.506 185.146 114.212 185.374 113.984C185.602 113.756 185.89 113.642 186.238 113.642ZM203.718 106.46V119.492H201.99V114.56C201.594 115.064 201.108 115.448 200.532 115.712C199.968 115.976 199.344 116.108 198.66 116.108C197.736 116.108 196.908 115.904 196.176 115.496C195.444 115.088 194.868 114.518 194.448 113.786C194.04 113.042 193.836 112.19 193.836 111.23C193.836 110.27 194.04 109.424 194.448 108.692C194.868 107.96 195.444 107.39 196.176 106.982C196.908 106.574 197.736 106.37 198.66 106.37C199.368 106.37 200.016 106.508 200.604 106.784C201.192 107.048 201.678 107.444 202.062 107.972V106.46H203.718ZM198.804 114.596C199.404 114.596 199.95 114.458 200.442 114.182C200.934 113.894 201.318 113.498 201.594 112.994C201.87 112.478 202.008 111.89 202.008 111.23C202.008 110.57 201.864 109.988 201.576 109.484C201.3 108.98 200.916 108.59 200.424 108.314C199.944 108.026 199.404 107.882 198.804 107.882C198.192 107.882 197.64 108.02 197.148 108.296C196.668 108.572 196.284 108.968 195.996 109.484C195.72 109.988 195.582 110.57 195.582 111.23C195.582 111.89 195.72 112.478 195.996 112.994C196.284 113.498 196.668 113.894 197.148 114.182C197.64 114.458 198.192 114.596 198.804 114.596ZM215.88 106.46V116H214.242V114.56C213.894 115.052 213.432 115.436 212.856 115.712C212.292 115.976 211.674 116.108 211.002 116.108C209.73 116.108 208.728 115.76 207.996 115.064C207.264 114.356 206.898 113.318 206.898 111.95V106.46H208.626V111.752C208.626 112.676 208.848 113.378 209.292 113.858C209.736 114.326 210.372 114.56 211.2 114.56C212.112 114.56 212.832 114.284 213.36 113.732C213.888 113.18 214.152 112.4 214.152 111.392V106.46H215.88ZM222.643 106.37C223.963 106.37 224.971 106.694 225.667 107.342C226.375 107.99 226.729 108.956 226.729 110.24V116H225.091V114.74C224.803 115.184 224.389 115.526 223.849 115.766C223.321 115.994 222.691 116.108 221.959 116.108C220.891 116.108 220.033 115.85 219.385 115.334C218.749 114.818 218.431 114.14 218.431 113.3C218.431 112.46 218.737 111.788 219.349 111.284C219.961 110.768 220.933 110.51 222.265 110.51H225.001V110.168C225.001 109.424 224.785 108.854 224.353 108.458C223.921 108.062 223.285 107.864 222.445 107.864C221.881 107.864 221.329 107.96 220.789 108.152C220.249 108.332 219.793 108.578 219.421 108.89L218.701 107.594C219.193 107.198 219.781 106.898 220.465 106.694C221.149 106.478 221.875 106.37 222.643 106.37ZM222.247 114.776C222.907 114.776 223.477 114.632 223.957 114.344C224.437 114.044 224.785 113.624 225.001 113.084V111.752H222.337C220.873 111.752 220.141 112.244 220.141 113.228C220.141 113.708 220.327 114.086 220.699 114.362C221.071 114.638 221.587 114.776 222.247 114.776ZM241.861 106.37C243.061 106.37 244.009 106.718 244.705 107.414C245.413 108.11 245.767 109.142 245.767 110.51V116H244.039V110.708C244.039 109.784 243.823 109.088 243.391 108.62C242.971 108.152 242.365 107.918 241.573 107.918C240.697 107.918 240.001 108.194 239.485 108.746C238.969 109.286 238.711 110.066 238.711 111.086V116H236.983V110.708C236.983 109.784 236.767 109.088 236.335 108.62C235.915 108.152 235.309 107.918 234.517 107.918C233.641 107.918 232.945 108.194 232.429 108.746C231.913 109.286 231.655 110.066 231.655 111.086V116H229.927V106.46H231.583V107.882C231.931 107.39 232.387 107.018 232.951 106.766C233.515 106.502 234.157 106.37 234.877 106.37C235.621 106.37 236.281 106.52 236.857 106.82C237.433 107.12 237.877 107.558 238.189 108.134C238.549 107.582 239.047 107.15 239.683 106.838C240.331 106.526 241.057 106.37 241.861 106.37ZM249.361 116.108C249.025 116.108 248.737 115.994 248.497 115.766C248.257 115.526 248.137 115.226 248.137 114.866C248.137 114.518 248.257 114.23 248.497 114.002C248.737 113.762 249.025 113.642 249.361 113.642C249.697 113.642 249.979 113.756 250.207 113.984C250.435 114.212 250.549 114.506 250.549 114.866C250.549 115.226 250.429 115.526 250.189 115.766C249.961 115.994 249.685 116.108 249.361 116.108Z" fill="#DDBEAA"/>
<path d="M6.99251 117C6.70063 117 6.4203 116.887 6.2133 116.686L0.323127 110.968C-0.107384 110.55 -0.107384 109.873 0.323127 109.455C0.753402 109.037 1.45151 109.037 1.88178 109.455L6.94724 114.372L17.0758 103.357C17.4811 102.917 18.1778 102.878 18.6321 103.272C19.0862 103.665 19.1258 104.342 18.7203 104.783L7.81463 116.642C7.61281 116.862 7.32659 116.991 7.02363 116.999C7.01326 117 7.00288 117 6.99251 117Z" fill="#5BA199"/>
<path d="M41.804 56.4C43.436 56.4 44.72 56.79 45.656 57.57C46.592 58.35 47.06 59.424 47.06 60.792C47.06 62.16 46.592 63.234 45.656 64.014C44.72 64.794 43.436 65.184 41.804 65.184H38.69V69H36.89V56.4H41.804ZM41.75 63.618C42.89 63.618 43.76 63.378 44.36 62.898C44.96 62.406 45.26 61.704 45.26 60.792C45.26 59.88 44.96 59.184 44.36 58.704C43.76 58.212 42.89 57.966 41.75 57.966H38.69V63.618H41.75ZM50.9503 61.062C51.2503 60.51 51.6943 60.09 52.2822 59.802C52.8703 59.514 53.5843 59.37 54.4243 59.37V61.044C54.3283 61.032 54.1963 61.026 54.0283 61.026C53.0923 61.026 52.3543 61.308 51.8143 61.872C51.2863 62.424 51.0223 63.216 51.0223 64.248V69H49.2943V59.46H50.9503V61.062ZM60.5521 69.108C59.6041 69.108 58.7521 68.898 57.9961 68.478C57.2401 68.058 56.6461 67.482 56.2141 66.75C55.7941 66.006 55.5841 65.166 55.5841 64.23C55.5841 63.294 55.7941 62.46 56.2141 61.728C56.6461 60.984 57.2401 60.408 57.9961 60C58.7521 59.58 59.6041 59.37 60.5521 59.37C61.5001 59.37 62.3461 59.58 63.0901 60C63.8461 60.408 64.4341 60.984 64.8541 61.728C65.2861 62.46 65.5021 63.294 65.5021 64.23C65.5021 65.166 65.2861 66.006 64.8541 66.75C64.4341 67.482 63.8461 68.058 63.0901 68.478C62.3461 68.898 61.5001 69.108 60.5521 69.108ZM60.5521 67.596C61.1641 67.596 61.7101 67.458 62.1901 67.182C62.6821 66.894 63.0661 66.498 63.3421 65.994C63.6181 65.478 63.7561 64.89 63.7561 64.23C63.7561 63.57 63.6181 62.988 63.3421 62.484C63.0661 61.968 62.6821 61.572 62.1901 61.296C61.7101 61.02 61.1641 60.882 60.5521 60.882C59.9401 60.882 59.3881 61.02 58.8961 61.296C58.4161 61.572 58.0321 61.968 57.7441 62.484C57.4681 62.988 57.3301 63.57 57.3301 64.23C57.3301 64.89 57.4681 65.478 57.7441 65.994C58.0321 66.498 58.4161 66.894 58.8961 67.182C59.3881 67.458 59.9401 67.596 60.5521 67.596ZM67.8919 59.46H69.6199V69H67.8919V59.46ZM68.7559 57.624C68.4199 57.624 68.1379 57.516 67.9099 57.3C67.6939 57.084 67.5859 56.82 67.5859 56.508C67.5859 56.196 67.6939 55.932 67.9099 55.716C68.1379 55.488 68.4199 55.374 68.7559 55.374C69.0919 55.374 69.3679 55.482 69.5839 55.698C69.8119 55.902 69.9259 56.16 69.9259 56.472C69.9259 56.796 69.8119 57.072 69.5839 57.3C69.3679 57.516 69.0919 57.624 68.7559 57.624ZM78.0133 59.37C79.2253 59.37 80.1853 59.724 80.8933 60.432C81.6133 61.128 81.9733 62.154 81.9733 63.51V69H80.2453V63.708C80.2453 62.784 80.0233 62.088 79.5793 61.62C79.1353 61.152 78.4993 60.918 77.6713 60.918C76.7353 60.918 75.9973 61.194 75.4573 61.746C74.9173 62.286 74.6473 63.066 74.6473 64.086V69H72.9193V59.46H74.5753V60.9C74.9233 60.408 75.3913 60.03 75.9793 59.766C76.5793 59.502 77.2573 59.37 78.0133 59.37ZM90.0052 55.644H91.7332V69H90.0052V55.644ZM99.1185 69.108C98.1705 69.108 97.3185 68.898 96.5625 68.478C95.8065 68.058 95.2125 67.482 94.7805 66.75C94.3605 66.006 94.1505 65.166 94.1505 64.23C94.1505 63.294 94.3605 62.46 94.7805 61.728C95.2125 60.984 95.8065 60.408 96.5625 60C97.3185 59.58 98.1705 59.37 99.1185 59.37C100.067 59.37 100.913 59.58 101.657 60C102.413 60.408 103.001 60.984 103.421 61.728C103.853 62.46 104.069 63.294 104.069 64.23C104.069 65.166 103.853 66.006 103.421 66.75C103.001 67.482 102.413 68.058 101.657 68.478C100.913 68.898 100.067 69.108 99.1185 69.108ZM99.1185 67.596C99.7305 67.596 100.277 67.458 100.757 67.182C101.249 66.894 101.633 66.498 101.909 65.994C102.185 65.478 102.323 64.89 102.323 64.23C102.323 63.57 102.185 62.988 101.909 62.484C101.633 61.968 101.249 61.572 100.757 61.296C100.277 61.02 99.7305 60.882 99.1185 60.882C98.5065 60.882 97.9545 61.02 97.4625 61.296C96.9825 61.572 96.5985 61.968 96.3105 62.484C96.0345 62.988 95.8965 63.57 95.8965 64.23C95.8965 64.89 96.0345 65.478 96.3105 65.994C96.5985 66.498 96.9825 66.894 97.4625 67.182C97.9545 67.458 98.5065 67.596 99.1185 67.596ZM111.516 59.37C112.44 59.37 113.268 59.574 114 59.982C114.732 60.39 115.302 60.96 115.71 61.692C116.13 62.424 116.34 63.27 116.34 64.23C116.34 65.19 116.13 66.042 115.71 66.786C115.302 67.518 114.732 68.088 114 68.496C113.268 68.904 112.44 69.108 111.516 69.108C110.808 69.108 110.16 68.97 109.572 68.694C108.984 68.418 108.498 68.016 108.114 67.488V69H106.458V55.644H108.186V60.9C108.57 60.396 109.05 60.018 109.626 59.766C110.202 59.502 110.832 59.37 111.516 59.37ZM111.372 67.596C111.984 67.596 112.53 67.458 113.01 67.182C113.502 66.894 113.886 66.498 114.162 65.994C114.45 65.478 114.594 64.89 114.594 64.23C114.594 63.57 114.45 62.988 114.162 62.484C113.886 61.968 113.502 61.572 113.01 61.296C112.53 61.02 111.984 60.882 111.372 60.882C110.772 60.882 110.226 61.02 109.734 61.296C109.242 61.572 108.858 61.968 108.582 62.484C108.306 62.988 108.168 63.57 108.168 64.23C108.168 64.89 108.306 65.478 108.582 65.994C108.858 66.498 109.242 66.894 109.734 67.182C110.226 67.458 110.772 67.596 111.372 67.596ZM122.814 69.108C121.866 69.108 121.014 68.898 120.258 68.478C119.502 68.058 118.908 67.482 118.476 66.75C118.056 66.006 117.846 65.166 117.846 64.23C117.846 63.294 118.056 62.46 118.476 61.728C118.908 60.984 119.502 60.408 120.258 60C121.014 59.58 121.866 59.37 122.814 59.37C123.762 59.37 124.608 59.58 125.352 60C126.108 60.408 126.696 60.984 127.116 61.728C127.548 62.46 127.764 63.294 127.764 64.23C127.764 65.166 127.548 66.006 127.116 66.75C126.696 67.482 126.108 68.058 125.352 68.478C124.608 68.898 123.762 69.108 122.814 69.108ZM122.814 67.596C123.426 67.596 123.972 67.458 124.452 67.182C124.944 66.894 125.328 66.498 125.604 65.994C125.88 65.478 126.018 64.89 126.018 64.23C126.018 63.57 125.88 62.988 125.604 62.484C125.328 61.968 124.944 61.572 124.452 61.296C123.972 61.02 123.426 60.882 122.814 60.882C122.202 60.882 121.65 61.02 121.158 61.296C120.678 61.572 120.294 61.968 120.006 62.484C119.73 62.988 119.592 63.57 119.592 64.23C119.592 64.89 119.73 65.478 120.006 65.994C120.294 66.498 120.678 66.894 121.158 67.182C121.65 67.458 122.202 67.596 122.814 67.596ZM131.81 61.062C132.11 60.51 132.554 60.09 133.142 59.802C133.73 59.514 134.444 59.37 135.284 59.37V61.044C135.188 61.032 135.056 61.026 134.888 61.026C133.952 61.026 133.214 61.308 132.674 61.872C132.146 62.424 131.882 63.216 131.882 64.248V69H130.154V59.46H131.81V61.062ZM143.164 68.442C142.912 68.658 142.6 68.826 142.228 68.946C141.856 69.054 141.472 69.108 141.076 69.108C140.116 69.108 139.372 68.85 138.844 68.334C138.316 67.818 138.052 67.08 138.052 66.12V60.882H136.432V59.46H138.052V57.372H139.78V59.46H142.516V60.882H139.78V66.048C139.78 66.564 139.906 66.96 140.158 67.236C140.422 67.512 140.794 67.65 141.274 67.65C141.802 67.65 142.252 67.5 142.624 67.2L143.164 68.442ZM145.253 59.46H146.981V69H145.253V59.46ZM146.117 57.624C145.781 57.624 145.499 57.516 145.271 57.3C145.055 57.084 144.947 56.82 144.947 56.508C144.947 56.196 145.055 55.932 145.271 55.716C145.499 55.488 145.781 55.374 146.117 55.374C146.453 55.374 146.729 55.482 146.945 55.698C147.173 55.902 147.287 56.16 147.287 56.472C147.287 56.796 147.173 57.072 146.945 57.3C146.729 57.516 146.453 57.624 146.117 57.624ZM153.017 69.108C152.237 69.108 151.487 69.006 150.767 68.802C150.047 68.586 149.483 68.316 149.075 67.992L149.795 66.624C150.215 66.924 150.725 67.164 151.325 67.344C151.925 67.524 152.531 67.614 153.143 67.614C154.655 67.614 155.411 67.182 155.411 66.318C155.411 66.03 155.309 65.802 155.105 65.634C154.901 65.466 154.643 65.346 154.331 65.274C154.031 65.19 153.599 65.1 153.035 65.004C152.267 64.884 151.637 64.746 151.145 64.59C150.665 64.434 150.251 64.17 149.903 63.798C149.555 63.426 149.381 62.904 149.381 62.232C149.381 61.368 149.741 60.678 150.461 60.162C151.181 59.634 152.147 59.37 153.359 59.37C153.995 59.37 154.631 59.448 155.267 59.604C155.903 59.76 156.425 59.97 156.833 60.234L156.095 61.602C155.315 61.098 154.397 60.846 153.341 60.846C152.609 60.846 152.051 60.966 151.667 61.206C151.283 61.446 151.091 61.764 151.091 62.16C151.091 62.472 151.199 62.718 151.415 62.898C151.631 63.078 151.895 63.21 152.207 63.294C152.531 63.378 152.981 63.474 153.557 63.582C154.325 63.714 154.943 63.858 155.411 64.014C155.891 64.158 156.299 64.41 156.635 64.77C156.971 65.13 157.139 65.634 157.139 66.282C157.139 67.146 156.767 67.836 156.023 68.352C155.291 68.856 154.289 69.108 153.017 69.108ZM166.868 69.108C166.088 69.108 165.338 69.006 164.618 68.802C163.898 68.586 163.334 68.316 162.926 67.992L163.646 66.624C164.066 66.924 164.576 67.164 165.176 67.344C165.776 67.524 166.382 67.614 166.994 67.614C168.506 67.614 169.262 67.182 169.262 66.318C169.262 66.03 169.16 65.802 168.956 65.634C168.752 65.466 168.494 65.346 168.182 65.274C167.882 65.19 167.45 65.1 166.886 65.004C166.118 64.884 165.488 64.746 164.996 64.59C164.516 64.434 164.102 64.17 163.754 63.798C163.406 63.426 163.232 62.904 163.232 62.232C163.232 61.368 163.592 60.678 164.312 60.162C165.032 59.634 165.998 59.37 167.21 59.37C167.846 59.37 168.482 59.448 169.118 59.604C169.754 59.76 170.276 59.97 170.684 60.234L169.946 61.602C169.166 61.098 168.248 60.846 167.192 60.846C166.46 60.846 165.902 60.966 165.518 61.206C165.134 61.446 164.942 61.764 164.942 62.16C164.942 62.472 165.05 62.718 165.266 62.898C165.482 63.078 165.746 63.21 166.058 63.294C166.382 63.378 166.832 63.474 167.408 63.582C168.176 63.714 168.794 63.858 169.262 64.014C169.742 64.158 170.15 64.41 170.486 64.77C170.822 65.13 170.99 65.634 170.99 66.282C170.99 67.146 170.618 67.836 169.874 68.352C169.142 68.856 168.14 69.108 166.868 69.108ZM181.772 64.284C181.772 64.416 181.76 64.59 181.736 64.806H173.996C174.104 65.646 174.47 66.324 175.094 66.84C175.73 67.344 176.516 67.596 177.452 67.596C178.592 67.596 179.51 67.212 180.206 66.444L181.16 67.56C180.728 68.064 180.188 68.448 179.54 68.712C178.904 68.976 178.19 69.108 177.398 69.108C176.39 69.108 175.496 68.904 174.716 68.496C173.936 68.076 173.33 67.494 172.898 66.75C172.478 66.006 172.268 65.166 172.268 64.23C172.268 63.306 172.472 62.472 172.88 61.728C173.3 60.984 173.87 60.408 174.59 60C175.322 59.58 176.144 59.37 177.056 59.37C177.968 59.37 178.778 59.58 179.486 60C180.206 60.408 180.764 60.984 181.16 61.728C181.568 62.472 181.772 63.324 181.772 64.284ZM177.056 60.828C176.228 60.828 175.532 61.08 174.968 61.584C174.416 62.088 174.092 62.748 173.996 63.564H180.116C180.02 62.76 179.69 62.106 179.126 61.602C178.574 61.086 177.884 60.828 177.056 60.828ZM193.171 55.644V69H191.515V67.488C191.131 68.016 190.645 68.418 190.057 68.694C189.469 68.97 188.821 69.108 188.113 69.108C187.189 69.108 186.361 68.904 185.629 68.496C184.897 68.088 184.321 67.518 183.901 66.786C183.493 66.042 183.289 65.19 183.289 64.23C183.289 63.27 183.493 62.424 183.901 61.692C184.321 60.96 184.897 60.39 185.629 59.982C186.361 59.574 187.189 59.37 188.113 59.37C188.797 59.37 189.427 59.502 190.003 59.766C190.579 60.018 191.059 60.396 191.443 60.9V55.644H193.171ZM188.257 67.596C188.857 67.596 189.403 67.458 189.895 67.182C190.387 66.894 190.771 66.498 191.047 65.994C191.323 65.478 191.461 64.89 191.461 64.23C191.461 63.57 191.323 62.988 191.047 62.484C190.771 61.968 190.387 61.572 189.895 61.296C189.403 61.02 188.857 60.882 188.257 60.882C187.645 60.882 187.093 61.02 186.601 61.296C186.121 61.572 185.737 61.968 185.449 62.484C185.173 62.988 185.035 63.57 185.035 64.23C185.035 64.89 185.173 65.478 185.449 65.994C185.737 66.498 186.121 66.894 186.601 67.182C187.093 67.458 187.645 67.596 188.257 67.596ZM204.011 69.108C203.231 69.108 202.481 69.006 201.761 68.802C201.041 68.586 200.477 68.316 200.069 67.992L200.789 66.624C201.209 66.924 201.719 67.164 202.319 67.344C202.919 67.524 203.525 67.614 204.137 67.614C205.649 67.614 206.405 67.182 206.405 66.318C206.405 66.03 206.303 65.802 206.099 65.634C205.895 65.466 205.637 65.346 205.325 65.274C205.025 65.19 204.593 65.1 204.029 65.004C203.261 64.884 202.631 64.746 202.139 64.59C201.659 64.434 201.245 64.17 200.897 63.798C200.549 63.426 200.375 62.904 200.375 62.232C200.375 61.368 200.735 60.678 201.455 60.162C202.175 59.634 203.141 59.37 204.353 59.37C204.989 59.37 205.625 59.448 206.261 59.604C206.897 59.76 207.419 59.97 207.827 60.234L207.089 61.602C206.309 61.098 205.391 60.846 204.335 60.846C203.603 60.846 203.045 60.966 202.661 61.206C202.277 61.446 202.085 61.764 202.085 62.16C202.085 62.472 202.193 62.718 202.409 62.898C202.625 63.078 202.889 63.21 203.201 63.294C203.525 63.378 203.975 63.474 204.551 63.582C205.319 63.714 205.937 63.858 206.405 64.014C206.885 64.158 207.293 64.41 207.629 64.77C207.965 65.13 208.133 65.634 208.133 66.282C208.133 67.146 207.761 67.836 207.017 68.352C206.285 68.856 205.283 69.108 204.011 69.108ZM213.766 59.37C215.086 59.37 216.094 59.694 216.79 60.342C217.498 60.99 217.852 61.956 217.852 63.24V69H216.214V67.74C215.926 68.184 215.512 68.526 214.972 68.766C214.444 68.994 213.814 69.108 213.082 69.108C212.014 69.108 211.156 68.85 210.508 68.334C209.872 67.818 209.554 67.14 209.554 66.3C209.554 65.46 209.86 64.788 210.472 64.284C211.084 63.768 212.056 63.51 213.388 63.51H216.124V63.168C216.124 62.424 215.908 61.854 215.476 61.458C215.044 61.062 214.408 60.864 213.568 60.864C213.004 60.864 212.452 60.96 211.912 61.152C211.372 61.332 210.916 61.578 210.544 61.89L209.824 60.594C210.316 60.198 210.904 59.898 211.588 59.694C212.272 59.478 212.998 59.37 213.766 59.37ZM213.37 67.776C214.03 67.776 214.6 67.632 215.08 67.344C215.56 67.044 215.908 66.624 216.124 66.084V64.752H213.46C211.996 64.752 211.264 65.244 211.264 66.228C211.264 66.708 211.45 67.086 211.822 67.362C212.194 67.638 212.71 67.776 213.37 67.776ZM226.108 59.37C227.032 59.37 227.86 59.574 228.592 59.982C229.324 60.39 229.894 60.96 230.302 61.692C230.722 62.424 230.932 63.27 230.932 64.23C230.932 65.19 230.722 66.042 230.302 66.786C229.894 67.518 229.324 68.088 228.592 68.496C227.86 68.904 227.032 69.108 226.108 69.108C225.424 69.108 224.794 68.976 224.218 68.712C223.654 68.448 223.174 68.064 222.778 67.56V72.492H221.05V59.46H222.706V60.972C223.09 60.444 223.576 60.048 224.164 59.784C224.752 59.508 225.4 59.37 226.108 59.37ZM225.964 67.596C226.576 67.596 227.122 67.458 227.602 67.182C228.094 66.894 228.478 66.498 228.754 65.994C229.042 65.478 229.186 64.89 229.186 64.23C229.186 63.57 229.042 62.988 228.754 62.484C228.478 61.968 228.094 61.572 227.602 61.296C227.122 61.02 226.576 60.882 225.964 60.882C225.364 60.882 224.818 61.026 224.326 61.314C223.846 61.59 223.462 61.98 223.174 62.484C222.898 62.988 222.76 63.57 222.76 64.23C222.76 64.89 222.898 65.478 223.174 65.994C223.45 66.498 223.834 66.894 224.326 67.182C224.818 67.458 225.364 67.596 225.964 67.596ZM233.32 59.46H235.048V69H233.32V59.46ZM234.184 57.624C233.848 57.624 233.566 57.516 233.338 57.3C233.122 57.084 233.014 56.82 233.014 56.508C233.014 56.196 233.122 55.932 233.338 55.716C233.566 55.488 233.848 55.374 234.184 55.374C234.52 55.374 234.796 55.482 235.012 55.698C235.24 55.902 235.354 56.16 235.354 56.472C235.354 56.796 235.24 57.072 235.012 57.3C234.796 57.516 234.52 57.624 234.184 57.624ZM246.969 64.284C246.969 64.416 246.957 64.59 246.933 64.806H239.193C239.301 65.646 239.667 66.324 240.291 66.84C240.927 67.344 241.713 67.596 242.649 67.596C243.789 67.596 244.707 67.212 245.403 66.444L246.357 67.56C245.925 68.064 245.385 68.448 244.737 68.712C244.101 68.976 243.387 69.108 242.595 69.108C241.587 69.108 240.693 68.904 239.913 68.496C239.133 68.076 238.527 67.494 238.095 66.75C237.675 66.006 237.465 65.166 237.465 64.23C237.465 63.306 237.669 62.472 238.077 61.728C238.497 60.984 239.067 60.408 239.787 60C240.519 59.58 241.341 59.37 242.253 59.37C243.165 59.37 243.975 59.58 244.683 60C245.403 60.408 245.961 60.984 246.357 61.728C246.765 62.472 246.969 63.324 246.969 64.284ZM242.253 60.828C241.425 60.828 240.729 61.08 240.165 61.584C239.613 62.088 239.289 62.748 239.193 63.564H245.313C245.217 62.76 244.887 62.106 244.323 61.602C243.771 61.086 243.081 60.828 242.253 60.828ZM254.462 59.37C255.674 59.37 256.634 59.724 257.342 60.432C258.062 61.128 258.422 62.154 258.422 63.51V69H256.694V63.708C256.694 62.784 256.472 62.088 256.028 61.62C255.584 61.152 254.948 60.918 254.12 60.918C253.184 60.918 252.446 61.194 251.906 61.746C251.366 62.286 251.096 63.066 251.096 64.086V69H249.368V59.46H251.024V60.9C251.372 60.408 251.84 60.03 252.428 59.766C253.028 59.502 253.706 59.37 254.462 59.37ZM262.034 69.108C261.698 69.108 261.41 68.994 261.17 68.766C260.93 68.526 260.81 68.226 260.81 67.866C260.81 67.518 260.93 67.23 261.17 67.002C261.41 66.762 261.698 66.642 262.034 66.642C262.37 66.642 262.652 66.756 262.88 66.984C263.108 67.212 263.222 67.506 263.222 67.866C263.222 68.226 263.102 68.526 262.862 68.766C262.634 68.994 262.358 69.108 262.034 69.108Z" fill="#DDBEAA"/>
<path d="M6.99251 69.9998C6.70063 69.9998 6.4203 69.8874 6.2133 69.6864L0.323127 63.9681C-0.107384 63.5503 -0.107384 62.8727 0.323127 62.4547C0.753402 62.0367 1.45151 62.0365 1.88178 62.4547L6.94724 67.3721L17.0758 56.3574C17.4811 55.9169 18.1778 55.878 18.6321 56.2717C19.0862 56.6655 19.1258 57.3419 18.7203 57.7828L7.81463 69.6422C7.61281 69.8618 7.32659 69.9909 7.02363 69.9993C7.01326 69.9996 7.00288 69.9998 6.99251 69.9998Z" fill="#5BA199"/>
<path d="M45.638 149.644V163H43.982V161.488C43.598 162.016 43.112 162.418 42.524 162.694C41.936 162.97 41.288 163.108 40.58 163.108C39.656 163.108 38.828 162.904 38.096 162.496C37.364 162.088 36.788 161.518 36.368 160.786C35.96 160.042 35.756 159.19 35.756 158.23C35.756 157.27 35.96 156.424 36.368 155.692C36.788 154.96 37.364 154.39 38.096 153.982C38.828 153.574 39.656 153.37 40.58 153.37C41.264 153.37 41.894 153.502 42.47 153.766C43.046 154.018 43.526 154.396 43.91 154.9V149.644H45.638ZM40.724 161.596C41.324 161.596 41.87 161.458 42.362 161.182C42.854 160.894 43.238 160.498 43.514 159.994C43.79 159.478 43.928 158.89 43.928 158.23C43.928 157.57 43.79 156.988 43.514 156.484C43.238 155.968 42.854 155.572 42.362 155.296C41.87 155.02 41.324 154.882 40.724 154.882C40.112 154.882 39.56 155.02 39.068 155.296C38.588 155.572 38.204 155.968 37.916 156.484C37.64 156.988 37.502 157.57 37.502 158.23C37.502 158.89 37.64 159.478 37.916 159.994C38.204 160.498 38.588 160.894 39.068 161.182C39.56 161.458 40.112 161.596 40.724 161.596ZM52.9935 163.108C52.0455 163.108 51.1935 162.898 50.4375 162.478C49.6815 162.058 49.0875 161.482 48.6555 160.75C48.2355 160.006 48.0255 159.166 48.0255 158.23C48.0255 157.294 48.2355 156.46 48.6555 155.728C49.0875 154.984 49.6815 154.408 50.4375 154C51.1935 153.58 52.0455 153.37 52.9935 153.37C53.9415 153.37 54.7875 153.58 55.5315 154C56.2875 154.408 56.8755 154.984 57.2955 155.728C57.7275 156.46 57.9435 157.294 57.9435 158.23C57.9435 159.166 57.7275 160.006 57.2955 160.75C56.8755 161.482 56.2875 162.058 55.5315 162.478C54.7875 162.898 53.9415 163.108 52.9935 163.108ZM52.9935 161.596C53.6055 161.596 54.1515 161.458 54.6315 161.182C55.1235 160.894 55.5075 160.498 55.7835 159.994C56.0595 159.478 56.1975 158.89 56.1975 158.23C56.1975 157.57 56.0595 156.988 55.7835 156.484C55.5075 155.968 55.1235 155.572 54.6315 155.296C54.1515 155.02 53.6055 154.882 52.9935 154.882C52.3815 154.882 51.8295 155.02 51.3375 155.296C50.8575 155.572 50.4735 155.968 50.1855 156.484C49.9095 156.988 49.7715 157.57 49.7715 158.23C49.7715 158.89 49.9095 159.478 50.1855 159.994C50.4735 160.498 50.8575 160.894 51.3375 161.182C51.8295 161.458 52.3815 161.596 52.9935 161.596ZM60.3333 149.644H62.0613V163H60.3333V149.644ZM69.4467 163.108C68.4987 163.108 67.6467 162.898 66.8907 162.478C66.1347 162.058 65.5407 161.482 65.1087 160.75C64.6887 160.006 64.4787 159.166 64.4787 158.23C64.4787 157.294 64.6887 156.46 65.1087 155.728C65.5407 154.984 66.1347 154.408 66.8907 154C67.6467 153.58 68.4987 153.37 69.4467 153.37C70.3947 153.37 71.2407 153.58 71.9847 154C72.7407 154.408 73.3287 154.984 73.7487 155.728C74.1807 156.46 74.3967 157.294 74.3967 158.23C74.3967 159.166 74.1807 160.006 73.7487 160.75C73.3287 161.482 72.7407 162.058 71.9847 162.478C71.2407 162.898 70.3947 163.108 69.4467 163.108ZM69.4467 161.596C70.0587 161.596 70.6047 161.458 71.0847 161.182C71.5767 160.894 71.9607 160.498 72.2367 159.994C72.5127 159.478 72.6507 158.89 72.6507 158.23C72.6507 157.57 72.5127 156.988 72.2367 156.484C71.9607 155.968 71.5767 155.572 71.0847 155.296C70.6047 155.02 70.0587 154.882 69.4467 154.882C68.8347 154.882 68.2827 155.02 67.7907 155.296C67.3107 155.572 66.9267 155.968 66.6387 156.484C66.3627 156.988 66.2247 157.57 66.2247 158.23C66.2247 158.89 66.3627 159.478 66.6387 159.994C66.9267 160.498 67.3107 160.894 67.7907 161.182C68.2827 161.458 68.8347 161.596 69.4467 161.596ZM78.4424 155.062C78.7424 154.51 79.1864 154.09 79.7744 153.802C80.3624 153.514 81.0764 153.37 81.9164 153.37V155.044C81.8204 155.032 81.6884 155.026 81.5204 155.026C80.5844 155.026 79.8464 155.308 79.3064 155.872C78.7784 156.424 78.5144 157.216 78.5144 158.248V163H76.7864V153.46H78.4424V155.062ZM91.7392 163.108C90.9592 163.108 90.2092 163.006 89.4892 162.802C88.7692 162.586 88.2052 162.316 87.7972 161.992L88.5172 160.624C88.9372 160.924 89.4472 161.164 90.0472 161.344C90.6472 161.524 91.2532 161.614 91.8652 161.614C93.3772 161.614 94.1332 161.182 94.1332 160.318C94.1332 160.03 94.0312 159.802 93.8272 159.634C93.6232 159.466 93.3652 159.346 93.0532 159.274C92.7532 159.19 92.3212 159.1 91.7572 159.004C90.9892 158.884 90.3592 158.746 89.8672 158.59C89.3872 158.434 88.9732 158.17 88.6252 157.798C88.2772 157.426 88.1032 156.904 88.1032 156.232C88.1032 155.368 88.4632 154.678 89.1832 154.162C89.9032 153.634 90.8692 153.37 92.0812 153.37C92.7172 153.37 93.3532 153.448 93.9892 153.604C94.6252 153.76 95.1472 153.97 95.5552 154.234L94.8172 155.602C94.0372 155.098 93.1192 154.846 92.0632 154.846C91.3312 154.846 90.7732 154.966 90.3892 155.206C90.0052 155.446 89.8132 155.764 89.8132 156.16C89.8132 156.472 89.9212 156.718 90.1372 156.898C90.3532 157.078 90.6172 157.21 90.9292 157.294C91.2532 157.378 91.7032 157.474 92.2792 157.582C93.0472 157.714 93.6652 157.858 94.1332 158.014C94.6132 158.158 95.0212 158.41 95.3572 158.77C95.6932 159.13 95.8612 159.634 95.8612 160.282C95.8612 161.146 95.4892 161.836 94.7452 162.352C94.0132 162.856 93.0112 163.108 91.7392 163.108ZM106.643 158.284C106.643 158.416 106.631 158.59 106.607 158.806H98.8668C98.9748 159.646 99.3408 160.324 99.9648 160.84C100.601 161.344 101.387 161.596 102.323 161.596C103.463 161.596 104.381 161.212 105.077 160.444L106.031 161.56C105.599 162.064 105.059 162.448 104.411 162.712C103.775 162.976 103.061 163.108 102.269 163.108C101.261 163.108 100.367 162.904 99.5868 162.496C98.8068 162.076 98.2008 161.494 97.7688 160.75C97.3488 160.006 97.1388 159.166 97.1388 158.23C97.1388 157.306 97.3428 156.472 97.7508 155.728C98.1708 154.984 98.7408 154.408 99.4608 154C100.193 153.58 101.015 153.37 101.927 153.37C102.839 153.37 103.649 153.58 104.357 154C105.077 154.408 105.635 154.984 106.031 155.728C106.439 156.472 106.643 157.324 106.643 158.284ZM101.927 154.828C101.099 154.828 100.403 155.08 99.8388 155.584C99.2868 156.088 98.9628 156.748 98.8668 157.564H104.987C104.891 156.76 104.561 156.106 103.997 155.602C103.445 155.086 102.755 154.828 101.927 154.828ZM120.976 153.37C122.176 153.37 123.124 153.718 123.82 154.414C124.528 155.11 124.882 156.142 124.882 157.51V163H123.154V157.708C123.154 156.784 122.938 156.088 122.506 155.62C122.086 155.152 121.48 154.918 120.688 154.918C119.812 154.918 119.116 155.194 118.6 155.746C118.084 156.286 117.826 157.066 117.826 158.086V163H116.098V157.708C116.098 156.784 115.882 156.088 115.45 155.62C115.03 155.152 114.424 154.918 113.632 154.918C112.756 154.918 112.06 155.194 111.544 155.746C111.028 156.286 110.77 157.066 110.77 158.086V163H109.042V153.46H110.698V154.882C111.046 154.39 111.502 154.018 112.066 153.766C112.63 153.502 113.272 153.37 113.992 153.37C114.736 153.37 115.396 153.52 115.972 153.82C116.548 154.12 116.992 154.558 117.304 155.134C117.664 154.582 118.162 154.15 118.798 153.838C119.446 153.526 120.172 153.37 120.976 153.37ZM132.896 149.644H134.624V163H132.896V149.644ZM141.397 153.37C142.717 153.37 143.725 153.694 144.421 154.342C145.129 154.99 145.483 155.956 145.483 157.24V163H143.845V161.74C143.557 162.184 143.143 162.526 142.603 162.766C142.075 162.994 141.445 163.108 140.713 163.108C139.645 163.108 138.787 162.85 138.139 162.334C137.503 161.818 137.185 161.14 137.185 160.3C137.185 159.46 137.491 158.788 138.103 158.284C138.715 157.768 139.687 157.51 141.019 157.51H143.755V157.168C143.755 156.424 143.539 155.854 143.107 155.458C142.675 155.062 142.039 154.864 141.199 154.864C140.635 154.864 140.083 154.96 139.543 155.152C139.003 155.332 138.547 155.578 138.175 155.89L137.455 154.594C137.947 154.198 138.535 153.898 139.219 153.694C139.903 153.478 140.629 153.37 141.397 153.37ZM141.001 161.776C141.661 161.776 142.231 161.632 142.711 161.344C143.191 161.044 143.539 160.624 143.755 160.084V158.752H141.091C139.627 158.752 138.895 159.244 138.895 160.228C138.895 160.708 139.081 161.086 139.453 161.362C139.825 161.638 140.341 161.776 141.001 161.776ZM152.82 163.108C151.872 163.108 151.02 162.898 150.264 162.478C149.508 162.058 148.914 161.482 148.482 160.75C148.062 160.006 147.852 159.166 147.852 158.23C147.852 157.294 148.062 156.46 148.482 155.728C148.914 154.984 149.508 154.408 150.264 154C151.02 153.58 151.872 153.37 152.82 153.37C153.768 153.37 154.614 153.58 155.358 154C156.114 154.408 156.702 154.984 157.122 155.728C157.554 156.46 157.77 157.294 157.77 158.23C157.77 159.166 157.554 160.006 157.122 160.75C156.702 161.482 156.114 162.058 155.358 162.478C154.614 162.898 153.768 163.108 152.82 163.108ZM152.82 161.596C153.432 161.596 153.978 161.458 154.458 161.182C154.95 160.894 155.334 160.498 155.61 159.994C155.886 159.478 156.024 158.89 156.024 158.23C156.024 157.57 155.886 156.988 155.61 156.484C155.334 155.968 154.95 155.572 154.458 155.296C153.978 155.02 153.432 154.882 152.82 154.882C152.208 154.882 151.656 155.02 151.164 155.296C150.684 155.572 150.3 155.968 150.012 156.484C149.736 156.988 149.598 157.57 149.598 158.23C149.598 158.89 149.736 159.478 150.012 159.994C150.3 160.498 150.684 160.894 151.164 161.182C151.656 161.458 152.208 161.596 152.82 161.596ZM161.815 155.062C162.115 154.51 162.559 154.09 163.147 153.802C163.735 153.514 164.449 153.37 165.289 153.37V155.044C165.193 155.032 165.061 155.026 164.893 155.026C163.957 155.026 163.219 155.308 162.679 155.872C162.151 156.424 161.887 157.216 161.887 158.248V163H160.159V153.46H161.815V155.062ZM175.953 158.284C175.953 158.416 175.941 158.59 175.917 158.806H168.177C168.285 159.646 168.651 160.324 169.275 160.84C169.911 161.344 170.697 161.596 171.633 161.596C172.773 161.596 173.691 161.212 174.387 160.444L175.341 161.56C174.909 162.064 174.369 162.448 173.721 162.712C173.085 162.976 172.371 163.108 171.579 163.108C170.571 163.108 169.677 162.904 168.897 162.496C168.117 162.076 167.511 161.494 167.079 160.75C166.659 160.006 166.449 159.166 166.449 158.23C166.449 157.306 166.653 156.472 167.061 155.728C167.481 154.984 168.051 154.408 168.771 154C169.503 153.58 170.325 153.37 171.237 153.37C172.149 153.37 172.959 153.58 173.667 154C174.387 154.408 174.945 154.984 175.341 155.728C175.749 156.472 175.953 157.324 175.953 158.284ZM171.237 154.828C170.409 154.828 169.713 155.08 169.149 155.584C168.597 156.088 168.273 156.748 168.177 157.564H174.297C174.201 156.76 173.871 156.106 173.307 155.602C172.755 155.086 172.065 154.828 171.237 154.828ZM186.975 158.284C186.975 158.416 186.963 158.59 186.939 158.806H179.199C179.307 159.646 179.673 160.324 180.297 160.84C180.933 161.344 181.719 161.596 182.655 161.596C183.795 161.596 184.713 161.212 185.409 160.444L186.363 161.56C185.931 162.064 185.391 162.448 184.743 162.712C184.107 162.976 183.393 163.108 182.601 163.108C181.593 163.108 180.699 162.904 179.919 162.496C179.139 162.076 178.533 161.494 178.101 160.75C177.681 160.006 177.471 159.166 177.471 158.23C177.471 157.306 177.675 156.472 178.083 155.728C178.503 154.984 179.073 154.408 179.793 154C180.525 153.58 181.347 153.37 182.259 153.37C183.171 153.37 183.981 153.58 184.689 154C185.409 154.408 185.967 154.984 186.363 155.728C186.771 156.472 186.975 157.324 186.975 158.284ZM182.259 154.828C181.431 154.828 180.735 155.08 180.171 155.584C179.619 156.088 179.295 156.748 179.199 157.564H185.319C185.223 156.76 184.893 156.106 184.329 155.602C183.777 155.086 183.087 154.828 182.259 154.828ZM194.738 162.442C194.486 162.658 194.174 162.826 193.802 162.946C193.43 163.054 193.046 163.108 192.65 163.108C191.69 163.108 190.946 162.85 190.418 162.334C189.89 161.818 189.626 161.08 189.626 160.12V154.882H188.006V153.46H189.626V151.372H191.354V153.46H194.09V154.882H191.354V160.048C191.354 160.564 191.48 160.96 191.732 161.236C191.996 161.512 192.368 161.65 192.848 161.65C193.376 161.65 193.826 161.5 194.198 161.2L194.738 162.442ZM205.747 163.108C204.799 163.108 203.947 162.898 203.191 162.478C202.435 162.058 201.841 161.482 201.409 160.75C200.989 160.006 200.779 159.166 200.779 158.23C200.779 157.294 200.989 156.46 201.409 155.728C201.841 154.984 202.435 154.408 203.191 154C203.947 153.58 204.799 153.37 205.747 153.37C206.695 153.37 207.541 153.58 208.285 154C209.041 154.408 209.629 154.984 210.049 155.728C210.481 156.46 210.697 157.294 210.697 158.23C210.697 159.166 210.481 160.006 210.049 160.75C209.629 161.482 209.041 162.058 208.285 162.478C207.541 162.898 206.695 163.108 205.747 163.108ZM205.747 161.596C206.359 161.596 206.905 161.458 207.385 161.182C207.877 160.894 208.261 160.498 208.537 159.994C208.813 159.478 208.951 158.89 208.951 158.23C208.951 157.57 208.813 156.988 208.537 156.484C208.261 155.968 207.877 155.572 207.385 155.296C206.905 155.02 206.359 154.882 205.747 154.882C205.135 154.882 204.583 155.02 204.091 155.296C203.611 155.572 203.227 155.968 202.939 156.484C202.663 156.988 202.525 157.57 202.525 158.23C202.525 158.89 202.663 159.478 202.939 159.994C203.227 160.498 203.611 160.894 204.091 161.182C204.583 161.458 205.135 161.596 205.747 161.596ZM214.743 155.062C215.043 154.51 215.487 154.09 216.075 153.802C216.663 153.514 217.377 153.37 218.217 153.37V155.044C218.121 155.032 217.989 155.026 217.821 155.026C216.885 155.026 216.147 155.308 215.607 155.872C215.079 156.424 214.815 157.216 214.815 158.248V163H213.087V153.46H214.743V155.062ZM224.417 163.108C223.445 163.108 222.575 162.898 221.807 162.478C221.051 162.058 220.457 161.482 220.025 160.75C219.593 160.006 219.377 159.166 219.377 158.23C219.377 157.294 219.593 156.46 220.025 155.728C220.457 154.984 221.051 154.408 221.807 154C222.575 153.58 223.445 153.37 224.417 153.37C225.281 153.37 226.049 153.544 226.721 153.892C227.405 154.24 227.933 154.744 228.305 155.404L226.991 156.25C226.691 155.794 226.319 155.452 225.875 155.224C225.431 154.996 224.939 154.882 224.399 154.882C223.775 154.882 223.211 155.02 222.707 155.296C222.215 155.572 221.825 155.968 221.537 156.484C221.261 156.988 221.123 157.57 221.123 158.23C221.123 158.902 221.261 159.496 221.537 160.012C221.825 160.516 222.215 160.906 222.707 161.182C223.211 161.458 223.775 161.596 224.399 161.596C224.939 161.596 225.431 161.482 225.875 161.254C226.319 161.026 226.691 160.684 226.991 160.228L228.305 161.056C227.933 161.716 227.405 162.226 226.721 162.586C226.049 162.934 225.281 163.108 224.417 163.108ZM230.542 153.46H232.27V163H230.542V153.46ZM231.406 151.624C231.07 151.624 230.788 151.516 230.56 151.3C230.344 151.084 230.236 150.82 230.236 150.508C230.236 150.196 230.344 149.932 230.56 149.716C230.788 149.488 231.07 149.374 231.406 149.374C231.742 149.374 232.018 149.482 232.234 149.698C232.462 149.902 232.576 150.16 232.576 150.472C232.576 150.796 232.462 151.072 232.234 151.3C232.018 151.516 231.742 151.624 231.406 151.624ZM236.002 160.642C236.338 160.642 236.614 160.762 236.83 161.002C237.058 161.23 237.172 161.518 237.172 161.866C237.172 162.046 237.148 162.22 237.1 162.388C237.064 162.556 236.986 162.814 236.866 163.162L236.02 165.664H234.886L235.552 162.982C235.324 162.898 235.138 162.76 234.994 162.568C234.862 162.364 234.796 162.13 234.796 161.866C234.796 161.506 234.91 161.212 235.138 160.984C235.366 160.756 235.654 160.642 236.002 160.642ZM253.482 153.46V166.492H251.754V161.56C251.358 162.064 250.872 162.448 250.296 162.712C249.732 162.976 249.108 163.108 248.424 163.108C247.5 163.108 246.672 162.904 245.94 162.496C245.208 162.088 244.632 161.518 244.212 160.786C243.804 160.042 243.6 159.19 243.6 158.23C243.6 157.27 243.804 156.424 244.212 155.692C244.632 154.96 245.208 154.39 245.94 153.982C246.672 153.574 247.5 153.37 248.424 153.37C249.132 153.37 249.78 153.508 250.368 153.784C250.956 154.048 251.442 154.444 251.826 154.972V153.46H253.482ZM248.568 161.596C249.168 161.596 249.714 161.458 250.206 161.182C250.698 160.894 251.082 160.498 251.358 159.994C251.634 159.478 251.772 158.89 251.772 158.23C251.772 157.57 251.628 156.988 251.34 156.484C251.064 155.98 250.68 155.59 250.188 155.314C249.708 155.026 249.168 154.882 248.568 154.882C247.956 154.882 247.404 155.02 246.912 155.296C246.432 155.572 246.048 155.968 245.76 156.484C245.484 156.988 245.346 157.57 245.346 158.23C245.346 158.89 245.484 159.478 245.76 159.994C246.048 160.498 246.432 160.894 246.912 161.182C247.404 161.458 247.956 161.596 248.568 161.596ZM265.643 153.46V163H264.005V161.56C263.657 162.052 263.195 162.436 262.619 162.712C262.055 162.976 261.437 163.108 260.765 163.108C259.493 163.108 258.491 162.76 257.759 162.064C257.027 161.356 256.661 160.318 256.661 158.95V153.46H258.389V158.752C258.389 159.676 258.611 160.378 259.055 160.858C259.499 161.326 260.135 161.56 260.963 161.56C261.875 161.56 262.595 161.284 263.123 160.732C263.651 160.18 263.915 159.4 263.915 158.392V153.46H265.643ZM268.933 153.46H270.661V163H268.933V153.46ZM269.797 151.624C269.461 151.624 269.179 151.516 268.951 151.3C268.735 151.084 268.627 150.82 268.627 150.508C268.627 150.196 268.735 149.932 268.951 149.716C269.179 149.488 269.461 149.374 269.797 149.374C270.133 149.374 270.409 149.482 270.625 149.698C270.853 149.902 270.967 150.16 270.967 150.472C270.967 150.796 270.853 151.072 270.625 151.3C270.409 151.516 270.133 151.624 269.797 151.624ZM276.696 163.108C275.916 163.108 275.166 163.006 274.446 162.802C273.726 162.586 273.162 162.316 272.754 161.992L273.474 160.624C273.894 160.924 274.404 161.164 275.004 161.344C275.604 161.524 276.21 161.614 276.822 161.614C278.334 161.614 279.09 161.182 279.09 160.318C279.09 160.03 278.988 159.802 278.784 159.634C278.58 159.466 278.322 159.346 278.01 159.274C277.71 159.19 277.278 159.1 276.714 159.004C275.946 158.884 275.316 158.746 274.824 158.59C274.344 158.434 273.93 158.17 273.582 157.798C273.234 157.426 273.06 156.904 273.06 156.232C273.06 155.368 273.42 154.678 274.14 154.162C274.86 153.634 275.826 153.37 277.038 153.37C277.674 153.37 278.31 153.448 278.946 153.604C279.582 153.76 280.104 153.97 280.512 154.234L279.774 155.602C278.994 155.098 278.076 154.846 277.02 154.846C276.288 154.846 275.73 154.966 275.346 155.206C274.962 155.446 274.77 155.764 274.77 156.16C274.77 156.472 274.878 156.718 275.094 156.898C275.31 157.078 275.574 157.21 275.886 157.294C276.21 157.378 276.66 157.474 277.236 157.582C278.004 157.714 278.622 157.858 279.09 158.014C279.57 158.158 279.978 158.41 280.314 158.77C280.65 159.13 280.818 159.634 280.818 160.282C280.818 161.146 280.446 161.836 279.702 162.352C278.97 162.856 277.968 163.108 276.696 163.108ZM283.392 163.108C283.056 163.108 282.768 162.994 282.528 162.766C282.288 162.526 282.168 162.226 282.168 161.866C282.168 161.518 282.288 161.23 282.528 161.002C282.768 160.762 283.056 160.642 283.392 160.642C283.728 160.642 284.01 160.756 284.238 160.984C284.466 161.212 284.58 161.506 284.58 161.866C284.58 162.226 284.46 162.526 284.22 162.766C283.992 162.994 283.716 163.108 283.392 163.108Z" fill="#DDBEAA"/>
<path d="M6.99251 164C6.70063 164 6.4203 163.887 6.2133 163.686L0.323127 157.968C-0.107384 157.55 -0.107384 156.873 0.323127 156.455C0.753402 156.037 1.45151 156.037 1.88178 156.455L6.94724 161.372L17.0758 150.357C17.4811 149.917 18.1778 149.878 18.6321 150.272C19.0862 150.665 19.1258 151.342 18.7203 151.783L7.81463 163.642C7.61281 163.862 7.32659 163.991 7.02363 163.999C7.01326 164 7.00288 164 6.99251 164Z" fill="#5BA199"/>
<path d="M47.834 197.4L42.308 210H40.526L34.982 197.4H36.926L41.462 207.75L46.034 197.4H47.834ZM57.0901 205.284C57.0901 205.416 57.0781 205.59 57.0541 205.806H49.3141C49.4221 206.646 49.7881 207.324 50.4121 207.84C51.0481 208.344 51.8341 208.596 52.7701 208.596C53.9101 208.596 54.8281 208.212 55.5241 207.444L56.4781 208.56C56.0461 209.064 55.5061 209.448 54.8581 209.712C54.2221 209.976 53.5081 210.108 52.7161 210.108C51.7081 210.108 50.8141 209.904 50.0341 209.496C49.2541 209.076 48.6481 208.494 48.2161 207.75C47.7961 207.006 47.5861 206.166 47.5861 205.23C47.5861 204.306 47.7901 203.472 48.1981 202.728C48.6181 201.984 49.1881 201.408 49.9081 201C50.6401 200.58 51.4621 200.37 52.3741 200.37C53.2861 200.37 54.0961 200.58 54.8041 201C55.5241 201.408 56.0821 201.984 56.4781 202.728C56.8861 203.472 57.0901 204.324 57.0901 205.284ZM52.3741 201.828C51.5461 201.828 50.8501 202.08 50.2861 202.584C49.7341 203.088 49.4101 203.748 49.3141 204.564H55.4341C55.3381 203.76 55.0081 203.106 54.4441 202.602C53.8921 202.086 53.2021 201.828 52.3741 201.828ZM62.2256 210.108C61.4456 210.108 60.6956 210.006 59.9756 209.802C59.2556 209.586 58.6916 209.316 58.2836 208.992L59.0036 207.624C59.4236 207.924 59.9336 208.164 60.5336 208.344C61.1336 208.524 61.7396 208.614 62.3516 208.614C63.8636 208.614 64.6196 208.182 64.6196 207.318C64.6196 207.03 64.5176 206.802 64.3136 206.634C64.1096 206.466 63.8516 206.346 63.5396 206.274C63.2396 206.19 62.8076 206.1 62.2436 206.004C61.4756 205.884 60.8456 205.746 60.3536 205.59C59.8736 205.434 59.4596 205.17 59.1116 204.798C58.7636 204.426 58.5896 203.904 58.5896 203.232C58.5896 202.368 58.9496 201.678 59.6696 201.162C60.3896 200.634 61.3556 200.37 62.5676 200.37C63.2036 200.37 63.8396 200.448 64.4756 200.604C65.1116 200.76 65.6336 200.97 66.0416 201.234L65.3036 202.602C64.5236 202.098 63.6056 201.846 62.5496 201.846C61.8176 201.846 61.2596 201.966 60.8756 202.206C60.4916 202.446 60.2996 202.764 60.2996 203.16C60.2996 203.472 60.4076 203.718 60.6236 203.898C60.8396 204.078 61.1036 204.21 61.4156 204.294C61.7396 204.378 62.1896 204.474 62.7656 204.582C63.5336 204.714 64.1516 204.858 64.6196 205.014C65.0996 205.158 65.5076 205.41 65.8436 205.77C66.1796 206.13 66.3476 206.634 66.3476 207.282C66.3476 208.146 65.9756 208.836 65.2316 209.352C64.4996 209.856 63.4976 210.108 62.2256 210.108ZM73.8711 209.442C73.6191 209.658 73.3071 209.826 72.9351 209.946C72.5631 210.054 72.1791 210.108 71.7831 210.108C70.8231 210.108 70.0791 209.85 69.5511 209.334C69.0231 208.818 68.7591 208.08 68.7591 207.12V201.882H67.1391V200.46H68.7591V198.372H70.4871V200.46H73.2231V201.882H70.4871V207.048C70.4871 207.564 70.6131 207.96 70.8651 208.236C71.1291 208.512 71.5011 208.65 71.9811 208.65C72.5091 208.65 72.9591 208.5 73.3311 208.2L73.8711 209.442ZM75.9603 200.46H77.6883V210H75.9603V200.46ZM76.8243 198.624C76.4883 198.624 76.2063 198.516 75.9783 198.3C75.7623 198.084 75.6543 197.82 75.6543 197.508C75.6543 197.196 75.7623 196.932 75.9783 196.716C76.2063 196.488 76.4883 196.374 76.8243 196.374C77.1603 196.374 77.4363 196.482 77.6523 196.698C77.8803 196.902 77.9943 197.16 77.9943 197.472C77.9943 197.796 77.8803 198.072 77.6523 198.3C77.4363 198.516 77.1603 198.624 76.8243 198.624ZM86.0456 200.37C86.9696 200.37 87.7976 200.574 88.5296 200.982C89.2616 201.39 89.8316 201.96 90.2396 202.692C90.6596 203.424 90.8696 204.27 90.8696 205.23C90.8696 206.19 90.6596 207.042 90.2396 207.786C89.8316 208.518 89.2616 209.088 88.5296 209.496C87.7976 209.904 86.9696 210.108 86.0456 210.108C85.3376 210.108 84.6896 209.97 84.1016 209.694C83.5136 209.418 83.0276 209.016 82.6436 208.488V210H80.9876V196.644H82.7156V201.9C83.0996 201.396 83.5796 201.018 84.1556 200.766C84.7316 200.502 85.3616 200.37 86.0456 200.37ZM85.9016 208.596C86.5136 208.596 87.0596 208.458 87.5396 208.182C88.0316 207.894 88.4156 207.498 88.6916 206.994C88.9796 206.478 89.1236 205.89 89.1236 205.23C89.1236 204.57 88.9796 203.988 88.6916 203.484C88.4156 202.968 88.0316 202.572 87.5396 202.296C87.0596 202.02 86.5136 201.882 85.9016 201.882C85.3016 201.882 84.7556 202.02 84.2636 202.296C83.7716 202.572 83.3876 202.968 83.1116 203.484C82.8356 203.988 82.6976 204.57 82.6976 205.23C82.6976 205.89 82.8356 206.478 83.1116 206.994C83.3876 207.498 83.7716 207.894 84.2636 208.182C84.7556 208.458 85.3016 208.596 85.9016 208.596ZM102.149 200.46V210H100.511V208.56C100.163 209.052 99.7011 209.436 99.1251 209.712C98.5611 209.976 97.9431 210.108 97.2711 210.108C95.9991 210.108 94.9971 209.76 94.2651 209.064C93.5331 208.356 93.1671 207.318 93.1671 205.95V200.46H94.8951V205.752C94.8951 206.676 95.1171 207.378 95.5611 207.858C96.0051 208.326 96.6411 208.56 97.4691 208.56C98.3811 208.56 99.1011 208.284 99.6291 207.732C100.157 207.18 100.421 206.4 100.421 205.392V200.46H102.149ZM105.439 196.644H107.167V210H105.439V196.644ZM119.358 200.46V210H117.72V208.56C117.372 209.052 116.91 209.436 116.334 209.712C115.77 209.976 115.152 210.108 114.48 210.108C113.208 210.108 112.206 209.76 111.474 209.064C110.742 208.356 110.376 207.318 110.376 205.95V200.46H112.104V205.752C112.104 206.676 112.326 207.378 112.77 207.858C113.214 208.326 113.85 208.56 114.678 208.56C115.59 208.56 116.31 208.284 116.838 207.732C117.366 207.18 117.63 206.4 117.63 205.392V200.46H119.358ZM134.582 200.37C135.782 200.37 136.73 200.718 137.426 201.414C138.134 202.11 138.488 203.142 138.488 204.51V210H136.76V204.708C136.76 203.784 136.544 203.088 136.112 202.62C135.692 202.152 135.086 201.918 134.294 201.918C133.418 201.918 132.722 202.194 132.206 202.746C131.69 203.286 131.432 204.066 131.432 205.086V210H129.704V204.708C129.704 203.784 129.488 203.088 129.056 202.62C128.636 202.152 128.03 201.918 127.238 201.918C126.362 201.918 125.666 202.194 125.15 202.746C124.634 203.286 124.376 204.066 124.376 205.086V210H122.648V200.46H124.304V201.882C124.652 201.39 125.108 201.018 125.672 200.766C126.236 200.502 126.878 200.37 127.598 200.37C128.342 200.37 129.002 200.52 129.578 200.82C130.154 201.12 130.598 201.558 130.91 202.134C131.27 201.582 131.768 201.15 132.404 200.838C133.052 200.526 133.778 200.37 134.582 200.37ZM146.501 200.46H148.229V210H146.501V200.46ZM147.365 198.624C147.029 198.624 146.747 198.516 146.519 198.3C146.303 198.084 146.195 197.82 146.195 197.508C146.195 197.196 146.303 196.932 146.519 196.716C146.747 196.488 147.029 196.374 147.365 196.374C147.701 196.374 147.977 196.482 148.193 196.698C148.421 196.902 148.535 197.16 148.535 197.472C148.535 197.796 148.421 198.072 148.193 198.3C147.977 198.516 147.701 198.624 147.365 198.624ZM156.587 200.37C157.511 200.37 158.339 200.574 159.071 200.982C159.803 201.39 160.373 201.96 160.781 202.692C161.201 203.424 161.411 204.27 161.411 205.23C161.411 206.19 161.201 207.042 160.781 207.786C160.373 208.518 159.803 209.088 159.071 209.496C158.339 209.904 157.511 210.108 156.587 210.108C155.903 210.108 155.273 209.976 154.697 209.712C154.133 209.448 153.653 209.064 153.257 208.56V213.492H151.529V200.46H153.185V201.972C153.569 201.444 154.055 201.048 154.643 200.784C155.231 200.508 155.879 200.37 156.587 200.37ZM156.443 208.596C157.055 208.596 157.601 208.458 158.081 208.182C158.573 207.894 158.957 207.498 159.233 206.994C159.521 206.478 159.665 205.89 159.665 205.23C159.665 204.57 159.521 203.988 159.233 203.484C158.957 202.968 158.573 202.572 158.081 202.296C157.601 202.02 157.055 201.882 156.443 201.882C155.843 201.882 155.297 202.026 154.805 202.314C154.325 202.59 153.941 202.98 153.653 203.484C153.377 203.988 153.239 204.57 153.239 205.23C153.239 205.89 153.377 206.478 153.653 206.994C153.929 207.498 154.313 207.894 154.805 208.182C155.297 208.458 155.843 208.596 156.443 208.596ZM166.534 210.108C165.754 210.108 165.004 210.006 164.284 209.802C163.564 209.586 163 209.316 162.592 208.992L163.312 207.624C163.732 207.924 164.242 208.164 164.842 208.344C165.442 208.524 166.048 208.614 166.66 208.614C168.172 208.614 168.928 208.182 168.928 207.318C168.928 207.03 168.826 206.802 168.622 206.634C168.418 206.466 168.16 206.346 167.848 206.274C167.548 206.19 167.116 206.1 166.552 206.004C165.784 205.884 165.154 205.746 164.662 205.59C164.182 205.434 163.768 205.17 163.42 204.798C163.072 204.426 162.898 203.904 162.898 203.232C162.898 202.368 163.258 201.678 163.978 201.162C164.698 200.634 165.664 200.37 166.876 200.37C167.512 200.37 168.148 200.448 168.784 200.604C169.42 200.76 169.942 200.97 170.35 201.234L169.612 202.602C168.832 202.098 167.914 201.846 166.858 201.846C166.126 201.846 165.568 201.966 165.184 202.206C164.8 202.446 164.608 202.764 164.608 203.16C164.608 203.472 164.716 203.718 164.932 203.898C165.148 204.078 165.412 204.21 165.724 204.294C166.048 204.378 166.498 204.474 167.074 204.582C167.842 204.714 168.46 204.858 168.928 205.014C169.408 205.158 169.816 205.41 170.152 205.77C170.488 206.13 170.656 206.634 170.656 207.282C170.656 208.146 170.284 208.836 169.54 209.352C168.808 209.856 167.806 210.108 166.534 210.108ZM181.708 200.46V210H180.07V208.56C179.722 209.052 179.26 209.436 178.684 209.712C178.12 209.976 177.502 210.108 176.83 210.108C175.558 210.108 174.556 209.76 173.824 209.064C173.092 208.356 172.726 207.318 172.726 205.95V200.46H174.454V205.752C174.454 206.676 174.676 207.378 175.12 207.858C175.564 208.326 176.2 208.56 177.028 208.56C177.94 208.56 178.66 208.284 179.188 207.732C179.716 207.18 179.98 206.4 179.98 205.392V200.46H181.708ZM196.931 200.37C198.131 200.37 199.079 200.718 199.775 201.414C200.483 202.11 200.837 203.142 200.837 204.51V210H199.109V204.708C199.109 203.784 198.893 203.088 198.461 202.62C198.041 202.152 197.435 201.918 196.643 201.918C195.767 201.918 195.071 202.194 194.555 202.746C194.039 203.286 193.781 204.066 193.781 205.086V210H192.053V204.708C192.053 203.784 191.837 203.088 191.405 202.62C190.985 202.152 190.379 201.918 189.587 201.918C188.711 201.918 188.015 202.194 187.499 202.746C186.983 203.286 186.725 204.066 186.725 205.086V210H184.997V200.46H186.653V201.882C187.001 201.39 187.457 201.018 188.021 200.766C188.585 200.502 189.227 200.37 189.947 200.37C190.691 200.37 191.351 200.52 191.927 200.82C192.503 201.12 192.947 201.558 193.259 202.134C193.619 201.582 194.117 201.15 194.753 200.838C195.401 200.526 196.127 200.37 196.931 200.37ZM214.215 209.442C213.963 209.658 213.651 209.826 213.279 209.946C212.907 210.054 212.523 210.108 212.127 210.108C211.167 210.108 210.423 209.85 209.895 209.334C209.367 208.818 209.103 208.08 209.103 207.12V201.882H207.483V200.46H209.103V198.372H210.831V200.46H213.567V201.882H210.831V207.048C210.831 207.564 210.957 207.96 211.209 208.236C211.473 208.512 211.845 208.65 212.325 208.65C212.853 208.65 213.303 208.5 213.675 208.2L214.215 209.442ZM220.074 210.108C219.126 210.108 218.274 209.898 217.518 209.478C216.762 209.058 216.168 208.482 215.736 207.75C215.316 207.006 215.106 206.166 215.106 205.23C215.106 204.294 215.316 203.46 215.736 202.728C216.168 201.984 216.762 201.408 217.518 201C218.274 200.58 219.126 200.37 220.074 200.37C221.022 200.37 221.868 200.58 222.612 201C223.368 201.408 223.956 201.984 224.376 202.728C224.808 203.46 225.024 204.294 225.024 205.23C225.024 206.166 224.808 207.006 224.376 207.75C223.956 208.482 223.368 209.058 222.612 209.478C221.868 209.898 221.022 210.108 220.074 210.108ZM220.074 208.596C220.686 208.596 221.232 208.458 221.712 208.182C222.204 207.894 222.588 207.498 222.864 206.994C223.14 206.478 223.278 205.89 223.278 205.23C223.278 204.57 223.14 203.988 222.864 203.484C222.588 202.968 222.204 202.572 221.712 202.296C221.232 202.02 220.686 201.882 220.074 201.882C219.462 201.882 218.91 202.02 218.418 202.296C217.938 202.572 217.554 202.968 217.266 203.484C216.99 203.988 216.852 204.57 216.852 205.23C216.852 205.89 216.99 206.478 217.266 206.994C217.554 207.498 217.938 207.894 218.418 208.182C218.91 208.458 219.462 208.596 220.074 208.596ZM229.069 202.062C229.369 201.51 229.813 201.09 230.401 200.802C230.989 200.514 231.703 200.37 232.543 200.37V202.044C232.447 202.032 232.315 202.026 232.147 202.026C231.211 202.026 230.473 202.308 229.933 202.872C229.405 203.424 229.141 204.216 229.141 205.248V210H227.413V200.46H229.069V202.062ZM240.424 209.442C240.172 209.658 239.86 209.826 239.488 209.946C239.116 210.054 238.732 210.108 238.336 210.108C237.376 210.108 236.632 209.85 236.104 209.334C235.576 208.818 235.312 208.08 235.312 207.12V201.882H233.692V200.46H235.312V198.372H237.04V200.46H239.776V201.882H237.04V207.048C237.04 207.564 237.166 207.96 237.418 208.236C237.682 208.512 238.054 208.65 238.534 208.65C239.062 208.65 239.512 208.5 239.884 208.2L240.424 209.442ZM246.283 210.108C245.335 210.108 244.483 209.898 243.727 209.478C242.971 209.058 242.377 208.482 241.945 207.75C241.525 207.006 241.315 206.166 241.315 205.23C241.315 204.294 241.525 203.46 241.945 202.728C242.377 201.984 242.971 201.408 243.727 201C244.483 200.58 245.335 200.37 246.283 200.37C247.231 200.37 248.077 200.58 248.821 201C249.577 201.408 250.165 201.984 250.585 202.728C251.017 203.46 251.233 204.294 251.233 205.23C251.233 206.166 251.017 207.006 250.585 207.75C250.165 208.482 249.577 209.058 248.821 209.478C248.077 209.898 247.231 210.108 246.283 210.108ZM246.283 208.596C246.895 208.596 247.441 208.458 247.921 208.182C248.413 207.894 248.797 207.498 249.073 206.994C249.349 206.478 249.487 205.89 249.487 205.23C249.487 204.57 249.349 203.988 249.073 203.484C248.797 202.968 248.413 202.572 247.921 202.296C247.441 202.02 246.895 201.882 246.283 201.882C245.671 201.882 245.119 202.02 244.627 202.296C244.147 202.572 243.763 202.968 243.475 203.484C243.199 203.988 243.061 204.57 243.061 205.23C243.061 205.89 243.199 206.478 243.475 206.994C243.763 207.498 244.147 207.894 244.627 208.182C245.119 208.458 245.671 208.596 246.283 208.596ZM255.278 202.062C255.578 201.51 256.022 201.09 256.61 200.802C257.198 200.514 257.912 200.37 258.752 200.37V202.044C258.656 202.032 258.524 202.026 258.356 202.026C257.42 202.026 256.682 202.308 256.142 202.872C255.614 203.424 255.35 204.216 255.35 205.248V210H253.622V200.46H255.278V202.062ZM261.243 210.108C260.907 210.108 260.619 209.994 260.379 209.766C260.139 209.526 260.019 209.226 260.019 208.866C260.019 208.518 260.139 208.23 260.379 208.002C260.619 207.762 260.907 207.642 261.243 207.642C261.579 207.642 261.861 207.756 262.089 207.984C262.317 208.212 262.431 208.506 262.431 208.866C262.431 209.226 262.311 209.526 262.071 209.766C261.843 209.994 261.567 210.108 261.243 210.108Z" fill="#DDBEAA"/>
<path d="M6.99251 211C6.70063 211 6.4203 210.887 6.2133 210.686L0.323127 204.968C-0.107384 204.55 -0.107384 203.873 0.323127 203.455C0.753402 203.037 1.45151 203.037 1.88178 203.455L6.94724 208.372L17.0758 197.357C17.4811 196.917 18.1778 196.878 18.6321 197.272C19.0862 197.665 19.1258 198.342 18.7203 198.783L7.81463 210.642C7.61281 210.862 7.32659 210.991 7.02363 210.999C7.01326 211 7.00288 211 6.99251 211Z" fill="#5BA199"/>
</svg>
