<?xml version="1.0" standalone="no"?>
<!DOCTYPE svg PUBLIC "-//W3C//DTD SVG 20010904//EN"
 "http://www.w3.org/TR/2001/REC-SVG-20010904/DTD/svg10.dtd">
<svg version="1.0" xmlns="http://www.w3.org/2000/svg"
 width="359.000000pt" height="359.000000pt" viewBox="0 0 359.000000 359.000000"
 preserveAspectRatio="xMidYMid meet">

<g transform="translate(0.000000,359.000000) scale(0.100000,-0.100000)"
fill="#000000" stroke="none">
<path d="M3070 1410 c0 -5 5 -10 11 -10 5 0 7 5 4 10 -3 6 -8 10 -11 10 -2 0
-4 -4 -4 -10z"/>
<path d="M3525 1229 c-17 -4 -43 -10 -59 -13 -15 -4 -26 -9 -23 -13 8 -8 147
17 147 27 0 10 -22 9 -65 -1z"/>
<path d="M3277 1204 c-13 -13 5 -24 36 -24 30 1 31 1 13 15 -21 16 -39 19 -49
9z"/>
<path d="M3378 1193 c6 -2 18 -2 25 0 6 3 1 5 -13 5 -14 0 -19 -2 -12 -5z"/>
<path d="M3096 905 c-11 -8 -15 -15 -9 -15 19 0 43 12 43 21 0 13 -12 11 -34
-6z"/>
<path d="M3480 860 c-12 -8 -11 -10 8 -10 12 0 22 5 22 10 0 13 -11 13 -30 0z"/>
<path d="M0 751 c0 -15 16 -22 34 -15 25 9 19 24 -9 24 -14 0 -25 -4 -25 -9z"/>
<path d="M3468 713 c7 -3 16 -2 19 1 4 3 -2 6 -13 5 -11 0 -14 -3 -6 -6z"/>
<path d="M3530 665 c0 -8 12 -20 26 -25 35 -14 36 -13 32 13 -4 27 -58 39 -58
12z"/>
<path d="M3496 595 c-4 -12 -1 -16 11 -13 18 3 21 20 5 26 -5 1 -12 -4 -16
-13z"/>
<path d="M185 582 c-2 -2 6 -13 17 -24 19 -19 21 -19 39 -2 10 9 16 20 13 23
-6 6 -63 8 -69 3z"/>
<path d="M3280 510 c-13 -9 -13 -10 0 -10 8 0 22 5 30 10 13 9 13 10 0 10 -8
0 -22 -5 -30 -10z"/>
<path d="M3330 482 c0 -5 6 -9 13 -9 6 0 21 -4 32 -9 18 -7 18 -6 6 9 -14 17
-51 24 -51 9z"/>
<path d="M3500 450 c0 -5 7 -10 15 -10 8 0 15 5 15 10 0 6 -7 10 -15 10 -8 0
-15 -4 -15 -10z"/>
<path d="M225 401 c-3 -5 -1 -12 5 -16 5 -3 10 1 10 9 0 18 -6 21 -15 7z"/>
<path d="M3475 331 l-30 -7 35 -6 c19 -4 44 -8 55 -10 12 -2 21 3 23 15 4 18
-24 21 -83 8z"/>
<path d="M2980 295 c-10 -13 -9 -15 9 -15 11 0 21 4 21 9 0 18 -18 21 -30 6z"/>
<path d="M2935 290 c4 -6 11 -8 16 -5 14 9 11 15 -7 15 -8 0 -12 -5 -9 -10z"/>
</g>
</svg>
