<?xml version="1.0" standalone="no"?>
<!DOCTYPE svg PUBLIC "-//W3C//DTD SVG 20010904//EN"
 "http://www.w3.org/TR/2001/REC-SVG-20010904/DTD/svg10.dtd">
<svg version="1.0" xmlns="http://www.w3.org/2000/svg"
 width="367.000000pt" height="367.000000pt" viewBox="0 0 367.000000 367.000000"
 preserveAspectRatio="xMidYMid meet">

<g transform="translate(0.000000,367.000000) scale(0.100000,-0.100000)"
fill="#000000" stroke="none">
<path d="M40 1875 l0 -1795 1795 0 1795 0 0 1795 0 1795 -1795 0 -1795 0 0
-1795z m3580 1171 l0 -613 -37 -7 c-92 -15 -148 -3 -205 42 -9 8 -26 12 -38
10 l-22 -3 22 -27 c12 -16 19 -28 16 -28 -3 0 -62 25 -133 56 -70 30 -202 87
-293 126 -91 38 -183 78 -206 88 -41 18 -288 169 -579 355 -268 172 -568 341
-584 330 -13 -7 -42 5 -35 16 3 5 -3 6 -12 2 -10 -4 -15 -2 -11 3 5 9 -3 12
-50 15 -10 1 -27 -2 -37 -6 -15 -6 -17 -5 -11 5 6 9 4 11 -5 5 -10 -6 -9 -11
6 -22 10 -7 24 -11 31 -9 7 3 12 1 10 -4 -1 -4 100 -77 224 -162 302 -205 304
-207 180 -152 -57 24 -126 56 -153 70 -64 32 -101 46 -94 35 28 -44 409 -265
714 -413 100 -49 244 -125 319 -170 181 -106 276 -153 378 -187 l85 -29 -87
-8 -88 -9 -60 43 c-123 90 -502 317 -755 453 -307 165 -778 358 -1020 418 -78
19 -285 52 -405 64 -43 5 -38 1 45 -24 524 -164 625 -207 1135 -486 543 -298
766 -411 888 -449 31 -10 54 -21 49 -26 -4 -4 -39 -10 -78 -14 -71 -7 -72 -6
-130 33 -110 75 -303 192 -481 294 -235 134 -650 342 -669 335 -17 -6 -65 14
-59 24 3 5 -1 10 -8 13 -310 128 -561 207 -712 226 -49 6 -133 10 -185 10
l-95 -1 95 -19 c177 -34 245 -51 340 -86 169 -63 481 -212 680 -325 349 -197
622 -340 875 -458 l140 -65 -60 -8 -60 -8 -165 99 c-536 321 -1251 618 -1691
701 -100 19 -367 46 -375 38 -2 -2 51 -16 119 -31 165 -38 300 -82 524 -172
332 -135 398 -156 283 -94 -41 23 -67 39 -57 36 10 -4 34 -6 53 -6 20 0 33 -4
30 -8 -3 -5 7 -9 22 -9 30 0 218 -77 243 -99 9 -8 19 -11 23 -7 4 4 4 -1 0
-12 -6 -15 -4 -17 10 -12 9 4 15 3 12 -1 -2 -4 7 -13 22 -20 35 -16 67 -41 61
-47 -3 -2 -16 1 -29 8 -14 7 -34 16 -45 21 -16 6 -18 5 -7 -5 17 -18 15 -40
-3 -33 -8 4 -12 10 -9 15 3 5 -1 7 -8 4 -15 -6 -41 4 -323 118 -260 105 -532
197 -689 232 -94 21 -214 36 -343 45 -2 0 -3 135 -3 300 l0 300 1785 0 1785 0
0 -614z m-2290 114 c13 -8 13 -10 -2 -10 -9 0 -20 5 -23 10 -8 13 5 13 25 0z
m-1164 -155 c57 -13 231 -75 395 -141 284 -113 390 -154 397 -154 2 0 1 4 -2
9 -3 4 4 8 16 7 12 0 23 -7 26 -14 2 -8 -3 -10 -15 -6 -17 5 -17 5 0 -6 20
-13 35 -6 45 20 6 16 20 12 137 -39 72 -31 165 -78 208 -104 43 -26 82 -47 87
-47 6 0 10 -9 10 -21 0 -23 -25 -21 -25 2 0 9 -9 13 -23 12 -14 -2 -21 1 -17
8 4 6 -2 5 -14 -3 -28 -17 -27 -22 15 -41 30 -15 47 -16 117 -7 52 6 105 6
147 0 35 -5 65 -8 66 -7 2 1 -35 22 -82 46 -46 24 -82 46 -80 48 5 5 195 -76
226 -97 14 -9 52 -27 85 -40 33 -13 81 -34 107 -47 45 -22 47 -24 36 -48 l-11
-25 -34 20 c-46 27 -47 26 -19 -17 14 -21 28 -51 32 -66 4 -17 12 -26 19 -23
7 2 20 -12 30 -35 10 -21 21 -39 24 -39 3 0 21 9 39 20 29 18 35 19 54 6 19
-14 18 -16 -33 -42 -30 -14 -57 -31 -60 -36 -3 -5 -9 9 -13 31 -4 27 -11 41
-21 41 -13 0 -21 -25 -16 -53 1 -4 -6 -24 -14 -44 -8 -20 -14 -38 -12 -40 2
-2 17 3 32 11 24 13 26 16 12 22 -9 3 -17 13 -17 22 0 15 2 14 17 -1 18 -17
26 -110 9 -100 -4 3 -5 -5 -1 -17 4 -12 3 -20 -1 -17 -5 3 -9 -14 -8 -36 1
-42 -17 -90 -37 -103 -7 -4 -7 2 1 17 7 13 11 22 8 19 -2 -3 -31 -34 -64 -70
-46 -51 -51 -59 -23 -38 22 16 44 25 56 22 14 -4 27 5 47 33 l28 38 -6 -30
c-12 -54 -19 -115 -14 -115 3 0 66 40 139 88 74 48 162 105 196 126 35 20 66
44 71 52 8 14 42 10 42 -5 0 -4 -87 -77 -192 -163 -106 -85 -218 -175 -248
-200 -30 -24 -152 -118 -270 -208 -118 -90 -249 -191 -289 -224 -41 -33 -72
-55 -68 -49 4 6 4 39 1 72 -6 57 -9 61 -28 55 -30 -9 -30 -7 -8 -78 l19 -65
-100 -81 -100 -81 -31 26 c-46 37 -73 47 -151 54 l-70 6 80 51 c44 28 141 86
215 129 74 43 158 92 185 110 28 17 94 58 147 91 l98 59 -93 5 -92 6 -65 -42
c-36 -22 -101 -64 -145 -91 -44 -28 -112 -74 -150 -102 -66 -50 -70 -51 -79
-32 -11 24 -34 28 -42 6 -3 -8 -47 -35 -97 -61 -51 -25 -96 -50 -102 -56 -7
-7 -7 -9 0 -6 6 3 54 26 107 52 157 77 148 54 -33 -84 -90 -69 -164 -131 -164
-137 0 -6 -4 -15 -9 -20 -5 -5 -6 -2 -1 6 5 9 4 12 -4 10 -7 -3 -13 -9 -13
-14 0 -14 -18 -35 -30 -35 -5 0 -6 6 -2 13 4 7 3 9 -2 4 -5 -5 -9 -12 -9 -17
0 -4 -11 -17 -25 -29 -14 -12 4 -4 40 17 36 21 94 54 130 72 36 19 78 43 93
53 16 11 31 17 34 14 3 -3 -15 -19 -41 -35 -42 -27 -136 -128 -136 -147 0 -4
20 11 45 34 57 52 172 108 189 91 8 -8 6 -9 -9 -4 -15 5 -17 4 -9 -5 11 -12
44 -5 44 10 0 5 5 9 12 9 9 0 9 -3 1 -11 -14 -14 -5 -49 13 -49 13 0 18 -12
15 -32 0 -4 6 -5 14 -2 20 8 19 -3 -6 -37 -23 -33 -19 -36 16 -13 17 11 25 12
25 5 0 -7 4 -10 8 -7 5 3 9 -1 9 -9 0 -8 -4 -12 -8 -9 -4 2 -10 -4 -13 -14 -4
-11 -18 -24 -32 -31 -32 -14 -25 -25 18 -25 17 -1 33 -7 36 -15 3 -9 0 -11 -8
-6 -9 5 -10 2 -5 -14 4 -15 2 -21 -8 -21 -7 0 -14 -6 -14 -14 0 -8 6 -12 14
-9 17 7 17 -13 1 -21 -7 -3 -3 -3 10 0 24 6 29 -5 10 -24 -9 -9 -9 -12 1 -12
7 0 9 -5 4 -12 -12 -20 -11 -58 1 -58 6 0 27 9 46 21 32 19 32 18 -10 -20 -27
-25 -37 -39 -25 -35 17 5 16 3 -4 -14 -25 -20 -85 -42 -115 -42 -10 0 -14 -4
-11 -10 3 -5 46 -10 95 -10 73 0 103 5 175 31 111 39 177 79 197 121 8 18 34
54 57 80 49 55 55 91 14 86 -22 -2 -27 1 -30 23 -3 23 0 26 20 22 44 -9 35 21
-27 89 -47 52 -69 68 -98 73 -37 7 -38 6 -39 -21 -1 -39 -11 -59 -29 -58 -37
2 -70 18 -84 39 -15 22 -14 24 19 50 19 14 66 45 104 68 413 250 724 465 1033
712 84 67 155 121 157 119 2 -2 -2 -64 -9 -138 l-13 -135 -102 -123 c-102
-123 -164 -182 -240 -230 -22 -14 -69 -58 -104 -98 -35 -39 -114 -113 -175
-162 -112 -91 -263 -228 -252 -228 9 0 198 102 241 130 35 23 98 40 81 22 -4
-4 -39 -40 -78 -79 -65 -65 -70 -73 -48 -73 26 0 72 28 150 89 25 20 38 27 30
17 -14 -18 -13 -19 2 -10 9 5 86 56 171 114 123 83 157 112 166 137 7 18 11
34 9 37 -6 7 87 87 126 107 21 11 69 27 107 35 58 12 84 25 172 88 112 79 146
100 153 93 7 -7 -94 -108 -145 -145 -31 -23 -38 -32 -25 -32 38 0 452 344 812
674 l32 30 0 -927 0 -927 -697 0 c-659 0 -700 1 -726 18 -15 10 -34 27 -41 38
-14 18 -16 17 -68 -19 l-54 -37 -992 0 -992 0 2 416 3 416 143 64 c79 35 205
93 280 129 75 36 130 60 122 52 -8 -7 -43 -38 -78 -67 -44 -38 -59 -56 -50
-62 13 -7 10 -9 -22 -12 -8 0 -14 -6 -13 -13 3 -13 -20 -34 -39 -37 -18 -2
-158 -116 -158 -128 0 -5 -3 -7 -8 -4 -4 2 -30 -16 -57 -41 -28 -25 -41 -39
-30 -32 11 8 22 17 25 20 3 3 20 15 39 25 18 10 41 24 50 29 9 6 42 25 74 43
45 27 55 37 47 47 -8 10 -8 15 1 21 8 5 9 3 4 -6 -5 -8 9 0 31 17 21 16 48 30
59 29 11 0 144 81 295 180 151 100 339 216 417 260 79 43 142 81 142 84 0 3
-21 21 -47 41 l-47 36 -185 -116 c-102 -64 -213 -135 -247 -159 -34 -23 -64
-42 -67 -42 -3 0 -159 -76 -346 -170 l-340 -169 0 75 0 75 108 50 c59 28 132
61 163 74 31 13 138 63 239 110 100 47 189 85 197 85 10 0 14 7 11 18 -4 15
32 37 207 127 l211 108 -14 46 c-9 25 -17 52 -19 59 -3 13 -87 -28 -328 -163
-129 -72 -434 -248 -485 -280 -46 -29 -278 -155 -285 -155 -3 0 -5 14 -5 30 0
28 10 37 113 104 261 171 940 531 995 528 21 -2 21 0 8 21 -7 12 -17 39 -20
60 -4 20 -9 37 -13 37 -22 0 -464 -227 -585 -301 -129 -79 -388 -203 -373
-179 14 22 395 247 467 276 27 10 48 24 48 29 0 6 88 54 194 108 107 53 202
104 210 113 9 8 16 12 16 7 0 -4 5 -1 10 7 8 13 11 11 16 -7 7 -24 28 -31 39
-13 4 6 10 8 15 5 15 -9 22 15 16 51 -8 40 -18 43 -36 9 -7 -14 -17 -25 -22
-25 -15 0 -8 23 12 45 16 17 21 38 24 90 2 63 1 67 -12 47 -21 -32 -110 -31
-183 2 -95 41 -330 113 -474 145 -142 31 -235 45 -382 56 l-83 7 0 29 c0 26 3
28 28 24 15 -3 106 -14 202 -26 96 -11 194 -24 217 -28 23 -5 53 -7 65 -4 13
2 97 -20 188 -48 177 -54 443 -130 444 -126 1 1 9 16 19 34 9 17 14 34 9 36
-4 3 -52 23 -107 45 -327 129 -817 252 -1001 252 l-64 0 0 109 0 109 133 -43
c72 -23 197 -66 277 -94 288 -104 482 -171 488 -170 4 0 -24 16 -63 35 -38 18
-60 31 -47 28 13 -3 47 -7 75 -8 38 -2 86 -18 179 -59 157 -69 235 -110 195
-102 -21 4 -27 3 -21 -6 5 -9 2 -10 -9 -6 -28 10 -28 -9 0 -22 22 -10 29 -9
47 7 12 11 45 32 74 47 l54 28 -124 42 c-67 24 -197 73 -288 110 -198 80 -451
166 -575 194 -174 40 -310 69 -352 76 l-43 7 0 69 c0 38 3 69 8 69 4 0 53 -11
108 -25z m1139 5 c3 -5 -4 -6 -15 -3 -11 3 -22 9 -25 13 -3 5 4 6 15 3 11 -3
22 -9 25 -13z m15 -30 c40 -17 75 -28 78 -25 3 3 -1 5 -8 5 -7 0 -11 2 -8 5 8
9 38 -6 33 -16 -3 -4 13 -18 36 -30 35 -17 40 -23 26 -30 -18 -11 -160 55
-210 97 -36 30 -35 30 53 -6z m36 4 c18 -14 18 -14 -6 -3 -31 14 -36 19 -24
19 6 0 19 -7 30 -16z m-230 -74 c66 -27 161 -80 142 -80 -4 0 -53 22 -110 48
-57 27 -110 51 -118 55 -9 3 -10 6 -3 6 7 1 47 -13 89 -29z m410 -35 c14 -11
15 -14 4 -15 -13 0 -13 -1 0 -10 8 -5 11 -10 5 -10 -5 1 -19 7 -29 15 -14 11
-16 15 -5 15 12 0 12 2 -1 10 -8 5 -10 10 -4 10 5 0 19 -7 30 -15z m-444 -124
c15 -16 13 -16 -74 20 -32 13 -58 27 -58 30 0 10 118 -35 132 -50z m-317 -149
c-3 -3 -11 0 -18 7 -9 10 -8 11 6 5 10 -3 15 -9 12 -12z m-640 -98 c30 -8 36
-11 16 -9 -18 3 -49 5 -67 5 -19 0 -34 5 -34 10 0 13 23 11 85 -6z m700 -73
c39 -10 86 -28 105 -39 41 -26 34 -28 -17 -7 -47 20 -77 19 -40 -1 15 -8 27
-16 27 -18 0 -4 -117 32 -160 50 l-35 15 40 -5 40 -4 -30 13 c-42 20 -12 18
70 -4z m2405 -31 l55 -6 -57 -8 c-51 -7 -60 -6 -85 14 l-28 23 30 -8 c17 -5
55 -11 85 -15z m380 -35 c0 -30 -7 -31 -55 -8 -30 15 -33 18 -18 24 10 4 30 8
46 8 22 1 27 -3 27 -24z m-300 -10 c0 -2 -18 -14 -40 -25 -36 -19 -43 -19 -62
-6 -20 14 -19 15 18 21 22 3 46 8 54 10 26 5 30 5 30 0z m109 2 c-133 -104
-144 -108 -85 -34 22 28 37 37 59 37 17 0 28 -1 26 -3z m-1204 -41 c33 -8 69
-17 80 -19 11 -3 -1 -5 -26 -6 -31 -1 -65 8 -100 24 -30 14 -45 23 -34 20 11
-2 47 -11 80 -19z m326 6 c-13 -2 -27 0 -32 5 -6 6 3 7 23 4 28 -4 29 -6 9 -9z
m617 -14 l35 -21 -74 -71 c-41 -39 -113 -113 -161 -164 -75 -82 -87 -91 -93
-73 -3 11 -1 29 4 40 19 35 14 42 -26 35 l-38 -6 90 91 c71 72 94 90 110 85
16 -5 18 -4 7 7 -10 11 -4 21 30 56 48 49 66 52 116 21z m-158 7 c0 -11 -54
-25 -73 -19 -16 5 -17 8 -6 15 15 9 79 12 79 4z m552 -86 c5 -12 17 -19 33
-19 24 0 25 -3 25 -57 l-1 -58 -63 -46 c-34 -26 -87 -59 -117 -74 -30 -15 -65
-35 -79 -45 -14 -9 -36 -20 -49 -23 -19 -5 -7 12 50 71 99 102 112 119 100
126 -11 7 -153 -97 -245 -180 -86 -78 -246 -167 -246 -138 0 19 217 269 371
428 l106 108 54 -37 c30 -20 57 -45 61 -56z m-673 64 c17 -10 31 -21 31 -24 0
-9 -121 -89 -134 -89 -6 1 -23 11 -38 23 l-27 22 52 43 c58 47 72 50 116 25z
m-2114 -101 l120 -18 -103 -16 c-97 -15 -105 -15 -151 3 -132 50 -387 99 -513
99 -69 0 -78 2 -78 18 0 17 20 15 303 -25 166 -23 356 -51 422 -61z m1927 87
c-24 -11 -51 -17 -62 -14 -33 11 -22 24 23 28 78 7 82 5 39 -14z m-93 -15 l23
-16 -44 -30 c-23 -16 -60 -38 -81 -49 l-37 -20 -36 28 -36 27 33 29 c19 16 43
33 54 37 33 14 99 11 124 -6z m-1912 0 c-3 -3 -12 -4 -19 -1 -8 3 -5 6 6 6 11
1 17 -2 13 -5z m1688 -9 c-35 -16 -71 -19 -80 -6 -5 9 30 17 85 19 24 0 24 0
-5 -13z m-1745 -10 c102 -16 135 -14 89 4 -13 5 -19 10 -14 10 16 1 209 -49
215 -56 19 -21 -377 31 -398 52 -7 7 -8 7 108 -10z m367 -61 c-3 -3 -12 -4
-19 -1 -8 3 -5 6 6 6 11 1 17 -2 13 -5z m1717 -28 c18 -12 17 -14 -12 -35 -25
-17 -43 -21 -84 -19 l-52 3 53 42 c37 30 56 39 64 32 7 -5 20 -16 31 -23z
m-1578 7 c-3 -10 -8 -30 -11 -44 -4 -18 -17 -29 -43 -39 -159 -57 -446 -197
-652 -320 -137 -81 -197 -110 -355 -166 -35 -13 -38 -13 -25 0 29 28 385 215
470 246 87 32 116 47 67 35 -15 -4 -27 -5 -27 -2 0 5 209 126 275 160 17 8 42
13 57 10 14 -3 28 0 32 5 4 6 -3 8 -16 5 -45 -11 6 27 103 77 103 53 134 61
125 33z m-484 -22 c11 -11 8 -13 -19 -8 -18 4 -33 3 -33 -2 0 -5 -33 -15 -72
-22 -65 -12 -69 -14 -38 -19 l35 -5 -68 -32 c-64 -31 -137 -44 -137 -24 0 4
26 20 58 34 48 22 52 27 29 27 -16 0 -53 -11 -84 -26 -68 -31 -113 -41 -113
-25 0 17 -20 13 -68 -15 -31 -18 -41 -29 -32 -34 9 -6 4 -13 -18 -24 -17 -9
-36 -16 -42 -16 -16 0 -12 30 5 36 8 4 12 10 9 15 -3 5 7 14 21 21 29 13 17
27 -25 29 -51 3 56 17 145 20 50 1 106 8 125 14 19 7 65 15 102 19 89 9 114
18 73 27 -16 4 -47 7 -67 8 -20 0 -39 4 -42 9 -2 4 51 7 119 7 93 0 127 -4
137 -14z m229 -17 c-92 -33 -132 -39 -181 -25 l-25 7 25 14 c14 8 68 20 120
26 156 19 164 16 61 -22z m1419 -54 c10 -6 11 -13 5 -17 -6 -5 -65 -45 -133
-91 l-122 -82 0 38 c0 37 1 38 103 99 106 64 122 69 147 53z m-1590 -5 c0 -4
-33 -21 -72 -40 -60 -28 -79 -33 -108 -27 l-35 8 25 16 c58 37 88 47 138 48
28 0 52 -2 52 -5z m-400 -80 c0 -2 -23 -16 -51 -30 -36 -19 -62 -25 -92 -23
l-42 4 55 27 c47 23 130 37 130 22z m180 -31 c-25 -15 -65 -29 -90 -32 -25 -3
-56 -12 -70 -20 -20 -11 -19 -9 4 9 62 50 100 67 151 68 l50 1 -45 -26z m-415
-17 c-16 -13 -15 -14 14 -9 l33 5 -27 -27 c-34 -34 -57 -34 -52 0 3 24 21 44
41 44 6 0 2 -6 -9 -13z m215 -81 c0 -5 -234 -136 -244 -136 -3 0 -6 9 -6 19 0
13 19 29 63 52 74 39 187 78 187 65z m2416 -457 c-120 -113 -248 -219 -256
-214 -4 2 -27 -16 -51 -42 -50 -51 -125 -103 -150 -103 -9 0 -22 -7 -29 -15
-20 -25 -23 -10 -5 27 24 47 65 88 88 88 18 0 19 -2 5 -17 -37 -43 -27 -44 18
-2 59 56 174 143 174 133 0 -5 -12 -22 -27 -38 -15 -17 11 6 57 50 74 71 247
214 259 214 2 0 -35 -36 -83 -81z m-2612 -31 c-16 -12 -35 -26 -41 -31 -9 -7
-13 -4 -13 7 0 10 14 23 33 31 46 21 54 18 21 -7z m1890 -433 c-4 -8 -8 -15
-10 -15 -2 0 -4 7 -4 15 0 8 4 15 10 15 5 0 7 -7 4 -15z"/>
<path d="M1060 3580 c8 -6 24 -15 35 -21 16 -8 15 -6 -4 10 -13 12 -28 21 -35
21 -6 0 -4 -5 4 -10z"/>
<path d="M1331 3306 c9 -9 199 -95 199 -90 0 3 -43 25 -96 50 -88 41 -114 51
-103 40z"/>
<path d="M1417 3009 c7 -7 15 -10 18 -7 3 3 -2 9 -12 12 -14 6 -15 5 -6 -5z"/>
<path d="M1580 2402 c-57 -8 -33 -17 45 -18 47 0 83 2 80 5 -8 7 -97 17 -125
13z"/>
<path d="M1241 2184 c0 -11 3 -14 6 -6 3 7 2 16 -1 19 -3 4 -6 -2 -5 -13z"/>
<path d="M1915 2074 c-9 -15 -12 -23 -6 -20 11 7 35 46 28 46 -3 0 -12 -12
-22 -26z"/>
<path d="M1824 1984 c-18 -14 -18 -15 4 -4 12 6 22 13 22 15 0 8 -5 6 -26 -11z"/>
<path d="M1200 1935 c-18 -22 -1 -56 44 -90 30 -23 39 -25 51 -15 21 17 20 21
-21 73 -39 50 -54 56 -74 32z"/>
<path d="M1962 1920 c-19 -12 -30 -15 -26 -8 4 7 -18 -14 -49 -46 -31 -32 -54
-63 -50 -69 3 -6 1 -7 -6 -3 -6 4 -9 11 -6 16 3 5 -21 0 -52 -11 -32 -10 -92
-23 -133 -28 l-75 -8 60 -1 c33 -1 77 2 98 7 21 5 37 5 37 0 0 -12 -36 -20
-128 -30 l-77 -8 85 4 c82 4 200 36 208 57 2 4 9 5 15 1 7 -4 8 0 3 12 -5 14
-4 16 7 7 11 -9 24 -5 60 19 26 17 50 35 53 41 7 10 17 68 12 68 -2 0 -18 -9
-36 -20z"/>
<path d="M1367 1820 c6 -7 9 -18 6 -26 -7 -20 44 -41 117 -47 l65 -6 -50 18
c-27 10 -72 31 -100 46 -27 15 -45 22 -38 15z"/>
<path d="M1192 1788 c-9 -9 -6 -18 15 -40 30 -31 48 -37 39 -12 -6 15 -4 15
11 3 10 -7 2 4 -16 24 -19 20 -35 37 -36 37 -1 0 -6 -5 -13 -12z"/>
<path d="M1805 1685 c-16 -7 -23 -14 -14 -14 8 -1 24 6 35 14 24 18 18 18 -21
0z"/>
<path d="M1390 1661 c0 -10 23 -15 95 -25 34 -4 30 -2 -20 14 -69 23 -75 23
-75 11z"/>
<path d="M1715 1661 l-30 -7 27 -6 c16 -3 29 0 32 6 3 8 7 8 13 0 5 -6 18 -7
33 -3 14 4 18 8 10 8 -8 1 -24 3 -35 5 -11 2 -33 1 -50 -3z"/>
<path d="M1939 1563 c-13 -15 -12 -15 9 -4 23 12 28 21 13 21 -5 0 -15 -7 -22
-17z"/>
<path d="M3010 1124 c0 -3 11 -20 25 -38 36 -48 55 -99 55 -152 0 -30 6 -54
16 -65 19 -21 12 -46 -15 -57 -32 -12 -71 -79 -85 -148 l-14 -65 27 17 c23 15
23 13 -6 -18 -18 -19 -33 -39 -33 -44 0 -19 -38 -89 -57 -105 -10 -9 -31 -24
-48 -32 -16 -9 -27 -16 -23 -17 17 -1 443 196 490 227 93 62 127 181 82 288
-51 121 -206 215 -355 215 -32 0 -59 -3 -59 -6z"/>
<path d="M1591 1102 c0 -7 -5 -11 -9 -8 -8 4 20 -151 32 -176 3 -7 3 14 -1 47
-7 73 -20 155 -22 137z"/>
<path d="M1221 1086 c-1 -11 -13 -33 -28 -49 l-28 -29 30 8 c42 9 45 14 35 54
-4 19 -8 26 -9 16z"/>
<path d="M1422 990 c0 -14 2 -19 5 -12 2 6 2 18 0 25 -3 6 -5 1 -5 -13z"/>
<path d="M2397 838 c18 -32 18 -35 2 -78 -10 -25 -18 -48 -18 -52 -1 -3 21
-30 48 -60 48 -52 134 -108 146 -96 4 4 12 28 19 55 11 42 16 48 37 45 13 -1
69 -3 124 -4 89 -2 106 1 156 24 31 14 59 30 62 35 3 5 -15 -1 -41 -14 -105
-52 -242 -51 -357 1 -28 12 -55 21 -61 19 -6 -2 -17 3 -24 12 -7 8 -9 15 -5
15 4 0 -9 17 -30 38 -20 20 -43 49 -51 65 -8 15 -17 27 -20 27 -3 0 3 -15 13
-32z"/>
<path d="M564 794 c-18 -14 -18 -15 4 -4 12 6 22 13 22 15 0 8 -5 6 -26 -11z"/>
<path d="M2387 660 c8 -35 43 -81 54 -74 6 3 18 0 27 -8 9 -7 0 5 -20 27 -21
22 -44 49 -52 60 -14 19 -15 19 -9 -5z"/>
<path d="M2040 643 c0 -5 12 -20 26 -34 36 -33 111 -156 130 -213 9 -25 14
-64 12 -85 -3 -36 0 -41 37 -64 59 -37 122 -67 140 -67 8 0 24 15 36 33 40 64
7 169 -94 302 -72 94 -128 128 -218 133 -39 3 -69 0 -69 -5z"/>
<path d="M1742 553 c-13 -3 -32 -18 -42 -35 -15 -25 -19 -27 -22 -12 -3 15 -7
12 -21 -15 -20 -41 -21 -45 -5 -35 7 5 3 -4 -9 -20 -18 -22 -20 -32 -12 -52
12 -32 12 -34 -4 -29 -15 6 -41 -32 -27 -40 5 -3 17 -2 27 3 11 7 30 3 64 -14
26 -13 52 -24 58 -24 6 0 11 -4 11 -9 0 -15 92 1 145 24 87 39 113 82 84 137
-9 18 -9 20 4 15 11 -4 14 -2 10 9 -3 8 -10 13 -17 12 -6 -2 -28 10 -48 25
-40 31 -128 68 -156 66 -9 -1 -27 -4 -40 -6z"/>
<path d="M2890 535 c-14 -8 -20 -14 -14 -15 5 0 19 7 30 15 24 18 16 19 -16 0z"/>
<path d="M2820 510 c-21 -7 -21 -8 -5 -9 11 0 27 4 35 9 18 11 5 11 -30 0z"/>
<path d="M2628 503 c7 -3 16 -2 19 1 4 3 -2 6 -13 5 -11 0 -14 -3 -6 -6z"/>
<path d="M2733 493 c9 -2 25 -2 35 0 9 3 1 5 -18 5 -19 0 -27 -2 -17 -5z"/>
<path d="M2890 2090 c0 -5 6 -10 14 -10 8 0 18 5 21 10 3 6 -3 10 -14 10 -12
0 -21 -4 -21 -10z"/>
</g>
</svg>
