<?xml version="1.0" standalone="no"?>
<!DOCTYPE svg PUBLIC "-//W3C//DTD SVG 20010904//EN"
 "http://www.w3.org/TR/2001/REC-SVG-20010904/DTD/svg10.dtd">
<svg version="1.0" xmlns="http://www.w3.org/2000/svg"
 width="359.000000pt" height="359.000000pt" viewBox="0 0 359.000000 359.000000"
 preserveAspectRatio="xMidYMid meet">

<g transform="translate(0.000000,359.000000) scale(0.100000,-0.100000)"
fill="#000000" stroke="none">
<path d="M2893 2559 c-17 -5 -42 -22 -56 -38 -22 -26 -24 -40 -30 -167 -6
-112 -11 -144 -27 -172 -12 -20 -18 -42 -14 -54 5 -18 4 -19 -23 -4 l-30 15
-12 -62 c-6 -34 -13 -108 -14 -163 -2 -85 1 -105 16 -121 23 -26 22 -38 -9
-58 -23 -15 -27 -15 -47 0 -12 8 -37 25 -56 37 -36 23 -71 91 -71 138 0 71
-32 110 -92 110 l-43 1 30 14 30 14 -37 -5 c-22 -4 -38 -2 -38 4 0 19 28 32
61 27 19 -3 28 -3 21 1 -6 3 -9 10 -6 16 8 13 -16 59 -28 52 -5 -3 -8 2 -6 12
2 11 -2 18 -10 16 -6 -1 -11 3 -10 10 2 6 -5 14 -16 16 -11 2 -16 0 -12 -6 4
-7 -5 -10 -23 -10 -31 1 -61 -16 -61 -34 0 -6 7 -8 15 -4 22 8 18 0 -12 -29
-34 -31 -47 -32 -38 -4 6 19 4 21 -16 16 -13 -4 -30 -7 -36 -7 -7 0 -13 -6
-13 -14 0 -9 7 -12 20 -9 16 4 19 2 14 -11 -4 -11 -1 -16 10 -16 9 0 16 -4 16
-10 0 -5 -7 -10 -15 -10 -8 0 -15 -4 -15 -10 0 -13 -27 -13 -32 1 -2 5 -11 7
-22 3 -13 -5 -14 -9 -5 -14 8 -5 -4 -13 -32 -20 -24 -7 -56 -18 -71 -26 -35
-19 -41 -18 -28 5 5 11 7 27 4 35 -4 11 -1 16 10 16 9 0 16 6 16 14 0 7 10 17
23 21 12 4 25 8 30 10 4 1 12 3 17 4 6 0 10 9 10 18 0 15 -2 14 -15 -3 -8 -10
-15 -14 -15 -8 0 13 35 56 41 50 2 -2 15 11 29 29 15 21 33 33 45 33 11 -1 31
2 44 6 36 12 19 -7 -44 -49 -53 -35 -73 -54 -37 -36 9 5 30 15 46 22 17 8 41
24 54 37 14 12 33 22 43 22 26 0 24 17 -6 36 -14 9 -22 20 -19 25 5 9 -15 13
-46 10 -13 -2 -13 -1 0 8 8 5 18 7 22 5 4 -3 8 0 8 6 0 6 5 8 13 4 13 -8 -2
14 -38 54 -17 21 -84 62 -99 62 -3 0 -4 -27 -2 -60 2 -33 -1 -60 -5 -60 -5 0
-9 -12 -9 -26 0 -23 -3 -25 -30 -19 -25 5 -29 4 -24 -9 7 -17 -6 -20 -44 -10
-19 5 -20 9 -10 22 11 13 10 14 -9 3 -14 -7 -23 -21 -23 -36 0 -22 -3 -23 -25
-15 -19 7 -23 6 -18 -5 3 -8 0 -15 -6 -15 -10 0 -13 5 -15 32 -1 6 15 17 34
23 25 8 38 20 45 41 5 16 15 33 22 37 19 12 16 27 -4 20 -13 -5 -15 -2 -10 11
5 13 3 17 -7 13 -10 -4 -13 -1 -9 9 3 8 11 13 18 10 7 -2 18 1 25 7 10 10 12
7 7 -10 -6 -26 4 -29 33 -11 10 7 22 9 26 5 9 -8 -15 -37 -31 -37 -6 0 -16
-16 -22 -35 -12 -37 -4 -45 17 -20 7 8 16 13 20 10 12 -8 34 48 35 90 0 45 -9
52 -87 74 -52 15 -78 10 -78 -14 0 -8 -4 -15 -10 -15 -5 0 -10 7 -10 15 0 8
-4 15 -10 15 -5 0 -10 -9 -10 -19 0 -11 -4 -23 -10 -26 -6 -3 -10 5 -10 19 0
34 -26 46 -93 44 -31 -1 -59 1 -63 5 -13 12 -108 7 -127 -8 -23 -17 -37 -73
-26 -103 6 -15 5 -21 -1 -17 -6 3 -13 23 -16 44 -8 53 -36 67 -95 50 -24 -7
-51 -13 -59 -13 -40 -4 -90 -20 -101 -32 -6 -8 -17 -14 -23 -14 -7 0 -22 -12
-35 -26 -16 -19 -21 -33 -16 -53 l6 -28 -50 5 c-47 4 -53 2 -83 -30 -50 -53
-88 -98 -88 -104 0 -2 -9 -14 -20 -26 -27 -30 -47 -122 -30 -143 10 -12 10
-15 -2 -15 -40 0 -82 -102 -68 -164 4 -20 4 -39 -1 -42 -5 -3 -3 -17 5 -32 12
-23 12 -29 0 -40 -14 -13 -10 -29 22 -99 16 -32 46 -54 43 -30 -4 30 1 38 14
25 8 -6 11 -23 9 -37 -5 -25 2 -26 53 -5 13 5 9 -2 -13 -24 -17 -17 -32 -38
-32 -47 0 -29 28 -83 49 -95 12 -6 21 -16 21 -22 0 -38 118 -128 167 -128 15
0 15 2 4 9 -12 8 -12 12 -2 25 21 25 34 19 28 -13 -8 -40 21 -75 80 -95 26 -9
52 -16 58 -16 11 0 44 80 37 89 -2 2 3 8 12 13 9 5 16 14 16 21 0 7 7 24 14
39 9 18 13 41 9 64 l-6 36 -13 -32 c-8 -18 -14 -41 -14 -51 0 -10 -5 -21 -11
-25 -8 -5 -10 4 -7 30 6 53 -8 44 -27 -19 -17 -53 -35 -73 -35 -39 0 14 -3 14
-15 4 -23 -19 -29 -5 -9 25 12 19 19 23 25 14 5 -9 10 -4 14 14 4 15 11 27 16
27 5 0 9 11 9 24 0 14 5 28 10 31 6 3 10 12 10 18 0 7 -4 6 -10 -3 -5 -8 -10
-10 -10 -4 0 14 41 67 47 60 3 -2 0 -14 -7 -25 -15 -29 5 -28 33 3 40 44 48
56 42 66 -3 6 0 19 8 31 8 11 13 29 10 40 -3 10 0 19 6 19 5 0 8 -7 5 -15 -4
-8 -2 -15 4 -15 5 0 13 -7 16 -15 4 -11 -3 -19 -19 -25 -22 -8 -38 -24 -17
-18 11 4 12 -8 6 -42 -4 -16 -10 -30 -15 -30 -5 0 -4 -12 1 -26 12 -31 13 -57
2 -50 -18 11 -39 -60 -37 -126 2 -69 -11 -95 -17 -35 l-3 32 -18 -39 c-24 -55
-23 -70 6 -55 18 9 20 9 10 -2 -18 -18 -16 -29 5 -29 11 0 22 13 30 33 9 23
15 28 21 19 6 -10 14 -2 28 27 11 22 23 38 27 34 3 -3 6 -1 6 5 0 7 7 12 16
12 24 0 12 -34 -13 -38 -16 -2 -23 -11 -25 -35 -2 -23 -9 -33 -23 -35 -45 -8
-37 -22 13 -22 80 0 119 20 132 69 11 41 23 51 36 29 4 -7 3 -8 -4 -4 -8 5
-10 2 -6 -9 9 -23 29 -13 31 16 1 13 6 41 11 61 6 21 7 36 3 33 -4 -2 -13 12
-20 31 l-13 35 -24 -26 c-13 -14 -24 -30 -24 -36 0 -5 -4 -9 -10 -9 -5 0 -10
7 -10 15 0 8 5 15 11 15 7 0 8 11 4 31 -4 17 -3 29 2 26 4 -3 19 0 32 7 15 9
20 16 12 20 -6 4 -11 1 -12 -6 0 -7 -4 -4 -9 7 -12 28 -12 37 0 30 6 -3 10 -1
10 4 0 6 -4 11 -9 11 -5 0 -11 20 -12 44 -3 30 0 42 7 39 8 -3 15 14 19 46 4
28 11 51 15 51 4 0 13 14 19 30 8 23 7 30 -3 30 -7 0 -19 -19 -25 -42 -7 -24
-20 -54 -28 -68 l-14 -25 5 26 c5 23 3 26 -19 21 -15 -2 -25 0 -25 7 0 6 3 11
8 11 10 0 32 50 32 74 0 10 -3 16 -7 12 -5 -4 -8 -13 -8 -19 0 -7 -9 -12 -20
-12 -11 1 -24 -5 -28 -12 -12 -20 -29 -15 -22 6 3 11 1 22 -5 26 -5 3 -10 15
-10 26 0 11 -7 19 -16 19 -8 0 -13 -4 -10 -9 7 -10 -17 -21 -45 -21 -11 0 -17
5 -14 10 3 6 -4 10 -17 11 -20 1 -19 3 10 15 18 8 37 12 43 9 5 -4 5 5 -1 21
-8 21 -8 29 2 35 9 6 14 2 17 -9 6 -32 41 -59 41 -32 0 6 -7 10 -15 10 -18 0
-20 26 -2 34 9 3 7 9 -5 19 -10 8 -18 26 -18 40 0 14 -6 27 -12 30 -10 4 -10
7 -1 18 10 10 14 7 19 -19 4 -18 10 -32 14 -32 11 0 24 32 21 50 -2 12 2 11
18 -4 20 -18 20 -18 8 13 -9 24 -9 33 2 43 11 10 14 10 18 1 5 -15 43 -18 43
-4 0 5 -7 16 -15 25 -20 20 -19 36 3 36 13 0 18 -9 20 -31 3 -44 14 -57 24
-29 5 15 4 28 -4 38 -11 13 -11 14 1 7 11 -6 13 -4 8 8 -4 12 -1 17 11 18 9 0
3 5 -13 10 -21 6 -31 15 -31 29 0 12 4 16 9 11 5 -5 16 -7 23 -4 18 7 -1 33
-24 33 -13 0 -12 3 2 19 18 20 13 47 -6 35 -7 -4 -8 -2 -4 4 4 7 3 19 -2 29
-7 12 -4 24 11 45 11 15 18 30 15 34 -4 3 -14 -6 -23 -20 -10 -14 -24 -26 -33
-26 -12 0 -13 3 -4 12 7 7 12 26 12 43 0 18 8 37 20 48 25 21 28 21 32 0 3
-13 6 -10 10 9 3 15 1 25 -3 22 -18 -10 -8 6 17 32 27 26 27 26 20 2 -22 -71
-24 -86 -10 -81 8 3 14 11 14 19 0 8 3 14 8 14 12 0 42 -60 41 -83 0 -21 -1
-21 -8 -2 -7 18 -8 17 -13 -7 -4 -24 -3 -26 13 -17 11 5 19 16 19 24 0 8 5 15
10 15 7 0 7 -6 0 -19 -5 -11 -10 -30 -10 -43 0 -19 2 -20 11 -8 8 12 9 9 3
-10 -4 -14 -7 -41 -8 -60 -1 -46 -12 -63 -34 -51 -14 7 -18 5 -18 -10 0 -12 5
-18 13 -15 23 9 14 -9 -9 -19 -13 -6 -24 -18 -26 -29 -3 -11 0 -16 7 -12 20
12 12 -5 -11 -25 l-23 -20 23 11 c20 10 22 8 22 -15 0 -17 5 -25 13 -22 6 2
11 10 9 17 -1 7 2 18 8 25 6 8 10 21 8 31 -2 9 3 19 10 21 6 3 12 -3 12 -14 1
-17 1 -17 11 0 6 9 14 15 20 12 5 -4 9 -2 9 3 0 5 10 12 23 15 18 5 15 -1 -15
-27 -23 -20 -38 -42 -38 -55 0 -12 -4 -20 -9 -17 -5 3 -14 -1 -21 -9 -15 -18
-7 -19 21 -5 10 6 19 17 19 25 0 8 6 15 14 15 8 0 18 5 22 12 4 7 3 8 -4 4 -7
-4 -12 -2 -12 5 0 6 8 9 20 6 11 -3 23 -1 26 4 3 5 2 9 -3 8 -23 -4 -23 3 1
22 14 11 23 25 20 31 -4 6 4 8 18 7 27 -4 74 33 63 50 -4 7 5 11 22 11 28 0
53 15 53 33 0 4 -9 5 -20 2 -12 -4 -20 -2 -20 6 0 8 11 10 35 6 21 -3 33 -2
30 4 -4 5 3 9 14 9 12 0 21 4 21 9 0 16 28 20 34 5 4 -9 1 -14 -5 -12 -6 2
-30 -13 -53 -34 -22 -21 -47 -38 -53 -38 -7 0 -13 -7 -13 -15 0 -9 -11 -20
-24 -25 -26 -10 -64 -39 -102 -80 -28 -29 -31 -42 -7 -33 11 4 14 3 9 -5 -5
-8 1 -12 16 -12 l23 -1 -25 -14 c-23 -13 -27 -12 -41 5 -15 17 -18 18 -29 5
-10 -11 -10 -15 -1 -15 17 0 37 -22 35 -37 -1 -7 -2 -17 -3 -23 -2 -17 -31 2
-31 20 0 11 -5 22 -10 25 -7 4 -9 -3 -6 -21 3 -15 10 -30 15 -33 13 -8 1 -25
-24 -35 -19 -8 -19 -9 -2 -15 10 -4 18 -10 18 -14 -2 -20 0 -27 10 -27 6 0 8
8 4 19 -3 11 -1 22 5 26 5 3 10 -1 10 -10 0 -8 7 -18 15 -21 28 -11 15 -23
-27 -26 -31 -2 -44 -8 -46 -20 -2 -13 5 -17 35 -20 28 -2 39 -8 41 -22 3 -12
-1 -17 -10 -13 -7 2 -12 10 -11 16 5 20 -19 11 -24 -10 -5 -16 -11 -19 -34
-14 -25 6 -29 3 -29 -14 0 -14 -5 -19 -15 -15 -10 4 -15 0 -15 -12 0 -38 12
-63 26 -57 8 3 14 0 14 -6 0 -6 -3 -11 -7 -11 -5 0 -9 -41 -11 -91 -2 -67 0
-89 9 -84 13 9 5 -62 -13 -108 -6 -15 -8 -30 -6 -33 3 -2 10 8 16 23 26 72 25
70 30 39 2 -16 -1 -39 -6 -50 -6 -12 -13 -29 -16 -39 -3 -9 -11 -16 -17 -15
-6 2 -13 -7 -14 -20 -4 -45 63 -53 85 -11 6 10 17 19 25 19 17 0 20 -17 4 -22
-6 -2 -7 -11 -3 -22 6 -17 8 -16 20 5 13 23 19 15 15 -18 -1 -9 13 -13 46 -12
38 0 44 2 28 10 -16 7 -14 9 12 6 17 -2 31 -1 30 2 -4 18 18 78 33 88 12 9 16
25 16 61 -1 32 3 49 11 49 7 0 10 -4 8 -8 -3 -4 1 -9 9 -12 20 -8 9 -52 -27
-110 -24 -40 -27 -51 -16 -58 10 -6 16 -2 21 11 8 23 9 23 42 10 24 -9 25 -8
20 20 -7 32 10 36 41 10 14 -11 18 -11 25 0 5 8 3 19 -6 27 -21 22 -17 40 11
45 21 5 23 3 14 -15 -8 -14 -8 -22 1 -31 9 -8 21 0 51 33 49 54 58 85 33 112
-17 19 -17 20 5 26 14 3 20 11 17 20 -3 8 -2 12 3 9 18 -11 92 36 118 75 14
22 29 35 33 29 8 -13 3 -219 -6 -245 -6 -18 -4 -17 19 4 15 14 27 32 27 40 1
13 3 12 12 -3 8 -14 9 -92 4 -270 -6 -217 -9 -251 -24 -262 -40 -29 48 -108
158 -142 38 -12 90 -17 170 -17 126 1 186 18 242 72 35 33 36 46 44 378 11
453 11 446 -45 513 -46 55 -62 113 -38 141 36 43 45 132 25 269 l-11 83 -30
-7 c-25 -5 -29 -4 -24 11 4 9 0 26 -8 38 -12 17 -15 54 -15 170 0 136 -2 151
-21 179 -18 24 -77 62 -91 57 -2 0 -17 -5 -35 -10z m87 -74 c0 -19 -20 -29
-32 -17 -8 8 -7 16 2 26 14 17 30 12 30 -9z m-1420 -79 c0 -3 -4 -8 -10 -11
-5 -3 -10 -1 -10 4 0 6 5 11 10 11 6 0 10 -2 10 -4z m97 -2 c-3 -3 -12 -4 -19
-1 -8 3 -5 6 6 6 11 1 17 -2 13 -5z m-182 -24 c3 -5 1 -10 -4 -10 -6 0 -11 5
-11 10 0 6 2 10 4 10 3 0 8 -4 11 -10z m195 -23 c0 -5 -4 -5 -10 -2 -5 3 -10
14 -10 23 0 15 2 15 10 2 5 -8 10 -19 10 -23z m230 18 c0 -8 -4 -15 -10 -15
-5 0 -10 7 -10 15 0 8 5 15 10 15 6 0 10 -7 10 -15z m-330 -9 c0 -3 -4 -8 -10
-11 -5 -3 -10 -1 -10 4 0 6 5 11 10 11 6 0 10 -2 10 -4z m542 -38 c-7 -7 -12
-8 -12 -2 0 6 3 14 7 17 3 4 9 5 12 2 2 -3 -1 -11 -7 -17z m-212 0 c0 -7 -4
-19 -9 -27 -7 -10 -9 -7 -8 12 2 26 17 39 17 15z m80 2 c0 -5 -5 -10 -11 -10
-5 0 -7 5 -4 10 3 6 8 10 11 10 2 0 4 -4 4 -10z m-677 -45 c-3 -9 -8 -14 -10
-11 -3 3 -2 9 2 15 9 16 15 13 8 -4z m194 -27 c-3 -7 -5 -2 -5 12 0 14 2 19 5
13 2 -7 2 -19 0 -25z m723 17 c7 -9 8 -15 2 -15 -5 0 -12 7 -16 15 -3 8 -4 15
-2 15 2 0 9 -7 16 -15z m-690 -7 c0 -7 9 -31 19 -53 l19 -40 -5 40 c-4 31 -3
37 6 29 7 -6 15 -30 18 -52 5 -36 7 -39 20 -26 8 7 20 14 26 13 9 0 8 -2 0 -6
-7 -2 -13 -9 -13 -14 0 -6 8 -6 19 1 26 14 31 13 31 -6 0 -10 -6 -14 -15 -11
-8 4 -17 2 -21 -4 -3 -6 -12 -8 -20 -5 -7 3 -16 1 -20 -5 -18 -30 46 -31 69
-2 19 23 37 30 37 15 0 -5 -9 -19 -20 -32 -11 -13 -20 -29 -20 -37 0 -7 -5
-13 -11 -13 -5 0 -7 6 -4 13 4 6 -2 1 -13 -13 -14 -17 -17 -27 -9 -32 8 -5 7
-14 -2 -32 -14 -26 -35 -27 -25 -1 3 7 -4 18 -15 25 -12 6 -21 17 -21 24 0 8
-7 16 -15 20 -14 5 -14 10 0 43 16 37 15 39 -7 58 -18 16 -23 31 -24 68 0 26
3 47 8 47 4 0 8 -6 8 -12z m131 -81 c-8 -8 -11 -7 -11 5 0 8 -6 21 -14 27 -11
9 -14 8 -12 -5 0 -9 -5 -19 -12 -21 -9 -4 -12 3 -8 24 2 15 5 29 6 31 3 2 6
16 9 30 1 4 13 -13 27 -36 19 -32 23 -47 15 -55z m-492 74 c8 -5 9 -11 3 -15
-5 -3 -15 1 -22 9 -14 16 -3 20 19 6z m278 -33 c2 -41 1 -42 -12 -18 -9 17
-10 30 -4 42 13 25 15 23 16 -24z m820 36 c-3 -3 -12 -4 -19 -1 -8 3 -5 6 6 6
11 1 17 -2 13 -5z m-357 -19 c0 -8 -4 -15 -10 -15 -5 0 -7 7 -4 15 4 8 8 15
10 15 2 0 4 -7 4 -15z m-492 -34 c3 -8 -1 -12 -9 -9 -7 2 -15 10 -17 17 -3 8
1 12 9 9 7 -2 15 -10 17 -17z m79 -56 c-8 -36 -13 -42 -24 -34 -10 9 -10 15
-2 25 6 8 9 21 5 29 -9 24 4 48 19 35 9 -8 10 -21 2 -55z m553 45 c0 -5 -4
-10 -9 -10 -5 0 -18 -3 -28 -7 -16 -6 -16 -5 -4 10 15 19 41 23 41 7z m-684
-12 c4 -6 2 -14 -4 -16 -7 -2 -12 -12 -12 -23 0 -10 -4 -19 -9 -19 -5 0 -7 -9
-4 -19 3 -13 -2 -23 -16 -30 -12 -7 -21 -18 -21 -26 0 -22 38 -18 45 5 3 11
11 20 16 20 6 0 6 -7 0 -18 -7 -13 -7 -22 1 -30 8 -8 8 -15 -2 -27 -9 -11 -9
-15 -1 -15 7 0 9 -4 6 -10 -3 -5 0 -7 9 -4 19 7 28 32 21 58 -5 17 -4 18 4 6
7 -10 11 -11 11 -2 0 25 21 11 27 -18 3 -16 11 -30 19 -30 7 0 16 -9 19 -20 8
-24 25 -27 25 -4 0 8 5 12 11 8 6 -3 9 -15 6 -25 -3 -11 -1 -16 4 -13 15 9 22
-25 9 -41 -9 -11 -16 -12 -31 -2 -10 6 -19 15 -19 20 0 4 5 5 10 2 6 -3 10 1
10 9 0 9 -3 15 -7 15 -21 -3 -33 2 -33 16 0 17 -9 19 -29 6 -11 -7 -10 -11 5
-20 16 -9 14 -10 -13 -5 -17 3 -39 1 -50 -4 -13 -8 -22 -7 -35 5 -11 10 -18
12 -18 5 0 -7 -4 -12 -10 -12 -16 0 -12 37 6 55 9 8 13 22 10 30 -6 17 -22 20
-30 6 -3 -5 -15 -7 -26 -4 -13 4 -27 -3 -40 -18 -10 -13 -19 -19 -19 -14 0 18
24 42 54 53 17 6 24 11 16 11 -9 1 -4 10 13 26 17 16 26 34 26 55 0 18 4 29
10 25 10 -6 14 7 11 33 -2 15 15 16 25 0z m517 -13 c-3 -8 -9 -15 -14 -15 -10
0 -12 24 -3 33 11 11 24 -3 17 -18z m-641 -28 c-21 -22 -21 -24 -5 -47 15 -24
14 -23 -13 3 -17 15 -35 27 -42 27 -7 0 -12 2 -12 4 0 2 -3 11 -6 20 -4 11 -1
16 10 16 9 0 19 -7 23 -16 3 -9 9 -12 12 -7 9 12 45 31 50 27 3 -2 -5 -14 -17
-27z m698 8 c0 -8 -4 -15 -10 -15 -5 0 -10 7 -10 15 0 8 5 15 10 15 6 0 10 -7
10 -15z m72 -17 c-9 -9 -12 -7 -12 12 0 19 3 21 12 12 9 -9 9 -15 0 -24z m368
13 c0 -8 -6 -11 -16 -7 -9 3 -22 6 -30 6 -9 0 -13 4 -10 9 9 14 56 8 56 -8z
m594 3 c10 -25 7 -34 -9 -34 -9 0 -15 9 -15 25 0 28 15 34 24 9z m-1066 -1
c-3 -5 -11 -23 -18 -40 -8 -18 -18 -33 -23 -33 -4 0 -5 5 -1 12 4 6 8 23 10
37 3 33 1 31 20 31 9 0 14 -3 12 -7z m-383 -34 c11 -17 -1 -21 -15 -4 -8 9 -8
15 -2 15 6 0 14 -5 17 -11z m440 1 c3 -5 0 -10 -7 -10 -7 0 -24 -3 -38 -6 -24
-5 -24 -5 -6 10 23 18 42 20 51 6z m380 -2 c-11 -6 -28 -19 -38 -29 -10 -11
-24 -19 -33 -19 -9 0 -2 12 18 30 18 16 42 29 53 29 l20 0 -20 -11z m-955 -18
c0 -13 -11 -13 -30 0 -12 8 -11 10 8 10 12 0 22 -4 22 -10z m45 0 c3 -5 1 -10
-4 -10 -6 0 -11 5 -11 10 0 6 2 10 4 10 3 0 8 -4 11 -10z m1005 0 c0 -5 -7
-10 -15 -10 -8 0 -15 5 -15 10 0 6 7 10 15 10 8 0 15 -4 15 -10z m-1270 -30
c0 -5 -4 -10 -9 -10 -6 0 -13 5 -16 10 -3 6 1 10 9 10 9 0 16 -4 16 -10z
m1176 -21 c4 -8 -4 -9 -27 -5 -29 5 -31 5 -10 -4 18 -8 21 -13 12 -24 -6 -7
-8 -16 -4 -19 3 -4 1 -7 -5 -7 -18 0 -26 22 -11 32 10 7 6 8 -13 5 -30 -5 -35
2 -16 21 15 15 65 16 74 1z m-863 -14 c-3 -9 -8 -14 -10 -11 -3 3 -2 9 2 15 9
16 15 13 8 -4z m180 -10 c-8 -22 -22 -18 -16 5 3 11 9 17 14 15 4 -3 6 -12 2
-20z m-133 -15 c0 -5 -2 -10 -4 -10 -3 0 -8 5 -11 10 -3 6 -1 10 4 10 6 0 11
-4 11 -10z m480 -5 c-7 -8 -16 -15 -20 -15 -3 0 -7 7 -7 15 0 8 9 15 20 15 16
0 17 -3 7 -15z m370 11 c0 -3 -4 -8 -10 -11 -5 -3 -10 -1 -10 4 0 6 5 11 10
11 6 0 10 -2 10 -4z m-141 -30 c10 -12 8 -13 -8 -9 -12 3 -18 9 -15 14 7 12
10 11 23 -5z m-49 -4 c0 -4 -6 -14 -12 -21 -11 -11 -10 -12 1 -6 9 5 12 4 7
-3 -13 -21 -33 -13 -33 13 0 18 5 25 18 25 11 0 19 -4 19 -8z m295 -2 c-3 -5
-12 -10 -18 -10 -7 0 -6 4 3 10 19 12 23 12 15 0z m-1311 -25 c-4 -8 -8 -15
-10 -15 -2 0 -4 7 -4 15 0 8 4 15 10 15 5 0 7 -7 4 -15z m934 3 c-3 -7 -12
-14 -21 -16 -12 -2 -15 1 -11 12 7 19 38 22 32 4z m201 3 c9 -6 10 -11 2 -15
-6 -4 -18 0 -27 8 -12 12 -12 16 -2 16 7 0 19 -4 27 -9z m-259 -16 c0 -17 -36
-39 -50 -30 -13 8 -1 33 18 38 29 8 32 7 32 -8z m-760 -5 c0 -5 -5 -10 -11
-10 -5 0 -7 5 -4 10 3 6 8 10 11 10 2 0 4 -4 4 -10z m1090 0 c-20 -13 -43 -13
-35 0 3 6 16 10 28 10 18 0 19 -2 7 -10z m104 1 c4 -5 -3 -7 -14 -4 -23 6 -26
13 -6 13 8 0 17 -4 20 -9z m-1484 -11 c0 -5 -8 -10 -17 -10 -15 0 -16 2 -3 10
19 12 20 12 20 0z m1216 -2 c-22 -6 -48 -19 -59 -28 -17 -16 -17 -19 -2 -33
14 -15 14 -17 -7 -22 -13 -2 -39 -6 -58 -7 -30 -3 -35 -6 -32 -27 3 -16 -1
-22 -9 -19 -8 3 -14 19 -15 36 -1 29 6 37 28 33 4 0 4 7 1 16 -5 13 -1 15 22
11 22 -5 33 -1 47 17 19 24 41 32 93 33 27 0 26 -1 -9 -10z m104 -8 c0 -5 -2
-10 -4 -10 -3 0 -8 5 -11 10 -3 6 -1 10 4 10 6 0 11 -4 11 -10z m-250 -10 c0
-5 -7 -10 -15 -10 -8 0 -15 -4 -15 -10 0 -5 -5 -10 -12 -10 -6 0 -3 9 7 20 20
22 35 26 35 10z m200 -6 c0 -2 -9 -4 -21 -4 -11 0 -18 4 -14 10 5 8 35 3 35
-6z m-1007 -14 c3 -11 1 -18 -4 -14 -5 3 -9 12 -9 20 0 20 7 17 13 -6z m1137
10 c-8 -5 -22 -10 -30 -10 -13 0 -13 1 0 10 8 5 22 10 30 10 13 0 13 -1 0 -10z
m-1010 -16 c0 -8 -5 -12 -10 -9 -6 4 -8 11 -5 16 9 14 15 11 15 -7z m785 -4
c3 -6 -1 -7 -9 -4 -18 7 -21 14 -7 14 6 0 13 -4 16 -10z m123 -14 c-10 -7 -15
-16 -11 -19 3 -4 -3 -7 -15 -7 -21 0 -21 1 -5 20 10 11 24 20 33 20 12 -1 12
-3 -2 -14z m62 -1 c-7 -8 -17 -12 -23 -8 -6 4 -3 9 9 14 27 11 28 11 14 -6z
m77 9 c-3 -3 -12 -4 -19 -1 -8 3 -5 6 6 6 11 1 17 -2 13 -5z m-907 -16 c0 -5
-12 -9 -27 -9 l-28 -2 28 -4 c19 -3 27 -9 23 -18 -3 -8 0 -16 7 -18 7 -3 -5
-12 -27 -21 -42 -19 -60 -14 -30 9 12 9 14 14 6 15 -23 0 -53 -21 -46 -32 4
-6 -4 -19 -16 -28 l-24 -18 27 5 c20 4 26 2 22 -8 -8 -20 -60 -57 -53 -38 5
13 -13 39 -28 40 -8 1 -24 -22 -24 -33 0 -5 8 -8 18 -8 16 -1 16 -1 -1 -11 -9
-5 -21 -8 -25 -5 -5 3 -15 -4 -22 -15 -28 -38 -47 -24 -54 42 -7 74 -14 86
-32 62 -13 -17 -13 -17 -14 5 0 12 -5 22 -12 22 -6 0 -9 -3 -5 -6 6 -7 -4 -21
-45 -63 -15 -15 -32 -38 -37 -52 -9 -22 -10 -20 -11 16 0 28 -3 36 -9 25 -6
-8 -8 -17 -6 -21 3 -3 -5 -6 -17 -5 -28 1 -37 26 -9 26 11 0 23 5 26 10 5 8
11 8 20 0 19 -16 46 27 49 80 4 45 29 75 34 40 4 -24 21 -37 52 -42 22 -3 25
-8 28 -52 3 -52 24 -87 38 -64 5 7 7 26 6 43 -1 22 0 25 6 12 7 -17 9 -17 26
2 11 12 27 21 37 21 10 0 20 4 24 9 3 6 -6 7 -22 2 -16 -4 -38 -6 -49 -5 -30
2 -73 36 -74 57 0 17 2 17 26 -2 15 -12 34 -21 43 -21 13 0 13 -2 3 -9 -11 -6
-9 -9 7 -14 11 -2 28 1 37 8 16 11 15 14 -12 28 -34 17 -63 47 -46 47 6 0 23
-5 39 -12 15 -6 32 -10 36 -9 5 1 6 -2 3 -7 -2 -4 12 -8 33 -7 37 0 43 7 29
30 -4 6 9 10 33 10 21 0 39 -3 39 -7z m460 -3 c0 -8 -7 -15 -15 -15 -16 0 -20
12 -8 23 11 12 23 8 23 -8z m350 -32 c0 -7 -9 -13 -20 -13 -19 0 -26 11 -15
22 10 10 35 4 35 -9z m-1236 -8 c-4 -8 -13 -15 -20 -15 -12 0 -12 3 -2 15 17
19 29 19 22 0z m1320 -9 c-6 -15 -34 -31 -34 -19 0 5 30 32 37 33 1 0 0 -6 -3
-14z m-317 -12 c0 -7 -6 -10 -14 -7 -7 3 -13 8 -13 12 0 4 6 8 13 8 8 0 14 -6
14 -13z m88 -14 c3 -5 -1 -10 -9 -10 -9 0 -16 5 -16 10 0 6 4 10 9 10 6 0 13
-4 16 -10z m65 -5 c0 -8 -7 -15 -15 -15 -26 0 -18 20 13 29 1 1 2 -6 2 -14z
m45 6 c3 -5 1 -12 -5 -16 -5 -3 -10 1 -10 9 0 18 6 21 15 7z m-405 -11 c0 -5
-4 -10 -10 -10 -5 0 -10 5 -10 10 0 6 5 10 10 10 6 0 10 -4 10 -10z m474 -11
c-3 -5 -10 -7 -15 -3 -5 3 -7 10 -3 15 3 5 10 7 15 3 5 -3 7 -10 3 -15z m-900
-14 c-4 -8 -8 -15 -10 -15 -2 0 -4 7 -4 15 0 8 4 15 10 15 5 0 7 -7 4 -15z
m511 5 c-3 -5 -10 -10 -16 -10 -5 0 -9 5 -9 10 0 6 7 10 16 10 8 0 12 -4 9
-10z m165 0 c0 -5 -4 -10 -10 -10 -5 0 -10 5 -10 10 0 6 5 10 10 10 6 0 10 -4
10 -10z m-73 -6 c-3 -3 -12 -4 -19 -1 -8 3 -5 6 6 6 11 1 17 -2 13 -5z m61
-21 c-23 -49 -34 -63 -46 -63 -9 0 -12 -6 -8 -16 8 -21 -1 -34 -19 -27 -9 3
-15 18 -15 39 0 32 7 39 38 35 7 -1 12 2 11 6 -4 23 3 33 22 33 11 0 19 -3 17
-7z m-548 -13 c14 -8 18 -19 16 -45 -2 -37 -12 -53 -23 -41 -4 3 -1 12 5 18
15 15 16 32 2 23 -5 -3 -21 -30 -34 -58 -21 -47 -85 -117 -106 -117 -4 0 -3
11 3 24 7 13 15 22 18 20 7 -4 69 68 69 79 0 3 -8 4 -17 2 -10 -1 -17 -9 -15
-17 3 -19 -45 -42 -51 -25 -3 8 -13 3 -27 -13 l-22 -25 4 25 c2 18 16 32 51
50 27 15 45 30 42 38 -2 6 2 12 10 12 8 0 19 9 25 20 9 18 8 20 -17 21 l-28 1
25 8 c36 11 49 11 70 0z m445 -9 c3 -5 1 -12 -4 -15 -5 -3 -11 1 -15 9 -6 16
9 21 19 6z m262 -13 c-3 -8 -6 -5 -6 6 -1 11 2 17 5 13 3 -3 4 -12 1 -19z
m-31 -4 c-22 -22 -20 -25 12 -19 l27 5 -30 -14 c-35 -18 -65 -20 -65 -6 0 6 7
10 15 10 8 0 19 9 25 20 6 11 15 20 21 20 6 0 3 -7 -5 -16z m-816 -4 c0 -5 -5
-10 -11 -10 -5 0 -7 5 -4 10 3 6 8 10 11 10 2 0 4 -4 4 -10z m-490 -10 c0 -5
-8 -10 -17 -10 -15 0 -16 2 -3 10 19 12 20 12 20 0z m190 6 c0 -2 -7 -9 -15
-16 -13 -11 -14 -10 -9 4 5 14 24 23 24 12z m1870 -5 c0 -5 -10 -11 -22 -13
-33 -5 -69 3 -62 13 7 12 84 12 84 0z m-1795 -21 c-3 -5 0 -10 7 -11 10 0 10
-2 0 -6 -6 -2 -9 -10 -5 -16 3 -7 3 -9 -1 -5 -4 3 -21 2 -37 -2 -35 -10 -39
-3 -4 10 14 5 25 16 25 25 0 8 5 15 11 15 5 0 7 -4 4 -10z m247 -7 c-6 -2 -10
-8 -7 -12 2 -5 -7 -13 -20 -19 -16 -8 -25 -8 -25 -1 0 5 7 12 15 15 8 4 12 10
9 15 -3 5 5 9 18 8 13 0 17 -3 10 -6z m491 -3 c8 0 8 -3 0 -11 -9 -9 -16 -7
-30 7 -17 17 -17 18 0 11 10 -4 24 -7 30 -7z m179 -22 c-9 -9 -12 -7 -12 12 0
19 3 21 12 12 9 -9 9 -15 0 -24z m-852 2 c0 -5 -5 -10 -11 -10 -5 0 -7 5 -4
10 3 6 8 10 11 10 2 0 4 -4 4 -10z m610 0 c0 -5 -4 -10 -10 -10 -5 0 -10 5
-10 10 0 6 5 10 10 10 6 0 10 -4 10 -10z m315 -17 c-5 -10 -7 -21 -7 -25 1 -5
-5 -8 -13 -8 -8 0 -15 7 -15 16 0 8 5 12 11 9 6 -4 13 3 16 14 3 12 8 20 11
17 2 -3 1 -13 -3 -23z m45 23 c0 -3 -4 -8 -10 -11 -5 -3 -10 -1 -10 4 0 6 5
11 10 11 6 0 10 -2 10 -4z m-1134 -32 c-4 -9 -9 -15 -11 -12 -3 3 -3 13 1 22
4 9 9 15 11 12 3 -3 3 -13 -1 -22z m1044 -4 c0 -5 -4 -10 -10 -10 -5 0 -10 5
-10 10 0 6 5 10 10 10 6 0 10 -4 10 -10z m882 -7 c30 -27 22 -42 -29 -49 -27
-3 -52 -7 -57 -7 -5 -1 -15 8 -23 20 -14 21 -13 23 19 37 44 19 68 19 90 -1z
m-1145 -23 c13 0 13 -3 3 -15 -11 -13 -15 -13 -21 -3 -5 7 -8 22 -8 33 1 17 2
17 6 3 2 -10 11 -18 20 -18z m128 20 c-3 -5 1 -10 9 -10 9 0 16 -4 16 -10 0
-11 -43 -14 -53 -4 -3 3 0 12 6 20 14 15 31 19 22 4z m81 -15 c-8 -8 -17 -15
-20 -15 -3 0 -3 7 0 15 4 8 13 15 21 15 12 0 12 -2 -1 -15z m-726 -15 c-6 -11
-20 -24 -31 -31 -11 -6 -18 -17 -15 -24 2 -7 -6 -20 -19 -29 -16 -10 -25 -12
-27 -4 -3 8 -10 8 -27 -1 -12 -7 -27 -11 -33 -9 -6 2 14 19 45 36 31 18 57 38
57 45 0 11 15 20 58 36 1 1 -2 -8 -8 -19z m920 10 c0 -5 -4 -10 -10 -10 -5 0
-10 5 -10 10 0 6 5 10 10 10 6 0 10 -4 10 -10z m-1110 -33 c-10 -9 -14 -9 -17
1 -3 6 -9 10 -14 6 -5 -3 -9 -3 -9 1 0 3 10 9 23 14 25 10 36 -4 17 -22z m765
24 c-3 -5 1 -11 9 -13 12 -2 12 -6 2 -21 -19 -24 -44 -12 -38 19 2 13 11 24
19 24 8 0 12 -4 8 -9z m195 -16 c0 -9 -6 -12 -17 -8 -11 4 -13 8 -5 11 7 2 9
9 6 14 -4 7 -2 8 4 4 7 -4 12 -14 12 -21z m330 3 c0 -13 -23 -5 -28 10 -2 7 2
10 12 6 9 -3 16 -11 16 -16z m-300 8 c0 -3 -4 -8 -10 -11 -5 -3 -10 -1 -10 4
0 6 5 11 10 11 6 0 10 -2 10 -4z m-485 -41 c-3 -43 -20 -51 -21 -10 -2 32 3
45 15 45 4 0 7 -16 6 -35z m325 25 c0 -5 -4 -10 -10 -10 -5 0 -10 5 -10 10 0
6 5 10 10 10 6 0 10 -4 10 -10z m86 -15 c-3 -9 -11 -13 -16 -10 -8 5 -7 11 1
21 14 18 24 11 15 -11z m-846 -16 c-14 -10 -38 -32 -55 -47 -16 -16 -37 -32
-45 -36 -13 -7 -13 -6 0 6 8 7 24 30 35 51 13 25 30 40 50 46 40 11 45 3 15
-20z m148 6 c-3 -13 -1 -26 5 -28 5 -1 2 -9 -7 -16 -14 -12 -16 -10 -16 21 0
32 6 48 18 48 2 0 2 -11 0 -25z m107 -24 c-3 -6 -11 -11 -17 -11 -6 0 -6 6 2
15 14 17 26 13 15 -4z m560 9 c3 -5 -3 -10 -15 -10 -12 0 -18 5 -15 10 3 6 10
10 15 10 5 0 12 -4 15 -10z m-933 -22 c-6 -6 -15 -8 -19 -4 -4 4 -1 11 7 16 8
5 17 7 19 4 3 -2 -1 -10 -7 -16z m508 13 c0 -5 -6 -14 -14 -20 -10 -9 -15 -8
-19 3 -3 8 -3 17 0 20 9 9 33 7 33 -3z m283 -10 c-3 -11 -11 -22 -19 -25 -17
-7 -18 -1 -2 24 16 25 28 26 21 1z m247 9 c0 -5 -2 -10 -4 -10 -3 0 -8 5 -11
10 -3 6 -1 10 4 10 6 0 11 -4 11 -10z m-810 -40 c0 -5 -8 -10 -17 -10 -15 0
-16 2 -3 10 19 12 20 12 20 0z m960 -6 c0 -8 -4 -12 -10 -9 -5 3 -10 10 -10
16 0 5 5 9 10 9 6 0 10 -7 10 -16z m-930 -4 c0 -5 -5 -10 -11 -10 -5 0 -7 5
-4 10 3 6 8 10 11 10 2 0 4 -4 4 -10z m175 0 c3 -5 1 -10 -4 -10 -6 0 -11 5
-11 10 0 6 2 10 4 10 3 0 8 -4 11 -10z m338 -3 c3 3 3 -6 -1 -19 -5 -18 -7
-19 -10 -5 -4 18 -22 24 -22 7 0 -5 -7 -10 -15 -10 -15 0 -21 21 -9 33 3 3 16
2 29 -3 13 -5 25 -6 28 -3z m67 9 c0 -3 -4 -8 -10 -11 -5 -3 -10 -1 -10 4 0 6
5 11 10 11 6 0 10 -2 10 -4z m33 -12 c-4 -10 0 -20 10 -26 22 -12 21 -24 -3
-48 -28 -28 -37 -25 -34 13 3 42 14 77 25 77 5 0 6 -7 2 -16z m-353 -4 c0 -5
-4 -10 -10 -10 -5 0 -10 5 -10 10 0 6 5 10 10 10 6 0 10 -4 10 -10z m390 1 c0
-6 -4 -13 -10 -16 -5 -3 -10 1 -10 9 0 9 5 16 10 16 6 0 10 -4 10 -9z m110 -1
c0 -5 -7 -7 -15 -4 -8 4 -15 8 -15 10 0 2 7 4 15 4 8 0 15 -4 15 -10z m70 0
c0 -5 -7 -7 -15 -4 -8 4 -15 8 -15 10 0 2 7 4 15 4 8 0 15 -4 15 -10z m-940
-20 c8 -5 12 -12 8 -15 -9 -9 -48 4 -48 16 0 12 21 11 40 -1z m80 -9 c0 -10
-8 -25 -17 -32 -11 -10 -14 -10 -9 -1 12 21 -1 13 -32 -18 -31 -31 -55 -40
-46 -17 2 6 22 25 44 41 22 16 37 33 34 38 -3 4 2 8 10 8 9 0 16 -8 16 -19z
m720 -61 c0 -10 -7 -20 -15 -24 -8 -3 -27 -30 -42 -61 -15 -30 -30 -55 -34
-55 -16 0 -18 18 -4 30 8 7 15 23 15 36 0 13 3 24 8 24 10 0 44 61 37 68 -3 3
-5 0 -5 -6 0 -7 -5 -12 -12 -12 -6 0 -22 -10 -35 -22 -13 -12 -26 -18 -30 -14
-5 5 1 13 11 20 37 22 76 63 76 82 1 24 30 -41 30 -66z m-960 60 c0 -5 -5 -10
-11 -10 -5 0 -7 5 -4 10 3 6 8 10 11 10 2 0 4 -4 4 -10z m494 4 c9 -3 16 -11
16 -16 0 -6 -7 -7 -16 -4 -19 7 -53 -30 -54 -58 0 -11 -3 -16 -7 -13 -3 4 -12
2 -20 -4 -31 -27 3 49 37 78 14 13 26 23 27 23 1 0 8 -3 17 -6z m37 -27 c-8
-8 -11 -7 -11 4 0 9 3 19 7 23 4 4 9 2 11 -4 3 -7 -1 -17 -7 -23z m579 13 c-9
-17 -40 -29 -40 -16 0 18 15 36 31 36 17 0 18 -3 9 -20z m90 5 c0 -12 -57 -55
-72 -55 -31 0 -19 19 25 39 47 23 47 23 47 16z m-413 -27 c-3 -8 -6 -5 -6 6
-1 11 2 17 5 13 3 -3 4 -12 1 -19z m-732 2 c3 -5 -1 -10 -10 -10 -9 0 -13 5
-10 10 3 6 8 10 10 10 2 0 7 -4 10 -10z m69 -20 c-13 -25 -34 -41 -34 -26 0
19 22 56 34 56 13 0 12 -4 0 -30z m716 14 c0 -3 -5 -14 -10 -25 -16 -28 -32
-23 -18 6 10 22 28 35 28 19z m-300 -24 c0 -5 -2 -10 -4 -10 -3 0 -8 5 -11 10
-3 6 -1 10 4 10 6 0 11 -4 11 -10z m660 -11 c-7 -11 -14 -18 -17 -15 -3 3 0
12 7 21 18 21 23 19 10 -6z m-148 -27 c-13 -21 -18 -23 -20 -9 -4 18 19 48 30
40 4 -2 0 -16 -10 -31z m-440 1 c-5 -25 -6 -25 -13 -8 -11 29 -10 35 5 35 9 0
12 -8 8 -27z m-432 -3 c-6 -11 -13 -20 -15 -20 -3 0 -5 9 -5 20 0 11 7 20 15
20 13 0 14 -4 5 -20z m387 -22 c-3 -7 -5 -2 -5 12 0 14 2 19 5 13 2 -7 2 -19
0 -25z m188 6 c-9 -14 -14 -32 -11 -40 3 -7 -5 -20 -16 -28 -28 -20 -36 -12
-15 12 10 10 17 27 17 38 0 21 18 44 33 44 5 0 2 -12 -8 -26z m-661 1 c-6 -16
-24 -21 -24 -7 0 11 11 22 21 22 5 0 6 -7 3 -15z m849 -19 c-3 -14 -11 -27
-18 -30 -10 -3 -10 3 -2 29 11 38 27 39 20 1z m-323 -6 c0 -5 -4 -10 -10 -10
-5 0 -10 5 -10 10 0 6 5 10 10 10 6 0 10 -4 10 -10z m-413 -31 c-11 -18 -13
-18 -24 -3 -16 22 -8 34 16 27 17 -4 18 -8 8 -24z m343 17 c0 -2 -7 -7 -16
-10 -8 -3 -12 -2 -9 4 6 10 25 14 25 6z m30 -15 c0 -12 -20 -25 -27 -18 -7 7
6 27 18 27 5 0 9 -4 9 -9z m-310 -37 c0 -8 -4 -12 -10 -9 -5 3 -10 13 -10 21
0 8 5 12 10 9 6 -3 10 -13 10 -21z"/>
<path d="M1570 2080 c0 -5 5 -10 11 -10 5 0 7 5 4 10 -3 6 -8 10 -11 10 -2 0
-4 -4 -4 -10z"/>
<path d="M1397 1973 c-10 -9 -9 -23 2 -23 5 0 11 7 15 15 5 15 -5 20 -17 8z"/>
<path d="M2117 1859 c7 -7 15 -10 18 -7 3 3 -2 9 -12 12 -14 6 -15 5 -6 -5z"/>
<path d="M1755 2300 c-3 -5 -1 -18 4 -27 6 -10 11 -16 11 -13 8 38 8 50 1 50
-6 0 -13 -4 -16 -10z"/>
<path d="M1821 2241 c-7 -5 -10 -14 -6 -21 4 -6 -1 -20 -11 -31 -9 -10 -14
-19 -9 -19 15 0 58 54 46 58 -6 2 -9 8 -5 13 7 11 3 11 -15 0z"/>
<path d="M2050 2020 c-9 -6 -10 -10 -3 -10 6 0 15 5 18 10 8 12 4 12 -15 0z"/>
<path d="M1761 1964 c0 -11 3 -14 6 -6 3 7 2 16 -1 19 -3 4 -6 -2 -5 -13z"/>
<path d="M1671 1933 c0 -16 3 -22 6 -13 3 8 10 21 16 28 7 8 5 12 -7 12 -11 0
-16 -8 -15 -27z"/>
<path d="M1620 1900 c0 -5 5 -10 10 -10 6 0 10 5 10 10 0 6 -4 10 -10 10 -5 0
-10 -4 -10 -10z"/>
<path d="M1721 1674 c-6 -15 -9 -29 -7 -32 3 -2 10 8 16 23 14 36 7 43 -9 9z"/>
<path d="M1791 1584 c0 -11 3 -14 6 -6 3 7 2 16 -1 19 -3 4 -6 -2 -5 -13z"/>
<path d="M1745 1500 c-3 -5 -1 -10 4 -10 6 0 11 5 11 10 0 6 -2 10 -4 10 -3 0
-8 -4 -11 -10z"/>
<path d="M1519 1423 c-13 -16 -12 -17 4 -4 16 13 21 21 13 21 -2 0 -10 -8 -17
-17z"/>
<path d="M280 1373 c-43 -17 -103 -70 -139 -124 -60 -89 -84 -179 -79 -287 6
-115 33 -173 106 -221 42 -28 49 -37 40 -49 -27 -32 30 -55 368 -152 l329 -94
180 -7 c99 -3 194 -11 210 -17 101 -37 275 -51 338 -27 23 9 22 30 -3 55 -20
20 -20 20 31 20 45 0 55 4 87 36 l36 36 102 -26 c143 -36 177 -35 219 7 43 43
53 92 29 142 -23 49 -44 61 -155 90 -138 36 -140 37 -136 48 2 7 39 19 83 27
105 22 150 37 201 69 41 25 54 41 33 41 -6 0 -43 -9 -83 -20 -39 -11 -111 -25
-159 -31 -75 -9 -91 -8 -110 5 -12 9 -35 16 -50 16 -16 0 -28 4 -28 9 0 4 -37
18 -82 30 -46 13 -93 27 -106 32 -13 5 -45 9 -72 9 l-50 0 0 34 c0 44 -51 113
-106 143 -63 35 -312 81 -559 104 -5 0 -2 4 8 8 11 4 -3 7 -36 7 -29 1 -64 8
-78 17 -13 8 -66 22 -117 31 -51 10 -114 24 -140 31 -48 15 -86 18 -112 8z
m920 -397 c0 -42 -3 -46 -42 -70 -23 -14 -45 -23 -50 -20 -10 6 -10 75 0 90 6
11 67 41 85 43 4 1 7 -19 7 -43z m64 -101 c-12 -26 -19 -33 -25 -23 -17 26
-10 65 14 75 30 14 34 -5 11 -52z m813 -231 c5 -15 -28 -27 -40 -15 -5 5 -6
14 -2 21 8 13 37 9 42 -6z"/>
<path d="M1805 1369 c-4 -6 -5 -12 -2 -15 2 -3 7 2 10 11 7 17 1 20 -8 4z"/>
</g>
</svg>
