<?xml version="1.0" standalone="no"?>
<!DOCTYPE svg PUBLIC "-//W3C//DTD SVG 20010904//EN"
 "http://www.w3.org/TR/2001/REC-SVG-20010904/DTD/svg10.dtd">
<svg version="1.0" xmlns="http://www.w3.org/2000/svg"
 width="359.000000pt" height="359.000000pt" viewBox="0 0 359.000000 359.000000"
 preserveAspectRatio="xMidYMid meet">

<g transform="translate(0.000000,359.000000) scale(0.100000,-0.100000)"
fill="#000000" stroke="none">
<path d="M1814 3310 c-22 -11 -53 -33 -68 -49 -23 -23 -25 -29 -12 -34 10 -4
22 3 32 18 9 13 36 38 62 55 52 34 46 39 -14 10z"/>
<path d="M1562 2910 c0 -14 2 -19 5 -12 2 6 2 18 0 25 -3 6 -5 1 -5 -13z"/>
<path d="M2570 2820 c20 -13 33 -13 25 0 -3 6 -14 10 -23 10 -15 0 -15 -2 -2
-10z"/>
<path d="M2640 2815 c0 -11 5 -27 10 -35 8 -12 10 -12 10 5 0 11 -5 27 -10 35
-8 12 -10 12 -10 -5z"/>
<path d="M1572 2800 c0 -14 2 -19 5 -12 2 6 2 18 0 25 -3 6 -5 1 -5 -13z"/>
<path d="M2570 2798 c0 -5 0 -11 0 -15 0 -5 4 -8 9 -8 5 0 13 -3 17 -7 7 -7
-10 -12 -29 -9 -5 1 -5 -3 -2 -9 4 -6 10 -9 13 -6 3 3 11 1 19 -5 10 -9 13 -7
13 9 0 12 5 24 10 27 22 13 9 32 -20 31 -16 -1 -30 -4 -30 -8z"/>
<path d="M2626 2755 c-2 -7 4 -15 17 -19 28 -7 30 -3 7 16 -15 13 -19 14 -24
3z"/>
<path d="M2598 2722 c-10 -2 -18 -8 -18 -14 0 -6 -10 -19 -22 -30 -18 -15 -20
-21 -9 -27 16 -10 6 -31 -15 -31 -11 0 -14 -6 -9 -22 4 -15 3 -19 -3 -10 -7
10 -11 10 -22 -2 -10 -13 -9 -17 4 -22 24 -9 10 -22 -19 -16 -14 2 -25 1 -24
-4 4 -21 -2 -35 -11 -29 -5 3 -10 1 -10 -5 0 -6 -10 -8 -25 -4 -19 5 -25 3
-23 -7 2 -7 -1 -13 -7 -14 -5 0 -28 -12 -50 -26 -22 -14 -51 -32 -64 -39 -28
-14 -33 -18 -81 -60 -40 -34 -60 -37 -97 -12 -15 9 -24 11 -19 4 4 -7 1 -19
-8 -27 -17 -17 -36 -20 -36 -4 0 5 4 8 9 5 5 -3 11 1 14 9 4 10 1 12 -11 8 -9
-4 -20 -11 -24 -17 -5 -7 -8 -7 -8 -1 0 6 -8 11 -19 12 -14 1 -17 -3 -14 -18
5 -19 43 -48 43 -33 0 4 8 -3 19 -14 10 -12 21 -19 24 -16 3 4 16 -6 29 -20
36 -42 128 -55 210 -31 118 35 267 119 289 164 7 14 21 35 30 46 10 11 20 43
23 70 8 69 10 77 24 103 8 14 9 22 2 22 -5 0 -10 7 -10 15 0 9 -6 18 -14 21
-9 3 -13 15 -10 30 5 29 -13 51 -38 46z m-508 -407 c-7 -9 -15 -13 -17 -11 -6
6 20 36 26 30 2 -2 -2 -10 -9 -19z"/>
<path d="M2650 2709 c0 -5 5 -7 10 -4 6 3 10 8 10 11 0 2 -4 4 -10 4 -5 0 -10
-5 -10 -11z"/>
<path d="M1856 2381 c-4 -5 -2 -12 3 -15 5 -4 12 -2 15 3 4 5 2 12 -3 15 -5 4
-12 2 -15 -3z"/>
<path d="M1936 2343 c-11 -11 -7 -20 9 -20 8 0 15 4 15 8 0 11 -16 20 -24 12z"/>
<path d="M2570 2082 c-25 -8 -62 -26 -82 -39 -21 -12 -41 -23 -45 -23 -4 0
-20 -12 -36 -27 -17 -16 -26 -21 -22 -13 5 10 5 12 -2 5 -6 -5 -14 -25 -18
-43 -7 -32 -6 -33 14 -20 12 7 21 16 21 20 0 12 51 61 83 82 72 45 159 56 332
42 l50 -4 -33 14 c-50 22 -207 26 -262 6z"/>
<path d="M3270 1442 c-19 -9 -24 -38 -9 -48 9 -5 10 -2 6 9 -4 11 -1 17 8 17
8 0 15 7 15 15 0 8 -1 15 -2 14 -2 0 -10 -3 -18 -7z"/>
<path d="M3320 1349 c0 -6 -4 -7 -10 -4 -5 3 -10 2 -10 -3 0 -6 11 -9 25 -8
28 1 33 11 10 20 -8 3 -15 1 -15 -5z"/>
<path d="M3250 1331 c0 -11 31 -24 39 -16 3 3 -1 10 -9 15 -19 12 -30 12 -30
1z"/>
<path d="M3260 1259 c0 -6 4 -8 9 -5 5 3 8 -2 7 -12 0 -9 6 -17 14 -17 8 0 14
8 13 18 -1 12 4 17 14 13 8 -3 12 -2 9 3 -7 12 -66 12 -66 0z"/>
<path d="M3230 1230 c0 -5 5 -10 10 -10 6 0 10 5 10 10 0 6 -4 10 -10 10 -5 0
-10 -4 -10 -10z"/>
<path d="M3147 1213 c-12 -12 -7 -22 8 -17 8 4 15 10 15 15 0 11 -14 12 -23 2z"/>
<path d="M3090 1200 c0 -13 18 -22 24 -11 3 5 -1 11 -9 15 -8 3 -15 1 -15 -4z"/>
<path d="M3185 1200 c-3 -5 -4 -14 -1 -19 4 -5 0 -12 -6 -15 -7 -3 -4 -5 7 -3
12 1 21 11 23 25 3 22 -12 30 -23 12z"/>
<path d="M3247 1203 c-12 -11 -8 -23 8 -23 8 0 15 7 15 15 0 16 -12 20 -23 8z"/>
<path d="M3056 1173 c-3 -10 -8 -23 -12 -30 -3 -6 9 -18 27 -27 32 -16 55 -13
43 6 -4 6 0 15 7 20 15 11 16 11 -40 -7 -22 -7 -23 -5 -16 24 7 33 1 42 -9 14z"/>
<path d="M3230 1145 c5 -14 6 -25 2 -25 -4 0 1 -5 11 -11 10 -6 22 -8 25 -4 4
4 -1 11 -11 16 -9 6 -17 19 -17 29 0 11 -4 20 -10 20 -6 0 -6 -9 0 -25z"/>
<path d="M3273 1163 c-18 -6 -16 -33 1 -33 15 0 30 27 18 33 -4 3 -13 2 -19 0z"/>
<path d="M3142 1134 c-17 -18 -16 -19 18 -20 17 -1 30 -1 30 0 0 1 -8 9 -18
17 -15 13 -20 13 -30 3z"/>
<path d="M3194 1134 c3 -8 6 -18 6 -20 0 -2 5 -4 10 -4 16 0 11 27 -6 34 -12
5 -15 2 -10 -10z"/>
<path d="M2952 1112 c-8 -6 -2 -9 18 -9 16 0 30 4 30 9 0 10 -31 10 -48 0z"/>
<path d="M2916 1085 c-3 -8 -11 -15 -18 -15 -9 0 -8 3 2 10 11 7 6 10 -20 9
-19 0 -29 -3 -23 -6 10 -3 10 -8 -1 -19 -17 -16 -30 -19 -21 -4 3 6 1 10 -4
10 -6 0 -11 -8 -12 -17 0 -11 -3 -13 -6 -5 -5 13 -24 17 -22 5 3 -21 -3 -24
-18 -12 -14 12 -16 12 -11 -1 3 -8 2 -24 -2 -35 -4 -11 -4 -25 1 -30 5 -7 0
-11 -12 -12 -11 -1 -17 3 -13 8 3 5 0 16 -6 24 -10 12 -10 18 -1 29 9 11 9 16
0 21 -6 4 -15 2 -19 -6 -7 -10 -12 -10 -26 2 -11 8 -15 9 -10 2 5 -9 -1 -11
-22 -7 -28 6 -63 -18 -48 -33 3 -3 6 -1 6 5 0 7 7 12 16 12 8 0 12 -4 9 -10
-3 -5 -1 -11 4 -11 15 -2 23 -4 44 -13 9 -5 24 -6 32 -2 12 4 14 -2 10 -29 -3
-29 0 -35 23 -43 15 -5 40 -5 55 -1 23 6 28 5 23 -7 -3 -8 -1 -14 5 -14 6 0 7
-5 3 -12 -4 -6 -3 -8 4 -4 6 3 14 1 17 -4 5 -7 12 -5 22 7 8 10 12 13 9 7 -3
-7 5 -14 19 -16 21 -5 24 -2 21 18 -5 23 17 40 36 27 7 -3 8 -1 4 6 -11 17 17
41 36 30 10 -5 22 -3 34 7 18 15 18 15 -3 11 -16 -3 -20 -1 -16 10 3 7 13 13
22 12 29 -3 32 1 21 20 -7 14 -7 22 0 26 6 4 10 3 9 -2 -3 -19 2 -33 13 -33
22 0 78 45 78 63 0 21 -8 22 -31 1 -21 -19 -39 -11 -39 17 0 14 -7 19 -27 19
-24 -1 -25 -2 -11 -11 19 -11 13 -39 -8 -39 -8 0 -14 -4 -14 -10 0 -19 -17
-10 -28 15 -11 23 -10 24 15 14 32 -12 35 -9 18 15 -13 17 -18 17 -45 6 -32
-13 -40 -30 -15 -30 8 0 15 -5 15 -11 0 -6 -7 -8 -16 -5 -9 3 -25 6 -35 6 -11
0 -17 5 -14 10 4 6 11 8 16 5 14 -10 11 11 -5 24 -10 9 -15 8 -20 -4z m68 -62
c19 -9 33 -20 30 -25 -3 -4 -12 -1 -20 7 -9 8 -19 13 -24 10 -4 -3 -13 2 -20
10 -16 19 -9 19 34 -2z m-127 -8 c0 -8 -6 -16 -14 -19 -11 -4 -11 -1 -3 14 13
24 17 25 17 5z m-43 -34 c-6 -6 -34 20 -34 32 0 6 8 2 19 -9 10 -10 17 -21 15
-23z m130 -5 c-8 -27 -9 -27 -27 -21 -16 7 -17 21 -4 42 13 20 38 3 31 -21z
m36 10 c0 -8 -4 -18 -10 -21 -5 -3 -10 3 -10 14 0 12 5 21 10 21 6 0 10 -6 10
-14z m-110 -86 c0 -5 -5 -10 -11 -10 -5 0 -7 5 -4 10 3 6 8 10 11 10 2 0 4 -4
4 -10z"/>
<path d="M3177 1087 c-8 -6 -6 -7 5 -4 9 3 19 1 22 -6 3 -9 5 -9 5 0 1 7 8 10
16 7 8 -4 15 -1 15 5 0 12 -45 11 -63 -2z"/>
<path d="M2530 1076 c0 -9 7 -12 20 -9 11 3 17 9 14 14 -8 14 -34 10 -34 -5z"/>
<path d="M3190 1030 c0 -11 2 -20 5 -20 2 0 9 9 15 20 9 16 8 20 -5 20 -8 0
-15 -9 -15 -20z"/>
<path d="M3155 990 c-16 -7 -17 -9 -3 -9 9 -1 20 4 23 9 7 11 7 11 -20 0z"/>
<path d="M3090 959 c0 -5 5 -7 10 -4 6 3 10 8 10 11 0 2 -4 4 -10 4 -5 0 -10
-5 -10 -11z"/>
<path d="M2960 878 c0 -4 9 -8 20 -8 11 0 20 4 20 9 0 6 -9 9 -20 8 -11 -1
-20 -5 -20 -9z"/>
<path d="M1805 90 c-3 -5 1 -10 10 -10 9 0 13 5 10 10 -3 6 -8 10 -10 10 -2 0
-7 -4 -10 -10z"/>
<path d="M1718 23 c7 -3 16 -2 19 1 4 3 -2 6 -13 5 -11 0 -14 -3 -6 -6z"/>
</g>
</svg>
