<svg width="85" height="37" viewBox="0 0 85 37" fill="none" xmlns="http://www.w3.org/2000/svg">
<path d="M22.7924 4.80178C24.2009 5.08989 25.5774 5.60208 26.986 6.30634C27.21 6.43439 27.3381 6.56243 27.3701 6.65847C27.4021 6.75451 27.4661 7.0106 27.5302 7.39474L28.1064 13.1889C28.1064 13.2849 28.0103 13.3489 27.8503 13.3489C27.6582 13.381 27.5622 13.3169 27.5302 13.2209C26.0256 7.8109 22.6964 5.08989 17.4785 5.08989C14.7574 5.08989 12.3566 5.69812 10.2758 6.88255C8.19503 8.099 6.59443 9.79563 5.44201 12.0365C4.28958 14.2773 3.74538 16.8382 3.74538 19.8153C3.74538 22.6324 4.38562 25.2253 5.63408 27.5942C6.88254 29.9631 8.57917 31.8198 10.6919 33.1643C12.8047 34.5408 15.1416 35.213 17.6385 35.213C20.2955 35.213 22.4723 34.5728 24.1049 33.2603C25.7695 31.9478 27.018 29.9951 27.9143 27.3061C27.9143 27.2421 28.0103 27.2101 28.1704 27.2101C28.3945 27.2101 28.5225 27.2741 28.5225 27.3701L28.0424 32.7161C28.0103 33.1002 27.9463 33.3563 27.8823 33.4524C27.8183 33.5484 27.6902 33.6764 27.4982 33.8045C25.8015 34.6048 24.2329 35.181 22.7604 35.5011C21.2879 35.8212 19.5912 35.9813 17.6705 35.9813C14.2453 35.9813 11.2041 35.309 8.54716 33.9646C5.82615 32.6201 3.74538 30.7314 2.24083 28.2985C0.736272 25.8656 0 23.0805 0 19.9114C0 16.8702 0.768284 14.1492 2.30485 11.8124C3.84142 9.4435 5.92219 7.61882 8.61118 6.33835C11.3002 5.02587 14.3093 4.38563 17.6385 4.38563C19.6873 4.35362 21.4159 4.51368 22.7924 4.80178Z" fill="white"/>
<path d="M34.1411 35.0529C34.1411 34.8609 34.2051 34.7648 34.3012 34.7648C35.1655 34.7648 35.8377 34.6688 36.2539 34.5087C36.67 34.3167 36.9581 33.9966 37.1182 33.5484C37.2783 33.0682 37.3743 32.364 37.3743 31.4356V6.21029C37.3743 5.02586 37.2462 4.19355 37.0222 3.68136C36.7981 3.16917 36.3819 2.91308 35.8057 2.91308C35.3255 2.91308 34.5573 3.13716 33.5649 3.58532H33.4688C33.3728 3.58532 33.3088 3.48929 33.2448 3.32923C33.1807 3.16917 33.2128 3.07313 33.3088 3.04112L39.5511 0.0640236C39.6151 0.0320118 39.7112 0 39.8072 0C39.8712 0 39.9672 0.0320118 40.0633 0.128047C40.1913 0.224083 40.2233 0.288106 40.2233 0.384142V31.4036C40.2233 32.3319 40.2874 33.0362 40.4474 33.4844C40.6075 33.9325 40.8636 34.2526 41.3117 34.4447C41.7279 34.6368 42.3681 34.7328 43.2645 34.7328C43.3605 34.7328 43.4245 34.8289 43.4245 35.0209C43.4245 35.213 43.3605 35.309 43.2645 35.309C42.5602 35.309 41.952 35.309 41.5038 35.245H38.7828L36.1578 35.309C35.7097 35.341 35.1015 35.3731 34.3012 35.3731C34.2051 35.3411 34.1411 35.245 34.1411 35.0529Z" fill="white"/>
<path d="M51.1714 34.6048C49.7308 33.6764 48.6104 32.428 47.8422 30.8594C47.0739 29.2908 46.6577 27.5622 46.6577 25.7055C46.6577 23.5927 47.1699 21.8001 48.1943 20.3275C49.2187 18.855 50.5311 17.7346 52.1317 17.0303C53.7323 16.294 55.3649 15.9419 57.0295 15.9419C58.9503 15.9419 60.6149 16.4221 62.0554 17.3504C63.4959 18.2788 64.5843 19.5272 65.3526 21.0638C66.1209 22.6004 66.505 24.233 66.505 25.9616C66.505 27.9783 66.0249 29.739 65.0965 31.2435C64.1682 32.7481 62.8877 33.9325 61.3191 34.7648C59.7505 35.5972 58.0219 36.0133 56.1652 36.0133C54.2765 35.9813 52.6119 35.5331 51.1714 34.6048ZM61.7353 33.1643C62.6956 31.8838 63.2078 29.9631 63.2078 27.3061C63.2078 25.2893 62.8877 23.4967 62.2155 21.8961C61.5432 20.2955 60.6469 19.047 59.4624 18.1827C58.278 17.2864 56.9655 16.8382 55.461 16.8382C53.7003 16.8382 52.3558 17.4785 51.3955 18.7269C50.4351 20.0074 49.9549 21.8001 49.9549 24.1689C49.9549 26.1537 50.275 27.9783 50.9153 29.6109C51.5555 31.2756 52.4839 32.588 53.6363 33.5484C54.8207 34.5087 56.1332 35.0209 57.5737 35.0209C59.3664 35.053 60.7429 34.4127 61.7353 33.1643Z" fill="white"/>
<path d="M83.6954 16.6782C84.3356 17.0623 84.6557 17.5425 84.6557 18.0867C84.6557 18.5028 84.5277 18.855 84.2396 19.1431C83.9515 19.4312 83.5673 19.5912 83.0551 19.5912C82.767 19.5912 82.5109 19.5272 82.2868 19.4312C82.0628 19.3031 81.8387 19.1431 81.5186 18.919C81.2305 18.6629 80.9424 18.4708 80.6863 18.3428C80.4302 18.2147 80.11 18.1507 79.7579 18.1507C79.3418 18.1507 78.8936 18.3428 78.4134 18.6949C77.9332 19.047 77.197 19.8153 76.2046 20.9998V31.4036C76.2046 32.364 76.3327 33.1002 76.5567 33.5484C76.8128 33.9966 77.261 34.3167 77.9012 34.5088C78.5415 34.7008 79.5658 34.7649 80.9103 34.7649C81.0384 34.7649 81.1024 34.8609 81.1024 35.053C81.1024 35.245 81.0384 35.3411 80.9103 35.3411C79.886 35.3411 79.0537 35.3411 78.4134 35.277L74.7961 35.213L72.1071 35.277C71.6909 35.3091 71.1147 35.3411 70.3464 35.3411C70.2504 35.3411 70.1864 35.245 70.1864 35.053C70.1864 34.8609 70.2504 34.7649 70.3464 34.7649C71.2108 34.7649 71.883 34.6688 72.2992 34.5088C72.7153 34.3167 73.0034 34.0286 73.1635 33.5484C73.3235 33.1002 73.3876 32.364 73.3876 31.4036V21.7681C73.3876 20.6796 73.2595 19.8794 73.0034 19.3672C72.7473 18.887 72.2992 18.6309 71.6909 18.6309C71.1787 18.6309 70.2824 18.887 69.066 19.3672H68.9699C68.8419 19.3672 68.7458 19.3031 68.7138 19.1431C68.6498 18.983 68.7138 18.887 68.8419 18.823L74.508 16.134L74.7961 16.0699C75.0842 16.0699 75.4043 16.4541 75.7244 17.1904C76.0445 17.9266 76.2046 18.887 76.2046 20.0714V20.1354C77.5491 18.5669 78.6055 17.5105 79.3738 16.9343C80.1421 16.3581 80.9103 16.0699 81.6146 16.0699C82.3509 16.102 83.0551 16.294 83.6954 16.6782Z" fill="white"/>
<path d="M50.5294 13.6069L55.2603 8.87604L50.5294 4.14521L45.7986 8.87604L50.5294 13.6069Z" fill="#DDBEAA"/>
<path d="M62.0172 13.6067L66.748 8.87592L62.0172 4.14508L57.2863 8.87591L62.0172 13.6067Z" fill="#DDBEAA"/>
</svg>
