<svg width="32" height="20" viewBox="0 0 32 20" fill="none" xmlns="http://www.w3.org/2000/svg">
<path d="M1.24693 0.000125008C1.08402 -0.00221752 0.922273 0.0283837 0.771093 0.0901501C0.619913 0.151917 0.482315 0.243616 0.366295 0.35992C0.250274 0.476225 0.158146 0.614814 0.0952641 0.767633C0.0323819 0.920453 0 1.08446 0 1.25011C0 1.41576 0.0323819 1.57977 0.0952641 1.73259C0.158146 1.88541 0.250274 2.02399 0.366295 2.1403C0.482315 2.2566 0.619913 2.3483 0.771093 2.41007C0.922273 2.47184 1.08402 2.50244 1.24693 2.50009H30.7531C30.916 2.50244 31.0777 2.47184 31.2289 2.41007C31.3801 2.3483 31.5177 2.2566 31.6337 2.1403C31.7497 2.02399 31.8419 1.88541 31.9047 1.73259C31.9676 1.57977 32 1.41576 32 1.25011C32 1.08446 31.9676 0.920453 31.9047 0.767633C31.8419 0.614814 31.7497 0.476225 31.6337 0.35992C31.5177 0.243616 31.3801 0.151917 31.2289 0.0901501C31.0777 0.0283837 30.916 -0.00221752 30.7531 0.000125008H1.24693ZM1.24693 8.75002C1.08402 8.74767 0.922273 8.77827 0.771093 8.84004C0.619913 8.90181 0.482315 8.99351 0.366295 9.10981C0.250274 9.22612 0.158146 9.3647 0.0952641 9.51752C0.0323819 9.67034 0 9.83435 0 10C0 10.1657 0.0323819 10.3297 0.0952641 10.4825C0.158146 10.6353 0.250274 10.7739 0.366295 10.8902C0.482315 11.0065 0.619913 11.0982 0.771093 11.16C0.922273 11.2217 1.08402 11.2523 1.24693 11.25H30.7531C30.916 11.2523 31.0777 11.2217 31.2289 11.16C31.3801 11.0982 31.5177 11.0065 31.6337 10.8902C31.7497 10.7739 31.8419 10.6353 31.9047 10.4825C31.9676 10.3297 32 10.1657 32 10C32 9.83435 31.9676 9.67034 31.9047 9.51752C31.8419 9.3647 31.7497 9.22612 31.6337 9.10981C31.5177 8.99351 31.3801 8.90181 31.2289 8.84004C31.0777 8.77827 30.916 8.74767 30.7531 8.75002H1.24693ZM1.24693 17.4999C1.08402 17.4976 0.922273 17.5282 0.771093 17.5899C0.619913 17.6517 0.482315 17.7434 0.366295 17.8597C0.250274 17.976 0.158146 18.1146 0.0952641 18.2674C0.0323819 18.4202 0 18.5842 0 18.7499C0 18.9155 0.0323819 19.0795 0.0952641 19.2324C0.158146 19.3852 0.250274 19.5238 0.366295 19.6401C0.482315 19.7564 0.619913 19.8481 0.771093 19.9098C0.922273 19.9716 1.08402 20.0022 1.24693 19.9999H30.7531C30.916 20.0022 31.0777 19.9716 31.2289 19.9098C31.3801 19.8481 31.5177 19.7564 31.6337 19.6401C31.7497 19.5238 31.8419 19.3852 31.9047 19.2324C31.9676 19.0795 32 18.9155 32 18.7499C32 18.5842 31.9676 18.4202 31.9047 18.2674C31.8419 18.1146 31.7497 17.976 31.6337 17.8597C31.5177 17.7434 31.3801 17.6517 31.2289 17.5899C31.0777 17.5282 30.916 17.4976 30.7531 17.4999H1.24693Z" fill="white"/>
</svg>
