<svg width="383" height="65" viewBox="0 0 383 65" fill="none" xmlns="http://www.w3.org/2000/svg">
<g filter="url(#filter0_d_2_48)">
<path d="M28.816 56.912C24.104 56.912 19.8987 55.8227 16.2 53.644C12.552 51.4147 9.71467 48.4253 7.688 44.676C5.712 40.876 4.724 36.7467 4.724 32.288C4.724 27.0693 6.04133 22.6107 8.676 18.912C11.3107 15.1627 14.68 12.3507 18.784 10.476C22.9387 8.60133 27.1693 7.664 31.476 7.664C36.2893 7.664 40.52 8.804 44.168 11.084C47.816 13.3133 50.6027 16.2773 52.528 19.976C54.504 23.6747 55.492 27.6013 55.492 31.756C55.492 36.3667 54.276 40.5973 51.844 44.448C49.412 48.2987 46.144 51.3387 42.04 53.568C37.9867 55.7973 33.5787 56.912 28.816 56.912ZM31.476 55.316C34.9213 55.316 38.012 54.48 40.748 52.808C43.5347 51.136 45.7133 48.6787 47.284 45.436C48.9053 42.1933 49.716 38.3427 49.716 33.884C49.716 29.1213 48.8293 24.8907 47.056 21.192C45.2827 17.4933 42.7747 14.6053 39.532 12.528C36.34 10.4507 32.5907 9.412 28.284 9.412C22.7107 9.412 18.3533 11.2107 15.212 14.808C12.0707 18.4053 10.5 23.3453 10.5 29.628C10.5 34.3907 11.3867 38.748 13.16 42.7C14.9333 46.6013 17.416 49.692 20.608 51.972C23.8 54.2013 27.4227 55.316 31.476 55.316ZM96.1995 51.668C96.4022 51.668 96.5288 51.7947 96.5795 52.048C96.6808 52.2507 96.6302 52.4027 96.4275 52.504L87.5355 56.684L87.2315 56.76C86.7248 56.76 86.2435 56.1773 85.7875 55.012C85.3315 53.8467 85.1035 52.3267 85.1035 50.452V50.148C83.1275 52.3773 81.1515 54.024 79.1755 55.088C77.1995 56.1013 75.1475 56.608 73.0195 56.608C70.4862 56.608 68.5102 55.8227 67.0915 54.252C65.6728 52.6307 64.9635 50.3 64.9635 47.26V35.632C64.9635 33.656 64.7862 32.2373 64.4315 31.376C64.0768 30.464 63.4942 30.008 62.6835 30.008C61.9742 30.008 61.1128 30.2613 60.0995 30.768H60.0235C59.8208 30.768 59.6688 30.6413 59.5675 30.388C59.4662 30.084 59.5168 29.9067 59.7195 29.856L68.1555 26.056L68.4595 25.98C68.6115 25.98 68.7635 26.056 68.9155 26.208C69.1182 26.3093 69.2195 26.436 69.2195 26.588V44.752C69.2195 50.6293 71.3475 53.568 75.6035 53.568C77.2248 53.568 78.8715 53.1627 80.5435 52.352C82.2155 51.4907 83.7355 50.3253 85.1035 48.856V35.632C85.1035 33.6053 84.9262 32.1613 84.5715 31.3C84.2675 30.4387 83.6848 30.008 82.8235 30.008C82.1142 30.008 81.2528 30.2613 80.2395 30.768H80.1635C79.9608 30.768 79.8088 30.6413 79.7075 30.388C79.6568 30.084 79.7328 29.9067 79.9355 29.856L88.3715 26.056L88.5995 25.98C88.7515 25.98 88.9035 26.056 89.0555 26.208C89.2582 26.3093 89.3595 26.436 89.3595 26.588V47.868C89.3595 49.5907 89.5622 50.832 89.9675 51.592C90.3728 52.352 91.0568 52.732 92.0195 52.732C92.8808 52.732 94.2235 52.3773 96.0475 51.668H96.1995ZM117.568 25.98C118.683 25.98 119.747 26.284 120.76 26.892C121.773 27.5 122.28 28.2347 122.28 29.096C122.28 29.7547 122.052 30.312 121.596 30.768C121.191 31.224 120.583 31.452 119.772 31.452C119.316 31.452 118.911 31.376 118.556 31.224C118.252 31.0213 117.872 30.7427 117.416 30.388C116.96 29.9827 116.529 29.6787 116.124 29.476C115.719 29.2733 115.237 29.172 114.68 29.172C114.021 29.172 113.312 29.4507 112.552 30.008C111.843 30.5147 110.703 31.68 109.132 33.504V49.844C109.132 51.364 109.309 52.4787 109.664 53.188C110.069 53.8973 110.779 54.404 111.792 54.708C112.805 54.9613 114.376 55.088 116.504 55.088C116.707 55.088 116.808 55.24 116.808 55.544C116.808 55.848 116.707 56 116.504 56C114.883 56 113.591 55.9747 112.628 55.924L107.004 55.848L102.824 55.924C102.165 55.9747 101.253 56 100.088 56C99.936 56 99.86 55.848 99.86 55.544C99.86 55.24 99.936 55.088 100.088 55.088C101.456 55.088 102.469 54.9613 103.128 54.708C103.787 54.404 104.217 53.8973 104.42 53.188C104.673 52.4787 104.8 51.364 104.8 49.844V34.796C104.8 33.0733 104.597 31.832 104.192 31.072C103.787 30.312 103.103 29.932 102.14 29.932C101.329 29.932 99.9613 30.312 98.036 31.072H97.884C97.6813 31.072 97.5293 30.9707 97.428 30.768C97.3773 30.5147 97.4533 30.3373 97.656 30.236L106.472 26.056C106.573 26.0053 106.725 25.98 106.928 25.98C107.384 25.98 107.865 26.5627 108.372 27.728C108.879 28.8933 109.132 30.388 109.132 32.212V32.288C111.209 29.856 112.856 28.2093 114.072 27.348C115.288 26.436 116.453 25.98 117.568 25.98ZM156.756 49.54C156.756 51.1613 156.959 52.352 157.364 53.112C157.82 53.8213 158.656 54.328 159.872 54.632C161.139 54.936 163.115 55.088 165.8 55.088C165.952 55.088 166.028 55.24 166.028 55.544C166.028 55.848 165.952 56 165.8 56C163.723 56 162.101 55.9747 160.936 55.924L154.324 55.848L149.232 55.924C148.269 55.9747 146.977 56 145.356 56C145.255 56 145.204 55.848 145.204 55.544C145.204 55.24 145.255 55.088 145.356 55.088C147.281 55.088 148.675 54.9613 149.536 54.708C150.448 54.4547 151.056 53.9733 151.36 53.264C151.664 52.504 151.816 51.364 151.816 49.844V14.656C151.816 13.136 151.664 12.0213 151.36 11.312C151.056 10.6027 150.448 10.1213 149.536 9.868C148.675 9.564 147.281 9.412 145.356 9.412C145.255 9.412 145.204 9.26 145.204 8.956C145.204 8.652 145.255 8.5 145.356 8.5L149.156 8.576C151.284 8.67733 152.981 8.728 154.248 8.728C155.515 8.728 156.933 8.652 158.504 8.5C159.112 8.5 160.075 8.47467 161.392 8.424C162.709 8.32266 163.849 8.272 164.812 8.272C169.473 8.272 173.197 9.31067 175.984 11.388C178.821 13.4653 180.24 16.632 180.24 20.888C180.24 24.232 179.404 27.044 177.732 29.324C176.111 31.604 174.008 33.3013 171.424 34.416C168.84 35.5307 166.18 36.088 163.444 36.088C161.975 36.088 160.759 35.9613 159.796 35.708C159.644 35.708 159.568 35.5813 159.568 35.328C159.568 35.176 159.593 35.024 159.644 34.872C159.745 34.72 159.847 34.6693 159.948 34.72C160.759 34.9227 161.671 35.024 162.684 35.024C166.028 35.024 168.84 33.9347 171.12 31.756C173.451 29.5773 174.616 26.436 174.616 22.332C174.616 18.3293 173.527 15.188 171.348 12.908C169.169 10.5773 166.383 9.412 162.988 9.412C161.164 9.412 159.847 9.51333 159.036 9.716C158.225 9.91867 157.643 10.4 157.288 11.16C156.933 11.8693 156.756 13.0853 156.756 14.808V49.54ZM204.181 25.98C205.296 25.98 206.36 26.284 207.373 26.892C208.387 27.5 208.893 28.2347 208.893 29.096C208.893 29.7547 208.665 30.312 208.209 30.768C207.804 31.224 207.196 31.452 206.385 31.452C205.929 31.452 205.524 31.376 205.169 31.224C204.865 31.0213 204.485 30.7427 204.029 30.388C203.573 29.9827 203.143 29.6787 202.737 29.476C202.332 29.2733 201.851 29.172 201.293 29.172C200.635 29.172 199.925 29.4507 199.165 30.008C198.456 30.5147 197.316 31.68 195.745 33.504V49.844C195.745 51.364 195.923 52.4787 196.277 53.188C196.683 53.8973 197.392 54.404 198.405 54.708C199.419 54.9613 200.989 55.088 203.117 55.088C203.32 55.088 203.421 55.24 203.421 55.544C203.421 55.848 203.32 56 203.117 56C201.496 56 200.204 55.9747 199.241 55.924L193.617 55.848L189.437 55.924C188.779 55.9747 187.867 56 186.701 56C186.549 56 186.473 55.848 186.473 55.544C186.473 55.24 186.549 55.088 186.701 55.088C188.069 55.088 189.083 54.9613 189.741 54.708C190.4 54.404 190.831 53.8973 191.033 53.188C191.287 52.4787 191.413 51.364 191.413 49.844V34.796C191.413 33.0733 191.211 31.832 190.805 31.072C190.4 30.312 189.716 29.932 188.753 29.932C187.943 29.932 186.575 30.312 184.649 31.072H184.497C184.295 31.072 184.143 30.9707 184.041 30.768C183.991 30.5147 184.067 30.3373 184.269 30.236L193.085 26.056C193.187 26.0053 193.339 25.98 193.541 25.98C193.997 25.98 194.479 26.5627 194.985 27.728C195.492 28.8933 195.745 30.388 195.745 32.212V32.288C197.823 29.856 199.469 28.2093 200.685 27.348C201.901 26.436 203.067 25.98 204.181 25.98ZM227.63 56.988C224.692 56.988 222.082 56.2787 219.802 54.86C217.573 53.3907 215.85 51.44 214.634 49.008C213.418 46.5253 212.81 43.84 212.81 40.952C212.81 37.6587 213.596 34.872 215.166 32.592C216.788 30.2613 218.84 28.5387 221.322 27.424C223.856 26.2587 226.414 25.676 228.998 25.676C231.988 25.676 234.597 26.4107 236.826 27.88C239.056 29.3493 240.753 31.3 241.918 33.732C243.134 36.1133 243.742 38.6467 243.742 41.332C243.742 44.4733 243.008 47.2347 241.538 49.616C240.069 51.9467 238.093 53.7707 235.61 55.088C233.178 56.3547 230.518 56.988 227.63 56.988ZM229.834 55.544C232.621 55.544 234.774 54.556 236.294 52.58C237.814 50.604 238.574 47.564 238.574 43.46C238.574 40.3187 238.042 37.5067 236.978 35.024C235.965 32.5413 234.546 30.616 232.722 29.248C230.898 27.8293 228.821 27.12 226.49 27.12C223.754 27.12 221.626 28.108 220.106 30.084C218.637 32.06 217.902 34.8973 217.902 38.596C217.902 41.6867 218.409 44.524 219.422 47.108C220.436 49.692 221.854 51.744 223.678 53.264C225.502 54.784 227.554 55.544 229.834 55.544ZM284.897 51.668C285.1 51.668 285.227 51.7947 285.277 52.048C285.379 52.3013 285.353 52.4787 285.201 52.58L276.841 56.532C276.537 56.6333 276.335 56.684 276.233 56.684C275.575 56.684 275.017 56.1267 274.561 55.012C274.105 53.8973 273.852 52.352 273.801 50.376C271.927 52.352 269.951 53.948 267.873 55.164C265.847 56.38 263.567 56.988 261.033 56.988C258.905 56.988 256.929 56.38 255.105 55.164C253.332 53.948 251.888 52.2507 250.773 50.072C249.709 47.8427 249.177 45.3093 249.177 42.472C249.177 38.8747 250.064 35.8093 251.837 33.276C253.611 30.7427 255.84 28.8427 258.525 27.576C261.211 26.3093 263.871 25.676 266.505 25.676C269.191 25.676 271.623 26.3347 273.801 27.652V10.628C273.801 8.804 273.599 7.48666 273.193 6.676C272.839 5.86533 272.205 5.46 271.293 5.46C270.635 5.46 269.469 5.81466 267.797 6.524H267.645C267.443 6.524 267.291 6.42266 267.189 6.22C267.139 5.96666 267.189 5.78933 267.341 5.688L276.993 0.975997C277.095 0.925331 277.221 0.899998 277.373 0.899998C277.475 0.899998 277.601 0.975997 277.753 1.128C277.956 1.22933 278.057 1.356 278.057 1.508V47.64C278.057 49.464 278.26 50.7813 278.665 51.592C279.121 52.4027 279.831 52.808 280.793 52.808C282.263 52.808 283.58 52.4533 284.745 51.744L284.897 51.668ZM263.997 54.252C265.821 54.252 267.519 53.8213 269.089 52.96C270.66 52.048 272.231 50.7813 273.801 49.16V32.44C272.585 30.768 271.243 29.476 269.773 28.564C268.304 27.652 266.531 27.196 264.453 27.196C261.261 27.196 258.728 28.336 256.853 30.616C255.029 32.8453 254.117 36.0373 254.117 40.192C254.117 42.9787 254.548 45.436 255.409 47.564C256.271 49.692 257.436 51.3387 258.905 52.504C260.425 53.6693 262.123 54.252 263.997 54.252ZM322.344 51.668C322.547 51.668 322.673 51.7947 322.724 52.048C322.825 52.2507 322.775 52.4027 322.572 52.504L313.68 56.684L313.376 56.76C312.869 56.76 312.388 56.1773 311.932 55.012C311.476 53.8467 311.248 52.3267 311.248 50.452V50.148C309.272 52.3773 307.296 54.024 305.32 55.088C303.344 56.1013 301.292 56.608 299.164 56.608C296.631 56.608 294.655 55.8227 293.236 54.252C291.817 52.6307 291.108 50.3 291.108 47.26V35.632C291.108 33.656 290.931 32.2373 290.576 31.376C290.221 30.464 289.639 30.008 288.828 30.008C288.119 30.008 287.257 30.2613 286.244 30.768H286.168C285.965 30.768 285.813 30.6413 285.712 30.388C285.611 30.084 285.661 29.9067 285.864 29.856L294.3 26.056L294.604 25.98C294.756 25.98 294.908 26.056 295.06 26.208C295.263 26.3093 295.364 26.436 295.364 26.588V44.752C295.364 50.6293 297.492 53.568 301.748 53.568C303.369 53.568 305.016 53.1627 306.688 52.352C308.36 51.4907 309.88 50.3253 311.248 48.856V35.632C311.248 33.6053 311.071 32.1613 310.716 31.3C310.412 30.4387 309.829 30.008 308.968 30.008C308.259 30.008 307.397 30.2613 306.384 30.768H306.308C306.105 30.768 305.953 30.6413 305.852 30.388C305.801 30.084 305.877 29.9067 306.08 29.856L314.516 26.056L314.744 25.98C314.896 25.98 315.048 26.056 315.2 26.208C315.403 26.3093 315.504 26.436 315.504 26.588V47.868C315.504 49.5907 315.707 50.832 316.112 51.592C316.517 52.352 317.201 52.732 318.164 52.732C319.025 52.732 320.368 52.3773 322.192 51.668H322.344ZM340.369 56.912C337.075 56.912 334.314 56.2027 332.085 54.784C329.855 53.3147 328.209 51.44 327.145 49.16C326.081 46.88 325.549 44.4733 325.549 41.94C325.549 38.6973 326.359 35.8853 327.981 33.504C329.602 31.072 331.679 29.2227 334.213 27.956C336.797 26.6387 339.431 25.98 342.117 25.98C344.346 25.98 346.373 26.436 348.197 27.348C350.071 28.2093 351.009 29.2987 351.009 30.616C351.009 31.2747 350.755 31.8573 350.249 32.364C349.793 32.82 349.159 33.048 348.349 33.048C346.981 33.048 345.866 32.212 345.005 30.54C344.346 29.5267 343.637 28.7667 342.876 28.26C342.117 27.7533 341.027 27.5 339.609 27.5C336.771 27.5 334.542 28.6147 332.921 30.844C331.35 33.0227 330.565 35.9613 330.565 39.66C330.565 43.916 331.629 47.412 333.757 50.148C335.885 52.884 339.077 54.252 343.333 54.252C346.423 54.252 349.007 53.416 351.085 51.744H351.161C351.313 51.744 351.439 51.82 351.541 51.972C351.693 52.124 351.718 52.2507 351.617 52.352C349.843 53.9227 348.045 55.088 346.221 55.848C344.447 56.5573 342.497 56.912 340.369 56.912ZM377.695 52.048C377.897 52.048 378.049 52.1747 378.151 52.428C378.252 52.6307 378.227 52.7827 378.075 52.884C376.2 54.3533 374.503 55.392 372.983 56C371.513 56.608 369.968 56.912 368.347 56.912C366.219 56.912 364.471 56.4307 363.103 55.468C361.735 54.5053 361.051 52.9093 361.051 50.68V32.82C361.051 31.5027 360.949 30.5653 360.747 30.008C360.595 29.4507 360.265 29.096 359.759 28.944C359.252 28.7413 358.391 28.64 357.175 28.64C356.972 28.64 356.871 28.488 356.871 28.184C356.871 27.8293 356.972 27.652 357.175 27.652C359.201 27.6013 360.848 27.0693 362.115 26.056C363.381 24.992 364.116 23.5987 364.319 21.876C364.319 21.724 364.521 21.648 364.927 21.648C365.281 21.648 365.459 21.724 365.459 21.876V27.5C367.992 27.4493 371.513 27.196 376.023 26.74C376.124 26.74 376.225 26.9427 376.327 27.348C376.479 27.7027 376.555 28.108 376.555 28.564C376.555 28.9693 376.453 29.4 376.251 29.856C376.099 30.2613 375.921 30.4387 375.719 30.388C372.932 29.6787 369.512 29.2733 365.459 29.172V48.096C365.459 50.1733 365.965 51.7187 366.979 52.732C368.043 53.7453 369.537 54.252 371.463 54.252C373.793 54.252 375.82 53.5427 377.543 52.124L377.695 52.048Z" fill="white"/>
<path d="M16.2 53.644L15.6786 54.4973L15.6855 54.5015L15.6925 54.5056L16.2 53.644ZM7.688 44.676L6.80078 45.1374L6.80448 45.1445L6.80829 45.1515L7.688 44.676ZM8.676 18.912L9.4905 19.4922L9.49419 19.4869L8.676 18.912ZM18.784 10.476L18.3727 9.56448L18.3685 9.5664L18.784 10.476ZM44.168 11.084L43.638 11.932L43.6466 11.9373L44.168 11.084ZM52.528 19.976L51.6409 20.4378L51.646 20.4472L52.528 19.976ZM42.04 53.568L41.5627 52.6893L41.5581 52.6918L42.04 53.568ZM40.748 52.808L40.2335 51.9505L40.2266 51.9547L40.748 52.808ZM47.284 45.436L46.3895 44.9887L46.384 45.0001L47.284 45.436ZM47.056 21.192L46.1543 21.6243L46.1543 21.6243L47.056 21.192ZM39.532 12.528L38.9865 13.3662L38.9926 13.37L39.532 12.528ZM15.212 14.808L14.4588 14.1502L14.4588 14.1502L15.212 14.808ZM13.16 42.7L12.2476 43.1094L12.2496 43.1138L13.16 42.7ZM20.608 51.972L20.0267 52.7858L20.0354 52.7918L20.608 51.972ZM28.816 55.912C24.2645 55.912 20.2376 54.8617 16.7075 52.7824L15.6925 54.5056C19.5597 56.7836 23.9435 57.912 28.816 57.912V55.912ZM16.7215 52.7907C13.2236 50.6532 10.5101 47.794 8.56771 44.2005L6.80829 45.1515C8.9192 49.0567 11.8804 52.1762 15.6786 54.4973L16.7215 52.7907ZM8.57522 44.2146C6.67639 40.5631 5.724 36.5929 5.724 32.288H3.724C3.724 36.9005 4.74761 41.1889 6.80078 45.1374L8.57522 44.2146ZM5.724 32.288C5.724 27.2452 6.99389 22.997 9.49049 19.4922L7.86151 18.3318C5.08878 22.2243 3.724 26.8935 3.724 32.288H5.724ZM9.49419 19.4869C12.0284 15.8806 15.2597 13.1853 19.1995 11.3856L18.3685 9.5664C14.1003 11.5161 10.5929 14.4448 7.85781 18.3371L9.49419 19.4869ZM19.1953 11.3875C23.2284 9.56769 27.3194 8.664 31.476 8.664V6.664C27.0193 6.664 22.649 7.63497 18.3727 9.56449L19.1953 11.3875ZM31.476 8.664C36.1249 8.664 40.1673 9.76282 43.638 11.932L44.698 10.236C40.8727 7.84517 36.4538 6.664 31.476 6.664V8.664ZM43.6466 11.9373C47.1435 14.0743 49.8018 16.9046 51.641 20.4377L53.415 19.5143C51.4035 15.65 48.4885 12.5524 44.6895 10.2307L43.6466 11.9373ZM51.646 20.4472C53.5453 24.0023 54.492 27.7673 54.492 31.756H56.492C56.492 27.4354 55.4627 23.347 53.41 19.5048L51.646 20.4472ZM54.492 31.756C54.492 36.1801 53.3283 40.2252 50.9985 43.914L52.6895 44.982C55.2237 40.9694 56.492 36.5532 56.492 31.756H54.492ZM50.9985 43.914C48.6602 47.6164 45.5205 50.5393 41.5627 52.6893L42.5173 54.4467C46.7675 52.138 50.1638 48.9809 52.6895 44.982L50.9985 43.914ZM41.5581 52.6918C37.6569 54.8374 33.4154 55.912 28.816 55.912V57.912C33.742 57.912 38.3165 56.7572 42.5219 54.4442L41.5581 52.6918ZM31.476 56.316C35.0911 56.316 38.3647 55.4364 41.2695 53.6613L40.2266 51.9547C37.6593 53.5236 34.7516 54.316 31.476 54.316V56.316ZM41.2625 53.6655C44.2338 51.8827 46.5381 49.2699 48.184 45.8719L46.384 45.0001C44.8886 48.0875 42.8356 50.3893 40.2335 51.9505L41.2625 53.6655ZM48.1784 45.8832C49.8833 42.4734 50.716 38.4629 50.716 33.884H48.716C48.716 38.2225 47.9273 41.9132 46.3896 44.9888L48.1784 45.8832ZM50.716 33.884C50.716 28.9957 49.8054 24.6134 47.9577 20.7597L46.1543 21.6243C47.8533 25.1679 48.716 29.2469 48.716 33.884H50.716ZM47.9577 20.7597C46.1095 16.9048 43.4809 13.8701 40.0714 11.686L38.9926 13.37C42.0685 15.3405 44.4558 18.0819 46.1543 21.6243L47.9577 20.7597ZM40.0775 11.6899C36.7026 9.4935 32.7582 8.412 28.284 8.412V10.412C32.4231 10.412 35.9774 11.4078 38.9865 13.3661L40.0775 11.6899ZM28.284 8.412C22.4752 8.412 17.8224 10.2983 14.4588 14.1502L15.9652 15.4657C18.8843 12.123 22.9462 10.412 28.284 10.412V8.412ZM14.4588 14.1502C11.1138 17.9808 9.5 23.1811 9.5 29.628H11.5C11.5 23.5096 13.0276 18.8299 15.9652 15.4657L14.4588 14.1502ZM9.5 29.628C9.5 34.5176 10.411 39.0163 12.2476 43.1094L14.0724 42.2906C12.3623 38.4797 11.5 34.2637 11.5 29.628H9.5ZM12.2496 43.1138C14.0887 47.1598 16.6788 50.3943 20.0268 52.7857L21.1892 51.1583C18.1532 48.9897 15.7779 46.0428 14.0704 42.2862L12.2496 43.1138ZM20.0354 52.7918C23.4025 55.1435 27.2268 56.316 31.476 56.316V54.316C27.6185 54.316 24.1975 53.2592 21.1806 51.1522L20.0354 52.7918ZM96.5795 52.048L95.5989 52.2441L95.6252 52.3754L95.6851 52.4952L96.5795 52.048ZM96.4275 52.504L96.8529 53.409L96.8639 53.4038L96.8747 53.3984L96.4275 52.504ZM87.5355 56.684L87.778 57.6541L87.8727 57.6305L87.9609 57.589L87.5355 56.684ZM87.2315 56.76V57.76H87.3546L87.474 57.7301L87.2315 56.76ZM85.7875 55.012L84.8563 55.3764L85.7875 55.012ZM85.1035 50.148H86.1035V47.5122L84.3552 49.4847L85.1035 50.148ZM79.1755 55.088L79.6318 55.9778L79.6408 55.9732L79.6496 55.9685L79.1755 55.088ZM67.0915 54.252L66.3389 54.9105L66.3441 54.9164L66.3494 54.9223L67.0915 54.252ZM64.4315 31.376L63.4995 31.7384L63.5031 31.7476L63.5068 31.7567L64.4315 31.376ZM60.0995 30.768V31.768H60.3356L60.5467 31.6624L60.0995 30.768ZM59.5675 30.388L58.6188 30.7042L58.6281 30.7321L58.639 30.7594L59.5675 30.388ZM59.7195 29.856L59.962 30.8261L60.0487 30.8045L60.1302 30.7678L59.7195 29.856ZM68.1555 26.056L67.913 25.0859L67.8263 25.1075L67.7448 25.1442L68.1555 26.056ZM68.4595 25.98V24.98H68.3364L68.217 25.0099L68.4595 25.98ZM68.9155 26.208L68.2084 26.9151L68.3231 27.0299L68.4683 27.1024L68.9155 26.208ZM80.5435 52.352L80.9798 53.2518L80.9907 53.2465L81.0015 53.241L80.5435 52.352ZM85.1035 48.856L85.8354 49.5374L86.1035 49.2495V48.856H85.1035ZM84.5715 31.3L83.6285 31.6328L83.6371 31.657L83.6468 31.6807L84.5715 31.3ZM80.2395 30.768V31.768H80.4756L80.6867 31.6624L80.2395 30.768ZM79.7075 30.388L78.7211 30.5524L78.7389 30.659L78.779 30.7594L79.7075 30.388ZM79.9355 29.856L80.178 30.8261L80.2647 30.8045L80.3462 30.7678L79.9355 29.856ZM88.3715 26.056L88.0553 25.1073L88.0071 25.1234L87.9608 25.1442L88.3715 26.056ZM88.5995 25.98V24.98H88.4372L88.2833 25.0313L88.5995 25.98ZM89.0555 26.208L88.3484 26.9151L88.4631 27.0299L88.6083 27.1024L89.0555 26.208ZM89.9675 51.592L90.8499 51.1214L90.8499 51.1214L89.9675 51.592ZM96.0475 51.668V50.668H95.8599L95.6851 50.736L96.0475 51.668ZM96.1995 52.668C96.0736 52.668 95.8888 52.6196 95.7394 52.4701C95.6141 52.3448 95.596 52.2295 95.5989 52.2441L97.5601 51.8519C97.5123 51.6132 97.4056 51.3079 97.1536 51.0559C96.8775 50.7798 96.5281 50.668 96.1995 50.668V52.668ZM95.6851 52.4952C95.6668 52.4587 95.5807 52.2621 95.6688 51.9978C95.7569 51.7334 95.9438 51.6278 95.9803 51.6096L96.8747 53.3984C97.1139 53.2788 97.4274 53.0466 97.5662 52.6302C97.705 52.2139 97.5935 51.84 97.4739 51.6008L95.6851 52.4952ZM96.0021 51.599L87.1101 55.779L87.9609 57.589L96.8529 53.409L96.0021 51.599ZM87.293 55.7139L86.989 55.7899L87.474 57.7301L87.778 57.6541L87.293 55.7139ZM87.2315 55.76C87.3994 55.76 87.4076 55.863 87.2615 55.6861C87.1181 55.5126 86.9299 55.1873 86.7187 54.6476L84.8563 55.3764C85.1011 56.002 85.3816 56.5508 85.7195 56.9599C86.0548 57.3657 86.5569 57.76 87.2315 57.76V55.76ZM86.7187 54.6476C86.3249 53.6412 86.1035 52.2581 86.1035 50.452H84.1035C84.1035 52.3953 84.3381 54.0522 84.8563 55.3764L86.7187 54.6476ZM86.1035 50.452V50.148H84.1035V50.452H86.1035ZM84.3552 49.4847C82.4331 51.6532 80.5462 53.2142 78.7014 54.2075L79.6496 55.9685C81.7568 54.8338 83.8219 53.1015 85.8518 50.8113L84.3552 49.4847ZM78.7192 54.1982C76.878 55.1424 74.9818 55.608 73.0195 55.608V57.608C75.3132 57.608 77.521 57.0603 79.6318 55.9778L78.7192 54.1982ZM73.0195 55.608C70.7084 55.608 69.0255 54.9013 67.8336 53.5817L66.3494 54.9223C67.9948 56.744 70.264 57.608 73.0195 57.608V55.608ZM67.8441 53.5935C66.6398 52.2171 65.9635 50.1566 65.9635 47.26H63.9635C63.9635 50.4434 64.7059 53.0442 66.3389 54.9105L67.8441 53.5935ZM65.9635 47.26V35.632H63.9635V47.26H65.9635ZM65.9635 35.632C65.9635 33.639 65.7907 32.0505 65.3562 30.9952L63.5068 31.7567C63.7817 32.4242 63.9635 33.673 63.9635 35.632H65.9635ZM65.3635 31.0136C65.1415 30.4426 64.8163 29.9315 64.3448 29.5625C63.8605 29.1834 63.2895 29.008 62.6835 29.008V31.008C62.8881 31.008 63.0139 31.0606 63.1122 31.1375C63.2234 31.2245 63.3669 31.3974 63.4995 31.7384L65.3635 31.0136ZM62.6835 29.008C61.7532 29.008 60.7304 29.3345 59.6523 29.8736L60.5467 31.6624C61.4952 31.1882 62.1951 31.008 62.6835 31.008V29.008ZM60.0995 29.768H60.0235V31.768H60.0995V29.768ZM60.0235 29.768C60.0787 29.768 60.1458 29.7769 60.2173 29.8025C60.2892 29.8282 60.35 29.8651 60.3977 29.9048C60.4884 29.9804 60.5072 30.0446 60.496 30.0166L58.639 30.7594C58.7291 30.9847 58.8746 31.239 59.1173 31.4412C59.3777 31.6582 59.6944 31.768 60.0235 31.768V29.768ZM60.5162 30.0718C60.4877 29.9862 60.5486 30.1001 60.491 30.3017C60.4565 30.4225 60.3844 30.5536 60.265 30.661C60.1507 30.7639 60.0345 30.808 59.962 30.8261L59.477 28.8859C59.0842 28.984 58.7062 29.2685 58.568 29.7523C58.4597 30.1312 58.546 30.4858 58.6188 30.7042L60.5162 30.0718ZM60.1302 30.7678L68.5662 26.9678L67.7448 25.1442L59.3088 28.9442L60.1302 30.7678ZM68.398 27.0261L68.702 26.9501L68.217 25.0099L67.913 25.0859L68.398 27.0261ZM68.4595 26.98C68.3627 26.98 68.2866 26.9546 68.2403 26.9314C68.1986 26.9106 68.1892 26.8959 68.2084 26.9151L69.6226 25.5009C69.3616 25.2399 68.9703 24.98 68.4595 24.98V26.98ZM68.4683 27.1024C68.4882 27.1124 68.4308 27.0889 68.3626 27.0037C68.2817 26.9025 68.2195 26.7549 68.2195 26.588H70.2195C70.2195 25.8864 69.7181 25.4913 69.3627 25.3136L68.4683 27.1024ZM68.2195 26.588V44.752H70.2195V26.588H68.2195ZM68.2195 44.752C68.2195 47.7815 68.7626 50.234 70.0056 51.9505C71.2919 53.7268 73.2181 54.568 75.6035 54.568V52.568C73.7329 52.568 72.4671 51.9398 71.6254 50.7775C70.7404 49.5553 70.2195 47.5998 70.2195 44.752H68.2195ZM75.6035 54.568C77.3966 54.568 79.1917 54.1188 80.9798 53.2518L80.1072 51.4522C78.5513 52.2066 77.0531 52.568 75.6035 52.568V54.568ZM81.0015 53.241C82.7828 52.3233 84.3941 51.0855 85.8354 49.5374L84.3716 48.1746C83.0769 49.5652 81.6482 50.658 80.0855 51.463L81.0015 53.241ZM86.1035 48.856V35.632H84.1035V48.856H86.1035ZM86.1035 35.632C86.1035 33.5923 85.9314 31.9762 85.4962 30.9192L83.6468 31.6807C83.9209 32.3465 84.1035 33.6183 84.1035 35.632H86.1035ZM85.5145 30.9672C85.3133 30.3972 84.9902 29.8885 84.5009 29.5268C84.0068 29.1616 83.4266 29.008 82.8235 29.008V31.008C83.0818 31.008 83.2235 31.0697 83.3121 31.1352C83.4054 31.2041 83.5257 31.3414 83.6285 31.6328L85.5145 30.9672ZM82.8235 29.008C81.8932 29.008 80.8704 29.3345 79.7923 29.8736L80.6867 31.6624C81.6352 31.1882 82.3351 31.008 82.8235 31.008V29.008ZM80.2395 29.768H80.1635V31.768H80.2395V29.768ZM80.1635 29.768C80.2187 29.768 80.2858 29.7769 80.3573 29.8025C80.4292 29.8282 80.49 29.8651 80.5377 29.9048C80.6284 29.9804 80.6472 30.0446 80.636 30.0166L78.779 30.7594C78.8691 30.9847 79.0146 31.239 79.2573 31.4412C79.5177 31.6582 79.8344 31.768 80.1635 31.768V29.768ZM80.6939 30.2236C80.6829 30.1576 80.7156 30.2577 80.6456 30.4209C80.606 30.5135 80.539 30.6111 80.4405 30.6917C80.3442 30.7705 80.2476 30.8087 80.178 30.8261L79.693 28.8859C79.3175 28.9797 78.9798 29.2307 78.8074 29.6331C78.6614 29.9736 78.6814 30.3144 78.7211 30.5524L80.6939 30.2236ZM80.3462 30.7678L88.7822 26.9678L87.9608 25.1442L79.5248 28.9442L80.3462 30.7678ZM88.6877 27.0047L88.9157 26.9287L88.2833 25.0313L88.0553 25.1073L88.6877 27.0047ZM88.5995 26.98C88.5027 26.98 88.4266 26.9546 88.3803 26.9314C88.3386 26.9106 88.3292 26.8959 88.3484 26.9151L89.7626 25.5009C89.5016 25.2399 89.1103 24.98 88.5995 24.98V26.98ZM88.6083 27.1024C88.6282 27.1124 88.5708 27.0889 88.5026 27.0037C88.4217 26.9025 88.3595 26.7549 88.3595 26.588H90.3595C90.3595 25.8864 89.8581 25.4913 89.5027 25.3136L88.6083 27.1024ZM88.3595 26.588V47.868H90.3595V26.588H88.3595ZM88.3595 47.868C88.3595 49.6217 88.5578 51.0738 89.0851 52.0626L90.8499 51.1214C90.5665 50.5902 90.3595 49.5596 90.3595 47.868H88.3595ZM89.0851 52.0626C89.369 52.5947 89.7717 53.0283 90.2989 53.3212C90.82 53.6107 91.407 53.732 92.0195 53.732V51.732C91.6694 51.732 91.433 51.6633 91.2701 51.5728C91.1133 51.4857 90.9714 51.3493 90.8499 51.1214L89.0851 52.0626ZM92.0195 53.732C93.0843 53.732 94.5802 53.3116 96.4099 52.6L95.6851 50.736C93.8668 51.4431 92.6773 51.732 92.0195 51.732V53.732ZM96.0475 52.668H96.1995V50.668H96.0475V52.668ZM120.76 26.892L120.245 27.7495L120.245 27.7495L120.76 26.892ZM121.596 30.768L120.889 30.0609L120.868 30.0817L120.849 30.1036L121.596 30.768ZM118.556 31.224L118.001 32.056L118.078 32.107L118.162 32.1431L118.556 31.224ZM117.416 30.388L116.752 31.1354L116.776 31.1572L116.802 31.1774L117.416 30.388ZM116.124 29.476L115.677 30.3704L115.677 30.3704L116.124 29.476ZM112.552 30.008L113.133 30.8218L113.143 30.8144L112.552 30.008ZM109.132 33.504L108.374 32.8515L108.132 33.1328V33.504H109.132ZM109.664 53.188L108.77 53.6352L108.782 53.66L108.796 53.6841L109.664 53.188ZM111.792 54.708L111.505 55.6658L111.527 55.6725L111.549 55.6781L111.792 54.708ZM112.628 55.924L112.681 54.9254L112.661 54.9244L112.641 54.9241L112.628 55.924ZM107.004 55.848L107.017 54.8481L107.002 54.8479L106.986 54.8482L107.004 55.848ZM102.824 55.924L102.806 54.9242L102.776 54.9247L102.747 54.9269L102.824 55.924ZM103.128 54.708L103.487 55.6413L103.517 55.6296L103.547 55.616L103.128 54.708ZM104.42 53.188L103.478 52.8517L103.467 52.8822L103.458 52.9133L104.42 53.188ZM104.192 31.072L103.31 31.5426L103.31 31.5426L104.192 31.072ZM98.036 31.072V32.072H98.2262L98.4031 32.0022L98.036 31.072ZM97.428 30.768L96.4474 30.9641L96.4737 31.0954L96.5335 31.2152L97.428 30.768ZM97.656 30.236L97.2275 29.3324L97.2181 29.3369L97.2088 29.3416L97.656 30.236ZM106.472 26.056L106.9 26.9596L106.91 26.9551L106.919 26.9504L106.472 26.056ZM108.372 27.728L109.289 27.3293L109.289 27.3293L108.372 27.728ZM109.132 32.288H108.132V34.9984L109.892 32.9375L109.132 32.288ZM114.072 27.348L114.65 28.164L114.661 28.1562L114.672 28.148L114.072 27.348ZM117.568 26.98C118.49 26.98 119.378 27.2289 120.245 27.7495L121.274 26.0345C120.115 25.3391 118.875 24.98 117.568 24.98V26.98ZM120.245 27.7495C121.083 28.2519 121.28 28.7108 121.28 29.096H123.28C123.28 27.7585 122.464 26.748 121.274 26.0345L120.245 27.7495ZM121.28 29.096C121.28 29.4958 121.153 29.7969 120.889 30.0609L122.303 31.4751C122.951 30.8271 123.28 30.0135 123.28 29.096H121.28ZM120.849 30.1036C120.69 30.2819 120.396 30.452 119.772 30.452V32.452C120.769 32.452 121.691 32.1661 122.343 31.4324L120.849 30.1036ZM119.772 30.452C119.427 30.452 119.16 30.3947 118.95 30.3049L118.162 32.1431C118.662 32.3573 119.205 32.452 119.772 32.452V30.452ZM119.111 30.3919C118.835 30.2082 118.476 29.9459 118.03 29.5986L116.802 31.1774C117.268 31.5395 117.669 31.8345 118.001 32.056L119.111 30.3919ZM118.08 29.6406C117.58 29.1957 117.077 28.8344 116.571 28.5816L115.677 30.3704C115.982 30.523 116.34 30.7697 116.752 31.1354L118.08 29.6406ZM116.571 28.5816C115.999 28.2953 115.358 28.172 114.68 28.172V30.172C115.117 30.172 115.439 30.2513 115.677 30.3704L116.571 28.5816ZM114.68 28.172C113.735 28.172 112.821 28.5708 111.961 29.2016L113.143 30.8144C113.803 30.3305 114.308 30.172 114.68 30.172V28.172ZM111.971 29.1943C111.149 29.7811 109.936 31.0376 108.374 32.8515L109.89 34.1565C111.469 32.3224 112.536 31.2483 113.133 30.8217L111.971 29.1943ZM108.132 33.504V49.844H110.132V33.504H108.132ZM108.132 49.844C108.132 51.402 108.307 52.7106 108.77 53.6352L110.558 52.7408C110.311 52.2467 110.132 51.326 110.132 49.844H108.132ZM108.796 53.6841C109.363 54.676 110.321 55.3106 111.505 55.6658L112.079 53.7502C111.237 53.4974 110.776 53.1187 110.532 52.6919L108.796 53.6841ZM111.549 55.6781C112.687 55.9627 114.36 56.088 116.504 56.088V54.088C114.392 54.088 112.923 53.96 112.035 53.7379L111.549 55.6781ZM116.504 56.088C116.429 56.088 116.315 56.0735 116.19 56.0109C116.06 55.9463 115.964 55.8523 115.9 55.7567C115.79 55.5921 115.808 55.4715 115.808 55.544H117.808C117.808 55.3125 117.775 54.9639 117.564 54.6473C117.305 54.2591 116.897 54.088 116.504 54.088V56.088ZM115.808 55.544C115.808 55.6165 115.79 55.4959 115.9 55.3313C115.964 55.2357 116.06 55.1417 116.19 55.0771C116.315 55.0145 116.429 55 116.504 55V57C116.897 57 117.305 56.8289 117.564 56.4407C117.775 56.1241 117.808 55.7755 117.808 55.544H115.808ZM116.504 55C114.89 55 113.618 54.9747 112.681 54.9254L112.575 56.9226C113.563 56.9746 114.875 57 116.504 57V55ZM112.641 54.9241L107.017 54.8481L106.99 56.8479L112.614 56.9239L112.641 54.9241ZM106.986 54.8482L102.806 54.9242L102.842 56.9238L107.022 56.8478L106.986 54.8482ZM102.747 54.9269C102.126 54.9747 101.244 55 100.088 55V57C101.263 57 102.204 56.9746 102.901 56.9211L102.747 54.9269ZM100.088 55C100.225 55 100.389 55.0371 100.543 55.1394C100.69 55.2376 100.771 55.3582 100.811 55.4388C100.878 55.5717 100.86 55.6449 100.86 55.544H98.86C98.86 55.7471 98.8801 56.0483 99.0225 56.3332C99.1009 56.4898 99.2293 56.6674 99.4335 56.8036C99.644 56.9439 99.875 57 100.088 57V55ZM100.86 55.544C100.86 55.4431 100.878 55.5163 100.811 55.6492C100.771 55.7298 100.69 55.8504 100.543 55.9486C100.389 56.0509 100.225 56.088 100.088 56.088V54.088C99.875 54.088 99.644 54.1441 99.4335 54.2844C99.2293 54.4206 99.1009 54.5982 99.0225 54.7548C98.8801 55.0397 98.86 55.3409 98.86 55.544H100.86ZM100.088 56.088C101.486 56.088 102.651 55.963 103.487 55.6413L102.769 53.7747C102.288 53.9597 101.426 54.088 100.088 54.088V56.088ZM103.547 55.616C104.475 55.1876 105.1 54.4466 105.381 53.4627L103.458 52.9133C103.334 53.3481 103.098 53.6204 102.709 53.8L103.547 55.616ZM105.362 53.5243C105.676 52.6453 105.8 51.3864 105.8 49.844H103.8C103.8 51.3416 103.671 52.3121 103.478 52.8517L105.362 53.5243ZM105.8 49.844V34.796H103.8V49.844H105.8ZM105.8 34.796C105.8 33.0423 105.602 31.5902 105.074 30.6014L103.31 31.5426C103.593 32.0738 103.8 33.1043 103.8 34.796H105.8ZM105.074 30.6014C104.791 30.0693 104.388 29.6357 103.861 29.3428C103.34 29.0533 102.753 28.932 102.14 28.932V30.932C102.49 30.932 102.726 31.0007 102.889 31.0912C103.046 31.1783 103.188 31.3147 103.31 31.5426L105.074 30.6014ZM102.14 28.932C101.116 28.932 99.5836 29.386 97.6688 30.1418L98.4031 32.0022C100.339 31.238 101.543 30.932 102.14 30.932V28.932ZM98.036 30.072H97.884V32.072H98.036V30.072ZM97.884 30.072C97.9576 30.072 98.0667 30.0933 98.1727 30.1639C98.2724 30.2304 98.3137 30.3035 98.3224 30.3208L96.5335 31.2152C96.6435 31.4352 96.8115 31.6602 97.0633 31.828C97.3213 32 97.6077 32.072 97.884 32.072V30.072ZM98.4085 30.5719C98.4097 30.5775 98.4307 30.6881 98.3661 30.8389C98.2952 31.0044 98.1746 31.0947 98.1032 31.1304L97.2088 29.3416C96.9347 29.4786 96.6748 29.7082 96.5278 30.0511C96.3872 30.3792 96.3956 30.7051 96.4474 30.9641L98.4085 30.5719ZM98.0844 31.1396L106.9 26.9596L106.044 25.1524L97.2275 29.3324L98.0844 31.1396ZM106.919 26.9504C106.885 26.9673 106.859 26.9762 106.845 26.9806C106.83 26.985 106.823 26.9859 106.826 26.9854C106.829 26.9849 106.839 26.9835 106.857 26.9822C106.874 26.9809 106.898 26.98 106.928 26.98V24.98C106.674 24.98 106.335 25.0064 106.025 25.1616L106.919 26.9504ZM106.928 26.98C106.708 26.98 106.687 26.8448 106.86 27.0539C107.014 27.2406 107.217 27.58 107.455 28.1267L109.289 27.3293C109.02 26.7106 108.729 26.1761 108.402 25.7801C108.093 25.4065 107.604 24.98 106.928 24.98V26.98ZM107.455 28.1267C107.888 29.124 108.132 30.4701 108.132 32.212H110.132C110.132 30.3059 109.869 28.6627 109.289 27.3293L107.455 28.1267ZM108.132 32.212V32.288H110.132V32.212H108.132ZM109.892 32.9375C111.963 30.5136 113.542 28.9488 114.65 28.164L113.494 26.532C112.17 27.4698 110.456 29.1984 108.372 31.6385L109.892 32.9375ZM114.672 28.148C115.777 27.3193 116.736 26.98 117.568 26.98V24.98C116.17 24.98 114.799 25.5527 113.472 26.548L114.672 28.148ZM157.364 53.112L156.482 53.5826L156.501 53.6185L156.523 53.6528L157.364 53.112ZM159.872 54.632L159.63 55.6022L159.639 55.6044L159.872 54.632ZM160.936 55.924L160.98 54.9249L160.964 54.9242L160.948 54.9241L160.936 55.924ZM154.324 55.848L154.336 54.8481L154.322 54.8479L154.309 54.8481L154.324 55.848ZM149.232 55.924L149.217 54.9241L149.198 54.9244L149.18 54.9254L149.232 55.924ZM149.536 54.708L149.268 53.7445L149.261 53.7465L149.254 53.7486L149.536 54.708ZM151.36 53.264L152.279 53.6579L152.284 53.6467L152.289 53.6354L151.36 53.264ZM151.36 11.312L150.441 11.7059L150.441 11.7059L151.36 11.312ZM149.536 9.868L149.203 10.811L149.235 10.8224L149.268 10.8315L149.536 9.868ZM145.356 8.5L145.376 7.5002L145.366 7.5H145.356V8.5ZM149.156 8.576L149.204 7.57713L149.19 7.57647L149.176 7.5762L149.156 8.576ZM158.504 8.5V7.5H158.456L158.408 7.50465L158.504 8.5ZM161.392 8.424L161.43 9.42326L161.45 9.42252L161.469 9.42105L161.392 8.424ZM175.984 11.388L175.386 12.1898L175.393 12.1949L175.984 11.388ZM177.732 29.324L176.926 28.7326L176.921 28.7385L176.917 28.7445L177.732 29.324ZM171.424 34.416L171.82 35.3342L171.82 35.3342L171.424 34.416ZM159.796 35.708L160.051 34.7409L159.925 34.708H159.796V35.708ZM159.644 34.872L158.812 34.3173L158.738 34.4287L158.695 34.5558L159.644 34.872ZM159.948 34.72L159.501 35.6144L159.599 35.6635L159.706 35.6901L159.948 34.72ZM171.12 31.756L170.437 31.0254L170.429 31.033L171.12 31.756ZM171.348 12.908L170.617 13.5909L170.625 13.5989L171.348 12.908ZM159.036 9.716L159.279 10.6861L159.279 10.6861L159.036 9.716ZM157.288 11.16L158.182 11.6072L158.189 11.5951L158.194 11.5829L157.288 11.16ZM155.756 49.54C155.756 51.2046 155.957 52.5994 156.482 53.5826L158.246 52.6414C157.96 52.1046 157.756 51.1181 157.756 49.54H155.756ZM156.523 53.6528C157.171 54.6603 158.285 55.2659 159.63 55.6021L160.115 53.6619C159.027 53.3901 158.47 52.9824 158.205 52.5712L156.523 53.6528ZM159.639 55.6044C161.026 55.9373 163.101 56.088 165.8 56.088V54.088C163.129 54.088 161.251 53.9347 160.105 53.6596L159.639 55.6044ZM165.8 56.088C165.663 56.088 165.499 56.0509 165.345 55.9485C165.198 55.8504 165.117 55.7298 165.077 55.6492C165.01 55.5163 165.028 55.4431 165.028 55.544H167.028C167.028 55.3409 167.008 55.0397 166.865 54.7548C166.787 54.5982 166.659 54.4206 166.455 54.2845C166.244 54.1441 166.013 54.088 165.8 54.088V56.088ZM165.028 55.544C165.028 55.6449 165.01 55.5717 165.077 55.4388C165.117 55.3582 165.198 55.2376 165.345 55.1395C165.499 55.0371 165.663 55 165.8 55V57C166.013 57 166.244 56.9439 166.455 56.8035C166.659 56.6674 166.787 56.4898 166.865 56.3332C167.008 56.0483 167.028 55.7471 167.028 55.544H165.028ZM165.8 55C163.728 55 162.123 54.9747 160.98 54.9249L160.893 56.9231C162.079 56.9747 163.718 57 165.8 57V55ZM160.948 54.9241L154.336 54.8481L154.313 56.8479L160.925 56.9239L160.948 54.9241ZM154.309 54.8481L149.217 54.9241L149.247 56.9239L154.339 56.8479L154.309 54.8481ZM149.18 54.9254C148.242 54.9747 146.97 55 145.356 55V57C146.985 57 148.297 56.9746 149.285 56.9226L149.18 54.9254ZM145.356 55C145.613 55 145.841 55.1085 145.997 55.2644C146.128 55.3957 146.176 55.5268 146.191 55.5698C146.218 55.6501 146.204 55.6668 146.204 55.544H144.204C144.204 55.7252 144.216 55.9699 144.293 56.2022C144.362 56.4089 144.641 57 145.356 57V55ZM146.204 55.544C146.204 55.4212 146.218 55.4379 146.191 55.5182C146.176 55.5612 146.128 55.6923 145.997 55.8236C145.841 55.9795 145.613 56.088 145.356 56.088V54.088C144.641 54.088 144.362 54.6791 144.293 54.8858C144.216 55.1181 144.204 55.3628 144.204 55.544H146.204ZM145.356 56.088C147.294 56.088 148.81 55.9639 149.818 55.6674L149.254 53.7486C148.54 53.9587 147.269 54.088 145.356 54.088V56.088ZM149.804 55.6715C150.935 55.3573 151.829 54.709 152.279 53.6579L150.441 52.8701C150.283 53.2376 149.961 53.5521 149.268 53.7445L149.804 55.6715ZM152.289 53.6354C152.665 52.6955 152.816 51.4012 152.816 49.844H150.816C150.816 51.3268 150.664 52.3125 150.432 52.8926L152.289 53.6354ZM152.816 49.844V14.656H150.816V49.844H152.816ZM152.816 14.656C152.816 13.1064 152.667 11.8219 152.279 10.9181L150.441 11.7059C150.662 12.2208 150.816 13.1656 150.816 14.656H152.816ZM152.279 10.9181C151.829 9.86696 150.935 9.21873 149.804 8.90448L149.268 10.8315C149.961 11.0239 150.283 11.3384 150.441 11.7059L152.279 10.9181ZM149.869 8.92501C148.837 8.56072 147.298 8.412 145.356 8.412V10.412C147.265 10.412 148.513 10.5673 149.203 10.811L149.869 8.92501ZM145.356 8.412C145.613 8.412 145.841 8.52048 145.997 8.67639C146.128 8.80774 146.176 8.93882 146.191 8.98177C146.218 9.06211 146.204 9.07881 146.204 8.956H144.204C144.204 9.13718 144.216 9.38189 144.293 9.61423C144.362 9.82088 144.641 10.412 145.356 10.412V8.412ZM146.204 8.956C146.204 8.83318 146.218 8.84989 146.191 8.93023C146.176 8.97318 146.128 9.10426 145.997 9.23561C145.841 9.39152 145.613 9.5 145.356 9.5V7.5C144.641 7.5 144.362 8.09112 144.293 8.29777C144.216 8.53011 144.204 8.77482 144.204 8.956H146.204ZM145.336 9.4998L149.136 9.5758L149.176 7.5762L145.376 7.5002L145.336 9.4998ZM149.108 9.57487C151.243 9.67652 152.958 9.728 154.248 9.728V7.728C153.004 7.728 151.325 7.67814 149.204 7.57713L149.108 9.57487ZM154.248 9.728C155.554 9.728 157.005 9.64973 158.6 9.49535L158.408 7.50465C156.862 7.65427 155.476 7.728 154.248 7.728V9.728ZM158.504 9.5C159.133 9.5 160.112 9.47399 161.43 9.42326L161.354 7.42474C160.038 7.47534 159.092 7.5 158.504 7.5V9.5ZM161.469 9.42105C162.769 9.32102 163.882 9.272 164.812 9.272V7.272C163.816 7.272 162.65 7.32431 161.315 7.42694L161.469 9.42105ZM164.812 9.272C169.331 9.272 172.823 10.2787 175.386 12.1897L176.582 10.5863C173.572 8.34262 169.616 7.272 164.812 7.272V9.272ZM175.393 12.1949C177.918 14.0433 179.24 16.8753 179.24 20.888H181.24C181.24 16.3887 179.725 12.8874 176.575 10.5811L175.393 12.1949ZM179.24 20.888C179.24 24.0593 178.45 26.6538 176.926 28.7326L178.538 29.9154C180.358 27.4341 181.24 24.4046 181.24 20.888H179.24ZM176.917 28.7445C175.402 30.8745 173.445 32.4551 171.028 33.4978L171.82 35.3342C174.571 34.1475 176.819 32.3335 178.547 29.9035L176.917 28.7445ZM171.028 33.4978C168.565 34.5601 166.04 35.088 163.444 35.088V37.088C166.32 37.088 169.115 36.5013 171.82 35.3342L171.028 33.4978ZM163.444 35.088C162.024 35.088 160.901 34.9647 160.051 34.7409L159.542 36.6751C160.617 36.958 161.925 37.088 163.444 37.088V35.088ZM159.796 34.708C159.9 34.708 160.039 34.7307 160.182 34.8101C160.326 34.8903 160.423 35.0001 160.483 35.0985C160.583 35.2655 160.568 35.3873 160.568 35.328H158.568C158.568 35.522 158.591 35.8338 158.768 36.1275C158.993 36.5026 159.381 36.708 159.796 36.708V34.708ZM160.568 35.328C160.568 35.2892 160.574 35.2438 160.593 35.1882L158.695 34.5558C158.613 34.8042 158.568 35.0628 158.568 35.328H160.568ZM160.476 35.4267C160.474 35.4294 160.459 35.4522 160.427 35.4841C160.396 35.5156 160.336 35.5682 160.243 35.6144C160.146 35.6629 160.019 35.701 159.872 35.701C159.725 35.701 159.598 35.6629 159.501 35.6144L160.395 33.8256C160.063 33.6595 159.681 33.6595 159.349 33.8256C159.075 33.9626 158.906 34.1762 158.812 34.3173L160.476 35.4267ZM159.706 35.6901C160.61 35.9163 161.606 36.024 162.684 36.024V34.024C161.736 34.024 160.907 33.929 160.191 33.7499L159.706 35.6901ZM162.684 36.024C166.268 36.024 169.333 34.8469 171.811 32.479L170.429 31.033C168.347 33.0224 165.788 34.024 162.684 34.024V36.024ZM171.803 32.4865C174.39 30.0682 175.616 26.6291 175.616 22.332H173.616C173.616 26.2429 172.512 29.0864 170.437 31.0255L171.803 32.4865ZM175.616 22.332C175.616 18.1443 174.472 14.7296 172.071 12.2171L170.625 13.5989C172.582 15.6464 173.616 18.5144 173.616 22.332H175.616ZM172.079 12.2251C169.698 9.67808 166.64 8.412 162.988 8.412V10.412C166.126 10.412 168.641 11.4766 170.618 13.5909L172.079 12.2251ZM162.988 8.412C161.155 8.412 159.732 8.51123 158.794 8.74586L159.279 10.6861C159.961 10.5154 161.173 10.412 162.988 10.412V8.412ZM158.794 8.74586C157.689 9.02193 156.863 9.70518 156.382 10.7371L158.194 11.5829C158.422 11.0948 158.762 10.8154 159.279 10.6861L158.794 8.74586ZM156.394 10.7128C155.926 11.6478 155.756 13.0711 155.756 14.808H157.756C157.756 13.0996 157.941 12.0908 158.182 11.6072L156.394 10.7128ZM155.756 14.808V49.54H157.756V14.808H155.756ZM207.373 26.892L206.859 27.7495L206.859 27.7495L207.373 26.892ZM208.209 30.768L207.502 30.0609L207.481 30.0817L207.462 30.1036L208.209 30.768ZM205.169 31.224L204.615 32.056L204.691 32.107L204.775 32.1431L205.169 31.224ZM204.029 30.388L203.365 31.1354L203.389 31.1572L203.415 31.1774L204.029 30.388ZM202.737 29.476L202.29 30.3704L202.29 30.3704L202.737 29.476ZM199.165 30.008L199.747 30.8218L199.757 30.8144L199.165 30.008ZM195.745 33.504L194.987 32.8515L194.745 33.1328V33.504H195.745ZM196.277 53.188L195.383 53.6352L195.395 53.66L195.409 53.6841L196.277 53.188ZM198.405 54.708L198.118 55.6658L198.14 55.6725L198.163 55.6781L198.405 54.708ZM199.241 55.924L199.294 54.9254L199.274 54.9244L199.255 54.9241L199.241 55.924ZM193.617 55.848L193.631 54.8481L193.615 54.8479L193.599 54.8482L193.617 55.848ZM189.437 55.924L189.419 54.9242L189.39 54.9247L189.361 54.9269L189.437 55.924ZM189.741 54.708L190.1 55.6413L190.131 55.6296L190.16 55.616L189.741 54.708ZM191.033 53.188L190.092 52.8517L190.081 52.8822L190.072 52.9133L191.033 53.188ZM190.805 31.072L189.923 31.5426L189.923 31.5426L190.805 31.072ZM184.649 31.072V32.072H184.839L185.016 32.0022L184.649 31.072ZM184.041 30.768L183.061 30.9641L183.087 31.0954L183.147 31.2152L184.041 30.768ZM184.269 30.236L183.841 29.3324L183.831 29.3369L183.822 29.3416L184.269 30.236ZM193.085 26.056L193.514 26.9596L193.523 26.9551L193.532 26.9504L193.085 26.056ZM194.985 27.728L195.902 27.3293L195.902 27.3293L194.985 27.728ZM195.745 32.288H194.745V34.9984L196.506 32.9375L195.745 32.288ZM200.685 27.348L201.263 28.164L201.274 28.1562L201.285 28.148L200.685 27.348ZM204.181 26.98C205.104 26.98 205.991 27.2289 206.859 27.7495L207.888 26.0345C206.729 25.3391 205.488 24.98 204.181 24.98V26.98ZM206.859 27.7495C207.696 28.2519 207.893 28.7108 207.893 29.096H209.893C209.893 27.7585 209.077 26.748 207.888 26.0345L206.859 27.7495ZM207.893 29.096C207.893 29.4958 207.766 29.7969 207.502 30.0609L208.916 31.4751C209.564 30.8271 209.893 30.0135 209.893 29.096H207.893ZM207.462 30.1036C207.303 30.2819 207.009 30.452 206.385 30.452V32.452C207.383 32.452 208.304 32.1661 208.957 31.4324L207.462 30.1036ZM206.385 30.452C206.04 30.452 205.773 30.3947 205.563 30.3049L204.775 32.1431C205.275 32.3573 205.818 32.452 206.385 32.452V30.452ZM205.724 30.3919C205.448 30.2082 205.09 29.9459 204.643 29.5986L203.415 31.1774C203.881 31.5395 204.282 31.8345 204.615 32.056L205.724 30.3919ZM204.694 29.6406C204.193 29.1957 203.69 28.8344 203.184 28.5816L202.29 30.3704C202.595 30.523 202.953 30.7697 203.365 31.1354L204.694 29.6406ZM203.184 28.5816C202.612 28.2953 201.971 28.172 201.293 28.172V30.172C201.73 30.172 202.052 30.2513 202.29 30.3704L203.184 28.5816ZM201.293 28.172C200.348 28.172 199.434 28.5708 198.574 29.2016L199.757 30.8144C200.416 30.3305 200.921 30.172 201.293 30.172V28.172ZM198.584 29.1943C197.762 29.7811 196.549 31.0376 194.987 32.8515L196.503 34.1565C198.082 32.3224 199.149 31.2483 199.746 30.8217L198.584 29.1943ZM194.745 33.504V49.844H196.745V33.504H194.745ZM194.745 49.844C194.745 51.402 194.921 52.7106 195.383 53.6352L197.172 52.7408C196.925 52.2467 196.745 51.326 196.745 49.844H194.745ZM195.409 53.6841C195.976 54.676 196.934 55.3106 198.118 55.6658L198.693 53.7502C197.85 53.4974 197.389 53.1187 197.145 52.6919L195.409 53.6841ZM198.163 55.6781C199.301 55.9627 200.974 56.088 203.117 56.088V54.088C201.005 54.088 199.536 53.96 198.648 53.7379L198.163 55.6781ZM203.117 56.088C203.042 56.088 202.928 56.0735 202.803 56.0109C202.674 55.9463 202.577 55.8523 202.513 55.7567C202.403 55.5921 202.421 55.4715 202.421 55.544H204.421C204.421 55.3125 204.388 54.9639 204.177 54.6473C203.918 54.2591 203.51 54.088 203.117 54.088V56.088ZM202.421 55.544C202.421 55.6165 202.403 55.4959 202.513 55.3313C202.577 55.2357 202.674 55.1417 202.803 55.0771C202.928 55.0145 203.042 55 203.117 55V57C203.51 57 203.918 56.8289 204.177 56.4407C204.388 56.1241 204.421 55.7755 204.421 55.544H202.421ZM203.117 55C201.503 55 200.231 54.9747 199.294 54.9254L199.189 56.9226C200.177 56.9746 201.488 57 203.117 57V55ZM199.255 54.9241L193.631 54.8481L193.604 56.8479L199.228 56.9239L199.255 54.9241ZM193.599 54.8482L189.419 54.9242L189.455 56.9238L193.635 56.8478L193.599 54.8482ZM189.361 54.9269C188.74 54.9747 187.857 55 186.701 55V57C187.876 57 188.818 56.9746 189.514 56.9211L189.361 54.9269ZM186.701 55C186.838 55 187.003 55.0371 187.156 55.1394C187.303 55.2376 187.384 55.3582 187.425 55.4388C187.491 55.5717 187.473 55.6449 187.473 55.544H185.473C185.473 55.7471 185.493 56.0483 185.636 56.3332C185.714 56.4898 185.843 56.6674 186.047 56.8036C186.257 56.9439 186.488 57 186.701 57V55ZM187.473 55.544C187.473 55.4431 187.491 55.5163 187.425 55.6492C187.384 55.7298 187.303 55.8504 187.156 55.9486C187.003 56.0509 186.838 56.088 186.701 56.088V54.088C186.488 54.088 186.257 54.1441 186.047 54.2844C185.843 54.4206 185.714 54.5982 185.636 54.7548C185.493 55.0397 185.473 55.3409 185.473 55.544H187.473ZM186.701 56.088C188.099 56.088 189.264 55.963 190.1 55.6413L189.382 53.7747C188.901 53.9597 188.04 54.088 186.701 54.088V56.088ZM190.16 55.616C191.088 55.1876 191.714 54.4466 191.995 53.4627L190.072 52.9133C189.948 53.3481 189.711 53.6204 189.322 53.8L190.16 55.616ZM191.975 53.5243C192.289 52.6453 192.413 51.3864 192.413 49.844H190.413C190.413 51.3416 190.284 52.3121 190.092 52.8517L191.975 53.5243ZM192.413 49.844V34.796H190.413V49.844H192.413ZM192.413 34.796C192.413 33.0423 192.215 31.5902 191.688 30.6014L189.923 31.5426C190.206 32.0738 190.413 33.1043 190.413 34.796H192.413ZM191.688 30.6014C191.404 30.0693 191.001 29.6357 190.474 29.3428C189.953 29.0533 189.366 28.932 188.753 28.932V30.932C189.103 30.932 189.34 31.0007 189.503 31.0912C189.659 31.1783 189.801 31.3147 189.923 31.5426L191.688 30.6014ZM188.753 28.932C187.729 28.932 186.197 29.386 184.282 30.1418L185.016 32.0022C186.952 31.238 188.156 30.932 188.753 30.932V28.932ZM184.649 30.072H184.497V32.072H184.649V30.072ZM184.497 30.072C184.571 30.072 184.68 30.0933 184.786 30.1639C184.886 30.2304 184.927 30.3035 184.936 30.3208L183.147 31.2152C183.257 31.4352 183.425 31.6602 183.677 31.828C183.935 32 184.221 32.072 184.497 32.072V30.072ZM185.022 30.5719C185.023 30.5775 185.044 30.6881 184.979 30.8389C184.908 31.0044 184.788 31.0947 184.716 31.1304L183.822 29.3416C183.548 29.4786 183.288 29.7082 183.141 30.0511C183 30.3792 183.009 30.7051 183.061 30.9641L185.022 30.5719ZM184.698 31.1396L193.514 26.9596L192.657 25.1524L183.841 29.3324L184.698 31.1396ZM193.532 26.9504C193.499 26.9673 193.473 26.9762 193.458 26.9806C193.443 26.985 193.437 26.9859 193.44 26.9854C193.443 26.9849 193.452 26.9835 193.47 26.9822C193.488 26.9809 193.511 26.98 193.541 26.98V24.98C193.288 24.98 192.948 25.0064 192.638 25.1616L193.532 26.9504ZM193.541 26.98C193.321 26.98 193.301 26.8448 193.473 27.0539C193.628 27.2406 193.83 27.58 194.068 28.1267L195.902 27.3293C195.633 26.7106 195.342 26.1761 195.015 25.7801C194.707 25.4065 194.217 24.98 193.541 24.98V26.98ZM194.068 28.1267C194.502 29.124 194.745 30.4701 194.745 32.212H196.745C196.745 30.3059 196.482 28.6627 195.902 27.3293L194.068 28.1267ZM194.745 32.212V32.288H196.745V32.212H194.745ZM196.506 32.9375C198.576 30.5136 200.155 28.9488 201.263 28.164L200.107 26.532C198.783 27.4698 197.069 29.1984 194.985 31.6385L196.506 32.9375ZM201.285 28.148C202.39 27.3193 203.349 26.98 204.181 26.98V24.98C202.784 24.98 201.412 25.5527 200.085 26.548L201.285 28.148ZM219.802 54.86L219.252 55.695L219.263 55.7022L219.274 55.7091L219.802 54.86ZM214.634 49.008L213.736 49.4479L213.74 49.4552L214.634 49.008ZM215.166 32.592L214.345 32.0209L214.343 32.0247L215.166 32.592ZM221.322 27.424L221.732 28.3363L221.74 28.3325L221.322 27.424ZM236.826 27.88L236.276 28.715L236.276 28.715L236.826 27.88ZM241.918 33.732L241.016 34.1641L241.022 34.1755L241.028 34.1868L241.918 33.732ZM241.538 49.616L242.384 50.1493L242.389 50.1411L241.538 49.616ZM235.61 55.088L236.072 55.9749L236.079 55.9713L235.61 55.088ZM236.294 52.58L237.087 53.1897L237.087 53.1897L236.294 52.58ZM236.978 35.024L236.052 35.4019L236.056 35.4099L236.059 35.4179L236.978 35.024ZM232.722 29.248L232.108 30.0373L232.115 30.0427L232.122 30.048L232.722 29.248ZM220.106 30.084L219.314 29.4743L219.309 29.4808L219.304 29.4873L220.106 30.084ZM219.422 47.108L218.491 47.4731L218.491 47.4731L219.422 47.108ZM223.678 53.264L224.318 52.4958L224.318 52.4958L223.678 53.264ZM227.63 55.988C224.86 55.988 222.437 55.3217 220.331 54.0109L219.274 55.7091C221.727 57.2356 224.523 57.988 227.63 57.988V55.988ZM220.353 54.025C218.273 52.6543 216.668 50.8386 215.529 48.5608L213.74 49.4552C215.033 52.0414 216.873 54.127 219.252 55.695L220.353 54.025ZM215.532 48.5681C214.386 46.2286 213.81 43.6945 213.81 40.952H211.81C211.81 43.9855 212.45 46.8221 213.736 49.4479L215.532 48.5681ZM213.81 40.952C213.81 37.8221 214.554 35.2428 215.99 33.1593L214.343 32.0247C212.637 34.5012 211.81 37.4953 211.81 40.952H213.81ZM215.987 33.1631C217.51 30.9746 219.422 29.3733 221.732 28.3363L220.913 26.5117C218.257 27.704 216.066 29.5481 214.345 32.0209L215.987 33.1631ZM221.74 28.3325C224.153 27.2226 226.57 26.676 228.998 26.676V24.676C226.259 24.676 223.558 25.2947 220.904 26.5155L221.74 28.3325ZM228.998 26.676C231.816 26.676 234.229 27.3659 236.276 28.715L237.377 27.045C234.965 25.4555 232.159 24.676 228.998 24.676V26.676ZM236.276 28.715C238.352 30.0833 239.929 31.8941 241.016 34.1641L242.82 33.2999C241.577 30.7059 239.759 28.6153 237.377 27.045L236.276 28.715ZM241.028 34.1868C242.171 36.4267 242.742 38.8041 242.742 41.332H244.742C244.742 38.4893 244.097 35.8 242.809 33.2772L241.028 34.1868ZM242.742 41.332C242.742 44.3112 242.048 46.8862 240.687 49.0909L242.389 50.1411C243.968 47.5832 244.742 44.6354 244.742 41.332H242.742ZM240.692 49.0827C239.318 51.2627 237.473 52.9674 235.142 54.2047L236.079 55.9713C238.712 54.574 240.82 52.6306 242.384 50.1493L240.692 49.0827ZM235.148 54.2011C232.867 55.3895 230.366 55.988 227.63 55.988V57.988C230.67 57.988 233.49 57.3198 236.072 55.9749L235.148 54.2011ZM229.834 56.544C232.89 56.544 235.353 55.4432 237.087 53.1897L235.502 51.9703C234.195 53.6688 232.352 54.544 229.834 54.544V56.544ZM237.087 53.1897C238.804 50.9578 239.574 47.6538 239.574 43.46H237.574C237.574 47.4742 236.825 50.2502 235.502 51.9703L237.087 53.1897ZM239.574 43.46C239.574 40.2051 239.023 37.2558 237.897 34.6301L236.059 35.4179C237.062 37.7575 237.574 40.4322 237.574 43.46H239.574ZM237.904 34.6461C236.834 32.0257 235.315 29.9424 233.322 28.448L232.122 30.048C233.778 31.2896 235.095 33.057 236.052 35.4019L237.904 34.6461ZM233.336 28.4586C231.335 26.9022 229.041 26.12 226.49 26.12V28.12C228.601 28.12 230.461 28.7565 232.108 30.0373L233.336 28.4586ZM226.49 26.12C223.479 26.12 221.043 27.2259 219.314 29.4743L220.899 30.6937C222.209 28.9901 224.03 28.12 226.49 28.12V26.12ZM219.304 29.4873C217.656 31.703 216.902 34.7848 216.902 38.596H218.902C218.902 35.0099 219.618 32.417 220.909 30.6807L219.304 29.4873ZM216.902 38.596C216.902 41.7975 217.427 44.7603 218.491 47.4731L220.353 46.7429C219.39 44.2877 218.902 41.5759 218.902 38.596H216.902ZM218.491 47.4731C219.556 50.1872 221.064 52.3875 223.038 54.0322L224.318 52.4958C222.644 51.1005 221.316 49.1968 220.353 46.7429L218.491 47.4731ZM223.038 54.0322C225.034 55.6953 227.31 56.544 229.834 56.544V54.544C227.798 54.544 225.971 53.8727 224.318 52.4958L223.038 54.0322ZM284.897 51.668V50.668H284.661L284.45 50.7736L284.897 51.668ZM285.277 52.048L284.297 52.2441L284.315 52.3341L284.349 52.4194L285.277 52.048ZM285.201 52.58L285.629 53.4841L285.695 53.4527L285.756 53.412L285.201 52.58ZM276.841 56.532L277.158 57.4807L277.215 57.4617L277.269 57.4361L276.841 56.532ZM274.561 55.012L273.636 55.3906L273.636 55.3906L274.561 55.012ZM273.801 50.376L274.801 50.3504L274.739 47.9346L273.076 49.6877L273.801 50.376ZM267.873 55.164L267.368 54.3009L267.359 54.3065L267.873 55.164ZM255.105 55.164L254.54 55.9888L254.551 55.9961L255.105 55.164ZM250.773 50.072L249.871 50.5027L249.877 50.5152L249.883 50.5275L250.773 50.072ZM251.837 33.276L251.018 32.7025L251.018 32.7025L251.837 33.276ZM273.801 27.652L273.284 28.5077L274.801 29.4252V27.652H273.801ZM273.193 6.676L272.277 7.07682L272.288 7.10029L272.299 7.12321L273.193 6.676ZM267.797 6.524V7.524H268.001L268.188 7.44458L267.797 6.524ZM267.189 6.22L266.209 6.41611L266.235 6.54743L266.295 6.66721L267.189 6.22ZM267.341 5.688L266.903 4.78936L266.842 4.81877L266.787 4.85595L267.341 5.688ZM276.993 0.975997L277.432 1.87467L277.441 1.87043L276.993 0.975997ZM277.753 1.128L277.046 1.83511L277.161 1.94985L277.306 2.02242L277.753 1.128ZM278.665 51.592L277.771 52.0392L277.782 52.061L277.794 52.0823L278.665 51.592ZM284.745 51.744L284.298 50.8496L284.261 50.8682L284.225 50.8898L284.745 51.744ZM269.089 52.96L269.57 53.8368L269.581 53.8309L269.592 53.8248L269.089 52.96ZM273.801 49.16L274.52 49.8558L274.801 49.5649V49.16H273.801ZM273.801 32.44H274.801V32.1148L274.61 31.8518L273.801 32.44ZM269.773 28.564L270.301 27.7144L270.301 27.7144L269.773 28.564ZM256.853 30.616L256.081 29.9809L256.079 29.9828L256.853 30.616ZM255.409 47.564L256.336 47.1888L256.336 47.1888L255.409 47.564ZM258.905 52.504L258.284 53.2875L258.29 53.2926L258.297 53.2976L258.905 52.504ZM284.897 52.668C284.771 52.668 284.587 52.6196 284.437 52.4701C284.312 52.3448 284.294 52.2295 284.297 52.2441L286.258 51.8519C286.21 51.6132 286.103 51.3079 285.852 51.0559C285.575 50.7798 285.226 50.668 284.897 50.668V52.668ZM284.349 52.4194C284.366 52.4617 284.323 52.3821 284.344 52.2296C284.357 52.1453 284.388 52.0478 284.448 51.9529C284.508 51.8584 284.581 51.7916 284.647 51.748L285.756 53.412C286.063 53.2071 286.271 52.889 286.324 52.5124C286.371 52.1826 286.29 51.8876 286.206 51.6766L284.349 52.4194ZM284.774 51.6759L276.414 55.6279L277.269 57.4361L285.629 53.4841L284.774 51.6759ZM276.525 55.5833C276.386 55.6297 276.286 55.6591 276.219 55.6759C276.186 55.6842 276.168 55.6874 276.164 55.6881C276.155 55.6895 276.183 55.684 276.233 55.684V57.684C276.413 57.684 276.589 57.645 276.704 57.6161C276.839 57.5823 276.993 57.5357 277.158 57.4807L276.525 55.5833ZM276.233 55.684C276.22 55.684 276.159 55.6895 276.029 55.5589C275.88 55.4103 275.689 55.1262 275.487 54.6334L273.636 55.3906C274.111 56.5527 274.904 57.684 276.233 57.684V55.684ZM275.487 54.6334C275.097 53.6799 274.85 52.2728 274.801 50.3504L272.802 50.4016C272.854 52.4312 273.114 54.1147 273.636 55.3906L275.487 54.6334ZM273.076 49.6877C271.258 51.6042 269.354 53.1384 267.368 54.301L268.379 56.027C270.547 54.7576 272.596 53.0998 274.527 51.0643L273.076 49.6877ZM267.359 54.3065C265.499 55.4225 263.399 55.988 261.033 55.988V57.988C263.734 57.988 266.195 57.3375 268.388 56.0215L267.359 54.3065ZM261.033 55.988C259.109 55.988 257.325 55.4419 255.66 54.3319L254.551 55.9961C256.534 57.3181 258.702 57.988 261.033 57.988V55.988ZM255.671 54.3393C254.053 53.2297 252.713 51.6677 251.664 49.6165L249.883 50.5275C251.063 52.8336 252.611 54.6663 254.54 55.9887L255.671 54.3393ZM251.676 49.6413C250.685 47.5651 250.177 45.1824 250.177 42.472H248.177C248.177 45.4362 248.734 48.1202 249.871 50.5027L251.676 49.6413ZM250.177 42.472C250.177 39.0453 251.019 36.1885 252.657 33.8495L251.018 32.7025C249.109 35.4302 248.177 38.704 248.177 42.472H250.177ZM252.657 33.8495C254.334 31.4526 256.431 29.6697 258.952 28.4804L258.099 26.6716C255.249 28.0156 252.887 30.0328 251.018 32.7025L252.657 33.8495ZM258.952 28.4804C261.521 27.2687 264.036 26.676 266.505 26.676V24.676C263.706 24.676 260.901 25.35 258.099 26.6716L258.952 28.4804ZM266.505 26.676C269.019 26.676 271.27 27.29 273.284 28.5077L274.319 26.7963C271.975 25.3793 269.363 24.676 266.505 24.676V26.676ZM274.801 27.652V10.628H272.801V27.652H274.801ZM274.801 10.628C274.801 8.77529 274.603 7.25896 274.088 6.22878L272.299 7.12321C272.595 7.71437 272.801 8.83271 272.801 10.628H274.801ZM274.11 6.27518C273.867 5.72135 273.502 5.24876 272.991 4.92173C272.483 4.59601 271.9 4.46 271.293 4.46V6.46C271.599 6.46 271.789 6.52665 271.913 6.60627C272.036 6.68457 272.165 6.81998 272.277 7.07682L274.11 6.27518ZM271.293 4.46C270.815 4.46 270.246 4.58325 269.634 4.76932C269.006 4.96058 268.261 5.24095 267.407 5.60342L268.188 7.44458C269.006 7.09771 269.68 6.84608 270.217 6.68267C270.771 6.51408 271.114 6.46 271.293 6.46V4.46ZM267.797 5.524H267.645V7.524H267.797V5.524ZM267.645 5.524C267.719 5.524 267.828 5.54528 267.934 5.61595C268.034 5.68244 268.075 5.75549 268.084 5.77278L266.295 6.66721C266.405 6.88717 266.573 7.11222 266.825 7.28005C267.083 7.45205 267.369 7.524 267.645 7.524V5.524ZM268.17 6.02388C268.164 5.9945 268.183 6.0583 268.151 6.17172C268.134 6.23203 268.103 6.30003 268.055 6.36641C268.007 6.43291 267.951 6.48374 267.896 6.52004L266.787 4.85595C266.158 5.27498 266.118 5.9604 266.209 6.41611L268.17 6.02388ZM267.78 6.58663L277.432 1.87463L276.555 0.0773647L266.903 4.78936L267.78 6.58663ZM277.441 1.87043C277.402 1.88995 277.372 1.8972 277.361 1.89958C277.349 1.90185 277.352 1.9 277.373 1.9V-0.100002C277.117 -0.100002 276.825 -0.0580752 276.546 0.0815674L277.441 1.87043ZM277.373 1.9C277.178 1.9 277.055 1.82966 277.03 1.81449C276.999 1.79612 277.004 1.79324 277.046 1.83511L278.461 0.420881C278.35 0.310754 278.216 0.193875 278.059 0.0995005C277.907 0.00833729 277.67 -0.100002 277.373 -0.100002V1.9ZM277.306 2.02242C277.326 2.0324 277.269 2.00888 277.201 1.92369C277.12 1.82249 277.057 1.67491 277.057 1.508H279.057C279.057 0.806373 278.556 0.411259 278.201 0.233572L277.306 2.02242ZM277.057 1.508V47.64H279.057V1.508H277.057ZM277.057 47.64C277.057 49.4927 277.256 51.009 277.771 52.0392L279.56 51.1448C279.264 50.5536 279.057 49.4353 279.057 47.64H277.057ZM277.794 52.0823C278.435 53.2212 279.485 53.808 280.793 53.808V51.808C280.176 51.808 279.808 51.5841 279.537 51.1017L277.794 52.0823ZM280.793 53.808C282.431 53.808 283.931 53.4102 285.265 52.5982L284.225 50.8898C283.229 51.4964 282.094 51.808 280.793 51.808V53.808ZM285.193 52.6384L285.345 52.5624L284.45 50.7736L284.298 50.8496L285.193 52.6384ZM263.997 55.252C265.986 55.252 267.849 54.7805 269.57 53.8368L268.609 52.0832C267.188 52.8622 265.657 53.252 263.997 53.252V55.252ZM269.592 53.8248C271.258 52.8571 272.9 51.5278 274.52 49.8558L273.083 48.4642C271.562 50.0348 270.062 51.2389 268.587 52.0952L269.592 53.8248ZM274.801 49.16V32.44H272.801V49.16H274.801ZM274.61 31.8518C273.333 30.0953 271.899 28.7064 270.301 27.7144L269.246 29.4136C270.586 30.2456 271.838 31.4407 272.993 33.0282L274.61 31.8518ZM270.301 27.7144C268.644 26.6859 266.679 26.196 264.453 26.196V28.196C266.382 28.196 267.964 28.6181 269.246 29.4136L270.301 27.7144ZM264.453 26.196C260.99 26.196 258.163 27.4492 256.081 29.9809L257.626 31.2511C259.294 29.2228 261.533 28.196 264.453 28.196V26.196ZM256.079 29.9828C254.057 32.4551 253.117 35.9061 253.117 40.192H255.117C255.117 36.1686 256.002 33.2356 257.627 31.2492L256.079 29.9828ZM253.117 40.192C253.117 43.0805 253.564 45.6695 254.482 47.9392L256.336 47.1888C255.532 45.2025 255.117 42.8768 255.117 40.192H253.117ZM254.482 47.9392C255.394 50.1917 256.652 51.9931 258.284 53.2875L259.527 51.7205C258.22 50.6842 257.147 49.1923 256.336 47.1888L254.482 47.9392ZM258.297 53.2976C259.987 54.5937 261.898 55.252 263.997 55.252V53.252C262.348 53.252 260.863 52.745 259.514 51.7104L258.297 53.2976ZM322.724 52.048L321.743 52.2441L321.77 52.3754L321.83 52.4952L322.724 52.048ZM322.572 52.504L322.997 53.409L323.008 53.4038L323.019 53.3984L322.572 52.504ZM313.68 56.684L313.923 57.6541L314.017 57.6305L314.105 57.589L313.68 56.684ZM313.376 56.76V57.76H313.499L313.619 57.7301L313.376 56.76ZM311.932 55.012L311.001 55.3764L311.932 55.012ZM311.248 50.148H312.248V47.5122L310.5 49.4847L311.248 50.148ZM305.32 55.088L305.776 55.9778L305.785 55.9732L305.794 55.9685L305.32 55.088ZM293.236 54.252L292.483 54.9105L292.489 54.9164L292.494 54.9223L293.236 54.252ZM290.576 31.376L289.644 31.7384L289.648 31.7476L289.651 31.7567L290.576 31.376ZM286.244 30.768V31.768H286.48L286.691 31.6624L286.244 30.768ZM285.712 30.388L284.763 30.7042L284.773 30.7321L284.784 30.7594L285.712 30.388ZM285.864 29.856L286.107 30.8261L286.193 30.8045L286.275 30.7678L285.864 29.856ZM294.3 26.056L294.057 25.0859L293.971 25.1075L293.889 25.1442L294.3 26.056ZM294.604 25.98V24.98H294.481L294.361 25.0099L294.604 25.98ZM295.06 26.208L294.353 26.9151L294.468 27.0299L294.613 27.1024L295.06 26.208ZM306.688 52.352L307.124 53.2518L307.135 53.2465L307.146 53.241L306.688 52.352ZM311.248 48.856L311.98 49.5374L312.248 49.2495V48.856H311.248ZM310.716 31.3L309.773 31.6328L309.782 31.657L309.791 31.6807L310.716 31.3ZM306.384 30.768V31.768H306.62L306.831 31.6624L306.384 30.768ZM305.852 30.388L304.866 30.5524L304.883 30.659L304.924 30.7594L305.852 30.388ZM306.08 29.856L306.323 30.8261L306.409 30.8045L306.491 30.7678L306.08 29.856ZM314.516 26.056L314.2 25.1073L314.152 25.1234L314.105 25.1442L314.516 26.056ZM314.744 25.98V24.98H314.582L314.428 25.0313L314.744 25.98ZM315.2 26.208L314.493 26.9151L314.608 27.0299L314.753 27.1024L315.2 26.208ZM316.112 51.592L316.994 51.1214L316.994 51.1214L316.112 51.592ZM322.192 51.668V50.668H322.004L321.83 50.736L322.192 51.668ZM322.344 52.668C322.218 52.668 322.033 52.6196 321.884 52.4701C321.759 52.3448 321.741 52.2295 321.743 52.2441L323.705 51.8519C323.657 51.6132 323.55 51.3079 323.298 51.0559C323.022 50.7798 322.673 50.668 322.344 50.668V52.668ZM321.83 52.4952C321.811 52.4587 321.725 52.2621 321.813 51.9978C321.901 51.7334 322.088 51.6278 322.125 51.6096L323.019 53.3984C323.258 53.2788 323.572 53.0466 323.711 52.6302C323.849 52.2139 323.738 51.84 323.618 51.6008L321.83 52.4952ZM322.147 51.599L313.255 55.779L314.105 57.589L322.997 53.409L322.147 51.599ZM313.437 55.7139L313.133 55.7899L313.619 57.7301L313.923 57.6541L313.437 55.7139ZM313.376 55.76C313.544 55.76 313.552 55.863 313.406 55.6861C313.263 55.5126 313.074 55.1873 312.863 54.6476L311.001 55.3764C311.246 56.002 311.526 56.5508 311.864 56.9599C312.199 57.3657 312.701 57.76 313.376 57.76V55.76ZM312.863 54.6476C312.469 53.6412 312.248 52.2581 312.248 50.452H310.248C310.248 52.3953 310.483 54.0522 311.001 55.3764L312.863 54.6476ZM312.248 50.452V50.148H310.248V50.452H312.248ZM310.5 49.4847C308.578 51.6532 306.691 53.2142 304.846 54.2075L305.794 55.9685C307.901 54.8338 309.966 53.1015 311.996 50.8113L310.5 49.4847ZM304.864 54.1982C303.023 55.1424 301.126 55.608 299.164 55.608V57.608C301.458 57.608 303.665 57.0603 305.776 55.9778L304.864 54.1982ZM299.164 55.608C296.853 55.608 295.17 54.9013 293.978 53.5817L292.494 54.9223C294.139 56.744 296.408 57.608 299.164 57.608V55.608ZM293.989 53.5935C292.784 52.2171 292.108 50.1566 292.108 47.26H290.108C290.108 50.4434 290.85 53.0442 292.483 54.9105L293.989 53.5935ZM292.108 47.26V35.632H290.108V47.26H292.108ZM292.108 35.632C292.108 33.639 291.935 32.0505 291.501 30.9952L289.651 31.7567C289.926 32.4242 290.108 33.673 290.108 35.632H292.108ZM291.508 31.0136C291.286 30.4426 290.961 29.9315 290.489 29.5625C290.005 29.1834 289.434 29.008 288.828 29.008V31.008C289.033 31.008 289.158 31.0606 289.257 31.1375C289.368 31.2245 289.511 31.3974 289.644 31.7384L291.508 31.0136ZM288.828 29.008C287.898 29.008 286.875 29.3345 285.797 29.8736L286.691 31.6624C287.64 31.1882 288.34 31.008 288.828 31.008V29.008ZM286.244 29.768H286.168V31.768H286.244V29.768ZM286.168 29.768C286.223 29.768 286.29 29.7769 286.362 29.8025C286.434 29.8282 286.495 29.8651 286.542 29.9048C286.633 29.9804 286.652 30.0446 286.641 30.0166L284.784 30.7594C284.874 30.9847 285.019 31.239 285.262 31.4412C285.522 31.6582 285.839 31.768 286.168 31.768V29.768ZM286.661 30.0718C286.632 29.9862 286.693 30.1001 286.636 30.3017C286.601 30.4225 286.529 30.5536 286.409 30.661C286.295 30.7639 286.179 30.808 286.107 30.8261L285.621 28.8859C285.229 28.984 284.851 29.2685 284.713 29.7523C284.604 30.1312 284.691 30.4858 284.763 30.7042L286.661 30.0718ZM286.275 30.7678L294.711 26.9678L293.889 25.1442L285.453 28.9442L286.275 30.7678ZM294.543 27.0261L294.847 26.9501L294.361 25.0099L294.057 25.0859L294.543 27.0261ZM294.604 26.98C294.507 26.98 294.431 26.9546 294.385 26.9314C294.343 26.9106 294.334 26.8959 294.353 26.9151L295.767 25.5009C295.506 25.2399 295.115 24.98 294.604 24.98V26.98ZM294.613 27.1024C294.633 27.1124 294.575 27.0889 294.507 27.0037C294.426 26.9025 294.364 26.7549 294.364 26.588H296.364C296.364 25.8864 295.863 25.4913 295.507 25.3136L294.613 27.1024ZM294.364 26.588V44.752H296.364V26.588H294.364ZM294.364 44.752C294.364 47.7815 294.907 50.234 296.15 51.9505C297.436 53.7268 299.363 54.568 301.748 54.568V52.568C299.877 52.568 298.612 51.9398 297.77 50.7775C296.885 49.5553 296.364 47.5998 296.364 44.752H294.364ZM301.748 54.568C303.541 54.568 305.336 54.1188 307.124 53.2518L306.252 51.4522C304.696 52.2066 303.198 52.568 301.748 52.568V54.568ZM307.146 53.241C308.927 52.3233 310.539 51.0855 311.98 49.5374L310.516 48.1746C309.221 49.5652 307.793 50.658 306.23 51.463L307.146 53.241ZM312.248 48.856V35.632H310.248V48.856H312.248ZM312.248 35.632C312.248 33.5923 312.076 31.9762 311.641 30.9192L309.791 31.6807C310.065 32.3465 310.248 33.6183 310.248 35.632H312.248ZM311.659 30.9672C311.458 30.3972 311.135 29.8885 310.645 29.5268C310.151 29.1616 309.571 29.008 308.968 29.008V31.008C309.226 31.008 309.368 31.0697 309.457 31.1352C309.55 31.2041 309.67 31.3414 309.773 31.6328L311.659 30.9672ZM308.968 29.008C308.038 29.008 307.015 29.3345 305.937 29.8736L306.831 31.6624C307.78 31.1882 308.48 31.008 308.968 31.008V29.008ZM306.384 29.768H306.308V31.768H306.384V29.768ZM306.308 29.768C306.363 29.768 306.43 29.7769 306.502 29.8025C306.574 29.8282 306.635 29.8651 306.682 29.9048C306.773 29.9804 306.792 30.0446 306.781 30.0166L304.924 30.7594C305.014 30.9847 305.159 31.239 305.402 31.4412C305.662 31.6582 305.979 31.768 306.308 31.768V29.768ZM306.838 30.2236C306.827 30.1576 306.86 30.2577 306.79 30.4209C306.75 30.5135 306.684 30.6111 306.585 30.6917C306.489 30.7705 306.392 30.8087 306.323 30.8261L305.837 28.8859C305.462 28.9797 305.124 29.2307 304.952 29.6331C304.806 29.9736 304.826 30.3144 304.866 30.5524L306.838 30.2236ZM306.491 30.7678L314.927 26.9678L314.105 25.1442L305.669 28.9442L306.491 30.7678ZM314.832 27.0047L315.06 26.9287L314.428 25.0313L314.2 25.1073L314.832 27.0047ZM314.744 26.98C314.647 26.98 314.571 26.9546 314.525 26.9314C314.483 26.9106 314.474 26.8959 314.493 26.9151L315.907 25.5009C315.646 25.2399 315.255 24.98 314.744 24.98V26.98ZM314.753 27.1024C314.773 27.1124 314.715 27.0889 314.647 27.0037C314.566 26.9025 314.504 26.7549 314.504 26.588H316.504C316.504 25.8864 316.003 25.4913 315.647 25.3136L314.753 27.1024ZM314.504 26.588V47.868H316.504V26.588H314.504ZM314.504 47.868C314.504 49.6217 314.702 51.0738 315.23 52.0626L316.994 51.1214C316.711 50.5902 316.504 49.5596 316.504 47.868H314.504ZM315.23 52.0626C315.513 52.5947 315.916 53.0283 316.443 53.3212C316.964 53.6107 317.551 53.732 318.164 53.732V51.732C317.814 51.732 317.578 51.6633 317.415 51.5728C317.258 51.4857 317.116 51.3493 316.994 51.1214L315.23 52.0626ZM318.164 53.732C319.229 53.732 320.725 53.3116 322.554 52.6L321.83 50.736C320.011 51.4431 318.822 51.732 318.164 51.732V53.732ZM322.192 52.668H322.344V50.668H322.192V52.668ZM332.085 54.784L331.534 55.619L331.541 55.6234L331.548 55.6277L332.085 54.784ZM327.145 49.16L328.051 48.7371L328.051 48.7371L327.145 49.16ZM327.981 33.504L328.807 34.0668L328.813 34.0587L327.981 33.504ZM334.213 27.956L334.66 28.8505L334.667 28.8469L334.213 27.956ZM348.197 27.348L347.749 28.2424L347.764 28.2498L347.779 28.2567L348.197 27.348ZM345.005 30.54L345.893 30.082L345.87 30.0373L345.843 29.995L345.005 30.54ZM342.876 28.26L342.322 29.092L342.322 29.0921L342.876 28.26ZM332.921 30.844L332.112 30.2558L332.109 30.2592L332.921 30.844ZM333.757 50.148L334.546 49.5341L334.546 49.5341L333.757 50.148ZM351.085 51.744V50.744H350.732L350.457 50.965L351.085 51.744ZM351.541 51.972L350.708 52.5267L350.763 52.6091L350.833 52.6791L351.541 51.972ZM351.617 52.352L352.28 53.1006L352.302 53.0805L352.324 53.0591L351.617 52.352ZM346.221 55.848L346.592 56.7765L346.599 56.7738L346.605 56.7711L346.221 55.848ZM340.369 55.912C337.219 55.912 334.655 55.2344 332.621 53.9403L331.548 55.6277C333.973 57.1709 336.932 57.912 340.369 57.912V55.912ZM332.635 53.949C330.55 52.575 329.032 50.8391 328.051 48.7371L326.238 49.5829C327.385 52.0409 329.16 54.0543 331.534 55.619L332.635 53.949ZM328.051 48.7371C327.049 46.5905 326.549 44.3282 326.549 41.94H324.549C324.549 44.6184 325.112 47.1695 326.238 49.5829L328.051 48.7371ZM326.549 41.94C326.549 38.8719 327.313 36.2618 328.807 34.0668L327.154 32.9412C325.406 35.5089 324.549 38.5227 324.549 41.94H326.549ZM328.813 34.0587C330.341 31.7667 332.287 30.0367 334.66 28.8504L333.765 27.0616C331.071 28.4086 328.863 30.3773 327.148 32.9493L328.813 34.0587ZM334.667 28.8469C337.122 27.5954 339.601 26.98 342.117 26.98V24.98C339.261 24.98 336.471 25.6819 333.758 27.0651L334.667 28.8469ZM342.117 26.98C344.205 26.98 346.077 27.4061 347.749 28.2424L348.644 26.4536C346.668 25.4658 344.486 24.98 342.117 24.98V26.98ZM347.779 28.2567C349.522 29.0577 350.009 29.8868 350.009 30.616H352.009C352.009 28.7106 350.62 27.361 348.614 26.4393L347.779 28.2567ZM350.009 30.616C350.009 30.9848 349.879 31.3196 349.541 31.6569L350.956 33.0711C351.632 32.3951 352.009 31.5645 352.009 30.616H350.009ZM349.541 31.6569C349.318 31.88 348.966 32.048 348.349 32.048V34.048C349.353 34.048 350.267 33.76 350.956 33.0711L349.541 31.6569ZM348.349 32.048C347.493 32.048 346.657 31.5647 345.893 30.082L344.116 30.998C345.074 32.8593 346.468 34.048 348.349 34.048V32.048ZM345.843 29.995C345.133 28.9027 344.335 28.0302 343.431 27.4279L342.322 29.0921C342.938 29.5032 343.559 30.1507 344.166 31.085L345.843 29.995ZM343.431 27.4279C342.439 26.7667 341.124 26.5 339.609 26.5V28.5C340.931 28.5 341.794 28.74 342.322 29.092L343.431 27.4279ZM339.609 26.5C336.462 26.5 333.928 27.7589 332.112 30.2558L333.729 31.4322C335.156 29.4704 337.08 28.5 339.609 28.5V26.5ZM332.109 30.2592C330.377 32.6617 329.565 35.8288 329.565 39.66H331.565C331.565 36.0939 332.322 33.3837 333.732 31.4288L332.109 30.2592ZM329.565 39.66C329.565 44.0864 330.674 47.8134 332.967 50.7619L334.546 49.5341C332.583 47.0106 331.565 43.7456 331.565 39.66H329.565ZM332.967 50.7619C335.328 53.7971 338.846 55.252 343.333 55.252V53.252C339.307 53.252 336.441 51.9709 334.546 49.5341L332.967 50.7619ZM343.333 55.252C346.613 55.252 349.429 54.3602 351.712 52.523L350.457 50.965C348.585 52.4718 346.233 53.252 343.333 53.252V55.252ZM351.085 52.744H351.161V50.744H351.085V52.744ZM351.161 52.744C351.061 52.744 350.952 52.7165 350.855 52.6585C350.765 52.6045 350.721 52.5454 350.708 52.5267L352.373 51.4173C352.129 51.0516 351.718 50.744 351.161 50.744V52.744ZM350.833 52.6791C350.833 52.6787 350.828 52.6739 350.821 52.6647C350.813 52.6555 350.801 52.64 350.787 52.6181C350.761 52.5765 350.717 52.495 350.693 52.3771C350.668 52.2513 350.67 52.1039 350.72 51.955C350.768 51.8105 350.846 51.7084 350.909 51.6449L352.324 53.0591C352.58 52.8025 352.74 52.4162 352.654 51.9849C352.585 51.6379 352.38 51.3971 352.248 51.2649L350.833 52.6791ZM350.953 51.6034C349.247 53.1151 347.54 54.2148 345.836 54.9249L346.605 56.7711C348.549 55.9612 350.44 54.7303 352.28 53.1006L350.953 51.6034ZM345.849 54.9195C344.207 55.5765 342.384 55.912 340.369 55.912V57.912C342.609 57.912 344.688 57.5382 346.592 56.7765L345.849 54.9195ZM377.695 52.048V51.048H377.459L377.247 51.1536L377.695 52.048ZM378.151 52.428L377.222 52.7994L377.238 52.838L377.256 52.8752L378.151 52.428ZM378.075 52.884L377.52 52.052L377.488 52.0733L377.458 52.0969L378.075 52.884ZM372.983 56L372.611 55.0715L372.6 55.076L372.983 56ZM363.103 55.468L362.527 56.2858L362.527 56.2858L363.103 55.468ZM360.747 30.008L359.782 30.2711L359.793 30.3109L359.807 30.3497L360.747 30.008ZM359.759 28.944L359.387 29.8725L359.429 29.889L359.471 29.9018L359.759 28.944ZM357.175 27.652V28.652H357.187L357.2 28.6517L357.175 27.652ZM362.115 26.056L362.739 26.8369L362.749 26.8294L362.758 26.8217L362.115 26.056ZM364.319 21.876L365.312 21.9928L365.319 21.9346V21.876H364.319ZM365.459 27.5H364.459V28.5202L365.479 28.4998L365.459 27.5ZM376.023 26.74V25.74H375.972L375.922 25.7451L376.023 26.74ZM376.327 27.348L375.356 27.5905L375.376 27.6683L375.407 27.7419L376.327 27.348ZM376.251 29.856L375.337 29.4499L375.325 29.477L375.314 29.5049L376.251 29.856ZM375.719 30.388L375.472 31.3571L375.476 31.3581L375.719 30.388ZM365.459 29.172L365.484 28.1723L364.459 28.1467V29.172H365.459ZM366.979 52.732L366.271 53.4391L366.28 53.4477L366.289 53.4561L366.979 52.732ZM377.543 52.124L377.095 51.2296L376.994 51.2802L376.907 51.3521L377.543 52.124ZM377.695 53.048C377.639 53.048 377.572 53.0391 377.501 53.0135C377.429 52.9878 377.368 52.9509 377.32 52.9112C377.23 52.8356 377.211 52.7714 377.222 52.7994L379.079 52.0566C378.989 51.8313 378.843 51.577 378.601 51.3748C378.34 51.1578 378.024 51.048 377.695 51.048V53.048ZM377.256 52.8752C377.255 52.8724 377.186 52.7394 377.221 52.5296C377.262 52.2825 377.412 52.1237 377.52 52.052L378.629 53.716C378.889 53.5429 379.127 53.2575 379.194 52.8584C379.254 52.4966 379.148 52.1863 379.045 51.9808L377.256 52.8752ZM377.458 52.0969C375.627 53.5318 374.013 54.5108 372.611 55.0715L373.354 56.9285C374.992 56.2732 376.773 55.1749 378.691 53.6711L377.458 52.0969ZM372.6 55.076C371.255 55.6328 369.839 55.912 368.347 55.912V57.912C370.096 57.912 371.772 57.5832 373.365 56.924L372.6 55.076ZM368.347 55.912C366.368 55.912 364.837 55.4656 363.678 54.6502L362.527 56.2858C364.104 57.3957 366.069 57.912 368.347 57.912V55.912ZM363.678 54.6502C362.66 53.9341 362.051 52.7027 362.051 50.68H360.051C360.051 53.116 360.809 55.0766 362.527 56.2858L363.678 54.6502ZM362.051 50.68V32.82H360.051V50.68H362.051ZM362.051 32.82C362.051 31.4934 361.954 30.4019 361.686 29.6663L359.807 30.3497C359.945 30.7288 360.051 31.5119 360.051 32.82H362.051ZM361.711 29.7449C361.479 28.8913 360.918 28.2478 360.046 27.9862L359.471 29.9018C359.612 29.9442 359.711 30.01 359.782 30.2711L361.711 29.7449ZM360.13 28.0155C359.431 27.7358 358.4 27.64 357.175 27.64V29.64C358.381 29.64 359.073 29.7469 359.387 29.8725L360.13 28.0155ZM357.175 27.64C357.25 27.64 357.364 27.6545 357.489 27.7171C357.618 27.7817 357.715 27.8757 357.779 27.9713C357.888 28.1359 357.871 28.2565 357.871 28.184H355.871C355.871 28.4155 355.903 28.7641 356.115 29.0807C356.373 29.4689 356.782 29.64 357.175 29.64V27.64ZM357.871 28.184C357.871 28.0691 357.893 28.1448 357.815 28.2811C357.767 28.3644 357.682 28.4694 357.545 28.549C357.409 28.6289 357.274 28.652 357.175 28.652V26.652C356.711 26.652 356.305 26.8916 356.078 27.2889C355.899 27.6025 355.871 27.9442 355.871 28.184H357.871ZM357.2 28.6517C359.389 28.5969 361.263 28.0177 362.739 26.8369L361.49 25.2751C360.433 26.1209 359.013 26.6057 357.15 26.6523L357.2 28.6517ZM362.758 26.8217C364.23 25.5853 365.081 23.9549 365.312 21.9928L363.325 21.7592C363.151 23.2424 362.533 24.3987 361.471 25.2903L362.758 26.8217ZM365.319 21.876C365.319 22.0839 365.241 22.2868 365.104 22.4406C364.986 22.5738 364.863 22.6257 364.822 22.6413C364.752 22.6676 364.758 22.648 364.927 22.648V20.648C364.69 20.648 364.392 20.6664 364.119 20.7687C363.976 20.8223 363.778 20.9217 363.609 21.1119C363.422 21.3227 363.319 21.5921 363.319 21.876H365.319ZM364.927 22.648C365.063 22.648 365.032 22.6671 364.932 22.6241C364.871 22.598 364.747 22.5326 364.636 22.3902C364.514 22.2335 364.459 22.0479 364.459 21.876H366.459C366.459 21.6281 366.381 21.376 366.215 21.1623C366.06 20.9629 365.869 20.8499 365.72 20.7859C365.442 20.6668 365.145 20.648 364.927 20.648V22.648ZM364.459 21.876V27.5H366.459V21.876H364.459ZM365.479 28.4998C368.052 28.4483 371.604 28.1919 376.123 27.7349L375.922 25.7451C371.422 26.2001 367.932 26.4503 365.439 26.5002L365.479 28.4998ZM376.023 27.74C375.689 27.74 375.475 27.5688 375.391 27.4851C375.347 27.4406 375.319 27.4019 375.305 27.3802C375.29 27.3577 375.282 27.3426 375.28 27.3392C375.278 27.3342 375.286 27.3503 375.302 27.3982C375.317 27.444 375.336 27.507 375.356 27.5905L377.297 27.1055C377.241 26.8807 377.169 26.6446 377.069 26.4448C377.02 26.3471 376.938 26.2032 376.806 26.0709C376.671 25.9366 376.407 25.74 376.023 25.74V27.74ZM375.407 27.7419C375.497 27.9516 375.555 28.2192 375.555 28.564H377.555C377.555 27.9968 377.46 27.4537 377.246 26.9541L375.407 27.7419ZM375.555 28.564C375.555 28.801 375.495 29.0929 375.337 29.4499L377.164 30.2621C377.411 29.7071 377.555 29.1377 377.555 28.564H375.555ZM375.314 29.5049C375.29 29.5709 375.271 29.6084 375.261 29.6252C375.251 29.6438 375.26 29.6228 375.296 29.5859C375.335 29.5475 375.417 29.4786 375.55 29.4346C375.691 29.3876 375.836 29.3865 375.961 29.4179L375.476 31.3581C375.991 31.4869 376.432 31.2788 376.711 31.0001C376.948 30.7623 377.092 30.4601 377.187 30.2071L375.314 29.5049ZM375.965 29.4189C373.083 28.6853 369.584 28.2748 365.484 28.1723L365.434 30.1717C369.44 30.2718 372.781 30.672 375.472 31.3571L375.965 29.4189ZM364.459 29.172V48.096H366.459V29.172H364.459ZM364.459 48.096C364.459 50.3191 365 52.168 366.271 53.4391L367.686 52.0249C366.93 51.2694 366.459 50.0275 366.459 48.096H364.459ZM366.289 53.4561C367.591 54.6961 369.363 55.252 371.463 55.252V53.252C369.712 53.252 368.494 52.7945 367.668 52.0079L366.289 53.4561ZM371.463 55.252C374.014 55.252 376.268 54.469 378.178 52.8959L376.907 51.3521C375.372 52.6164 373.572 53.252 371.463 53.252V55.252ZM377.99 53.0184L378.142 52.9424L377.247 51.1536L377.095 51.2296L377.99 53.0184Z" fill="black"/>
</g>
<defs>
<filter id="filter0_d_2_48" x="0.724121" y="0.900024" width="381.579" height="64.088" filterUnits="userSpaceOnUse" color-interpolation-filters="sRGB">
<feFlood flood-opacity="0" result="BackgroundImageFix"/>
<feColorMatrix in="SourceAlpha" type="matrix" values="0 0 0 0 0 0 0 0 0 0 0 0 0 0 0 0 0 0 127 0" result="hardAlpha"/>
<feOffset dy="4"/>
<feGaussianBlur stdDeviation="2"/>
<feComposite in2="hardAlpha" operator="out"/>
<feColorMatrix type="matrix" values="0 0 0 0 0 0 0 0 0 0 0 0 0 0 0 0 0 0 0.25 0"/>
<feBlend mode="normal" in2="BackgroundImageFix" result="effect1_dropShadow_2_48"/>
<feBlend mode="normal" in="SourceGraphic" in2="effect1_dropShadow_2_48" result="shape"/>
</filter>
</defs>
</svg>
