<svg
  width="605"
  height="192"
  viewBox="0 0 605 192"
  fill="none"
  xmlns="http://www.w3.org/2000/svg"
>
<path
    d="M155.229 137.403C155.229 137.403 250.592 102.263 366.065 115.62C481.537 128.977 416.856 173.57 321.182 178.091C225.508 182.612 109.414 160.213 170.778 139.458C232.142 118.703 344.193 99.3859 421.624 125.176C499.054 150.966 340.565 185.694 202.082 174.7C63.5979 163.706 254.22 112.024 331.236 110.072C408.252 108.119 475.628 146.547 407.216 163.398C338.803 180.249 185.393 193.709 170.985 154.459C156.577 115.209 388.35 107.811 426.081 120.552"
    stroke="#5BA199"
    stroke-width="1.5"
    stroke-miterlimit="10"
    stroke-linecap="round"
    stroke-linejoin="round"
  />
<path
    d="M37.1 60.676C37.1 60.5747 37.2013 60.524 37.404 60.524C37.556 60.524 37.6827 60.5493 37.784 60.6C37.936 60.6507 38.012 60.7267 38.012 60.828C37.556 64.02 37.328 67.364 37.328 70.86C37.328 71.2653 37.2267 71.5693 37.024 71.772C36.872 71.924 36.568 72 36.112 72H4.268C4.16667 72 4.116 71.848 4.116 71.544C4.116 71.24 4.16667 71.088 4.268 71.088C6.19333 71.088 7.58667 70.9613 8.448 70.708C9.36 70.4547 9.968 69.9733 10.272 69.264C10.6267 68.504 10.804 67.364 10.804 65.844V30.656C10.804 29.136 10.6267 28.0213 10.272 27.312C9.968 26.6027 9.36 26.1213 8.448 25.868C7.58667 25.564 6.19333 25.412 4.268 25.412C4.16667 25.412 4.116 25.26 4.116 24.956C4.116 24.652 4.16667 24.5 4.268 24.5H34.82C35.276 24.5 35.504 24.728 35.504 25.184L35.656 34.532C35.656 34.684 35.5293 34.7853 35.276 34.836C35.0227 34.836 34.8707 34.76 34.82 34.608C34.668 31.9227 33.8573 29.8453 32.388 28.376C30.9187 26.856 28.968 26.096 26.536 26.096H21.9C20.1267 26.096 18.8093 26.248 17.948 26.552C17.1373 26.8053 16.5547 27.2867 16.2 27.996C15.896 28.6547 15.744 29.668 15.744 31.036V46.464H25.016C27.448 46.464 29.1707 46.0587 30.184 45.248C31.248 44.4373 31.78 43.0693 31.78 41.144C31.78 41.0427 31.932 40.992 32.236 40.992C32.54 40.992 32.692 41.0427 32.692 41.144L32.616 47.3C32.616 48.7693 32.6413 49.884 32.692 50.644L32.768 54.292C32.768 54.3933 32.616 54.444 32.312 54.444C32.008 54.444 31.856 54.3933 31.856 54.292C31.856 52.0627 31.2987 50.4667 30.184 49.504C29.12 48.5413 27.3213 48.06 24.788 48.06H15.744V65.54C15.744 66.9587 15.896 67.9973 16.2 68.656C16.504 69.3147 17.0613 69.7707 17.872 70.024C18.6827 70.2773 19.9493 70.404 21.672 70.404H27.752C30.184 70.404 32.2107 69.5427 33.832 67.82C35.4533 66.0973 36.5427 63.716 37.1 60.676ZM74.2723 71.088C74.3736 71.088 74.4243 71.24 74.4243 71.544C74.4243 71.848 74.3736 72 74.2723 72L71.8403 71.924C71.283 71.8733 70.4723 71.848 69.4083 71.848L64.5443 71.924C63.7843 71.9747 62.771 72 61.5043 72C61.3523 72 61.2763 71.848 61.2763 71.544C61.2763 71.24 61.3523 71.088 61.5043 71.088C62.4163 71.088 63.0496 71.0373 63.4043 70.936C63.8096 70.784 64.0123 70.5307 64.0123 70.176C64.0123 69.72 63.7083 69.036 63.1003 68.124L57.3243 59.384L52.7643 65.92C51.751 67.44 51.2443 68.5547 51.2443 69.264C51.2443 69.872 51.5736 70.328 52.2323 70.632C52.9416 70.936 54.0563 71.088 55.5763 71.088C55.7283 71.088 55.8043 71.24 55.8043 71.544C55.8043 71.848 55.7283 72 55.5763 72C54.2083 72 53.195 71.9747 52.5363 71.924L47.9763 71.848L45.2403 71.924C44.7336 71.9747 43.923 72 42.8083 72C42.707 72 42.6563 71.848 42.6563 71.544C42.6563 71.24 42.707 71.088 42.8083 71.088C44.1256 71.088 45.5443 70.6067 47.0643 69.644C48.635 68.6813 50.079 67.288 51.3963 65.464L56.5643 58.244L50.4083 48.972C49.1923 47.0973 47.9256 45.7293 46.6083 44.868C45.291 44.0067 44.1003 43.576 43.0363 43.576C42.935 43.576 42.8843 43.424 42.8843 43.12C42.8843 42.816 42.935 42.664 43.0363 42.664C44.1003 42.664 44.8856 42.6893 45.3923 42.74L47.7483 42.816L52.6123 42.74C53.3216 42.6893 54.3096 42.664 55.5763 42.664C55.6776 42.664 55.7283 42.816 55.7283 43.12C55.7283 43.424 55.6776 43.576 55.5763 43.576C54.715 43.576 54.0816 43.652 53.6763 43.804C53.271 43.9053 53.0683 44.1333 53.0683 44.488C53.0683 44.8427 53.3976 45.5267 54.0563 46.54L59.3003 54.444L63.1763 48.744C64.2403 47.1733 64.7723 46.0333 64.7723 45.324C64.7723 44.716 64.4176 44.2853 63.7083 44.032C63.0496 43.728 61.935 43.576 60.3643 43.576C60.263 43.576 60.2123 43.424 60.2123 43.12C60.2123 42.816 60.263 42.664 60.3643 42.664C61.7323 42.664 62.771 42.6893 63.4803 42.74L68.0403 42.816L70.7763 42.74C71.283 42.6893 72.0936 42.664 73.2083 42.664C73.3096 42.664 73.3603 42.816 73.3603 43.12C73.3603 43.424 73.3096 43.576 73.2083 43.576C71.8403 43.576 70.3963 44.0573 68.8763 45.02C67.407 45.932 65.9883 47.3253 64.6203 49.2L59.9843 55.508L66.7483 65.692C68.015 67.6173 69.307 69.0107 70.6243 69.872C71.9923 70.6827 73.2083 71.088 74.2723 71.088ZM99.4628 41.676C101.54 41.676 103.465 42.2333 105.239 43.348C107.012 44.4627 108.431 46.084 109.495 48.212C110.559 50.34 111.091 52.8227 111.091 55.66C111.091 59.46 110.229 62.6773 108.507 65.312C106.784 67.896 104.656 69.8213 102.123 71.088C99.6401 72.3547 97.1828 72.988 94.7507 72.988C93.1801 72.988 91.7614 72.836 90.4948 72.532C89.2788 72.228 88.0121 71.7213 86.6948 71.012V86.744C86.6948 88.264 86.8721 89.3787 87.2268 90.088C87.6321 90.7973 88.3668 91.2787 89.4308 91.532C90.4948 91.836 92.1161 91.988 94.2948 91.988C94.3961 91.988 94.4468 92.14 94.4468 92.444C94.4468 92.748 94.3961 92.9 94.2948 92.9C92.5721 92.9 91.2041 92.8747 90.1908 92.824L84.6428 92.748L80.4628 92.824C79.7534 92.8747 78.8161 92.9 77.6508 92.9C77.4988 92.9 77.4228 92.748 77.4228 92.444C77.4228 92.14 77.4988 91.988 77.6508 91.988C79.0188 91.988 80.0321 91.836 80.6908 91.532C81.3494 91.2787 81.8054 90.7973 82.0588 90.088C82.3121 89.3787 82.4388 88.264 82.4388 86.744V51.024C82.4388 49.2 82.2361 47.908 81.8308 47.148C81.4254 46.3373 80.7161 45.932 79.7028 45.932C78.5881 45.932 77.2454 46.2867 75.6748 46.996L75.5228 47.072C75.3201 47.072 75.1934 46.9453 75.1427 46.692C75.0414 46.4387 75.0667 46.2613 75.2188 46.16L83.6548 42.132C83.7561 42.0813 83.9334 42.056 84.1868 42.056C84.8961 42.056 85.4788 42.588 85.9348 43.652C86.3908 44.716 86.6441 46.236 86.6948 48.212C91.0014 43.8547 95.2574 41.676 99.4628 41.676ZM97.0308 71.392C99.7161 71.392 101.92 70.2267 103.643 67.896C105.365 65.5147 106.227 62.2213 106.227 58.016C106.227 53.76 105.289 50.4667 103.415 48.136C101.54 45.7547 99.1588 44.564 96.2708 44.564C94.4974 44.564 92.8508 44.9947 91.3308 45.856C89.8108 46.7173 88.2654 47.9333 86.6948 49.504V66.604C88.0628 68.1747 89.5574 69.3653 91.1788 70.176C92.8001 70.9867 94.7508 71.392 97.0308 71.392ZM141.699 67.744C141.851 67.744 141.978 67.8453 142.079 68.048C142.231 68.2 142.256 68.352 142.155 68.504C138.71 71.4427 135.011 72.912 131.059 72.912C128.07 72.912 125.486 72.228 123.307 70.86C121.128 69.492 119.482 67.7187 118.367 65.54C117.303 63.3107 116.771 60.904 116.771 58.32C116.771 55.28 117.48 52.5187 118.899 50.036C120.368 47.5533 122.344 45.6027 124.827 44.184C127.31 42.7147 130.071 41.98 133.111 41.98C135.847 41.98 137.975 42.664 139.495 44.032C141.015 45.3493 141.775 47.1733 141.775 49.504C141.775 50.112 141.699 50.568 141.547 50.872C141.446 51.1253 141.218 51.252 140.863 51.252L122.167 51.404C121.914 52.772 121.787 54.0893 121.787 55.356C121.787 59.764 122.851 63.3613 124.979 66.148C127.107 68.884 130.046 70.252 133.795 70.252C136.683 70.252 139.292 69.416 141.623 67.744H141.699ZM130.527 43.5C128.45 43.5 126.702 44.108 125.283 45.324C123.915 46.4893 122.952 48.1613 122.395 50.34L136.531 50.036C136.531 47.9587 135.974 46.3627 134.859 45.248C133.795 44.0827 132.351 43.5 130.527 43.5ZM165.959 41.98C167.073 41.98 168.137 42.284 169.151 42.892C170.164 43.5 170.671 44.2347 170.671 45.096C170.671 45.7547 170.443 46.312 169.987 46.768C169.581 47.224 168.973 47.452 168.163 47.452C167.707 47.452 167.301 47.376 166.947 47.224C166.643 47.0213 166.263 46.7427 165.807 46.388C165.351 45.9827 164.92 45.6787 164.515 45.476C164.109 45.2733 163.628 45.172 163.071 45.172C162.412 45.172 161.703 45.4507 160.943 46.008C160.233 46.5147 159.093 47.68 157.523 49.504V65.844C157.523 67.364 157.7 68.4787 158.055 69.188C158.46 69.8973 159.169 70.404 160.183 70.708C161.196 70.9613 162.767 71.088 164.895 71.088C165.097 71.088 165.199 71.24 165.199 71.544C165.199 71.848 165.097 72 164.895 72C163.273 72 161.981 71.9747 161.019 71.924L155.395 71.848L151.215 71.924C150.556 71.9747 149.644 72 148.479 72C148.327 72 148.251 71.848 148.251 71.544C148.251 71.24 148.327 71.088 148.479 71.088C149.847 71.088 150.86 70.9613 151.519 70.708C152.177 70.404 152.608 69.8973 152.811 69.188C153.064 68.4787 153.191 67.364 153.191 65.844V50.796C153.191 49.0733 152.988 47.832 152.583 47.072C152.177 46.312 151.493 45.932 150.531 45.932C149.72 45.932 148.352 46.312 146.427 47.072H146.275C146.072 47.072 145.92 46.9707 145.819 46.768C145.768 46.5147 145.844 46.3373 146.047 46.236L154.863 42.056C154.964 42.0053 155.116 41.98 155.319 41.98C155.775 41.98 156.256 42.5627 156.763 43.728C157.269 44.8933 157.523 46.388 157.523 48.212V48.288C159.6 45.856 161.247 44.2093 162.463 43.348C163.679 42.436 164.844 41.98 165.959 41.98ZM196.378 68.048C196.581 68.048 196.733 68.1747 196.834 68.428C196.936 68.6307 196.91 68.7827 196.758 68.884C194.884 70.3533 193.186 71.392 191.666 72C190.197 72.608 188.652 72.912 187.03 72.912C184.902 72.912 183.154 72.4307 181.786 71.468C180.418 70.5053 179.734 68.9093 179.734 66.68V48.82C179.734 47.5027 179.633 46.5653 179.43 46.008C179.278 45.4507 178.949 45.096 178.442 44.944C177.936 44.7413 177.074 44.64 175.858 44.64C175.656 44.64 175.554 44.488 175.554 44.184C175.554 43.8293 175.656 43.652 175.858 43.652C177.885 43.6013 179.532 43.0693 180.798 42.056C182.065 40.992 182.8 39.5987 183.002 37.876C183.002 37.724 183.205 37.648 183.61 37.648C183.965 37.648 184.142 37.724 184.142 37.876V43.5C186.676 43.4493 190.197 43.196 194.706 42.74C194.808 42.74 194.909 42.9427 195.01 43.348C195.162 43.7027 195.238 44.108 195.238 44.564C195.238 44.9693 195.137 45.4 194.934 45.856C194.782 46.2613 194.605 46.4387 194.402 46.388C191.616 45.6787 188.196 45.2733 184.142 45.172V64.096C184.142 66.1733 184.649 67.7187 185.662 68.732C186.726 69.7453 188.221 70.252 190.146 70.252C192.477 70.252 194.504 69.5427 196.226 68.124L196.378 68.048ZM227.254 33.392C227.254 35.368 227.736 37.0907 228.698 38.56C229.661 40.0293 230.826 41.2707 232.194 42.284C233.562 43.2467 235.488 44.488 237.97 46.008C240.605 47.5787 242.657 48.896 244.126 49.96C245.596 51.024 246.837 52.392 247.85 54.064C248.914 55.6853 249.446 57.636 249.446 59.916C249.446 62.348 248.838 64.552 247.622 66.528C246.406 68.504 244.608 70.0747 242.226 71.24C239.896 72.3547 237.084 72.912 233.79 72.912C229.889 72.912 226.317 72.0253 223.074 70.252C222.821 70.1 222.644 69.9227 222.542 69.72C222.492 69.5173 222.441 69.2133 222.39 68.808L221.402 58.472C221.352 58.2693 221.453 58.1427 221.706 58.092C222.01 58.0413 222.188 58.1173 222.238 58.32C223.049 61.968 224.544 65.1093 226.722 67.744C228.952 70.3787 231.89 71.696 235.538 71.696C238.072 71.696 240.2 71.012 241.922 69.644C243.696 68.2253 244.582 65.996 244.582 62.956C244.582 60.676 244.076 58.7 243.062 57.028C242.049 55.356 240.808 53.988 239.338 52.924C237.92 51.8093 235.969 50.5173 233.486 49.048C231.054 47.5787 229.129 46.312 227.71 45.248C226.342 44.184 225.177 42.8413 224.214 41.22C223.252 39.5987 222.77 37.6987 222.77 35.52C222.77 32.9867 223.429 30.8333 224.746 29.06C226.114 27.236 227.862 25.8933 229.99 25.032C232.169 24.12 234.474 23.664 236.906 23.664C239.896 23.664 242.86 24.272 245.798 25.488C246.558 25.7413 246.938 26.172 246.938 26.78L247.47 35.52C247.47 35.7227 247.344 35.824 247.09 35.824C246.837 35.824 246.685 35.7227 246.634 35.52C246.229 32.8853 245.14 30.4533 243.366 28.224C241.593 25.944 239.034 24.804 235.69 24.804C232.853 24.804 230.725 25.64 229.306 27.312C227.938 28.9333 227.254 30.96 227.254 33.392ZM290.274 71.088C290.426 71.088 290.502 71.24 290.502 71.544C290.502 71.848 290.426 72 290.274 72C289.109 72 288.172 71.9747 287.462 71.924L283.358 71.848L277.886 71.924C277.076 71.9747 275.986 72 274.618 72C274.517 72 274.466 71.848 274.466 71.544C274.466 71.24 274.517 71.088 274.618 71.088C277.152 71.088 278.418 70.6067 278.418 69.644C278.418 69.188 278.19 68.6307 277.734 67.972L268.386 55.28L264.586 58.244V65.844C264.586 67.3133 264.713 68.428 264.966 69.188C265.22 69.8973 265.676 70.404 266.334 70.708C266.993 70.9613 268.006 71.088 269.374 71.088C269.526 71.088 269.602 71.24 269.602 71.544C269.602 71.848 269.526 72 269.374 72C268.209 72 267.272 71.9747 266.562 71.924L262.458 71.848L258.354 71.924C257.645 71.9747 256.708 72 255.542 72C255.39 72 255.314 71.848 255.314 71.544C255.314 71.24 255.39 71.088 255.542 71.088C256.91 71.088 257.924 70.9613 258.582 70.708C259.241 70.404 259.697 69.8973 259.95 69.188C260.204 68.428 260.33 67.3133 260.33 65.844V26.552C260.33 24.728 260.153 23.4107 259.798 22.6C259.444 21.7893 258.81 21.384 257.898 21.384C257.138 21.384 255.973 21.7387 254.402 22.448H254.25C254.098 22.448 253.972 22.3213 253.87 22.068C253.769 21.8147 253.82 21.6627 254.022 21.612L263.522 16.976L263.902 16.9C264.054 16.9 264.206 16.976 264.358 17.128C264.51 17.2293 264.586 17.356 264.586 17.508V57.028L274.77 48.82C276.392 47.5533 277.202 46.4387 277.202 45.476C277.202 44.2093 275.758 43.576 272.87 43.576C272.718 43.576 272.642 43.424 272.642 43.12C272.642 42.816 272.718 42.664 272.87 42.664C274.238 42.664 275.277 42.6893 275.986 42.74L281.534 42.816L286.626 42.74C287.285 42.6893 288.197 42.664 289.362 42.664C289.514 42.664 289.59 42.816 289.59 43.12C289.59 43.424 289.514 43.576 289.362 43.576C287.488 43.576 285.41 44.032 283.13 44.944C280.85 45.856 278.57 47.224 276.29 49.048L271.882 52.544L281.534 65.844C284.068 69.34 286.981 71.088 290.274 71.088ZM294.926 72C294.825 72 294.774 71.848 294.774 71.544C294.774 71.24 294.825 71.088 294.926 71.088C296.294 71.088 297.308 70.9613 297.966 70.708C298.676 70.404 299.157 69.8973 299.41 69.188C299.664 68.428 299.79 67.3133 299.79 65.844V51.632C299.79 49.808 299.588 48.4907 299.182 47.68C298.828 46.8693 298.194 46.464 297.282 46.464C296.37 46.464 295.23 46.8187 293.862 47.528H293.786C293.584 47.528 293.432 47.4013 293.33 47.148C293.229 46.8947 293.254 46.7173 293.406 46.616L303.286 42.056L303.59 41.98C303.692 41.98 303.818 42.056 303.97 42.208C304.122 42.3093 304.198 42.436 304.198 42.588C304.198 42.9427 304.173 43.956 304.122 45.628C304.072 47.3 304.046 49.276 304.046 51.556V65.844C304.046 67.364 304.173 68.4787 304.426 69.188C304.68 69.8973 305.136 70.404 305.794 70.708C306.453 70.9613 307.466 71.088 308.834 71.088C308.986 71.088 309.062 71.24 309.062 71.544C309.062 71.848 308.986 72 308.834 72C307.669 72 306.732 71.9747 306.022 71.924L301.918 71.848L297.814 71.924C297.105 71.9747 296.142 72 294.926 72ZM301.31 33.088C300.246 33.088 299.41 32.8093 298.802 32.252C298.245 31.6947 297.966 30.9093 297.966 29.896C297.966 28.8827 298.245 28.0973 298.802 27.54C299.41 26.9827 300.246 26.704 301.31 26.704C302.324 26.704 303.109 26.9827 303.666 27.54C304.224 28.0973 304.502 28.8827 304.502 29.896C304.502 30.9093 304.224 31.6947 303.666 32.252C303.109 32.8093 302.324 33.088 301.31 33.088ZM349.3 71.088C349.452 71.088 349.528 71.24 349.528 71.544C349.528 71.848 349.452 72 349.3 72C348.134 72 347.222 71.9747 346.564 71.924L342.46 71.848L338.28 71.924C337.621 71.9747 336.709 72 335.544 72C335.392 72 335.316 71.848 335.316 71.544C335.316 71.24 335.392 71.088 335.544 71.088C336.912 71.088 337.925 70.9613 338.584 70.708C339.242 70.404 339.673 69.8973 339.876 69.188C340.129 68.4787 340.256 67.364 340.256 65.844V53.532C340.256 50.5427 339.673 48.3387 338.508 46.92C337.393 45.5013 335.645 44.792 333.264 44.792C331.693 44.792 330.097 45.2227 328.476 46.084C326.905 46.8947 325.461 48.0347 324.144 49.504V65.844C324.144 67.364 324.245 68.4787 324.448 69.188C324.701 69.8973 325.157 70.404 325.816 70.708C326.474 70.9613 327.488 71.088 328.856 71.088C329.008 71.088 329.084 71.24 329.084 71.544C329.084 71.848 329.008 72 328.856 72C327.69 72 326.778 71.9747 326.12 71.924L322.016 71.848L317.836 71.924C317.177 71.9747 316.265 72 315.1 72C314.948 72 314.872 71.848 314.872 71.544C314.872 71.24 314.948 71.088 315.1 71.088C316.468 71.088 317.481 70.9613 318.14 70.708C318.798 70.404 319.229 69.8973 319.432 69.188C319.685 68.4787 319.812 67.364 319.812 65.844V50.796C319.812 49.0733 319.609 47.832 319.204 47.072C318.798 46.312 318.114 45.932 317.152 45.932C316.341 45.932 314.973 46.312 313.048 47.072H312.896C312.693 47.072 312.541 46.9707 312.44 46.768C312.389 46.5147 312.465 46.3373 312.668 46.236L321.484 42.056C321.585 42.0053 321.737 41.98 321.94 41.98C322.396 41.98 322.877 42.5627 323.384 43.728C323.89 44.8933 324.144 46.388 324.144 48.212C326.069 45.9827 327.969 44.336 329.844 43.272C331.769 42.208 333.745 41.676 335.772 41.676C338.609 41.676 340.788 42.4613 342.308 44.032C343.828 45.6027 344.588 47.908 344.588 50.948V65.844C344.588 67.364 344.689 68.4787 344.892 69.188C345.145 69.8973 345.601 70.404 346.26 70.708C346.918 70.9613 347.932 71.088 349.3 71.088ZM368.497 72.912C365.204 72.912 362.443 72.2027 360.213 70.784C357.984 69.3147 356.337 67.44 355.273 65.16C354.209 62.88 353.677 60.4733 353.677 57.94C353.677 54.6973 354.488 51.8853 356.109 49.504C357.731 47.072 359.808 45.2227 362.341 43.956C364.925 42.6387 367.56 41.98 370.245 41.98C372.475 41.98 374.501 42.436 376.325 43.348C378.2 44.2093 379.137 45.2987 379.137 46.616C379.137 47.2747 378.884 47.8573 378.377 48.364C377.921 48.82 377.288 49.048 376.477 49.048C375.109 49.048 373.995 48.212 373.133 46.54C372.475 45.5267 371.765 44.7667 371.005 44.26C370.245 43.7533 369.156 43.5 367.737 43.5C364.9 43.5 362.671 44.6147 361.049 46.844C359.479 49.0227 358.693 51.9613 358.693 55.66C358.693 59.916 359.757 63.412 361.885 66.148C364.013 68.884 367.205 70.252 371.461 70.252C374.552 70.252 377.136 69.416 379.213 67.744H379.289C379.441 67.744 379.568 67.82 379.669 67.972C379.821 68.124 379.847 68.2507 379.745 68.352C377.972 69.9227 376.173 71.088 374.349 71.848C372.576 72.5573 370.625 72.912 368.497 72.912ZM413.356 67.896C413.559 67.896 413.686 68.0227 413.736 68.276C413.787 68.4787 413.711 68.6307 413.508 68.732L405.68 72.456C405.478 72.5573 405.275 72.608 405.072 72.608C404.414 72.608 403.831 72.1773 403.324 71.316C402.818 70.4547 402.488 69.264 402.336 67.744L397.624 70.252C396.054 71.0627 394.762 71.6453 393.748 72C392.735 72.3547 391.747 72.532 390.784 72.532C389.214 72.532 387.998 72.1267 387.136 71.316C386.326 70.4547 385.92 69.3907 385.92 68.124C385.92 66.756 386.427 65.6667 387.44 64.856C388.504 63.9947 390.379 63.108 393.064 62.196L402.26 58.928V52.62C402.26 49.276 401.83 46.9453 400.968 45.628C400.107 44.26 398.916 43.576 397.396 43.576C395.674 43.576 394.331 44.184 393.368 45.4C392.406 46.616 391.823 48.0853 391.62 49.808C391.418 51.7333 390.48 52.696 388.808 52.696C387.998 52.696 387.364 52.4933 386.908 52.088C386.452 51.6827 386.224 51.1253 386.224 50.416C386.224 49.2507 386.984 48.0093 388.504 46.692C390.024 45.3747 391.848 44.26 393.976 43.348C396.155 42.436 398.106 41.98 399.828 41.98C401.855 41.98 403.476 42.6893 404.692 44.108C405.908 45.476 406.516 47.5533 406.516 50.34V63.792C406.516 65.5653 406.744 66.8573 407.2 67.668C407.656 68.4787 408.416 68.884 409.48 68.884C410.443 68.884 411.684 68.5547 413.204 67.896H413.356ZM402.26 66.68V66.224V59.84L394.432 62.804C393.267 63.26 392.431 63.7667 391.924 64.324C391.468 64.8813 391.24 65.5907 391.24 66.452C391.24 67.516 391.544 68.352 392.152 68.96C392.76 69.5173 393.546 69.796 394.508 69.796C395.471 69.796 396.51 69.5427 397.624 69.036L402.26 66.68ZM434.556 41.98C435.671 41.98 436.735 42.284 437.748 42.892C438.762 43.5 439.268 44.2347 439.268 45.096C439.268 45.7547 439.04 46.312 438.584 46.768C438.179 47.224 437.571 47.452 436.76 47.452C436.304 47.452 435.899 47.376 435.544 47.224C435.24 47.0213 434.86 46.7427 434.404 46.388C433.948 45.9827 433.518 45.6787 433.112 45.476C432.707 45.2733 432.226 45.172 431.668 45.172C431.01 45.172 430.3 45.4507 429.54 46.008C428.831 46.5147 427.691 47.68 426.12 49.504V65.844C426.12 67.364 426.298 68.4787 426.652 69.188C427.058 69.8973 427.767 70.404 428.78 70.708C429.794 70.9613 431.364 71.088 433.492 71.088C433.695 71.088 433.796 71.24 433.796 71.544C433.796 71.848 433.695 72 433.492 72C431.871 72 430.579 71.9747 429.616 71.924L423.992 71.848L419.812 71.924C419.154 71.9747 418.242 72 417.076 72C416.924 72 416.848 71.848 416.848 71.544C416.848 71.24 416.924 71.088 417.076 71.088C418.444 71.088 419.458 70.9613 420.116 70.708C420.775 70.404 421.206 69.8973 421.408 69.188C421.662 68.4787 421.788 67.364 421.788 65.844V50.796C421.788 49.0733 421.586 47.832 421.18 47.072C420.775 46.312 420.091 45.932 419.128 45.932C418.318 45.932 416.95 46.312 415.024 47.072H414.872C414.67 47.072 414.518 46.9707 414.416 46.768C414.366 46.5147 414.442 46.3373 414.644 46.236L423.46 42.056C423.562 42.0053 423.714 41.98 423.916 41.98C424.372 41.98 424.854 42.5627 425.36 43.728C425.867 44.8933 426.12 46.388 426.12 48.212V48.288C428.198 45.856 429.844 44.2093 431.06 43.348C432.276 42.436 433.442 41.98 434.556 41.98ZM468.113 67.744C468.265 67.744 468.392 67.8453 468.493 68.048C468.645 68.2 468.671 68.352 468.569 68.504C465.124 71.4427 461.425 72.912 457.473 72.912C454.484 72.912 451.9 72.228 449.721 70.86C447.543 69.492 445.896 67.7187 444.781 65.54C443.717 63.3107 443.185 60.904 443.185 58.32C443.185 55.28 443.895 52.5187 445.313 50.036C446.783 47.5533 448.759 45.6027 451.241 44.184C453.724 42.7147 456.485 41.98 459.525 41.98C462.261 41.98 464.389 42.664 465.909 44.032C467.429 45.3493 468.189 47.1733 468.189 49.504C468.189 50.112 468.113 50.568 467.961 50.872C467.86 51.1253 467.632 51.252 467.277 51.252L448.581 51.404C448.328 52.772 448.201 54.0893 448.201 55.356C448.201 59.764 449.265 63.3613 451.393 66.148C453.521 68.884 456.46 70.252 460.209 70.252C463.097 70.252 465.707 69.416 468.037 67.744H468.113ZM456.941 43.5C454.864 43.5 453.116 44.108 451.697 45.324C450.329 46.4893 449.367 48.1613 448.809 50.34L462.945 50.036C462.945 47.9587 462.388 46.3627 461.273 45.248C460.209 44.0827 458.765 43.5 456.941 43.5ZM513.529 16.824C516.113 16.824 518.216 17.2293 519.837 18.04C521.509 18.8 522.345 19.7373 522.345 20.852C522.345 21.612 522.066 22.22 521.509 22.676C521.002 23.0813 520.394 23.284 519.685 23.284C519.077 23.284 518.545 23.132 518.089 22.828C517.633 22.524 517.152 22.0173 516.645 21.308C515.885 20.244 515.049 19.4587 514.137 18.952C513.276 18.3947 512.186 18.116 510.869 18.116C507.93 18.116 505.6 19.8133 503.877 23.208C502.154 26.6027 501.293 31.7453 501.293 38.636V43.5C503.624 43.4493 506.866 43.196 511.021 42.74C511.173 42.74 511.3 42.9173 511.401 43.272C511.502 43.6267 511.553 44.0573 511.553 44.564C511.553 44.9693 511.477 45.4 511.325 45.856C511.173 46.2613 510.996 46.4387 510.793 46.388C507.854 45.6787 504.688 45.2733 501.293 45.172V65.844C501.293 67.4147 501.47 68.5547 501.825 69.264C502.18 69.9733 502.864 70.4547 503.877 70.708C504.89 70.9613 506.512 71.088 508.741 71.088C508.893 71.088 508.969 71.24 508.969 71.544C508.969 71.848 508.893 72 508.741 72L503.877 71.924C502.813 71.8733 501.192 71.848 499.013 71.848L494.757 71.924C494.048 71.9747 493.034 72 491.717 72C491.565 72 491.489 71.848 491.489 71.544C491.489 71.24 491.565 71.088 491.717 71.088C493.237 71.088 494.352 70.9613 495.061 70.708C495.77 70.404 496.252 69.8973 496.505 69.188C496.809 68.4787 496.961 67.364 496.961 65.844V48.744C496.961 47.4267 496.834 46.5147 496.581 46.008C496.328 45.4507 495.821 45.096 495.061 44.944C494.352 44.7413 493.136 44.64 491.413 44.64C491.261 44.64 491.185 44.488 491.185 44.184C491.185 43.8293 491.261 43.652 491.413 43.652C493.49 43.652 494.884 43.424 495.593 42.968C496.353 42.4613 496.758 41.5493 496.809 40.232C497.062 32.024 498.557 26.0707 501.293 22.372C504.08 18.6733 508.158 16.824 513.529 16.824ZM529.997 72.988C527.059 72.988 524.449 72.2787 522.169 70.86C519.94 69.3907 518.217 67.44 517.001 65.008C515.785 62.5253 515.177 59.84 515.177 56.952C515.177 53.6587 515.963 50.872 517.533 48.592C519.155 46.2613 521.207 44.5387 523.689 43.424C526.223 42.2587 528.781 41.676 531.365 41.676C534.355 41.676 536.964 42.4107 539.193 43.88C541.423 45.3493 543.12 47.3 544.285 49.732C545.501 52.1133 546.109 54.6467 546.109 57.332C546.109 60.4733 545.375 63.2347 543.905 65.616C542.436 67.9467 540.46 69.7707 537.977 71.088C535.545 72.3547 532.885 72.988 529.997 72.988ZM532.201 71.544C534.988 71.544 537.141 70.556 538.661 68.58C540.181 66.604 540.941 63.564 540.941 59.46C540.941 56.3187 540.409 53.5067 539.345 51.024C538.332 48.5413 536.913 46.616 535.089 45.248C533.265 43.8293 531.188 43.12 528.857 43.12C526.121 43.12 523.993 44.108 522.473 46.084C521.004 48.06 520.269 50.8973 520.269 54.596C520.269 57.6867 520.776 60.524 521.789 63.108C522.803 65.692 524.221 67.744 526.045 69.264C527.869 70.784 529.921 71.544 532.201 71.544ZM569.709 41.98C570.823 41.98 571.887 42.284 572.901 42.892C573.914 43.5 574.421 44.2347 574.421 45.096C574.421 45.7547 574.193 46.312 573.737 46.768C573.331 47.224 572.723 47.452 571.913 47.452C571.457 47.452 571.051 47.376 570.697 47.224C570.393 47.0213 570.013 46.7427 569.557 46.388C569.101 45.9827 568.67 45.6787 568.265 45.476C567.859 45.2733 567.378 45.172 566.821 45.172C566.162 45.172 565.453 45.4507 564.693 46.008C563.983 46.5147 562.843 47.68 561.273 49.504V65.844C561.273 67.364 561.45 68.4787 561.805 69.188C562.21 69.8973 562.919 70.404 563.933 70.708C564.946 70.9613 566.517 71.088 568.645 71.088C568.847 71.088 568.949 71.24 568.949 71.544C568.949 71.848 568.847 72 568.645 72C567.023 72 565.731 71.9747 564.769 71.924L559.145 71.848L554.965 71.924C554.306 71.9747 553.394 72 552.229 72C552.077 72 552.001 71.848 552.001 71.544C552.001 71.24 552.077 71.088 552.229 71.088C553.597 71.088 554.61 70.9613 555.269 70.708C555.927 70.404 556.358 69.8973 556.561 69.188C556.814 68.4787 556.941 67.364 556.941 65.844V50.796C556.941 49.0733 556.738 47.832 556.333 47.072C555.927 46.312 555.243 45.932 554.281 45.932C553.47 45.932 552.102 46.312 550.177 47.072H550.025C549.822 47.072 549.67 46.9707 549.569 46.768C549.518 46.5147 549.594 46.3373 549.797 46.236L558.613 42.056C558.714 42.0053 558.866 41.98 559.069 41.98C559.525 41.98 560.006 42.5627 560.513 43.728C561.019 44.8933 561.273 46.388 561.273 48.212V48.288C563.35 45.856 564.997 44.2093 566.213 43.348C567.429 42.436 568.594 41.98 569.709 41.98ZM47.664 120.5C47.7653 120.5 47.816 120.652 47.816 120.956C47.816 121.26 47.7653 121.412 47.664 121.412C45.84 121.412 43.9907 122.096 42.116 123.464C40.2413 124.781 38.5693 126.605 37.1 128.936L26.916 144.592V161.844C26.916 163.415 27.068 164.555 27.372 165.264C27.676 165.973 28.2587 166.455 29.12 166.708C30.032 166.961 31.4507 167.088 33.376 167.088C33.528 167.088 33.604 167.24 33.604 167.544C33.604 167.848 33.528 168 33.376 168C31.8053 168 30.5893 167.975 29.728 167.924L24.408 167.848L19.164 167.924C18.252 167.975 17.0107 168 15.44 168C15.288 168 15.212 167.848 15.212 167.544C15.212 167.24 15.288 167.088 15.44 167.088C17.3653 167.088 18.7587 166.961 19.62 166.708C20.532 166.455 21.14 165.973 21.444 165.264C21.7987 164.504 21.976 163.364 21.976 161.844V145.808L9.36 127.34C7.94133 125.111 6.59867 123.565 5.332 122.704C4.06533 121.843 2.596 121.412 0.924 121.412C0.772 121.412 0.696 121.26 0.696 120.956C0.696 120.652 0.772 120.5 0.924 120.5C1.532 120.5 2.444 120.551 3.66 120.652L6.32 120.728C8.04267 120.728 10.2213 120.677 12.856 120.576L16.96 120.5C17.0613 120.5 17.112 120.652 17.112 120.956C17.112 121.26 17.0613 121.412 16.96 121.412C14.3253 121.412 13.008 121.944 13.008 123.008C13.008 123.565 13.2613 124.199 13.768 124.908L26.004 142.844L35.276 128.632C36.3907 126.859 36.948 125.364 36.948 124.148C36.948 122.324 35.58 121.412 32.844 121.412C32.7427 121.412 32.692 121.26 32.692 120.956C32.692 120.652 32.7427 120.5 32.844 120.5L36.416 120.576C38.3413 120.677 40.1147 120.728 41.736 120.728C42.5973 120.728 43.636 120.677 44.852 120.576L47.664 120.5ZM56.7787 168.988C53.84 168.988 51.2307 168.279 48.9507 166.86C46.7213 165.391 44.9987 163.44 43.7827 161.008C42.5667 158.525 41.9587 155.84 41.9587 152.952C41.9587 149.659 42.744 146.872 44.3147 144.592C45.936 142.261 47.988 140.539 50.4707 139.424C53.004 138.259 55.5627 137.676 58.1467 137.676C61.136 137.676 63.7453 138.411 65.9747 139.88C68.204 141.349 69.9013 143.3 71.0667 145.732C72.2827 148.113 72.8907 150.647 72.8907 153.332C72.8907 156.473 72.156 159.235 70.6867 161.616C69.2173 163.947 67.2413 165.771 64.7587 167.088C62.3267 168.355 59.6667 168.988 56.7787 168.988ZM58.9827 167.544C61.7693 167.544 63.9227 166.556 65.4427 164.58C66.9627 162.604 67.7227 159.564 67.7227 155.46C67.7227 152.319 67.1907 149.507 66.1267 147.024C65.1133 144.541 63.6947 142.616 61.8707 141.248C60.0467 139.829 57.9693 139.12 55.6387 139.12C52.9027 139.12 50.7747 140.108 49.2547 142.084C47.7853 144.06 47.0507 146.897 47.0507 150.596C47.0507 153.687 47.5573 156.524 48.5707 159.108C49.584 161.692 51.0027 163.744 52.8267 165.264C54.6507 166.784 56.7027 167.544 58.9827 167.544ZM112.602 163.668C112.805 163.668 112.931 163.795 112.982 164.048C113.083 164.251 113.033 164.403 112.83 164.504L103.938 168.684L103.634 168.76C103.127 168.76 102.646 168.177 102.19 167.012C101.734 165.847 101.506 164.327 101.506 162.452V162.148C99.5298 164.377 97.5538 166.024 95.5778 167.088C93.6018 168.101 91.5498 168.608 89.4218 168.608C86.8885 168.608 84.9125 167.823 83.4938 166.252C82.0752 164.631 81.3658 162.3 81.3658 159.26V147.632C81.3658 145.656 81.1885 144.237 80.8338 143.376C80.4792 142.464 79.8965 142.008 79.0858 142.008C78.3765 142.008 77.5152 142.261 76.5018 142.768H76.4258C76.2232 142.768 76.0712 142.641 75.9698 142.388C75.8685 142.084 75.9192 141.907 76.1218 141.856L84.5578 138.056L84.8618 137.98C85.0138 137.98 85.1658 138.056 85.3178 138.208C85.5205 138.309 85.6218 138.436 85.6218 138.588V156.752C85.6218 162.629 87.7498 165.568 92.0058 165.568C93.6272 165.568 95.2738 165.163 96.9458 164.352C98.6178 163.491 100.138 162.325 101.506 160.856V147.632C101.506 145.605 101.329 144.161 100.974 143.3C100.67 142.439 100.087 142.008 99.2258 142.008C98.5165 142.008 97.6552 142.261 96.6418 142.768H96.5658C96.3632 142.768 96.2112 142.641 96.1098 142.388C96.0592 142.084 96.1352 141.907 96.3378 141.856L104.774 138.056L105.002 137.98C105.154 137.98 105.306 138.056 105.458 138.208C105.661 138.309 105.762 138.436 105.762 138.588V159.868C105.762 161.591 105.965 162.832 106.37 163.592C106.775 164.352 107.459 164.732 108.422 164.732C109.283 164.732 110.626 164.377 112.45 163.668H112.602ZM133.97 137.98C135.085 137.98 136.149 138.284 137.162 138.892C138.176 139.5 138.682 140.235 138.682 141.096C138.682 141.755 138.454 142.312 137.998 142.768C137.593 143.224 136.985 143.452 136.174 143.452C135.718 143.452 135.313 143.376 134.958 143.224C134.654 143.021 134.274 142.743 133.818 142.388C133.362 141.983 132.932 141.679 132.526 141.476C132.121 141.273 131.64 141.172 131.082 141.172C130.424 141.172 129.714 141.451 128.954 142.008C128.245 142.515 127.105 143.68 125.534 145.504V161.844C125.534 163.364 125.712 164.479 126.066 165.188C126.472 165.897 127.181 166.404 128.194 166.708C129.208 166.961 130.778 167.088 132.906 167.088C133.109 167.088 133.21 167.24 133.21 167.544C133.21 167.848 133.109 168 132.906 168C131.285 168 129.993 167.975 129.03 167.924L123.406 167.848L119.226 167.924C118.568 167.975 117.656 168 116.49 168C116.338 168 116.262 167.848 116.262 167.544C116.262 167.24 116.338 167.088 116.49 167.088C117.858 167.088 118.872 166.961 119.53 166.708C120.189 166.404 120.62 165.897 120.822 165.188C121.076 164.479 121.202 163.364 121.202 161.844V146.796C121.202 145.073 121 143.832 120.594 143.072C120.189 142.312 119.505 141.932 118.542 141.932C117.732 141.932 116.364 142.312 114.438 143.072H114.286C114.084 143.072 113.932 142.971 113.83 142.768C113.78 142.515 113.856 142.337 114.058 142.236L122.874 138.056C122.976 138.005 123.128 137.98 123.33 137.98C123.786 137.98 124.268 138.563 124.774 139.728C125.281 140.893 125.534 142.388 125.534 144.212V144.288C127.612 141.856 129.258 140.209 130.474 139.348C131.69 138.436 132.856 137.98 133.97 137.98ZM183.798 141.248C187.801 141.552 191.018 142.895 193.45 145.276C195.933 147.607 197.174 150.52 197.174 154.016C197.174 156.701 196.516 159.133 195.198 161.312C193.881 163.491 192.057 165.213 189.726 166.48C187.446 167.696 184.888 168.304 182.05 168.304C180.378 168.304 178.554 168.228 176.578 168.076C175.869 168.025 175.033 167.975 174.07 167.924C173.108 167.873 172.044 167.848 170.878 167.848L165.71 167.924C164.798 167.975 163.506 168 161.834 168C161.733 168 161.682 167.848 161.682 167.544C161.682 167.24 161.733 167.088 161.834 167.088C163.76 167.088 165.178 166.961 166.09 166.708C167.002 166.404 167.636 165.897 167.99 165.188C168.345 164.479 168.522 163.364 168.522 161.844V126.656C168.522 125.136 168.345 124.021 167.99 123.312C167.686 122.603 167.078 122.121 166.166 121.868C165.254 121.564 163.861 121.412 161.986 121.412C161.834 121.412 161.758 121.26 161.758 120.956C161.758 120.652 161.834 120.5 161.986 120.5L165.71 120.576C167.838 120.677 169.561 120.728 170.878 120.728C171.79 120.728 172.626 120.703 173.386 120.652C174.197 120.601 174.881 120.551 175.438 120.5C177.009 120.348 178.478 120.272 179.846 120.272C184.102 120.272 187.294 121.209 189.422 123.084C191.55 124.908 192.614 127.315 192.614 130.304C192.614 132.736 191.829 134.915 190.258 136.84C188.688 138.715 186.534 140.184 183.798 141.248ZM178.174 121.412C176.857 121.412 175.869 121.513 175.21 121.716C174.602 121.919 174.146 122.4 173.842 123.16C173.538 123.92 173.386 125.136 173.386 126.808V141.248L176.806 141.324C180.505 141.324 183.241 140.387 185.014 138.512C186.788 136.587 187.674 134.053 187.674 130.912C187.674 128.075 186.889 125.795 185.318 124.072C183.798 122.299 181.417 121.412 178.174 121.412ZM180.91 166.936C184.609 166.936 187.345 165.999 189.118 164.124C190.942 162.199 191.854 159.463 191.854 155.916C191.854 152.065 190.714 148.949 188.434 146.568C186.205 144.187 183.114 142.971 179.162 142.92C177.541 142.869 175.616 142.92 173.386 143.072V161.844C173.386 163.161 173.564 164.175 173.918 164.884C174.324 165.593 175.058 166.125 176.122 166.48C177.237 166.784 178.833 166.936 180.91 166.936ZM228.609 163.744C228.761 163.744 228.888 163.845 228.989 164.048C229.141 164.2 229.167 164.352 229.065 164.504C225.62 167.443 221.921 168.912 217.969 168.912C214.98 168.912 212.396 168.228 210.217 166.86C208.039 165.492 206.392 163.719 205.277 161.54C204.213 159.311 203.681 156.904 203.681 154.32C203.681 151.28 204.391 148.519 205.809 146.036C207.279 143.553 209.255 141.603 211.737 140.184C214.22 138.715 216.981 137.98 220.021 137.98C222.757 137.98 224.885 138.664 226.405 140.032C227.925 141.349 228.685 143.173 228.685 145.504C228.685 146.112 228.609 146.568 228.457 146.872C228.356 147.125 228.128 147.252 227.773 147.252L209.077 147.404C208.824 148.772 208.697 150.089 208.697 151.356C208.697 155.764 209.761 159.361 211.889 162.148C214.017 164.884 216.956 166.252 220.705 166.252C223.593 166.252 226.203 165.416 228.533 163.744H228.609ZM217.437 139.5C215.36 139.5 213.612 140.108 212.193 141.324C210.825 142.489 209.863 144.161 209.305 146.34L223.441 146.036C223.441 143.959 222.884 142.363 221.769 141.248C220.705 140.083 219.261 139.5 217.437 139.5ZM263.138 163.896C263.34 163.896 263.467 164.023 263.518 164.276C263.568 164.479 263.492 164.631 263.29 164.732L255.462 168.456C255.259 168.557 255.056 168.608 254.854 168.608C254.195 168.608 253.612 168.177 253.106 167.316C252.599 166.455 252.27 165.264 252.118 163.744L247.406 166.252C245.835 167.063 244.543 167.645 243.53 168C242.516 168.355 241.528 168.532 240.566 168.532C238.995 168.532 237.779 168.127 236.918 167.316C236.107 166.455 235.702 165.391 235.702 164.124C235.702 162.756 236.208 161.667 237.222 160.856C238.286 159.995 240.16 159.108 242.846 158.196L252.042 154.928V148.62C252.042 145.276 251.611 142.945 250.75 141.628C249.888 140.26 248.698 139.576 247.178 139.576C245.455 139.576 244.112 140.184 243.15 141.4C242.187 142.616 241.604 144.085 241.402 145.808C241.199 147.733 240.262 148.696 238.59 148.696C237.779 148.696 237.146 148.493 236.69 148.088C236.234 147.683 236.006 147.125 236.006 146.416C236.006 145.251 236.766 144.009 238.286 142.692C239.806 141.375 241.63 140.26 243.758 139.348C245.936 138.436 247.887 137.98 249.61 137.98C251.636 137.98 253.258 138.689 254.474 140.108C255.69 141.476 256.298 143.553 256.298 146.34V159.792C256.298 161.565 256.526 162.857 256.982 163.668C257.438 164.479 258.198 164.884 259.262 164.884C260.224 164.884 261.466 164.555 262.986 163.896H263.138ZM252.042 162.68V162.224V155.84L244.214 158.804C243.048 159.26 242.212 159.767 241.706 160.324C241.25 160.881 241.022 161.591 241.022 162.452C241.022 163.516 241.326 164.352 241.934 164.96C242.542 165.517 243.327 165.796 244.29 165.796C245.252 165.796 246.291 165.543 247.406 165.036L252.042 162.68ZM300.45 163.668C300.652 163.668 300.779 163.795 300.83 164.048C300.931 164.251 300.88 164.403 300.678 164.504L291.786 168.684L291.482 168.76C290.975 168.76 290.494 168.177 290.038 167.012C289.582 165.847 289.354 164.327 289.354 162.452V162.148C287.378 164.377 285.402 166.024 283.426 167.088C281.45 168.101 279.398 168.608 277.27 168.608C274.736 168.608 272.76 167.823 271.342 166.252C269.923 164.631 269.214 162.3 269.214 159.26V147.632C269.214 145.656 269.036 144.237 268.682 143.376C268.327 142.464 267.744 142.008 266.934 142.008C266.224 142.008 265.363 142.261 264.35 142.768H264.274C264.071 142.768 263.919 142.641 263.818 142.388C263.716 142.084 263.767 141.907 263.97 141.856L272.406 138.056L272.71 137.98C272.862 137.98 273.014 138.056 273.166 138.208C273.368 138.309 273.469 138.436 273.469 138.588V156.752C273.469 162.629 275.598 165.568 279.854 165.568C281.475 165.568 283.122 165.163 284.794 164.352C286.466 163.491 287.986 162.325 289.354 160.856V147.632C289.354 145.605 289.176 144.161 288.822 143.3C288.518 142.439 287.935 142.008 287.074 142.008C286.364 142.008 285.503 142.261 284.49 142.768H284.414C284.211 142.768 284.059 142.641 283.958 142.388C283.907 142.084 283.983 141.907 284.186 141.856L292.622 138.056L292.85 137.98C293.002 137.98 293.154 138.056 293.306 138.208C293.508 138.309 293.61 138.436 293.61 138.588V159.868C293.61 161.591 293.812 162.832 294.218 163.592C294.623 164.352 295.307 164.732 296.27 164.732C297.131 164.732 298.474 164.377 300.298 163.668H300.45ZM324.554 164.048C324.757 164.048 324.909 164.175 325.01 164.428C325.111 164.631 325.086 164.783 324.934 164.884C323.059 166.353 321.362 167.392 319.842 168C318.373 168.608 316.827 168.912 315.206 168.912C313.078 168.912 311.33 168.431 309.962 167.468C308.594 166.505 307.91 164.909 307.91 162.68V144.82C307.91 143.503 307.809 142.565 307.606 142.008C307.454 141.451 307.125 141.096 306.618 140.944C306.111 140.741 305.25 140.64 304.034 140.64C303.831 140.64 303.73 140.488 303.73 140.184C303.73 139.829 303.831 139.652 304.034 139.652C306.061 139.601 307.707 139.069 308.974 138.056C310.241 136.992 310.975 135.599 311.178 133.876C311.178 133.724 311.381 133.648 311.786 133.648C312.141 133.648 312.318 133.724 312.318 133.876V139.5C314.851 139.449 318.373 139.196 322.882 138.74C322.983 138.74 323.085 138.943 323.186 139.348C323.338 139.703 323.414 140.108 323.414 140.564C323.414 140.969 323.313 141.4 323.11 141.856C322.958 142.261 322.781 142.439 322.578 142.388C319.791 141.679 316.371 141.273 312.318 141.172V160.096C312.318 162.173 312.825 163.719 313.838 164.732C314.902 165.745 316.397 166.252 318.322 166.252C320.653 166.252 322.679 165.543 324.402 164.124L324.554 164.048ZM330.626 168C330.524 168 330.474 167.848 330.474 167.544C330.474 167.24 330.524 167.088 330.626 167.088C331.994 167.088 333.007 166.961 333.666 166.708C334.375 166.404 334.856 165.897 335.11 165.188C335.363 164.428 335.49 163.313 335.49 161.844V147.632C335.49 145.808 335.287 144.491 334.882 143.68C334.527 142.869 333.894 142.464 332.982 142.464C332.07 142.464 330.93 142.819 329.562 143.528H329.486C329.283 143.528 329.131 143.401 329.03 143.148C328.928 142.895 328.954 142.717 329.106 142.616L338.986 138.056L339.29 137.98C339.391 137.98 339.518 138.056 339.67 138.208C339.822 138.309 339.898 138.436 339.898 138.588C339.898 138.943 339.872 139.956 339.822 141.628C339.771 143.3 339.746 145.276 339.746 147.556V161.844C339.746 163.364 339.872 164.479 340.126 165.188C340.379 165.897 340.835 166.404 341.494 166.708C342.152 166.961 343.166 167.088 344.534 167.088C344.686 167.088 344.762 167.24 344.762 167.544C344.762 167.848 344.686 168 344.534 168C343.368 168 342.431 167.975 341.722 167.924L337.618 167.848L333.514 167.924C332.804 167.975 331.842 168 330.626 168ZM337.01 129.088C335.946 129.088 335.11 128.809 334.502 128.252C333.944 127.695 333.666 126.909 333.666 125.896C333.666 124.883 333.944 124.097 334.502 123.54C335.11 122.983 335.946 122.704 337.01 122.704C338.023 122.704 338.808 122.983 339.366 123.54C339.923 124.097 340.202 124.883 340.202 125.896C340.202 126.909 339.923 127.695 339.366 128.252C338.808 128.809 338.023 129.088 337.01 129.088ZM371.623 112.824C374.207 112.824 376.31 113.229 377.931 114.04C379.603 114.8 380.439 115.737 380.439 116.852C380.439 117.612 380.16 118.22 379.603 118.676C379.096 119.081 378.488 119.284 377.779 119.284C377.171 119.284 376.639 119.132 376.183 118.828C375.727 118.524 375.246 118.017 374.739 117.308C373.979 116.244 373.143 115.459 372.231 114.952C371.37 114.395 370.28 114.116 368.963 114.116C366.024 114.116 363.694 115.813 361.971 119.208C360.248 122.603 359.387 127.745 359.387 134.636V139.5C361.718 139.449 364.96 139.196 369.115 138.74C369.267 138.74 369.394 138.917 369.495 139.272C369.596 139.627 369.647 140.057 369.647 140.564C369.647 140.969 369.571 141.4 369.419 141.856C369.267 142.261 369.09 142.439 368.887 142.388C365.948 141.679 362.782 141.273 359.387 141.172V161.844C359.387 163.415 359.564 164.555 359.919 165.264C360.274 165.973 360.958 166.455 361.971 166.708C362.984 166.961 364.606 167.088 366.835 167.088C366.987 167.088 367.063 167.24 367.063 167.544C367.063 167.848 366.987 168 366.835 168L361.971 167.924C360.907 167.873 359.286 167.848 357.107 167.848L352.851 167.924C352.142 167.975 351.128 168 349.811 168C349.659 168 349.583 167.848 349.583 167.544C349.583 167.24 349.659 167.088 349.811 167.088C351.331 167.088 352.446 166.961 353.155 166.708C353.864 166.404 354.346 165.897 354.599 165.188C354.903 164.479 355.055 163.364 355.055 161.844V144.744C355.055 143.427 354.928 142.515 354.675 142.008C354.422 141.451 353.915 141.096 353.155 140.944C352.446 140.741 351.23 140.64 349.507 140.64C349.355 140.64 349.279 140.488 349.279 140.184C349.279 139.829 349.355 139.652 349.507 139.652C351.584 139.652 352.978 139.424 353.687 138.968C354.447 138.461 354.852 137.549 354.903 136.232C355.156 128.024 356.651 122.071 359.387 118.372C362.174 114.673 366.252 112.824 371.623 112.824ZM407.547 163.668C407.75 163.668 407.876 163.795 407.927 164.048C408.028 164.251 407.978 164.403 407.775 164.504L398.883 168.684L398.579 168.76C398.072 168.76 397.591 168.177 397.135 167.012C396.679 165.847 396.451 164.327 396.451 162.452V162.148C394.475 164.377 392.499 166.024 390.523 167.088C388.547 168.101 386.495 168.608 384.367 168.608C381.834 168.608 379.858 167.823 378.439 166.252C377.02 164.631 376.311 162.3 376.311 159.26V147.632C376.311 145.656 376.134 144.237 375.779 143.376C375.424 142.464 374.842 142.008 374.031 142.008C373.322 142.008 372.46 142.261 371.447 142.768H371.371C371.168 142.768 371.016 142.641 370.915 142.388C370.814 142.084 370.864 141.907 371.067 141.856L379.503 138.056L379.807 137.98C379.959 137.98 380.111 138.056 380.263 138.208C380.466 138.309 380.567 138.436 380.567 138.588V156.752C380.567 162.629 382.695 165.568 386.951 165.568C388.572 165.568 390.219 165.163 391.891 164.352C393.563 163.491 395.083 162.325 396.451 160.856V147.632C396.451 145.605 396.274 144.161 395.919 143.3C395.615 142.439 395.032 142.008 394.171 142.008C393.462 142.008 392.6 142.261 391.587 142.768H391.511C391.308 142.768 391.156 142.641 391.055 142.388C391.004 142.084 391.08 141.907 391.283 141.856L399.719 138.056L399.947 137.98C400.099 137.98 400.251 138.056 400.403 138.208C400.606 138.309 400.707 138.436 400.707 138.588V159.868C400.707 161.591 400.91 162.832 401.315 163.592C401.72 164.352 402.404 164.732 403.367 164.732C404.228 164.732 405.571 164.377 407.395 163.668H407.547ZM411.056 168C410.904 168 410.828 167.848 410.828 167.544C410.828 167.24 410.904 167.088 411.056 167.088C412.424 167.088 413.437 166.961 414.096 166.708C414.754 166.404 415.21 165.897 415.464 165.188C415.717 164.428 415.844 163.313 415.844 161.844V122.552C415.844 120.728 415.666 119.411 415.312 118.6C414.957 117.789 414.324 117.384 413.412 117.384C412.652 117.384 411.486 117.739 409.916 118.448H409.764C409.612 118.448 409.485 118.321 409.384 118.068C409.333 117.815 409.384 117.663 409.536 117.612L419.264 112.976C419.365 112.925 419.492 112.9 419.644 112.9C419.745 112.9 419.872 112.976 420.024 113.128C420.226 113.229 420.328 113.356 420.328 113.508V161.844C420.328 163.313 420.429 164.403 420.632 165.112C420.885 165.821 421.341 166.328 422 166.632C422.658 166.936 423.672 167.088 425.04 167.088C425.192 167.088 425.268 167.24 425.268 167.544C425.268 167.848 425.192 168 425.04 168C423.925 168 423.013 167.975 422.304 167.924L418.048 167.848L413.944 167.924C413.234 167.975 412.272 168 411.056 168ZM456.442 129.392C456.442 131.368 456.923 133.091 457.886 134.56C458.849 136.029 460.014 137.271 461.382 138.284C462.75 139.247 464.675 140.488 467.158 142.008C469.793 143.579 471.845 144.896 473.314 145.96C474.783 147.024 476.025 148.392 477.038 150.064C478.102 151.685 478.634 153.636 478.634 155.916C478.634 158.348 478.026 160.552 476.81 162.528C475.594 164.504 473.795 166.075 471.414 167.24C469.083 168.355 466.271 168.912 462.978 168.912C459.077 168.912 455.505 168.025 452.262 166.252C452.009 166.1 451.831 165.923 451.73 165.72C451.679 165.517 451.629 165.213 451.578 164.808L450.59 154.472C450.539 154.269 450.641 154.143 450.894 154.092C451.198 154.041 451.375 154.117 451.426 154.32C452.237 157.968 453.731 161.109 455.91 163.744C458.139 166.379 461.078 167.696 464.726 167.696C467.259 167.696 469.387 167.012 471.11 165.644C472.883 164.225 473.77 161.996 473.77 158.956C473.77 156.676 473.263 154.7 472.25 153.028C471.237 151.356 469.995 149.988 468.526 148.924C467.107 147.809 465.157 146.517 462.674 145.048C460.242 143.579 458.317 142.312 456.898 141.248C455.53 140.184 454.365 138.841 453.402 137.22C452.439 135.599 451.958 133.699 451.958 131.52C451.958 128.987 452.617 126.833 453.934 125.06C455.302 123.236 457.05 121.893 459.178 121.032C461.357 120.12 463.662 119.664 466.094 119.664C469.083 119.664 472.047 120.272 474.986 121.488C475.746 121.741 476.126 122.172 476.126 122.78L476.658 131.52C476.658 131.723 476.531 131.824 476.278 131.824C476.025 131.824 475.873 131.723 475.822 131.52C475.417 128.885 474.327 126.453 472.554 124.224C470.781 121.944 468.222 120.804 464.878 120.804C462.041 120.804 459.913 121.64 458.494 123.312C457.126 124.933 456.442 126.96 456.442 129.392ZM519.462 167.088C519.614 167.088 519.69 167.24 519.69 167.544C519.69 167.848 519.614 168 519.462 168C518.297 168 517.359 167.975 516.65 167.924L512.546 167.848L507.074 167.924C506.263 167.975 505.174 168 503.806 168C503.705 168 503.654 167.848 503.654 167.544C503.654 167.24 503.705 167.088 503.806 167.088C506.339 167.088 507.606 166.607 507.606 165.644C507.606 165.188 507.378 164.631 506.922 163.972L497.574 151.28L493.774 154.244V161.844C493.774 163.313 493.901 164.428 494.154 165.188C494.407 165.897 494.863 166.404 495.522 166.708C496.181 166.961 497.194 167.088 498.562 167.088C498.714 167.088 498.79 167.24 498.79 167.544C498.79 167.848 498.714 168 498.562 168C497.397 168 496.459 167.975 495.75 167.924L491.646 167.848L487.542 167.924C486.833 167.975 485.895 168 484.73 168C484.578 168 484.502 167.848 484.502 167.544C484.502 167.24 484.578 167.088 484.73 167.088C486.098 167.088 487.111 166.961 487.77 166.708C488.429 166.404 488.885 165.897 489.138 165.188C489.391 164.428 489.518 163.313 489.518 161.844V122.552C489.518 120.728 489.341 119.411 488.986 118.6C488.631 117.789 487.998 117.384 487.086 117.384C486.326 117.384 485.161 117.739 483.59 118.448H483.438C483.286 118.448 483.159 118.321 483.058 118.068C482.957 117.815 483.007 117.663 483.21 117.612L492.71 112.976L493.09 112.9C493.242 112.9 493.394 112.976 493.546 113.128C493.698 113.229 493.774 113.356 493.774 113.508V153.028L503.958 144.82C505.579 143.553 506.39 142.439 506.39 141.476C506.39 140.209 504.946 139.576 502.058 139.576C501.906 139.576 501.83 139.424 501.83 139.12C501.83 138.816 501.906 138.664 502.058 138.664C503.426 138.664 504.465 138.689 505.174 138.74L510.722 138.816L515.814 138.74C516.473 138.689 517.385 138.664 518.55 138.664C518.702 138.664 518.778 138.816 518.778 139.12C518.778 139.424 518.702 139.576 518.55 139.576C516.675 139.576 514.598 140.032 512.318 140.944C510.038 141.856 507.758 143.224 505.478 145.048L501.07 148.544L510.722 161.844C513.255 165.34 516.169 167.088 519.462 167.088ZM524.114 168C524.013 168 523.962 167.848 523.962 167.544C523.962 167.24 524.013 167.088 524.114 167.088C525.482 167.088 526.495 166.961 527.154 166.708C527.863 166.404 528.345 165.897 528.598 165.188C528.851 164.428 528.978 163.313 528.978 161.844V147.632C528.978 145.808 528.775 144.491 528.37 143.68C528.015 142.869 527.382 142.464 526.47 142.464C525.558 142.464 524.418 142.819 523.05 143.528H522.974C522.771 143.528 522.619 143.401 522.518 143.148C522.417 142.895 522.442 142.717 522.594 142.616L532.474 138.056L532.778 137.98C532.879 137.98 533.006 138.056 533.158 138.208C533.31 138.309 533.386 138.436 533.386 138.588C533.386 138.943 533.361 139.956 533.31 141.628C533.259 143.3 533.234 145.276 533.234 147.556V161.844C533.234 163.364 533.361 164.479 533.614 165.188C533.867 165.897 534.323 166.404 534.982 166.708C535.641 166.961 536.654 167.088 538.022 167.088C538.174 167.088 538.25 167.24 538.25 167.544C538.25 167.848 538.174 168 538.022 168C536.857 168 535.919 167.975 535.21 167.924L531.106 167.848L527.002 167.924C526.293 167.975 525.33 168 524.114 168ZM530.498 129.088C529.434 129.088 528.598 128.809 527.99 128.252C527.433 127.695 527.154 126.909 527.154 125.896C527.154 124.883 527.433 124.097 527.99 123.54C528.598 122.983 529.434 122.704 530.498 122.704C531.511 122.704 532.297 122.983 532.854 123.54C533.411 124.097 533.69 124.883 533.69 125.896C533.69 126.909 533.411 127.695 532.854 128.252C532.297 128.809 531.511 129.088 530.498 129.088ZM578.487 167.088C578.639 167.088 578.715 167.24 578.715 167.544C578.715 167.848 578.639 168 578.487 168C577.322 168 576.41 167.975 575.751 167.924L571.647 167.848L567.467 167.924C566.809 167.975 565.897 168 564.731 168C564.579 168 564.503 167.848 564.503 167.544C564.503 167.24 564.579 167.088 564.731 167.088C566.099 167.088 567.113 166.961 567.771 166.708C568.43 166.404 568.861 165.897 569.063 165.188C569.317 164.479 569.443 163.364 569.443 161.844V149.532C569.443 146.543 568.861 144.339 567.695 142.92C566.581 141.501 564.833 140.792 562.451 140.792C560.881 140.792 559.285 141.223 557.663 142.084C556.093 142.895 554.649 144.035 553.331 145.504V161.844C553.331 163.364 553.433 164.479 553.635 165.188C553.889 165.897 554.345 166.404 555.003 166.708C555.662 166.961 556.675 167.088 558.043 167.088C558.195 167.088 558.271 167.24 558.271 167.544C558.271 167.848 558.195 168 558.043 168C556.878 168 555.966 167.975 555.307 167.924L551.203 167.848L547.023 167.924C546.365 167.975 545.453 168 544.287 168C544.135 168 544.059 167.848 544.059 167.544C544.059 167.24 544.135 167.088 544.287 167.088C545.655 167.088 546.669 166.961 547.327 166.708C547.986 166.404 548.417 165.897 548.619 165.188C548.873 164.479 548.999 163.364 548.999 161.844V146.796C548.999 145.073 548.797 143.832 548.391 143.072C547.986 142.312 547.302 141.932 546.339 141.932C545.529 141.932 544.161 142.312 542.235 143.072H542.083C541.881 143.072 541.729 142.971 541.627 142.768C541.577 142.515 541.653 142.337 541.855 142.236L550.671 138.056C550.773 138.005 550.925 137.98 551.127 137.98C551.583 137.98 552.065 138.563 552.571 139.728C553.078 140.893 553.331 142.388 553.331 144.212C555.257 141.983 557.157 140.336 559.031 139.272C560.957 138.208 562.933 137.676 564.959 137.676C567.797 137.676 569.975 138.461 571.495 140.032C573.015 141.603 573.775 143.908 573.775 146.948V161.844C573.775 163.364 573.877 164.479 574.079 165.188C574.333 165.897 574.789 166.404 575.447 166.708C576.106 166.961 577.119 167.088 578.487 167.088Z"
    fill="#469597"
  />
</svg>
